# Created by FreeCAD <http://www.freecad.org>
v 45.792454 124.989037 60.000000
v 45.863735 119.676170 60.000000
v 44.676174 120.863739 60.000000
v 43.254128 121.757263 60.000000
v 51.546986 114.978104 60.000000
v 46.757267 118.254128 60.000000
v 41.668907 122.311958 60.000000
v 47.311958 116.668907 60.000000
v 40.000000 122.500000 60.000000
v 47.500000 115.000000 60.000000
v 47.311958 113.331093 60.000000
v 38.331093 122.311958 60.000000
v 34.245468 125.010925 60.000000
v 36.745872 121.757263 60.000000
v 46.757267 111.745872 60.000000
v 35.323826 120.863739 60.000000
v 34.136265 119.676170 60.000000
v 33.242733 118.254128 60.000000
v 44.676174 109.136261 60.000000
v 45.754532 104.989075 60.000000
v 43.254128 108.242737 60.000000
v 45.863735 110.323830 60.000000
v 41.668907 107.688042 60.000000
v 40.000000 107.500000 60.000000
v 32.688042 113.331093 60.000000
v 28.453016 115.021896 60.000000
v 32.500000 115.000000 60.000000
v 33.242733 111.745872 60.000000
v 32.688042 116.668907 60.000000
v 34.136265 110.323830 60.000000
v 34.207546 105.010963 60.000000
v 35.323826 109.136261 60.000000
v 36.745872 108.242737 60.000000
v 38.331093 107.688042 60.000000
v 45.754532 104.989075 115.000000
v 34.207546 105.010963 115.000000
v 28.453016 115.021896 115.000000
v 34.245468 125.010925 115.000000
v 45.792454 124.989037 115.000000
v 51.546986 114.978104 115.000000
v 32.500000 115.000000 15.000000
v 32.688042 113.331093 15.000000
v 33.242733 111.745872 15.000000
v 34.136265 110.323830 15.000000
v 35.323826 109.136261 15.000000
v 36.745872 108.242737 15.000000
v 38.331093 107.688042 15.000000
v 40.000000 107.500000 15.000000
v 41.668907 107.688042 15.000000
v 43.254128 108.242737 15.000000
v 44.676174 109.136261 15.000000
v 45.863735 110.323830 15.000000
v 46.757267 111.745872 15.000000
v 47.311958 113.331093 15.000000
v 47.500000 115.000000 15.000000
v 47.311958 116.668907 15.000000
v 46.757267 118.254128 15.000000
v 45.863735 119.676170 15.000000
v 44.676174 120.863739 15.000000
v 43.254128 121.757263 15.000000
v 41.668907 122.311958 15.000000
v 40.000000 122.500000 15.000000
v 38.331093 122.311958 15.000000
v 36.745872 121.757263 15.000000
v 35.323826 120.863739 15.000000
v 34.136265 119.676170 15.000000
v 33.242733 118.254128 15.000000
v 32.688042 116.668907 15.000000
vn 0.000000 -0.000000 -1.000000
vn 0.000000 0.000000 -1.000000
vn 0.000000 0.000000 -1.000000
vn 0.000000 0.000000 -1.000000
vn 0.000000 0.000000 -1.000000
vn 0.000000 0.000000 -1.000000
vn 0.000000 0.000000 -1.000000
vn 0.000000 0.000000 -1.000000
vn -0.000000 0.000000 -1.000000
vn 0.000000 0.000000 -1.000000
vn 0.000000 0.000000 -1.000000
vn -0.000000 0.000000 -1.000000
vn 0.000000 0.000000 -1.000000
vn -0.000000 0.000000 -1.000000
vn -0.000000 0.000000 -1.000000
vn -0.000000 0.000000 -1.000000
vn 0.000000 -0.000000 -1.000000
vn 0.000000 0.000000 -1.000000
vn 0.000000 0.000000 -1.000000
vn 0.000000 0.000000 -1.000000
vn 0.000000 0.000000 -1.000000
vn 0.000000 0.000000 -1.000000
vn 0.000000 0.000000 -1.000000
vn 0.000000 0.000000 -1.000000
vn -0.000000 0.000000 -1.000000
vn 0.000000 0.000000 -1.000000
vn -0.000000 0.000000 -1.000000
vn -0.000000 -0.000000 -1.000000
vn -0.000000 0.000000 -1.000000
vn -0.000000 0.000000 -1.000000
vn -0.000000 0.000000 -1.000000
vn -0.000000 0.000000 -1.000000
vn -0.000000 -0.000000 -1.000000
vn 0.000000 0.000000 -1.000000
vn -0.001896 -0.999998 -0.000000
vn -0.001896 -0.999998 0.000000
vn -0.866972 -0.498357 -0.000000
vn -0.866972 -0.498357 0.000000
vn -0.865076 0.501641 0.000000
vn -0.865076 0.501641 0.000000
vn 0.001896 0.999998 0.000000
vn 0.001896 0.999998 0.000000
vn 0.866972 0.498357 0.000000
vn 0.866972 0.498357 0.000000
vn 0.865076 -0.501641 0.000000
vn 0.865076 -0.501641 0.000000
vn 0.000000 0.000000 1.000000
vn 0.000000 0.000000 1.000000
vn 0.000000 0.000000 1.000000
vn 0.000000 0.000000 1.000000
vn -0.993712 -0.111965 0.000000
vn -0.993712 -0.111965 -0.000000
vn -0.943884 -0.330278 -0.000000
vn -0.943884 -0.330278 0.000000
vn -0.846723 -0.532033 -0.000000
vn -0.846723 -0.532033 0.000000
vn -0.707109 -0.707105 -0.000000
vn -0.532029 -0.846726 -0.000000
vn -0.707109 -0.707105 0.000000
vn -0.532029 -0.846726 -0.000000
vn -0.330280 -0.943883 -0.000000
vn -0.330280 -0.943883 0.000000
vn -0.111965 -0.993712 -0.000000
vn 0.111965 -0.993712 0.000000
vn -0.111965 -0.993712 0.000000
vn 0.111965 -0.993712 0.000000
vn 0.330280 -0.943883 0.000000
vn 0.532029 -0.846726 0.000000
vn 0.330280 -0.943883 0.000000
vn 0.532029 -0.846726 0.000000
vn 0.707109 -0.707105 0.000000
vn 0.707109 -0.707105 0.000000
vn 0.846723 -0.532033 0.000000
vn 0.846723 -0.532033 0.000000
vn 0.943884 -0.330278 0.000000
vn 0.943884 -0.330278 0.000000
vn 0.993712 -0.111965 0.000000
vn 0.993712 -0.111965 0.000000
vn 0.993712 0.111965 0.000000
vn 0.993712 0.111965 0.000000
vn 0.943884 0.330278 0.000000
vn 0.943884 0.330278 0.000000
vn 0.846723 0.532033 0.000000
vn 0.846723 0.532033 0.000000
vn 0.707109 0.707105 0.000000
vn 0.707109 0.707105 0.000000
vn 0.532029 0.846726 0.000000
vn 0.532029 0.846726 0.000000
vn 0.330280 0.943883 0.000000
vn 0.330280 0.943883 0.000000
vn 0.111965 0.993712 0.000000
vn 0.111965 0.993712 0.000000
vn -0.111965 0.993712 0.000000
vn -0.111965 0.993712 0.000000
vn -0.330280 0.943883 0.000000
vn -0.330280 0.943883 0.000000
vn -0.532029 0.846726 0.000000
vn -0.532029 0.846726 0.000000
vn -0.707109 0.707105 0.000000
vn -0.846723 0.532033 0.000000
vn -0.707109 0.707105 0.000000
vn -0.846723 0.532033 0.000000
vn -0.943884 0.330278 0.000000
vn -0.943884 0.330278 0.000000
vn -0.993712 0.111965 0.000000
vn -0.993712 0.111965 0.000000
vn 0.000000 0.000000 -1.000000
vn 0.000000 0.000000 -1.000000
vn 0.000000 0.000000 -1.000000
vn 0.000000 0.000000 -1.000000
vn 0.000000 0.000000 -1.000000
vn 0.000000 0.000000 -1.000000
vn 0.000000 0.000000 -1.000000
vn 0.000000 -0.000000 -1.000000
vn 0.000000 0.000000 -1.000000
vn 0.000000 -0.000000 -1.000000
vn 0.000000 -0.000000 -1.000000
vn 0.000000 0.000000 -1.000000
vn 0.000000 0.000000 -1.000000
vn 0.000000 0.000000 -1.000000
vn 0.000000 0.000000 -1.000000
vn 0.000000 -0.000000 -1.000000
vn 0.000000 -0.000000 -1.000000
vn 0.000000 -0.000000 -1.000000
vn 0.000000 0.000000 -1.000000
vn 0.000000 0.000000 -1.000000
vn 0.000000 0.000000 -1.000000
vn 0.000000 0.000000 -1.000000
vn -0.000000 -0.000000 -1.000000
vn 0.000000 0.000000 -1.000000
vn 0.000000 0.000000 -1.000000
vn 0.000000 0.000000 -1.000000
f 1//1 2//1 3//1
f 3//2 4//2 1//2
f 5//3 6//3 1//3
f 1//4 6//4 2//4
f 4//5 7//5 1//5
f 5//6 8//6 6//6
f 7//7 9//7 1//7
f 5//8 10//8 8//8
f 5//9 11//9 10//9
f 12//10 13//10 9//10
f 9//11 13//11 1//11
f 12//12 14//12 13//12
f 5//13 15//13 11//13
f 14//14 16//14 13//14
f 16//15 17//15 13//15
f 17//16 18//16 13//16
f 19//17 20//17 21//17
f 22//18 20//18 19//18
f 15//19 20//19 22//19
f 5//20 20//20 15//20
f 20//21 23//21 21//21
f 20//22 24//22 23//22
f 25//23 26//23 27//23
f 28//24 26//24 25//24
f 29//25 26//25 18//25
f 27//26 26//26 29//26
f 18//27 26//27 13//27
f 30//28 31//28 28//28
f 32//29 31//29 30//29
f 33//30 31//30 32//30
f 34//31 31//31 33//31
f 24//32 31//32 34//32
f 28//33 31//33 26//33
f 20//34 31//34 24//34
f 35//35 31//35 20//35
f 35//36 36//36 31//36
f 36//37 26//37 31//37
f 36//38 37//38 26//38
f 37//39 13//39 26//39
f 37//40 38//40 13//40
f 38//41 1//41 13//41
f 38//42 39//42 1//42
f 39//43 5//43 1//43
f 39//44 40//44 5//44
f 40//45 20//45 5//45
f 40//46 35//46 20//46
f 35//47 37//47 36//47
f 40//48 37//48 35//48
f 39//49 38//49 37//49
f 39//50 37//50 40//50
f 25//51 27//51 41//51
f 25//52 41//52 42//52
f 28//53 42//53 43//53
f 28//54 25//54 42//54
f 30//55 43//55 44//55
f 30//56 28//56 43//56
f 32//57 44//57 45//57
f 32//58 45//58 46//58
f 32//59 30//59 44//59
f 33//60 32//60 46//60
f 34//61 46//61 47//61
f 34//62 33//62 46//62
f 24//63 47//63 48//63
f 24//64 48//64 49//64
f 24//65 34//65 47//65
f 23//66 24//66 49//66
f 21//67 49//67 50//67
f 21//68 50//68 51//68
f 21//69 23//69 49//69
f 19//70 21//70 51//70
f 19//71 51//71 52//71
f 22//72 19//72 52//72
f 15//73 22//73 52//73
f 15//74 52//74 53//74
f 15//75 53//75 54//75
f 11//76 15//76 54//76
f 10//77 11//77 54//77
f 10//78 54//78 55//78
f 8//79 10//79 55//79
f 8//80 55//80 56//80
f 8//81 56//81 57//81
f 6//82 8//82 57//82
f 2//83 6//83 57//83
f 2//84 57//84 58//84
f 2//85 58//85 59//85
f 3//86 2//86 59//86
f 3//87 59//87 60//87
f 4//88 3//88 60//88
f 4//89 60//89 61//89
f 7//90 4//90 61//90
f 9//91 7//91 61//91
f 9//92 61//92 62//92
f 9//93 62//93 63//93
f 12//94 9//94 63//94
f 14//95 63//95 64//95
f 14//96 12//96 63//96
f 16//97 64//97 65//97
f 16//98 14//98 64//98
f 17//99 65//99 66//99
f 17//100 66//100 67//100
f 17//101 16//101 65//101
f 18//102 17//102 67//102
f 29//103 67//103 68//103
f 29//104 18//104 67//104
f 27//105 68//105 41//105
f 27//106 29//106 68//106
f 43//107 42//107 44//107
f 44//108 49//108 45//108
f 45//109 49//109 46//109
f 46//110 49//110 47//110
f 47//111 49//111 48//111
f 42//112 49//112 44//112
f 41//113 67//113 42//113
f 68//114 67//114 41//114
f 50//115 52//115 51//115
f 66//116 65//116 67//116
f 67//117 65//117 42//117
f 49//118 53//118 50//118
f 42//119 53//119 49//119
f 50//120 53//120 52//120
f 53//121 62//121 54//121
f 63//122 62//122 64//122
f 64//123 62//123 65//123
f 65//124 62//124 42//124
f 42//125 62//125 53//125
f 54//126 56//126 55//126
f 62//127 56//127 54//127
f 56//128 60//128 57//128
f 61//129 60//129 62//129
f 62//130 60//130 56//130
f 60//131 59//131 57//131
f 59//132 58//132 57//132
