# Rescaled and Centered by PostProcess
v -0.015000 -0.030500 -0.005000
v 0.015000 -0.080500 -0.005000
v 0.015000 -0.030500 -0.005000
v -0.015000 -0.080500 -0.005000
v 0.015000 -0.080500 -0.050000
v -0.015000 -0.080500 -0.050000
v 0.015000 -0.020500 -0.050000
v -0.015000 -0.020500 -0.050000
v 0.015000 -0.020500 0.022000
v -0.015000 -0.020500 0.022000
v 0.015000 0.020500 0.022000
v -0.015000 0.020500 0.022000
v 0.015000 0.020500 -0.050000
v -0.015000 0.020500 -0.050000
v 0.015000 0.080500 -0.050000
v -0.015000 0.080500 -0.050000
v 0.015000 0.080500 -0.005000
v -0.015000 0.080500 -0.005000
v 0.015000 0.030500 -0.005000
v -0.015000 0.030500 -0.005000
v 0.015000 0.030500 0.050000
v -0.015000 0.030500 0.050000
v 0.015000 -0.030500 0.050000
v -0.015000 -0.030500 0.050000
# Created by FreeCAD <http://www.freecad.org>
vn -0.000000 0.000000 1.000000
vn 0.000000 0.000000 1.000000
vn 0.000000 -1.000000 0.000000
vn 0.000000 -1.000000 0.000000
vn 0.000000 0.000000 -1.000000
vn 0.000000 0.000000 -1.000000
vn 0.000000 1.000000 0.000000
vn 0.000000 1.000000 0.000000
vn 0.000000 0.000000 -1.000000
vn 0.000000 0.000000 -1.000000
vn 0.000000 -1.000000 0.000000
vn 0.000000 -1.000000 0.000000
vn 0.000000 0.000000 -1.000000
vn 0.000000 0.000000 -1.000000
vn 0.000000 1.000000 0.000000
vn 0.000000 1.000000 0.000000
vn -0.000000 0.000000 1.000000
vn 0.000000 0.000000 1.000000
vn 0.000000 1.000000 0.000000
vn 0.000000 1.000000 0.000000
vn -0.000000 0.000000 1.000000
vn 0.000000 0.000000 1.000000
vn 0.000000 -1.000000 0.000000
vn 0.000000 -1.000000 0.000000
vn -1.000000 0.000000 -0.000000
vn -1.000000 -0.000000 0.000000
vn -1.000000 0.000000 0.000000
vn -1.000000 -0.000000 -0.000000
vn -1.000000 0.000000 0.000000
vn -1.000000 0.000000 0.000000
vn -1.000000 0.000000 -0.000000
vn -1.000000 0.000000 0.000000
vn -1.000000 0.000000 0.000000
vn -1.000000 0.000000 0.000000
vn 1.000000 0.000000 0.000000
vn 1.000000 -0.000000 0.000000
vn 1.000000 0.000000 -0.000000
vn 1.000000 0.000000 0.000000
vn 1.000000 -0.000000 0.000000
vn 1.000000 0.000000 0.000000
vn 1.000000 0.000000 -0.000000
vn 1.000000 0.000000 0.000000
vn 1.000000 0.000000 -0.000000
vn 1.000000 0.000000 0.000000
f 1//1 2//1 3//1
f 1//2 4//2 2//2
f 4//3 5//3 2//3
f 4//4 6//4 5//4
f 6//5 7//5 5//5
f 6//6 8//6 7//6
f 8//7 9//7 7//7
f 8//8 10//8 9//8
f 10//9 11//9 9//9
f 10//10 12//10 11//10
f 12//11 13//11 11//11
f 12//12 14//12 13//12
f 14//13 15//13 13//13
f 14//14 16//14 15//14
f 16//15 17//15 15//15
f 16//16 18//16 17//16
f 18//17 19//17 17//17
f 18//18 20//18 19//18
f 20//19 21//19 19//19
f 20//20 22//20 21//20
f 22//21 23//21 21//21
f 22//22 24//22 23//22
f 24//23 3//23 23//23
f 24//24 1//24 3//24
f 1//25 8//25 6//25
f 1//26 6//26 4//26
f 16//27 14//27 20//27
f 18//28 16//28 20//28
f 1//29 24//29 10//29
f 1//30 10//30 8//30
f 22//31 20//31 12//31
f 14//32 12//32 20//32
f 12//33 10//33 24//33
f 12//34 24//34 22//34
f 5//35 3//35 2//35
f 23//36 11//36 21//36
f 9//37 11//37 23//37
f 5//38 7//38 3//38
f 19//39 15//39 17//39
f 13//40 15//40 19//40
f 19//41 21//41 11//41
f 11//42 13//42 19//42
f 7//43 9//43 23//43
f 7//44 23//44 3//44
