# Rescaled and Centered by PostProcess
v -0.017000 -0.082500 -0.020000
v -0.017000 -0.020500 0.015000
v -0.017000 -0.082500 0.025000
v -0.017000 -0.020500 0.025000
v -0.017000 -0.018500 -0.020000
v -0.017000 -0.018500 0.015000
v 0.017000 -0.018500 -0.020000
v 0.017000 -0.018500 0.015000
v 0.017000 -0.082500 -0.020000
v 0.017000 -0.082500 0.025000
v 0.017000 -0.020500 0.015000
v 0.017000 -0.020500 0.025000
v 0.017000 0.082500 -0.020000
v 0.017000 0.020500 0.015000
v 0.017000 0.082500 0.025000
v 0.017000 0.020500 0.025000
v 0.017000 0.018500 -0.020000
v 0.017000 0.018500 0.015000
v -0.017000 0.018500 -0.020000
v -0.017000 0.018500 0.015000
v -0.017000 0.082500 -0.020000
v -0.017000 0.082500 0.025000
v -0.017000 0.020500 0.015000
v -0.017000 0.020500 0.025000
v 0.051000 -0.020500 0.015000
v 0.051000 -0.020500 0.025000
v -0.051000 -0.020500 0.015000
v -0.051000 -0.020500 0.025000
v 0.051000 0.020500 0.015000
v -0.051000 0.020500 0.015000
v -0.051000 0.020500 0.025000
v 0.051000 0.020500 0.025000
v -0.051000 0.052000 0.025000
v -0.051000 0.052000 -0.020000
v -0.051000 -0.052000 0.025000
v -0.051000 -0.052000 -0.020000
v -0.085000 0.052000 0.025000
v -0.085000 0.052000 -0.020000
v -0.085000 -0.052000 0.025000
v -0.085000 -0.020500 0.015000
v -0.085000 -0.020500 0.025000
v -0.085000 -0.052000 -0.020000
v -0.085000 0.020500 0.015000
v -0.085000 0.020500 0.025000
v 0.085000 0.052000 0.025000
v 0.085000 0.020500 0.015000
v 0.085000 0.020500 0.025000
v 0.085000 0.052000 -0.020000
v 0.085000 -0.020500 0.015000
v 0.085000 -0.052000 0.025000
v 0.085000 -0.020500 0.025000
v 0.085000 -0.052000 -0.020000
v 0.051000 0.052000 -0.020000
v 0.051000 0.052000 0.025000
v 0.051000 -0.052000 0.025000
v 0.051000 -0.052000 -0.020000
v 0.102000 0.020500 0.015000
v 0.102000 0.020500 0.025000
v -0.102000 0.020500 0.015000
v -0.102000 0.020500 0.025000
v 0.102000 -0.020500 0.015000
v -0.102000 -0.020500 0.015000
v 0.102000 -0.020500 0.025000
v -0.102000 -0.020500 0.025000
v -0.115000 0.115000 0.025000
v 0.115000 0.115000 -0.025000
v -0.115000 0.115000 -0.025000
v 0.115000 0.115000 0.025000
v 0.115000 -0.115000 -0.025000
v 0.115000 -0.115000 0.025000
v -0.115000 -0.115000 -0.025000
v -0.115000 -0.115000 0.025000
# Created by FreeCAD <http://www.freecad.org>
vn 1.000000 0.000000 0.000000
vn 1.000000 -0.000000 0.000000
vn 1.000000 -0.000000 0.000000
vn 1.000000 0.000000 0.000000
vn 0.000000 -1.000000 0.000000
vn 0.000000 -1.000000 0.000000
vn 0.000000 1.000000 -0.000000
vn 0.000000 1.000000 0.000000
vn -1.000000 -0.000000 -0.000000
vn -1.000000 0.000000 0.000000
vn -1.000000 0.000000 0.000000
vn -1.000000 -0.000000 0.000000
vn 0.000000 -0.000000 1.000000
vn 0.000000 0.000000 1.000000
vn -1.000000 0.000000 0.000000
vn -1.000000 -0.000000 0.000000
vn -1.000000 -0.000000 0.000000
vn -1.000000 0.000000 0.000000
vn 0.000000 1.000000 -0.000000
vn 0.000000 1.000000 0.000000
vn 0.000000 -1.000000 0.000000
vn 0.000000 -1.000000 0.000000
vn 1.000000 -0.000000 0.000000
vn 1.000000 0.000000 0.000000
vn 1.000000 0.000000 0.000000
vn 1.000000 -0.000000 0.000000
vn 0.000000 -0.000000 1.000000
vn 0.000000 0.000000 1.000000
vn 0.000000 1.000000 -0.000000
vn 0.000000 1.000000 0.000000
vn 0.000000 1.000000 0.000000
vn 0.000000 1.000000 -0.000000
vn 0.000000 0.000000 1.000000
vn 0.000000 -0.000000 1.000000
vn 0.000000 0.000000 1.000000
vn 0.000000 0.000000 1.000000
vn 0.000000 0.000000 1.000000
vn 0.000000 0.000000 1.000000
vn 0.000000 0.000000 1.000000
vn 0.000000 0.000000 1.000000
vn 0.000000 0.000000 1.000000
vn 0.000000 0.000000 1.000000
vn 0.000000 -1.000000 0.000000
vn 0.000000 -1.000000 0.000000
vn 0.000000 -1.000000 0.000000
vn 0.000000 -1.000000 0.000000
vn -1.000000 -0.000000 0.000000
vn -1.000000 0.000000 -0.000000
vn -1.000000 0.000000 0.000000
vn -1.000000 -0.000000 0.000000
vn -1.000000 -0.000000 0.000000
vn -1.000000 0.000000 0.000000
vn 0.000000 -1.000000 0.000000
vn 0.000000 -1.000000 0.000000
vn 1.000000 -0.000000 0.000000
vn 1.000000 0.000000 0.000000
vn 1.000000 0.000000 0.000000
vn 1.000000 -0.000000 0.000000
vn 1.000000 -0.000000 0.000000
vn 1.000000 0.000000 0.000000
vn 0.000000 1.000000 0.000000
vn 0.000000 1.000000 0.000000
vn 0.000000 0.000000 1.000000
vn 0.000000 0.000000 1.000000
vn -1.000000 -0.000000 0.000000
vn -1.000000 0.000000 -0.000000
vn -1.000000 0.000000 0.000000
vn -1.000000 -0.000000 0.000000
vn -1.000000 -0.000000 0.000000
vn -1.000000 0.000000 0.000000
vn 0.000000 -1.000000 0.000000
vn 0.000000 -1.000000 0.000000
vn 1.000000 -0.000000 0.000000
vn 1.000000 0.000000 0.000000
vn 1.000000 0.000000 0.000000
vn 1.000000 -0.000000 0.000000
vn 1.000000 -0.000000 0.000000
vn 1.000000 0.000000 0.000000
vn 0.000000 1.000000 -0.000000
vn 0.000000 1.000000 0.000000
vn 0.000000 0.000000 1.000000
vn 0.000000 0.000000 1.000000
vn 0.000000 -1.000000 0.000000
vn 0.000000 -1.000000 0.000000
vn 0.000000 -1.000000 0.000000
vn 0.000000 -1.000000 0.000000
vn 0.000000 0.000000 1.000000
vn 0.000000 0.000000 1.000000
vn 0.000000 0.000000 1.000000
vn 0.000000 0.000000 1.000000
vn 0.000000 1.000000 -0.000000
vn 0.000000 1.000000 0.000000
vn 0.000000 1.000000 0.000000
vn 0.000000 1.000000 -0.000000
vn -1.000000 0.000000 0.000000
vn -1.000000 0.000000 0.000000
vn 1.000000 0.000000 0.000000
vn 1.000000 0.000000 0.000000
vn 0.000000 1.000000 0.000000
vn -0.000000 1.000000 0.000000
vn 1.000000 0.000000 0.000000
vn 1.000000 0.000000 0.000000
vn 0.000000 -1.000000 -0.000000
vn -0.000000 -1.000000 0.000000
vn -1.000000 0.000000 0.000000
vn -1.000000 0.000000 0.000000
vn 0.000000 0.000000 1.000000
vn 0.000000 0.000000 1.000000
vn 0.000000 0.000000 1.000000
vn 0.000000 0.000000 1.000000
vn 0.000000 0.000000 1.000000
vn 0.000000 0.000000 1.000000
vn 0.000000 0.000000 1.000000
vn 0.000000 0.000000 1.000000
vn 0.000000 0.000000 1.000000
vn 0.000000 0.000000 1.000000
vn 0.000000 0.000000 1.000000
vn 0.000000 0.000000 1.000000
vn 0.000000 0.000000 1.000000
vn 0.000000 0.000000 1.000000
vn 0.000000 0.000000 1.000000
vn 0.000000 0.000000 1.000000
vn 0.000000 0.000000 1.000000
vn 0.000000 0.000000 1.000000
vn 0.000000 0.000000 1.000000
vn 0.000000 0.000000 1.000000
vn 0.000000 0.000000 1.000000
vn 0.000000 0.000000 1.000000
vn 0.000000 0.000000 1.000000
vn 0.000000 0.000000 1.000000
vn 0.000000 0.000000 1.000000
vn 0.000000 0.000000 1.000000
vn 0.000000 0.000000 1.000000
vn 0.000000 0.000000 1.000000
vn 0.000000 -0.000000 1.000000
vn 0.000000 0.000000 1.000000
vn 0.000000 0.000000 1.000000
vn 0.000000 0.000000 1.000000
vn 0.000000 0.000000 -1.000000
vn 0.000000 0.000000 -1.000000
f 1//1 2//1 3//1
f 3//2 2//2 4//2
f 2//3 5//3 6//3
f 1//4 5//4 2//4
f 5//5 7//5 6//5
f 6//6 7//6 8//6
f 9//7 1//7 10//7
f 10//8 1//8 3//8
f 8//9 7//9 11//9
f 11//10 10//10 12//10
f 7//11 9//11 11//11
f 11//12 9//12 10//12
f 9//13 7//13 1//13
f 7//14 5//14 1//14
f 13//15 14//15 15//15
f 15//16 14//16 16//16
f 14//17 17//17 18//17
f 13//18 17//18 14//18
f 17//19 19//19 18//19
f 18//20 19//20 20//20
f 21//21 13//21 22//21
f 22//22 13//22 15//22
f 20//23 19//23 23//23
f 23//24 22//24 24//24
f 19//25 21//25 23//25
f 23//26 21//26 22//26
f 17//27 13//27 19//27
f 13//28 21//28 19//28
f 25//29 11//29 26//29
f 26//30 11//30 12//30
f 4//31 27//31 28//31
f 2//32 27//32 4//32
f 25//33 8//33 11//33
f 25//34 29//34 8//34
f 29//35 18//35 8//35
f 29//36 14//36 18//36
f 6//37 27//37 2//37
f 8//38 20//38 6//38
f 18//39 20//39 8//39
f 23//40 30//40 20//40
f 6//41 30//41 27//41
f 20//42 30//42 6//42
f 30//43 23//43 31//43
f 31//44 23//44 24//44
f 16//45 29//45 32//45
f 14//46 29//46 16//46
f 33//47 30//47 31//47
f 33//48 34//48 30//48
f 27//49 35//49 28//49
f 30//50 36//50 27//50
f 27//51 36//51 35//51
f 34//52 36//52 30//52
f 37//53 38//53 33//53
f 38//54 34//54 33//54
f 39//55 40//55 41//55
f 39//56 42//56 40//56
f 43//57 37//57 44//57
f 40//58 38//58 43//58
f 43//59 38//59 37//59
f 42//60 38//60 40//60
f 35//61 36//61 39//61
f 36//62 42//62 39//62
f 34//63 38//63 36//63
f 36//64 38//64 42//64
f 45//65 46//65 47//65
f 45//66 48//66 46//66
f 49//67 50//67 51//67
f 46//68 52//68 49//68
f 49//69 52//69 50//69
f 48//70 52//70 46//70
f 53//71 48//71 54//71
f 54//72 48//72 45//72
f 55//73 25//73 26//73
f 55//74 56//74 25//74
f 29//75 54//75 32//75
f 25//76 53//76 29//76
f 29//77 53//77 54//77
f 56//78 53//78 25//78
f 52//79 56//79 50//79
f 50//80 56//80 55//80
f 48//81 53//81 52//81
f 52//82 53//82 56//82
f 47//83 57//83 58//83
f 46//84 57//84 47//84
f 59//85 44//85 60//85
f 59//86 43//86 44//86
f 57//87 46//87 61//87
f 61//88 46//88 49//88
f 40//89 59//89 62//89
f 43//90 59//90 40//90
f 61//91 49//91 63//91
f 63//92 49//92 51//92
f 41//93 62//93 64//93
f 40//94 62//94 41//94
f 57//95 63//95 58//95
f 57//96 61//96 63//96
f 62//97 60//97 64//97
f 62//98 59//98 60//98
f 65//99 66//99 67//99
f 65//100 68//100 66//100
f 68//101 69//101 66//101
f 68//102 70//102 69//102
f 70//103 71//103 69//103
f 70//104 72//104 71//104
f 72//105 67//105 71//105
f 72//106 65//106 67//106
f 64//107 72//107 39//107
f 41//108 64//108 39//108
f 35//109 39//109 72//109
f 3//110 35//110 72//110
f 4//111 28//111 35//111
f 4//112 35//112 3//112
f 37//113 60//113 44//113
f 55//114 12//114 10//114
f 65//115 60//115 37//115
f 70//116 10//116 3//116
f 70//117 3//117 72//117
f 70//118 55//118 10//118
f 33//119 65//119 37//119
f 24//120 33//120 31//120
f 26//121 12//121 55//121
f 50//122 55//122 70//122
f 22//123 65//123 33//123
f 22//124 33//124 24//124
f 63//125 51//125 50//125
f 63//126 50//126 70//126
f 54//127 15//127 16//127
f 54//128 16//128 32//128
f 45//129 47//129 58//129
f 68//130 54//130 45//130
f 68//131 15//131 54//131
f 68//132 45//132 58//132
f 65//133 72//133 64//133
f 65//134 64//134 60//134
f 70//135 68//135 58//135
f 70//136 58//136 63//136
f 68//137 65//137 22//137
f 68//138 22//138 15//138
f 71//139 67//139 69//139
f 67//140 66//140 69//140
