# Rescaled and Centered by PostProcess
v 0.000000 0.000000 0.000000
v 0.000000 0.000000 -0.000000
v 0.000000 -0.000000 0.000000
v 0.000000 -0.000000 -0.000000
v 0.000000 -0.000000 -0.000000
v 0.000000 -0.000000 0.000000
v 0.000000 -0.000000 -0.000000
v 0.000000 -0.000000 0.000000
v 0.000000 -0.000000 -0.000000
v 0.000000 -0.000000 0.000000
v 0.000000 -0.000000 -0.000000
v 0.000000 -0.000000 0.000000
v 0.000000 -0.000000 0.000000
v 0.000000 -0.000000 -0.000000
v 0.000000 -0.000000 -0.000000
v 0.000000 -0.000000 0.000000
v 0.000000 -0.000000 0.000000
v 0.000000 -0.000000 -0.000000
v 0.000000 -0.000000 -0.000000
v 0.000000 -0.000000 0.000000
v 0.000000 -0.000000 -0.000000
v 0.000000 -0.000000 0.000000
v 0.000000 -0.000000 0.000000
v 0.000000 -0.000000 -0.000000
v 0.000000 -0.000000 -0.000000
v 0.000000 -0.000000 0.000000
v 0.000000 -0.000000 -0.000000
v 0.000000 -0.000000 0.000000
v 0.000000 -0.000000 -0.000000
v 0.000000 -0.000000 0.000000
v 0.000000 -0.000000 0.000000
v 0.000000 -0.000000 -0.000000
v 0.000000 -0.000000 -0.000000
v 0.000000 -0.000000 0.000000
v 0.000000 -0.000000 -0.000000
v 0.000000 -0.000000 0.000000
v 0.000000 -0.000000 -0.000000
v 0.000000 -0.000000 0.000000
v 0.000000 -0.000000 -0.000000
v 0.000000 -0.000000 0.000000
v 0.000000 -0.000000 -0.000000
v 0.000000 -0.000000 0.000000
v 0.000000 -0.000000 -0.000000
v 0.000000 -0.000000 0.000000
v 0.000000 -0.000000 -0.000000
v 0.000000 -0.000000 0.000000
v 0.000000 -0.000000 -0.000000
v 0.000000 -0.000000 0.000000
v 0.000000 -0.000000 0.000000
v 0.000000 -0.000000 -0.000000
v 0.000000 -0.000000 -0.000000
v 0.000000 -0.000000 0.000000
v 0.000000 -0.000000 -0.000000
v 0.000000 -0.000000 0.000000
v 0.000000 -0.000000 -0.000000
v 0.000000 -0.000000 0.000000
v 0.000000 -0.000000 -0.000000
v 0.000000 -0.000000 0.000000
v 0.000000 -0.000000 -0.000000
v 0.000000 -0.000000 0.000000
v 0.000000 -0.000000 -0.000000
v 0.000000 -0.000000 0.000000
v 0.000000 -0.000000 -0.000000
v 0.000000 -0.000000 0.000000
v 0.000000 -0.000000 0.000000
v 0.000000 -0.000000 -0.000000
v 0.000000 -0.000000 -0.000000
v 0.000000 -0.000000 0.000000
v 0.000000 -0.000000 0.000000
v 0.000000 -0.000000 -0.000000
v 0.000000 -0.000000 -0.000000
v 0.000000 -0.000000 0.000000
v 0.000000 -0.000000 -0.000000
v 0.000000 -0.000000 0.000000
v 0.000000 -0.000000 -0.000000
v 0.000000 -0.000000 0.000000
v 0.000000 -0.000000 0.000000
v 0.000000 -0.000000 -0.000000
v 0.000000 -0.000000 -0.000000
v 0.000000 -0.000000 0.000000
v 0.000000 -0.000000 -0.000000
v 0.000000 -0.000000 0.000000
v 0.000000 -0.000000 0.000000
v 0.000000 -0.000000 -0.000000
v 0.000000 -0.000000 -0.000000
v 0.000000 -0.000000 0.000000
v 0.000000 -0.000000 -0.000000
v 0.000000 -0.000000 0.000000
v 0.000000 -0.000000 0.000000
v 0.000000 -0.000000 -0.000000
v 0.000000 -0.000000 -0.000000
v 0.000000 -0.000000 0.000000
v 0.000000 -0.000000 -0.000000
v 0.000000 -0.000000 0.000000
v 0.000000 -0.000000 0.000000
v 0.000000 -0.000000 -0.000000
v 0.000000 -0.000000 -0.000000
v 0.000000 -0.000000 0.000000
v 0.000000 -0.000000 -0.000000
v 0.000000 -0.000000 0.000000
v 0.000000 -0.000000 -0.000000
v 0.000000 -0.000000 0.000000
v 0.000000 -0.000000 0.000000
v 0.000000 -0.000000 -0.000000
v 0.000000 -0.000000 -0.000000
v 0.000000 -0.000000 0.000000
v 0.000000 -0.000000 -0.000000
v 0.000000 -0.000000 0.000000
v 0.000000 -0.000000 0.000000
v 0.000000 -0.000000 -0.000000
v 0.000000 -0.000000 -0.000000
v 0.000000 -0.000000 0.000000
v 0.000000 -0.000000 -0.000000
v 0.000000 -0.000000 0.000000
v 0.000000 -0.000000 0.000000
v 0.000000 -0.000000 -0.000000
v 0.000000 -0.000000 -0.000000
v 0.000000 -0.000000 0.000000
v 0.000000 -0.000000 -0.000000
v 0.000000 -0.000000 0.000000
v 0.000000 -0.000000 0.000000
v 0.000000 -0.000000 -0.000000
v 0.000000 -0.000000 -0.000000
v 0.000000 -0.000000 0.000000
v 0.000000 -0.000000 -0.000000
v 0.000000 -0.000000 0.000000
v 0.000000 0.000000 -0.000000
v 0.000000 0.000000 0.000000
v 0.000000 0.000000 0.000000
v 0.000000 0.000000 -0.000000
v 0.000000 0.000000 -0.000000
v 0.000000 0.000000 0.000000
v 0.000000 0.000000 -0.000000
v 0.000000 0.000000 0.000000
v 0.000000 0.000000 0.000000
v 0.000000 0.000000 -0.000000
v 0.000000 0.000000 -0.000000
v 0.000000 0.000000 0.000000
v 0.000000 0.000000 -0.000000
v 0.000000 0.000000 0.000000
v 0.000000 0.000000 0.000000
v 0.000000 0.000000 -0.000000
v 0.000000 0.000000 -0.000000
v 0.000000 0.000000 0.000000
v 0.000000 0.000000 -0.000000
v 0.000000 0.000000 0.000000
v 0.000000 0.000000 -0.000000
v 0.000000 0.000000 0.000000
v 0.000000 0.000000 -0.000000
v 0.000000 0.000000 0.000000
v 0.000000 0.000000 0.000000
v 0.000000 0.000000 -0.000000
v 0.000000 0.000000 -0.000000
v 0.000000 0.000000 0.000000
v 0.000000 0.000000 -0.000000
v 0.000000 0.000000 0.000000
v 0.000000 0.000000 -0.000000
v 0.000000 0.000000 0.000000
v 0.000000 0.000000 0.000000
v 0.000000 0.000000 -0.000000
v 0.000000 0.000000 -0.000000
v 0.000000 0.000000 0.000000
v 0.000000 0.000000 0.000000
v 0.000000 0.000000 -0.000000
v 0.000000 0.000000 -0.000000
v 0.000000 0.000000 0.000000
v 0.000000 0.000000 -0.000000
v 0.000000 0.000000 0.000000
v 0.000000 0.000000 -0.000000
v 0.000000 0.000000 0.000000
v 0.000000 0.000000 0.000000
v 0.000000 0.000000 -0.000000
v 0.000000 0.000000 -0.000000
v 0.000000 0.000000 0.000000
v 0.000000 0.000000 0.000000
v 0.000000 0.000000 -0.000000
v 0.000000 0.000000 -0.000000
v 0.000000 0.000000 0.000000
v 0.000000 0.000000 -0.000000
v 0.000000 0.000000 0.000000
v 0.000000 0.000000 -0.000000
v 0.000000 0.000000 0.000000
v 0.000000 0.000000 0.000000
v 0.000000 0.000000 -0.000000
v 0.000000 0.000000 -0.000000
v 0.000000 0.000000 0.000000
v 0.000000 0.000000 0.000000
v 0.000000 0.000000 -0.000000
v 0.000000 0.000000 0.000000
v 0.000000 0.000000 -0.000000
v 0.000000 0.000000 -0.000000
v 0.000000 0.000000 0.000000
v 0.000000 0.000000 0.000000
v 0.000000 0.000000 -0.000000
v 0.000000 0.000000 -0.000000
v 0.000000 0.000000 0.000000
v 0.000000 0.000000 0.000000
v 0.000000 0.000000 -0.000000
v 0.000000 0.000000 -0.000000
v 0.000000 0.000000 0.000000
v 0.000000 0.000000 -0.000000
v 0.000000 0.000000 0.000000
v 0.000000 0.000000 -0.000000
v 0.000000 0.000000 0.000000
v 0.000000 0.000000 0.000000
v 0.000000 0.000000 -0.000000
v 0.000000 0.000000 -0.000000
v 0.000000 0.000000 0.000000
v 0.000000 0.000000 0.000000
v 0.000000 0.000000 -0.000000
v 0.000000 0.000000 -0.000000
v 0.000000 0.000000 0.000000
v 0.000000 0.000000 -0.000000
v 0.000000 0.000000 0.000000
v 0.000000 0.000000 -0.000000
v 0.000000 0.000000 0.000000
v 0.000000 0.000000 0.000000
v 0.000000 0.000000 -0.000000
v 0.000000 0.000000 -0.000000
v 0.000000 0.000000 0.000000
v 0.000000 0.000000 -0.000000
v 0.000000 0.000000 0.000000
v 0.000000 0.000000 -0.000000
v 0.000000 0.000000 0.000000
v 0.000000 0.000000 -0.000000
v 0.000000 0.000000 0.000000
v 0.000000 0.000000 0.000000
v 0.000000 0.000000 -0.000000
v 0.000000 0.000000 -0.000000
v 0.000000 0.000000 0.000000
v 0.000000 0.000000 -0.000000
v 0.000000 0.000000 0.000000
v 0.000000 0.000000 0.000000
v 0.000000 0.000000 -0.000000
v 0.000000 0.000000 -0.000000
v 0.000000 0.000000 0.000000
v 0.000000 0.000000 -0.000000
v 0.000000 0.000000 0.000000
v 0.000000 0.000000 -0.000000
v 0.000000 0.000000 0.000000
v 0.000000 0.000000 -0.000000
v 0.000000 0.000000 0.000000
v 0.000000 0.000000 -0.000000
v 0.000000 0.000000 0.000000
v 0.000000 0.000000 -0.000000
v 0.000000 0.000000 0.000000
v 0.000000 0.000000 0.000000
v 0.000000 0.000000 -0.000000
v 0.000000 0.000000 -0.000000
v 0.000000 0.000000 0.000000
v 0.000000 0.000000 -0.000000
v 0.000000 0.000000 0.000000
v -0.000000 0.000000 0.000000
v -0.000000 0.000000 -0.000000
v -0.000000 -0.000000 0.000000
v -0.000000 -0.000000 -0.000000
v -0.000000 -0.000000 -0.000000
v -0.000000 -0.000000 0.000000
v -0.000000 -0.000000 -0.000000
v -0.000000 -0.000000 0.000000
v -0.000000 -0.000000 -0.000000
v -0.000000 -0.000000 0.000000
v -0.000000 -0.000000 -0.000000
v -0.000000 -0.000000 0.000000
v -0.000000 -0.000000 0.000000
v -0.000000 -0.000000 -0.000000
v -0.000000 -0.000000 -0.000000
v -0.000000 -0.000000 0.000000
v -0.000000 -0.000000 0.000000
v -0.000000 -0.000000 -0.000000
v -0.000000 -0.000000 -0.000000
v -0.000000 -0.000000 0.000000
v -0.000000 -0.000000 -0.000000
v -0.000000 -0.000000 0.000000
v -0.000000 -0.000000 0.000000
v -0.000000 -0.000000 -0.000000
v -0.000000 -0.000000 -0.000000
v -0.000000 -0.000000 0.000000
v -0.000000 -0.000000 -0.000000
v -0.000000 -0.000000 0.000000
v -0.000000 -0.000000 -0.000000
v -0.000000 -0.000000 0.000000
v -0.000000 -0.000000 0.000000
v -0.000000 -0.000000 -0.000000
v -0.000000 -0.000000 -0.000000
v -0.000000 -0.000000 0.000000
v -0.000000 -0.000000 -0.000000
v -0.000000 -0.000000 0.000000
v -0.000000 -0.000000 -0.000000
v -0.000000 -0.000000 0.000000
v -0.000000 -0.000000 -0.000000
v -0.000000 -0.000000 0.000000
v -0.000000 -0.000000 -0.000000
v -0.000000 -0.000000 0.000000
v -0.000000 -0.000000 -0.000000
v -0.000000 -0.000000 0.000000
v -0.000000 -0.000000 -0.000000
v -0.000000 -0.000000 0.000000
v -0.000000 -0.000000 -0.000000
v -0.000000 -0.000000 0.000000
v -0.000000 -0.000000 0.000000
v -0.000000 -0.000000 -0.000000
v -0.000000 -0.000000 -0.000000
v -0.000000 -0.000000 0.000000
v -0.000000 -0.000000 -0.000000
v -0.000000 -0.000000 0.000000
v -0.000000 -0.000000 -0.000000
v -0.000000 -0.000000 0.000000
v -0.000000 -0.000000 -0.000000
v -0.000000 -0.000000 0.000000
v -0.000000 -0.000000 -0.000000
v -0.000000 -0.000000 0.000000
v -0.000000 -0.000000 -0.000000
v -0.000000 -0.000000 0.000000
v -0.000000 -0.000000 -0.000000
v -0.000000 -0.000000 0.000000
v -0.000000 -0.000000 0.000000
v -0.000000 -0.000000 -0.000000
v -0.000000 -0.000000 -0.000000
v -0.000000 -0.000000 0.000000
v -0.000000 -0.000000 0.000000
v -0.000000 -0.000000 -0.000000
v -0.000000 -0.000000 -0.000000
v -0.000000 -0.000000 0.000000
v -0.000000 -0.000000 -0.000000
v -0.000000 -0.000000 0.000000
v -0.000000 -0.000000 -0.000000
v -0.000000 -0.000000 0.000000
v -0.000000 -0.000000 0.000000
v -0.000000 -0.000000 -0.000000
v -0.000000 -0.000000 -0.000000
v -0.000000 -0.000000 0.000000
v -0.000000 -0.000000 -0.000000
v -0.000000 -0.000000 0.000000
v -0.000000 -0.000000 0.000000
v -0.000000 -0.000000 -0.000000
v -0.000000 -0.000000 -0.000000
v -0.000000 -0.000000 0.000000
v -0.000000 -0.000000 -0.000000
v -0.000000 -0.000000 0.000000
v -0.000000 -0.000000 0.000000
v -0.000000 -0.000000 -0.000000
v -0.000000 -0.000000 -0.000000
v -0.000000 -0.000000 0.000000
v -0.000000 -0.000000 -0.000000
v -0.000000 -0.000000 0.000000
v -0.000000 -0.000000 0.000000
v -0.000000 -0.000000 -0.000000
v -0.000000 -0.000000 -0.000000
v -0.000000 -0.000000 0.000000
v -0.000000 -0.000000 -0.000000
v -0.000000 -0.000000 0.000000
v -0.000000 -0.000000 -0.000000
v -0.000000 -0.000000 0.000000
v -0.000000 -0.000000 0.000000
v -0.000000 -0.000000 -0.000000
v -0.000000 -0.000000 -0.000000
v -0.000000 -0.000000 0.000000
v -0.000000 -0.000000 -0.000000
v -0.000000 -0.000000 0.000000
v -0.000000 -0.000000 0.000000
v -0.000000 -0.000000 -0.000000
v -0.000000 -0.000000 -0.000000
v -0.000000 -0.000000 0.000000
v -0.000000 -0.000000 -0.000000
v -0.000000 -0.000000 0.000000
v -0.000000 -0.000000 0.000000
v -0.000000 -0.000000 -0.000000
v -0.000000 -0.000000 -0.000000
v -0.000000 -0.000000 0.000000
v -0.000000 -0.000000 -0.000000
v -0.000000 -0.000000 0.000000
v -0.000000 -0.000000 0.000000
v -0.000000 -0.000000 -0.000000
v -0.000000 -0.000000 -0.000000
v -0.000000 -0.000000 0.000000
v -0.000000 -0.000000 -0.000000
v -0.000000 -0.000000 0.000000
v -0.000000 0.000000 -0.000000
v -0.000000 0.000000 0.000000
v -0.000000 0.000000 0.000000
v -0.000000 0.000000 -0.000000
v -0.000000 0.000000 -0.000000
v -0.000000 0.000000 0.000000
v -0.000000 0.000000 -0.000000
v -0.000000 0.000000 0.000000
v -0.000000 0.000000 0.000000
v -0.000000 0.000000 -0.000000
v -0.000000 0.000000 -0.000000
v -0.000000 0.000000 0.000000
v -0.000000 0.000000 -0.000000
v -0.000000 0.000000 0.000000
v -0.000000 0.000000 0.000000
v -0.000000 0.000000 -0.000000
v -0.000000 0.000000 -0.000000
v -0.000000 0.000000 0.000000
v -0.000000 0.000000 -0.000000
v -0.000000 0.000000 0.000000
v -0.000000 0.000000 -0.000000
v -0.000000 0.000000 0.000000
v -0.000000 0.000000 -0.000000
v -0.000000 0.000000 0.000000
v -0.000000 0.000000 0.000000
v -0.000000 0.000000 -0.000000
v -0.000000 0.000000 -0.000000
v -0.000000 0.000000 0.000000
v -0.000000 0.000000 -0.000000
v -0.000000 0.000000 0.000000
v -0.000000 0.000000 -0.000000
v -0.000000 0.000000 0.000000
v -0.000000 0.000000 0.000000
v -0.000000 0.000000 -0.000000
v -0.000000 0.000000 -0.000000
v -0.000000 0.000000 0.000000
v -0.000000 0.000000 0.000000
v -0.000000 0.000000 -0.000000
v -0.000000 0.000000 -0.000000
v -0.000000 0.000000 0.000000
v -0.000000 0.000000 -0.000000
v -0.000000 0.000000 0.000000
v -0.000000 0.000000 -0.000000
v -0.000000 0.000000 0.000000
v -0.000000 0.000000 0.000000
v -0.000000 0.000000 -0.000000
v -0.000000 0.000000 -0.000000
v -0.000000 0.000000 0.000000
v -0.000000 0.000000 0.000000
v -0.000000 0.000000 -0.000000
v -0.000000 0.000000 -0.000000
v -0.000000 0.000000 0.000000
v -0.000000 0.000000 -0.000000
v -0.000000 0.000000 0.000000
v -0.000000 0.000000 -0.000000
v -0.000000 0.000000 0.000000
v -0.000000 0.000000 0.000000
v -0.000000 0.000000 -0.000000
v -0.000000 0.000000 -0.000000
v -0.000000 0.000000 0.000000
v -0.000000 0.000000 0.000000
v -0.000000 0.000000 -0.000000
v -0.000000 0.000000 0.000000
v -0.000000 0.000000 -0.000000
v -0.000000 0.000000 -0.000000
v -0.000000 0.000000 0.000000
v -0.000000 0.000000 0.000000
v -0.000000 0.000000 -0.000000
v -0.000000 0.000000 -0.000000
v -0.000000 0.000000 0.000000
v -0.000000 0.000000 0.000000
v -0.000000 0.000000 -0.000000
v -0.000000 0.000000 -0.000000
v -0.000000 0.000000 0.000000
v -0.000000 0.000000 -0.000000
v -0.000000 0.000000 0.000000
v -0.000000 0.000000 -0.000000
v -0.000000 0.000000 0.000000
v -0.000000 0.000000 0.000000
v -0.000000 0.000000 -0.000000
v -0.000000 0.000000 -0.000000
v -0.000000 0.000000 0.000000
v -0.000000 0.000000 0.000000
v -0.000000 0.000000 -0.000000
v -0.000000 0.000000 -0.000000
v -0.000000 0.000000 0.000000
v -0.000000 0.000000 -0.000000
v -0.000000 0.000000 0.000000
v -0.000000 0.000000 -0.000000
v -0.000000 0.000000 0.000000
v -0.000000 0.000000 0.000000
v -0.000000 0.000000 -0.000000
v -0.000000 0.000000 -0.000000
v -0.000000 0.000000 0.000000
v -0.000000 0.000000 -0.000000
v -0.000000 0.000000 0.000000
v -0.000000 0.000000 -0.000000
v -0.000000 0.000000 0.000000
v -0.000000 0.000000 -0.000000
v -0.000000 0.000000 0.000000
v -0.000000 0.000000 0.000000
v -0.000000 0.000000 -0.000000
v -0.000000 0.000000 -0.000000
v -0.000000 0.000000 0.000000
v -0.000000 0.000000 -0.000000
v -0.000000 0.000000 0.000000
v -0.000000 0.000000 0.000000
v -0.000000 0.000000 -0.000000
v -0.000000 0.000000 -0.000000
v -0.000000 0.000000 0.000000
v -0.000000 0.000000 -0.000000
v -0.000000 0.000000 0.000000
v -0.000000 0.000000 -0.000000
v -0.000000 0.000000 0.000000
v -0.000000 0.000000 -0.000000
v -0.000000 0.000000 0.000000
v -0.000000 0.000000 -0.000000
v -0.000000 0.000000 0.000000
v -0.000000 0.000000 -0.000000
v -0.000000 0.000000 0.000000
v -0.000000 0.000000 0.000000
v -0.000000 0.000000 -0.000000
v -0.000000 0.000000 -0.000000
v -0.000000 0.000000 0.000000
v -0.000000 0.000000 -0.000000
v -0.000000 0.000000 0.000000
v 0.000000 0.000000 -0.000000
v 0.000000 0.000000 0.000000
v 0.000000 0.000000 0.000000
v 0.000000 0.000000 0.000000
v 0.000000 -0.000000 0.000000
v 0.000000 -0.000000 0.000000
v 0.000000 -0.000000 0.000000
v 0.000000 -0.000000 -0.000000
v -0.000000 0.000000 -0.000000
v -0.000000 0.000000 0.000000
v -0.000000 -0.000000 -0.000000
v -0.000000 -0.000000 0.000000
v -0.000000 -0.000000 0.000000
v -0.000000 -0.000000 0.000000
v -0.000000 0.000000 0.000000
v -0.000000 0.000000 0.000000
v -0.000000 0.000000 0.000000
v -0.000000 0.000000 0.000000
v -0.000000 -0.000000 0.000000
v 0.000000 -0.000000 0.000000
v 0.000000 0.000000 0.000000
v -0.000000 -0.000000 0.000000
v 0.000000 -0.000000 0.000000
v 0.000000 0.000000 0.000000
v -0.000000 0.000000 0.000000
v 0.000000 0.000000 -0.000000
v -0.000000 0.000000 -0.000000
v 0.000000 0.000000 0.000000
v 0.000000 -0.000000 -0.000000
v 0.000000 -0.000000 0.000000
v -0.000000 -0.000000 -0.000000
v -0.000000 -0.000000 0.000000
# Rescaled and Centered by PostProcess
# Rescaled and Centered by PostProcess
# Rescaled and Centered by PostProcess
# Rescaled and Centered by PostProcess
# Rescaled and Centered by PostProcess
# Created by FreeCAD <http://www.freecad.org>
vn -0.999689 0.024933 0.000000
vn -0.999689 0.024933 0.000000
vn -0.997204 0.074734 0.000000
vn -0.997204 0.074734 0.000000
vn -0.992239 0.124342 0.000000
vn -0.992239 0.124342 0.000000
vn -0.984811 0.173630 0.000000
vn -0.984811 0.173630 0.000000
vn -0.974926 0.222527 0.000000
vn -0.962622 0.270847 0.000000
vn -0.974926 0.222527 0.000000
vn -0.962622 0.270847 0.000000
vn -0.947927 0.318488 0.000000
vn -0.930879 0.365329 0.000000
vn -0.947927 0.318488 0.000000
vn -0.930879 0.365329 0.000000
vn -0.911502 0.411297 0.000000
vn -0.911502 0.411297 0.000000
vn -0.889875 0.456204 0.000000
vn -0.866022 0.500005 0.000000
vn -0.889875 0.456204 0.000000
vn -0.866022 0.500005 0.000000
vn -0.840030 0.542539 0.000000
vn -0.840030 0.542539 0.000000
vn -0.811931 0.583754 0.000000
vn -0.811931 0.583754 0.000000
vn -0.781833 0.623488 0.000000
vn -0.781833 0.623488 0.000000
vn -0.749777 0.661690 0.000000
vn -0.749777 0.661690 0.000000
vn -0.715878 0.698225 0.000000
vn -0.715878 0.698225 0.000000
vn -0.680166 0.733058 0.000000
vn -0.680166 0.733058 0.000000
vn -0.642792 0.766041 0.000000
vn -0.642792 0.766041 0.000000
vn -0.603797 0.797138 0.000000
vn -0.603797 0.797138 0.000000
vn -0.563327 0.826234 0.000000
vn -0.563327 0.826234 0.000000
vn -0.521433 0.853292 0.000000
vn -0.521433 0.853292 0.000000
vn -0.478251 0.878223 0.000000
vn -0.478251 0.878223 0.000000
vn -0.433893 0.900965 0.000000
vn -0.433893 0.900965 0.000000
vn -0.388423 0.921481 0.000000
vn -0.388423 0.921481 0.000000
vn -0.342024 0.939691 0.000000
vn -0.342024 0.939691 0.000000
vn -0.294751 0.955574 0.000000
vn -0.294751 0.955574 0.000000
vn -0.246770 0.969074 0.000000
vn -0.246770 0.969074 0.000000
vn -0.198141 0.980173 0.000000
vn -0.198141 0.980173 0.000000
vn -0.149032 0.988832 0.000000
vn -0.149032 0.988832 0.000000
vn -0.099571 0.995031 0.000000
vn -0.099571 0.995031 0.000000
vn -0.049851 0.998757 0.000000
vn 0.000000 1.000000 0.000000
vn -0.049851 0.998757 0.000000
vn 0.000000 1.000000 0.000000
vn 0.049851 0.998757 0.000000
vn 0.099571 0.995031 0.000000
vn 0.049851 0.998757 -0.000000
vn 0.099571 0.995031 0.000000
vn 0.149032 0.988832 0.000000
vn 0.149032 0.988832 -0.000000
vn 0.198141 0.980173 0.000000
vn 0.198141 0.980173 -0.000000
vn 0.246770 0.969074 -0.000000
vn 0.246770 0.969074 0.000000
vn 0.294751 0.955574 0.000000
vn 0.294751 0.955574 0.000000
vn 0.342024 0.939691 -0.000000
vn 0.342024 0.939691 0.000000
vn 0.388423 0.921481 -0.000000
vn 0.388423 0.921481 0.000000
vn 0.433893 0.900965 0.000000
vn 0.433893 0.900965 0.000000
vn 0.478251 0.878223 -0.000000
vn 0.478251 0.878223 0.000000
vn 0.521433 0.853292 -0.000000
vn 0.521433 0.853292 0.000000
vn 0.563327 0.826234 0.000000
vn 0.563327 0.826234 0.000000
vn 0.603797 0.797138 -0.000000
vn 0.603797 0.797138 0.000000
vn 0.642792 0.766041 -0.000000
vn 0.642792 0.766041 0.000000
vn 0.680166 0.733058 0.000000
vn 0.680166 0.733058 0.000000
vn 0.715878 0.698225 -0.000000
vn 0.715878 0.698225 0.000000
vn 0.749777 0.661690 -0.000000
vn 0.749777 0.661690 0.000000
vn 0.781833 0.623488 -0.000000
vn 0.781833 0.623488 0.000000
vn 0.811931 0.583754 0.000000
vn 0.811931 0.583754 0.000000
vn 0.840030 0.542539 -0.000000
vn 0.840030 0.542539 0.000000
vn 0.866022 0.500005 -0.000000
vn 0.866022 0.500005 0.000000
vn 0.889875 0.456204 0.000000
vn 0.889875 0.456204 0.000000
vn 0.911502 0.411297 -0.000000
vn 0.911502 0.411297 0.000000
vn 0.930879 0.365329 -0.000000
vn 0.930879 0.365329 0.000000
vn 0.947927 0.318488 0.000000
vn 0.947927 0.318488 0.000000
vn 0.962622 0.270847 0.000000
vn 0.962622 0.270847 -0.000000
vn 0.974926 0.222527 0.000000
vn 0.984811 0.173630 0.000000
vn 0.974926 0.222527 -0.000000
vn 0.984811 0.173630 0.000000
vn 0.992239 0.124342 0.000000
vn 0.992239 0.124342 -0.000000
vn 0.997204 0.074734 -0.000000
vn 0.997204 0.074734 0.000000
vn 0.999689 0.024933 -0.000000
vn 0.999689 0.024933 0.000000
vn 0.999689 -0.024933 0.000000
vn 0.999689 -0.024933 0.000000
vn 0.997204 -0.074734 0.000000
vn 0.997204 -0.074734 0.000000
vn 0.992239 -0.124342 0.000000
vn 0.992239 -0.124342 0.000000
vn 0.984811 -0.173630 0.000000
vn 0.984811 -0.173630 0.000000
vn 0.974926 -0.222527 0.000000
vn 0.974926 -0.222527 0.000000
vn 0.962622 -0.270847 0.000000
vn 0.962622 -0.270847 0.000000
vn 0.947927 -0.318488 0.000000
vn 0.947927 -0.318488 0.000000
vn 0.930879 -0.365329 0.000000
vn 0.930879 -0.365329 0.000000
vn 0.911502 -0.411297 0.000000
vn 0.911502 -0.411297 0.000000
vn 0.889875 -0.456204 0.000000
vn 0.889875 -0.456204 0.000000
vn 0.866022 -0.500005 0.000000
vn 0.840030 -0.542539 0.000000
vn 0.866022 -0.500005 0.000000
vn 0.840030 -0.542539 0.000000
vn 0.811931 -0.583754 0.000000
vn 0.811931 -0.583754 0.000000
vn 0.781833 -0.623488 0.000000
vn 0.781833 -0.623488 0.000000
vn 0.749777 -0.661690 0.000000
vn 0.715878 -0.698225 0.000000
vn 0.749777 -0.661690 0.000000
vn 0.715878 -0.698225 0.000000
vn 0.680166 -0.733058 0.000000
vn 0.642792 -0.766041 0.000000
vn 0.680166 -0.733058 0.000000
vn 0.642792 -0.766041 0.000000
vn 0.603797 -0.797138 0.000000
vn 0.603797 -0.797138 0.000000
vn 0.563327 -0.826234 0.000000
vn 0.563327 -0.826234 0.000000
vn 0.521433 -0.853292 0.000000
vn 0.478251 -0.878223 0.000000
vn 0.521433 -0.853292 0.000000
vn 0.478251 -0.878223 0.000000
vn 0.433893 -0.900965 0.000000
vn 0.388423 -0.921481 0.000000
vn 0.433893 -0.900965 0.000000
vn 0.388423 -0.921481 0.000000
vn 0.342024 -0.939691 0.000000
vn 0.342024 -0.939691 0.000000
vn 0.294751 -0.955574 0.000000
vn 0.294751 -0.955574 0.000000
vn 0.246770 -0.969074 0.000000
vn 0.246770 -0.969074 0.000000
vn 0.198141 -0.980173 0.000000
vn 0.198141 -0.980173 0.000000
vn 0.149032 -0.988832 0.000000
vn 0.099571 -0.995031 0.000000
vn 0.149032 -0.988832 0.000000
vn 0.049851 -0.998757 0.000000
vn 0.099571 -0.995031 0.000000
vn 0.049851 -0.998757 0.000000
vn 0.000000 -1.000000 0.000000
vn -0.049851 -0.998757 -0.000000
vn 0.000000 -1.000000 0.000000
vn -0.049851 -0.998757 0.000000
vn -0.099571 -0.995031 0.000000
vn -0.149032 -0.988832 -0.000000
vn -0.099571 -0.995031 0.000000
vn -0.149032 -0.988832 0.000000
vn -0.198141 -0.980173 0.000000
vn -0.198141 -0.980173 0.000000
vn -0.246770 -0.969074 0.000000
vn -0.246770 -0.969074 0.000000
vn -0.294751 -0.955574 0.000000
vn -0.342024 -0.939691 -0.000000
vn -0.294751 -0.955574 0.000000
vn -0.342024 -0.939691 0.000000
vn -0.388423 -0.921481 0.000000
vn -0.433893 -0.900965 -0.000000
vn -0.388423 -0.921481 0.000000
vn -0.433893 -0.900965 0.000000
vn -0.478251 -0.878223 0.000000
vn -0.478251 -0.878223 0.000000
vn -0.521433 -0.853292 0.000000
vn -0.521433 -0.853292 0.000000
vn -0.563327 -0.826234 0.000000
vn -0.603797 -0.797138 -0.000000
vn -0.563327 -0.826234 0.000000
vn -0.603797 -0.797138 0.000000
vn -0.642792 -0.766041 0.000000
vn -0.642792 -0.766041 0.000000
vn -0.680166 -0.733058 0.000000
vn -0.680166 -0.733058 0.000000
vn -0.715878 -0.698225 0.000000
vn -0.715878 -0.698225 0.000000
vn -0.749777 -0.661690 0.000000
vn -0.749777 -0.661690 0.000000
vn -0.781833 -0.623488 -0.000000
vn -0.781833 -0.623488 0.000000
vn -0.811931 -0.583754 0.000000
vn -0.811931 -0.583754 0.000000
vn -0.840030 -0.542539 0.000000
vn -0.840030 -0.542539 0.000000
vn -0.866022 -0.500005 -0.000000
vn -0.866022 -0.500005 0.000000
vn -0.889875 -0.456204 0.000000
vn -0.889875 -0.456204 0.000000
vn -0.911502 -0.411297 0.000000
vn -0.911502 -0.411297 0.000000
vn -0.930879 -0.365329 0.000000
vn -0.930879 -0.365329 0.000000
vn -0.947927 -0.318488 0.000000
vn -0.947927 -0.318488 0.000000
vn -0.962622 -0.270847 0.000000
vn -0.962622 -0.270847 0.000000
vn -0.974926 -0.222527 0.000000
vn -0.974926 -0.222527 0.000000
vn -0.984811 -0.173630 -0.000000
vn -0.984811 -0.173630 0.000000
vn -0.992239 -0.124342 0.000000
vn -0.992239 -0.124342 0.000000
vn -0.997204 -0.074734 0.000000
vn -0.997204 -0.074734 0.000000
vn -0.999689 -0.024933 0.000000
vn -0.999689 -0.024933 0.000000
vn 0.000000 0.000000 1.000000
vn 0.000000 0.000000 1.000000
vn 0.000000 0.000000 1.000000
vn 0.000000 0.000000 1.000000
vn 0.000000 0.000000 1.000000
vn 0.000000 0.000000 1.000000
vn 0.000000 0.000000 1.000000
vn 0.000000 0.000000 1.000000
vn 0.000000 0.000000 1.000000
vn 0.000000 0.000000 1.000000
vn 0.000000 0.000000 1.000000
vn 0.000000 0.000000 1.000000
vn 0.000000 0.000000 1.000000
vn 0.000000 0.000000 1.000000
vn 0.000000 0.000000 1.000000
vn 0.000000 0.000000 1.000000
vn 0.000000 0.000000 1.000000
vn 0.000000 0.000000 1.000000
vn 0.000000 0.000000 1.000000
vn 0.000000 0.000000 1.000000
vn 0.000000 0.000000 1.000000
vn 0.000000 0.000000 1.000000
vn 0.000000 0.000000 1.000000
vn 0.000000 0.000000 1.000000
vn 0.000000 0.000000 1.000000
vn 0.000000 0.000000 1.000000
vn -0.000000 0.000000 1.000000
vn 0.000000 0.000000 1.000000
vn -0.000000 0.000000 1.000000
vn 0.000000 0.000000 1.000000
vn 0.000000 0.000000 1.000000
vn 0.000000 0.000000 1.000000
vn -0.000000 0.000000 1.000000
vn 0.000000 0.000000 1.000000
vn 0.000000 0.000000 1.000000
vn 0.000000 0.000000 1.000000
vn 0.000000 0.000000 1.000000
vn 0.000000 0.000000 1.000000
vn 0.000000 0.000000 1.000000
vn 0.000000 0.000000 1.000000
vn 0.000000 0.000000 1.000000
vn 0.000000 0.000000 1.000000
vn 0.000000 0.000000 1.000000
vn 0.000000 0.000000 1.000000
vn 0.000000 0.000000 1.000000
vn 0.000000 0.000000 1.000000
vn 0.000000 0.000000 1.000000
vn 0.000000 0.000000 1.000000
vn 0.000000 0.000000 1.000000
vn 0.000000 0.000000 1.000000
vn 0.000000 0.000000 1.000000
vn 0.000000 0.000000 1.000000
vn 0.000000 0.000000 1.000000
vn 0.000000 0.000000 1.000000
vn 0.000000 0.000000 1.000000
vn 0.000000 0.000000 1.000000
vn 0.000000 0.000000 1.000000
vn 0.000000 0.000000 1.000000
vn 0.000000 0.000000 1.000000
vn 0.000000 0.000000 1.000000
vn 0.000000 0.000000 1.000000
vn 0.000000 0.000000 1.000000
vn 0.000000 0.000000 1.000000
vn 0.000000 0.000000 1.000000
vn 0.000000 0.000000 1.000000
vn 0.000000 0.000000 1.000000
vn -0.000000 0.000000 1.000000
vn 0.000000 0.000000 1.000000
vn 0.000000 0.000000 1.000000
vn 0.000000 0.000000 1.000000
vn -0.000000 0.000000 1.000000
vn 0.000000 0.000000 1.000000
vn 0.000000 0.000000 1.000000
vn 0.000000 0.000000 1.000000
vn 0.000000 0.000000 1.000000
vn 0.000000 0.000000 1.000000
vn 0.000000 0.000000 1.000000
vn 0.000000 0.000000 1.000000
vn 0.000000 0.000000 1.000000
vn 0.000000 0.000000 1.000000
vn 0.000000 0.000000 1.000000
vn 0.000000 0.000000 1.000000
vn 0.000000 0.000000 1.000000
vn 0.000000 0.000000 1.000000
vn 0.000000 0.000000 1.000000
vn 0.000000 0.000000 1.000000
vn 0.000000 0.000000 1.000000
vn 0.000000 0.000000 1.000000
vn 0.000000 -0.000000 1.000000
vn -0.000000 0.000000 1.000000
vn 0.000000 0.000000 1.000000
vn 0.000000 0.000000 1.000000
vn 0.000000 0.000000 1.000000
vn 0.000000 -0.000000 1.000000
vn 0.000000 0.000000 1.000000
vn 0.000000 -0.000000 1.000000
vn 0.000000 0.000000 1.000000
vn 0.000000 0.000000 1.000000
vn 0.000000 0.000000 1.000000
vn 0.000000 0.000000 1.000000
vn 0.000000 0.000000 1.000000
vn 0.000000 0.000000 1.000000
vn 0.000000 0.000000 1.000000
vn 0.000000 0.000000 1.000000
vn 0.000000 0.000000 1.000000
vn 0.000000 0.000000 1.000000
vn 0.000000 0.000000 1.000000
vn 0.000000 0.000000 1.000000
vn 0.000000 0.000000 1.000000
vn 0.000000 0.000000 1.000000
vn 0.000000 0.000000 1.000000
vn 0.000000 0.000000 1.000000
vn 0.000000 0.000000 1.000000
vn 0.000000 0.000000 1.000000
vn 0.000000 0.000000 1.000000
vn 0.000000 0.000000 1.000000
vn -0.000000 -0.000000 1.000000
vn 0.000000 0.000000 1.000000
vn 0.000000 0.000000 1.000000
vn 0.000000 0.000000 1.000000
vn 0.000000 0.000000 1.000000
vn 0.000000 0.000000 1.000000
vn 0.000000 0.000000 1.000000
vn 0.000000 0.000000 1.000000
vn -0.999689 0.024933 0.000000
vn -0.999689 0.024933 0.000000
vn -0.997204 0.074726 0.000000
vn -0.997204 0.074726 0.000000
vn -0.992239 0.124342 0.000000
vn -0.992239 0.124342 0.000000
vn -0.984807 0.173653 0.000000
vn -0.984807 0.173653 0.000000
vn -0.974928 0.222520 0.000000
vn -0.962624 0.270840 0.000000
vn -0.974928 0.222520 0.000000
vn -0.962624 0.270840 0.000000
vn -0.947927 0.318488 0.000000
vn -0.930876 0.365336 0.000000
vn -0.947927 0.318488 0.000000
vn -0.930876 0.365336 0.000000
vn -0.911505 0.411290 0.000000
vn -0.911505 0.411290 0.000000
vn -0.889872 0.456211 0.000000
vn -0.866026 0.499999 0.000000
vn -0.889872 0.456211 0.000000
vn -0.866026 0.499999 0.000000
vn -0.840027 0.542545 0.000000
vn -0.840027 0.542545 0.000000
vn -0.811938 0.583743 0.000000
vn -0.811938 0.583743 0.000000
vn -0.781833 0.623488 0.000000
vn -0.781833 0.623488 0.000000
vn -0.749777 0.661690 0.000000
vn -0.749777 0.661690 0.000000
vn -0.715870 0.698233 0.000000
vn -0.715870 0.698233 0.000000
vn -0.680174 0.733051 0.000000
vn -0.680174 0.733051 0.000000
vn -0.642784 0.766048 0.000000
vn -0.642784 0.766048 0.000000
vn -0.603805 0.797132 0.000000
vn -0.603805 0.797132 0.000000
vn -0.563323 0.826237 0.000000
vn -0.563323 0.826237 0.000000
vn -0.521433 0.853292 0.000000
vn -0.521433 0.853292 0.000000
vn -0.478251 0.878223 0.000000
vn -0.478251 0.878223 0.000000
vn -0.433893 0.900965 0.000000
vn -0.433893 0.900965 0.000000
vn -0.388429 0.921479 0.000000
vn -0.388429 0.921479 0.000000
vn -0.342021 0.939692 0.000000
vn -0.342021 0.939692 0.000000
vn -0.294749 0.955575 0.000000
vn -0.294749 0.955575 0.000000
vn -0.246768 0.969074 0.000000
vn -0.246768 0.969074 0.000000
vn -0.198143 0.980173 0.000000
vn -0.198143 0.980173 0.000000
vn -0.149034 0.988832 0.000000
vn -0.149034 0.988832 0.000000
vn -0.099570 0.995031 0.000000
vn -0.099570 0.995031 0.000000
vn -0.049850 0.998757 0.000000
vn 0.000000 1.000000 0.000000
vn -0.049850 0.998757 0.000000
vn 0.000000 1.000000 0.000000
vn 0.049850 0.998757 0.000000
vn 0.099570 0.995031 0.000000
vn 0.049850 0.998757 -0.000000
vn 0.099570 0.995031 0.000000
vn 0.149034 0.988832 0.000000
vn 0.149034 0.988832 -0.000000
vn 0.198143 0.980173 0.000000
vn 0.198143 0.980173 -0.000000
vn 0.246768 0.969074 -0.000000
vn 0.246768 0.969074 0.000000
vn 0.294749 0.955575 0.000000
vn 0.294749 0.955575 0.000000
vn 0.342021 0.939692 -0.000000
vn 0.342021 0.939692 0.000000
vn 0.388429 0.921479 -0.000000
vn 0.388429 0.921479 0.000000
vn 0.433893 0.900965 0.000000
vn 0.433893 0.900965 0.000000
vn 0.478251 0.878223 -0.000000
vn 0.478251 0.878223 0.000000
vn 0.521433 0.853292 -0.000000
vn 0.521433 0.853292 0.000000
vn 0.563323 0.826237 0.000000
vn 0.563323 0.826237 0.000000
vn 0.603805 0.797132 -0.000000
vn 0.603805 0.797132 0.000000
vn 0.642784 0.766048 -0.000000
vn 0.642784 0.766048 0.000000
vn 0.680174 0.733051 0.000000
vn 0.680174 0.733051 0.000000
vn 0.715870 0.698233 -0.000000
vn 0.715870 0.698233 0.000000
vn 0.749777 0.661690 -0.000000
vn 0.749777 0.661690 0.000000
vn 0.781833 0.623488 -0.000000
vn 0.781833 0.623488 0.000000
vn 0.811938 0.583743 0.000000
vn 0.811938 0.583743 0.000000
vn 0.840025 0.542548 -0.000000
vn 0.840025 0.542548 0.000000
vn 0.866027 0.499996 -0.000000
vn 0.866027 0.499996 0.000000
vn 0.889872 0.456211 0.000000
vn 0.889872 0.456211 0.000000
vn 0.911505 0.411290 -0.000000
vn 0.911505 0.411290 0.000000
vn 0.930874 0.365339 -0.000000
vn 0.930874 0.365339 0.000000
vn 0.947928 0.318485 0.000000
vn 0.947928 0.318485 0.000000
vn 0.962624 0.270840 0.000000
vn 0.962624 0.270840 -0.000000
vn 0.974928 0.222520 0.000000
vn 0.984807 0.173650 0.000000
vn 0.974928 0.222520 -0.000000
vn 0.984807 0.173650 0.000000
vn 0.992239 0.124346 0.000000
vn 0.992239 0.124346 -0.000000
vn 0.997204 0.074730 -0.000000
vn 0.997204 0.074730 0.000000
vn 0.999689 0.024929 -0.000000
vn 0.999689 0.024929 0.000000
vn 0.999689 -0.024929 0.000000
vn 0.999689 -0.024929 0.000000
vn 0.997204 -0.074730 0.000000
vn 0.997204 -0.074730 0.000000
vn 0.992239 -0.124346 0.000000
vn 0.992239 -0.124346 0.000000
vn 0.984807 -0.173650 0.000000
vn 0.984807 -0.173650 0.000000
vn 0.974928 -0.222520 0.000000
vn 0.974928 -0.222520 0.000000
vn 0.962624 -0.270840 0.000000
vn 0.962624 -0.270840 0.000000
vn 0.947928 -0.318485 0.000000
vn 0.947928 -0.318485 0.000000
vn 0.930874 -0.365339 0.000000
vn 0.930874 -0.365339 0.000000
vn 0.911505 -0.411290 0.000000
vn 0.911505 -0.411290 0.000000
vn 0.889872 -0.456211 0.000000
vn 0.889872 -0.456211 0.000000
vn 0.866027 -0.499996 0.000000
vn 0.840025 -0.542548 0.000000
vn 0.866027 -0.499996 0.000000
vn 0.840025 -0.542548 0.000000
vn 0.811938 -0.583743 0.000000
vn 0.811938 -0.583743 0.000000
vn 0.781833 -0.623488 0.000000
vn 0.781833 -0.623488 0.000000
vn 0.749777 -0.661690 0.000000
vn 0.715870 -0.698233 0.000000
vn 0.749777 -0.661690 0.000000
vn 0.715870 -0.698233 0.000000
vn 0.680174 -0.733051 0.000000
vn 0.642784 -0.766048 0.000000
vn 0.680174 -0.733051 0.000000
vn 0.642784 -0.766048 0.000000
vn 0.603805 -0.797132 0.000000
vn 0.603805 -0.797132 0.000000
vn 0.563323 -0.826237 0.000000
vn 0.563323 -0.826237 0.000000
vn 0.521433 -0.853292 0.000000
vn 0.478251 -0.878223 0.000000
vn 0.521433 -0.853292 0.000000
vn 0.478251 -0.878223 0.000000
vn 0.433893 -0.900965 0.000000
vn 0.388429 -0.921479 0.000000
vn 0.433893 -0.900965 0.000000
vn 0.388429 -0.921479 0.000000
vn 0.342021 -0.939692 0.000000
vn 0.342021 -0.939692 0.000000
vn 0.294749 -0.955575 0.000000
vn 0.294749 -0.955575 0.000000
vn 0.246768 -0.969074 0.000000
vn 0.246768 -0.969074 0.000000
vn 0.198143 -0.980173 0.000000
vn 0.198143 -0.980173 0.000000
vn 0.149034 -0.988832 0.000000
vn 0.099570 -0.995031 0.000000
vn 0.149034 -0.988832 0.000000
vn 0.049850 -0.998757 0.000000
vn 0.099570 -0.995031 0.000000
vn 0.049850 -0.998757 0.000000
vn 0.000000 -1.000000 0.000000
vn -0.049850 -0.998757 -0.000000
vn 0.000000 -1.000000 0.000000
vn -0.049850 -0.998757 0.000000
vn -0.099570 -0.995031 0.000000
vn -0.149034 -0.988832 -0.000000
vn -0.099570 -0.995031 0.000000
vn -0.149034 -0.988832 0.000000
vn -0.198143 -0.980173 0.000000
vn -0.198143 -0.980173 0.000000
vn -0.246768 -0.969074 0.000000
vn -0.246768 -0.969074 0.000000
vn -0.294749 -0.955575 0.000000
vn -0.342021 -0.939692 -0.000000
vn -0.294749 -0.955575 0.000000
vn -0.342021 -0.939692 0.000000
vn -0.388429 -0.921479 0.000000
vn -0.433893 -0.900965 -0.000000
vn -0.388429 -0.921479 0.000000
vn -0.433893 -0.900965 0.000000
vn -0.478251 -0.878223 0.000000
vn -0.478251 -0.878223 0.000000
vn -0.521433 -0.853292 0.000000
vn -0.521433 -0.853292 0.000000
vn -0.563323 -0.826237 0.000000
vn -0.603805 -0.797132 -0.000000
vn -0.563323 -0.826237 0.000000
vn -0.603805 -0.797132 0.000000
vn -0.642784 -0.766048 0.000000
vn -0.642784 -0.766048 0.000000
vn -0.680174 -0.733051 0.000000
vn -0.680174 -0.733051 0.000000
vn -0.715870 -0.698233 0.000000
vn -0.715870 -0.698233 0.000000
vn -0.749777 -0.661690 0.000000
vn -0.749777 -0.661690 0.000000
vn -0.781833 -0.623488 -0.000000
vn -0.781833 -0.623488 0.000000
vn -0.811938 -0.583743 0.000000
vn -0.811938 -0.583743 0.000000
vn -0.840027 -0.542545 0.000000
vn -0.840027 -0.542545 0.000000
vn -0.866026 -0.499999 -0.000000
vn -0.866026 -0.499999 0.000000
vn -0.889872 -0.456211 0.000000
vn -0.889872 -0.456211 0.000000
vn -0.911505 -0.411290 0.000000
vn -0.911505 -0.411290 0.000000
vn -0.930876 -0.365336 0.000000
vn -0.930876 -0.365336 0.000000
vn -0.947927 -0.318488 0.000000
vn -0.947927 -0.318488 0.000000
vn -0.962624 -0.270840 0.000000
vn -0.962624 -0.270840 0.000000
vn -0.974928 -0.222520 0.000000
vn -0.974928 -0.222520 0.000000
vn -0.984807 -0.173653 -0.000000
vn -0.984807 -0.173653 0.000000
vn -0.992239 -0.124342 0.000000
vn -0.992239 -0.124342 0.000000
vn -0.997204 -0.074726 0.000000
vn -0.997204 -0.074726 0.000000
vn -0.999689 -0.024933 0.000000
vn -0.999689 -0.024933 0.000000
vn 0.000000 0.000000 1.000000
vn 0.000000 0.000000 1.000000
vn 0.000000 0.000000 1.000000
vn 0.000000 0.000000 1.000000
vn 0.000000 0.000000 1.000000
vn 0.000000 0.000000 1.000000
vn 0.000000 0.000000 1.000000
vn 0.000000 0.000000 1.000000
vn 0.000000 0.000000 1.000000
vn 0.000000 0.000000 1.000000
vn 0.000000 0.000000 1.000000
vn 0.000000 0.000000 1.000000
vn 0.000000 0.000000 1.000000
vn 0.000000 0.000000 1.000000
vn 0.000000 0.000000 1.000000
vn 0.000000 0.000000 1.000000
vn 0.000000 0.000000 1.000000
vn 0.000000 0.000000 1.000000
vn 0.000000 0.000000 1.000000
vn 0.000000 0.000000 1.000000
vn 0.000000 0.000000 1.000000
vn 0.000000 0.000000 1.000000
vn 0.000000 0.000000 1.000000
vn 0.000000 0.000000 1.000000
vn 0.000000 0.000000 1.000000
vn 0.000000 0.000000 1.000000
vn -0.000000 0.000000 1.000000
vn 0.000000 0.000000 1.000000
vn -0.000000 0.000000 1.000000
vn 0.000000 0.000000 1.000000
vn 0.000000 0.000000 1.000000
vn 0.000000 0.000000 1.000000
vn -0.000000 0.000000 1.000000
vn 0.000000 0.000000 1.000000
vn 0.000000 0.000000 1.000000
vn 0.000000 0.000000 1.000000
vn 0.000000 0.000000 1.000000
vn 0.000000 0.000000 1.000000
vn 0.000000 0.000000 1.000000
vn 0.000000 0.000000 1.000000
vn 0.000000 0.000000 1.000000
vn 0.000000 0.000000 1.000000
vn 0.000000 0.000000 1.000000
vn 0.000000 0.000000 1.000000
vn 0.000000 0.000000 1.000000
vn 0.000000 0.000000 1.000000
vn 0.000000 0.000000 1.000000
vn 0.000000 0.000000 1.000000
vn 0.000000 0.000000 1.000000
vn 0.000000 0.000000 1.000000
vn 0.000000 0.000000 1.000000
vn 0.000000 0.000000 1.000000
vn 0.000000 0.000000 1.000000
vn 0.000000 0.000000 1.000000
vn 0.000000 0.000000 1.000000
vn 0.000000 0.000000 1.000000
vn 0.000000 0.000000 1.000000
vn 0.000000 0.000000 1.000000
vn 0.000000 0.000000 1.000000
vn 0.000000 0.000000 1.000000
vn 0.000000 0.000000 1.000000
vn 0.000000 0.000000 1.000000
vn 0.000000 0.000000 1.000000
vn 0.000000 0.000000 1.000000
vn 0.000000 0.000000 1.000000
vn 0.000000 0.000000 1.000000
vn -0.000000 0.000000 1.000000
vn 0.000000 0.000000 1.000000
vn 0.000000 0.000000 1.000000
vn 0.000000 0.000000 1.000000
vn -0.000000 0.000000 1.000000
vn 0.000000 0.000000 1.000000
vn 0.000000 0.000000 1.000000
vn 0.000000 0.000000 1.000000
vn 0.000000 0.000000 1.000000
vn 0.000000 0.000000 1.000000
vn 0.000000 0.000000 1.000000
vn 0.000000 0.000000 1.000000
vn 0.000000 0.000000 1.000000
vn 0.000000 0.000000 1.000000
vn 0.000000 0.000000 1.000000
vn 0.000000 0.000000 1.000000
vn 0.000000 0.000000 1.000000
vn 0.000000 0.000000 1.000000
vn 0.000000 0.000000 1.000000
vn 0.000000 0.000000 1.000000
vn 0.000000 0.000000 1.000000
vn 0.000000 0.000000 1.000000
vn 0.000000 -0.000000 1.000000
vn -0.000000 0.000000 1.000000
vn 0.000000 0.000000 1.000000
vn 0.000000 0.000000 1.000000
vn 0.000000 0.000000 1.000000
vn 0.000000 -0.000000 1.000000
vn 0.000000 0.000000 1.000000
vn 0.000000 -0.000000 1.000000
vn 0.000000 0.000000 1.000000
vn 0.000000 0.000000 1.000000
vn 0.000000 0.000000 1.000000
vn 0.000000 0.000000 1.000000
vn 0.000000 0.000000 1.000000
vn 0.000000 0.000000 1.000000
vn 0.000000 0.000000 1.000000
vn 0.000000 0.000000 1.000000
vn 0.000000 0.000000 1.000000
vn 0.000000 0.000000 1.000000
vn 0.000000 0.000000 1.000000
vn 0.000000 0.000000 1.000000
vn 0.000000 0.000000 1.000000
vn 0.000000 0.000000 1.000000
vn 0.000000 0.000000 1.000000
vn 0.000000 0.000000 1.000000
vn 0.000000 0.000000 1.000000
vn 0.000000 0.000000 1.000000
vn 0.000000 0.000000 1.000000
vn 0.000000 0.000000 1.000000
vn -0.000000 -0.000000 1.000000
vn 0.000000 0.000000 1.000000
vn 0.000000 0.000000 1.000000
vn 0.000000 0.000000 1.000000
vn 0.000000 0.000000 1.000000
vn 0.000000 0.000000 1.000000
vn 0.000000 0.000000 1.000000
vn 0.000000 0.000000 1.000000
vn -1.000000 0.000000 0.000000
vn -1.000000 -0.000000 0.000000
vn -1.000000 0.000000 0.000000
vn -1.000000 -0.000000 0.000000
vn -1.000000 0.000000 0.000000
vn -1.000000 -0.000000 0.000000
vn 0.000000 -1.000000 0.000000
vn 0.000000 -1.000000 0.000000
vn 1.000000 0.000000 0.000000
vn 1.000000 -0.000000 0.000000
vn 1.000000 0.000000 0.000000
vn 1.000000 0.000000 0.000000
vn 1.000000 -0.000000 0.000000
vn 1.000000 0.000000 0.000000
vn 0.000000 1.000000 -0.000000
vn 0.000000 1.000000 0.000000
vn 0.000000 0.000000 1.000000
vn 0.000000 0.000000 1.000000
vn 0.000000 -1.000000 0.000000
vn 0.000000 -1.000000 0.000000
vn 0.000000 0.000000 1.000000
vn 0.000000 0.000000 1.000000
vn 0.000000 0.000000 1.000000
vn 0.000000 0.000000 1.000000
vn 0.000000 0.000000 1.000000
vn 0.000000 0.000000 1.000000
vn 0.000000 0.000000 1.000000
vn 0.000000 0.000000 1.000000
vn 0.000000 0.000000 1.000000
vn 0.000000 0.000000 1.000000
vn 0.000000 0.000000 1.000000
vn 0.000000 0.000000 1.000000
vn 0.000000 0.000000 1.000000
vn 0.000000 0.000000 1.000000
vn 0.000000 0.000000 1.000000
vn 0.000000 0.000000 1.000000
vn 0.000000 0.000000 1.000000
vn 0.000000 0.000000 1.000000
vn 0.000000 0.000000 1.000000
vn 0.000000 0.000000 1.000000
vn 0.000000 0.000000 1.000000
vn 0.000000 0.000000 1.000000
vn 0.000000 0.000000 1.000000
vn 0.000000 0.000000 1.000000
vn 0.000000 0.000000 1.000000
vn 0.000000 0.000000 1.000000
vn 0.000000 0.000000 1.000000
vn 0.000000 0.000000 1.000000
vn 0.000000 0.000000 1.000000
vn 0.000000 0.000000 1.000000
vn 0.000000 0.000000 1.000000
vn 0.000000 0.000000 1.000000
vn 0.000000 0.000000 1.000000
vn 0.000000 0.000000 1.000000
vn 0.000000 0.000000 1.000000
vn 0.000000 0.000000 1.000000
vn 0.000000 0.000000 1.000000
vn 0.000000 0.000000 1.000000
vn 0.000000 0.000000 1.000000
vn 0.000000 0.000000 1.000000
vn 0.000000 0.000000 1.000000
vn 0.000000 0.000000 1.000000
vn 0.000000 0.000000 1.000000
vn -0.000000 0.000000 1.000000
vn -0.000000 0.000000 1.000000
vn -0.000000 0.000000 1.000000
vn -0.000000 0.000000 1.000000
vn -0.000000 0.000000 1.000000
vn 0.000000 0.000000 1.000000
vn 0.000000 0.000000 1.000000
vn 0.000000 0.000000 1.000000
vn 0.000000 0.000000 1.000000
vn 0.000000 0.000000 1.000000
vn 0.000000 0.000000 1.000000
vn 0.000000 0.000000 1.000000
vn 0.000000 0.000000 1.000000
vn 0.000000 0.000000 1.000000
vn 0.000000 0.000000 1.000000
vn 0.000000 0.000000 1.000000
vn 0.000000 0.000000 1.000000
vn 0.000000 0.000000 1.000000
vn 0.000000 0.000000 1.000000
vn 0.000000 0.000000 1.000000
vn 0.000000 0.000000 1.000000
vn 0.000000 0.000000 1.000000
vn 0.000000 0.000000 1.000000
vn 0.000000 0.000000 1.000000
vn 0.000000 0.000000 1.000000
vn 0.000000 0.000000 1.000000
vn 0.000000 0.000000 1.000000
vn 0.000000 0.000000 1.000000
vn 0.000000 0.000000 1.000000
vn 0.000000 0.000000 1.000000
vn 0.000000 0.000000 1.000000
vn 0.000000 0.000000 1.000000
vn 0.000000 0.000000 1.000000
vn 0.000000 0.000000 1.000000
vn 0.000000 0.000000 1.000000
vn 0.000000 0.000000 1.000000
vn 0.000000 0.000000 1.000000
vn 0.000000 0.000000 1.000000
vn 0.000000 0.000000 1.000000
vn 0.000000 0.000000 1.000000
vn 0.000000 0.000000 1.000000
vn 0.000000 0.000000 1.000000
vn 0.000000 0.000000 1.000000
vn 0.000000 0.000000 1.000000
vn 0.000000 0.000000 1.000000
vn 0.000000 0.000000 1.000000
vn 0.000000 0.000000 1.000000
vn 0.000000 0.000000 1.000000
vn 0.000000 0.000000 1.000000
vn 0.000000 0.000000 1.000000
vn 0.000000 0.000000 1.000000
vn 0.000000 0.000000 1.000000
vn 0.000000 0.000000 1.000000
vn 0.000000 0.000000 1.000000
vn 0.000000 0.000000 1.000000
vn 0.000000 0.000000 1.000000
vn 0.000000 0.000000 1.000000
vn 0.000000 0.000000 1.000000
vn 0.000000 0.000000 1.000000
vn 0.000000 0.000000 1.000000
vn 0.000000 0.000000 1.000000
vn 0.000000 0.000000 1.000000
vn 0.000000 0.000000 1.000000
vn 0.000000 0.000000 1.000000
vn 0.000000 0.000000 1.000000
vn 0.000000 0.000000 1.000000
vn 0.000000 0.000000 1.000000
vn 0.000000 0.000000 1.000000
vn 0.000000 0.000000 1.000000
vn 0.000000 0.000000 1.000000
vn 0.000000 0.000000 1.000000
vn 0.000000 0.000000 1.000000
vn 0.000000 0.000000 1.000000
vn 0.000000 0.000000 1.000000
vn 0.000000 0.000000 1.000000
vn 0.000000 0.000000 1.000000
vn 0.000000 0.000000 1.000000
vn 0.000000 0.000000 1.000000
vn 0.000000 0.000000 1.000000
vn 0.000000 0.000000 1.000000
vn 0.000000 0.000000 1.000000
vn 0.000000 0.000000 1.000000
vn 0.000000 0.000000 1.000000
vn 0.000000 0.000000 1.000000
vn 0.000000 0.000000 1.000000
vn 0.000000 0.000000 1.000000
vn 0.000000 0.000000 1.000000
vn 0.000000 0.000000 1.000000
vn 0.000000 0.000000 1.000000
vn 0.000000 0.000000 1.000000
vn 0.000000 0.000000 1.000000
vn 0.000000 0.000000 1.000000
vn 0.000000 0.000000 1.000000
vn 0.000000 0.000000 1.000000
vn 0.000000 0.000000 1.000000
vn 0.000000 0.000000 1.000000
vn 0.000000 0.000000 1.000000
vn 0.000000 0.000000 1.000000
vn 0.000000 0.000000 1.000000
vn 0.000000 0.000000 1.000000
vn 0.000000 0.000000 1.000000
vn 0.000000 0.000000 1.000000
vn 0.000000 0.000000 1.000000
vn 0.000000 0.000000 1.000000
vn 0.000000 0.000000 1.000000
vn 0.000000 0.000000 1.000000
vn 0.000000 0.000000 1.000000
vn 0.000000 0.000000 1.000000
vn 0.000000 0.000000 1.000000
vn 0.000000 0.000000 1.000000
vn 0.000000 0.000000 1.000000
vn 0.000000 0.000000 1.000000
vn 0.000000 0.000000 1.000000
vn 0.000000 0.000000 1.000000
vn 0.000000 0.000000 1.000000
vn 0.000000 0.000000 1.000000
vn 0.000000 0.000000 1.000000
vn 0.000000 0.000000 1.000000
vn 0.000000 0.000000 1.000000
vn 0.000000 0.000000 1.000000
vn 0.000000 0.000000 1.000000
vn 0.000000 0.000000 1.000000
vn 0.000000 0.000000 1.000000
vn 0.000000 -0.000000 1.000000
vn 0.000000 -0.000000 1.000000
vn 0.000000 -0.000000 1.000000
vn 0.000000 -0.000000 1.000000
vn 0.000000 -0.000000 1.000000
vn 0.000000 -0.000000 1.000000
vn 0.000000 -0.000000 1.000000
vn 0.000000 -0.000000 1.000000
vn 0.000000 -0.000000 1.000000
vn 0.000000 -0.000000 1.000000
vn 0.000000 -0.000000 1.000000
vn 0.000000 -0.000000 1.000000
vn 0.000000 -0.000000 1.000000
vn 0.000000 -0.000000 1.000000
vn 0.000000 -0.000000 1.000000
vn 0.000000 -0.000000 1.000000
vn 0.000000 0.000000 1.000000
vn 0.000000 0.000000 1.000000
vn 0.000000 0.000000 1.000000
vn 0.000000 0.000000 1.000000
vn 0.000000 0.000000 1.000000
vn 0.000000 0.000000 1.000000
vn 0.000000 0.000000 1.000000
vn 0.000000 0.000000 1.000000
vn 0.000000 0.000000 1.000000
vn 0.000000 0.000000 1.000000
vn 0.000000 0.000000 1.000000
vn 0.000000 0.000000 1.000000
vn 0.000000 0.000000 1.000000
vn 0.000000 0.000000 1.000000
vn 0.000000 0.000000 1.000000
vn 0.000000 0.000000 1.000000
vn 0.000000 0.000000 1.000000
vn 0.000000 0.000000 1.000000
vn 0.000000 0.000000 1.000000
vn 0.000000 0.000000 1.000000
vn 0.000000 0.000000 1.000000
vn 0.000000 0.000000 1.000000
vn 0.000000 0.000000 1.000000
vn 0.000000 0.000000 1.000000
vn 0.000000 0.000000 1.000000
vn 0.000000 0.000000 1.000000
vn 0.000000 0.000000 1.000000
vn 0.000000 0.000000 1.000000
vn 0.000000 0.000000 1.000000
vn 0.000000 0.000000 1.000000
vn 0.000000 0.000000 1.000000
vn 0.000000 0.000000 1.000000
vn 0.000000 0.000000 1.000000
vn 0.000000 0.000000 1.000000
vn 0.000000 0.000000 1.000000
vn 0.000000 0.000000 1.000000
vn 0.000000 0.000000 1.000000
vn 0.000000 0.000000 1.000000
vn 0.000000 0.000000 1.000000
vn 0.000000 0.000000 1.000000
vn 0.000000 0.000000 1.000000
vn 0.000000 0.000000 1.000000
vn 0.000000 0.000000 1.000000
vn 0.000000 0.000000 1.000000
vn 0.000000 0.000000 1.000000
vn 0.000000 0.000000 1.000000
vn 0.000000 0.000000 1.000000
vn 0.000000 0.000000 1.000000
vn 0.000000 0.000000 1.000000
vn 0.000000 0.000000 1.000000
vn 0.000000 0.000000 1.000000
vn 0.000000 0.000000 1.000000
vn 0.000000 0.000000 1.000000
vn 0.000000 0.000000 1.000000
vn 0.000000 0.000000 1.000000
vn 0.000000 0.000000 1.000000
vn 0.000000 0.000000 1.000000
vn 0.000000 0.000000 1.000000
vn 0.000000 0.000000 1.000000
vn 0.000000 0.000000 1.000000
vn 0.000000 0.000000 1.000000
vn 0.000000 0.000000 1.000000
vn 0.000000 0.000000 1.000000
vn 0.000000 0.000000 1.000000
vn 0.000000 0.000000 1.000000
vn 0.000000 0.000000 1.000000
vn 0.000000 0.000000 1.000000
vn 0.000000 0.000000 1.000000
vn 0.000000 0.000000 1.000000
vn 0.000000 0.000000 1.000000
vn 0.000000 0.000000 1.000000
vn 0.000000 0.000000 1.000000
vn 0.000000 0.000000 1.000000
vn 0.000000 0.000000 1.000000
vn 0.000000 0.000000 1.000000
vn 0.000000 0.000000 1.000000
vn 0.000000 0.000000 1.000000
vn 0.000000 0.000000 1.000000
vn 0.000000 1.000000 0.000000
vn 0.000000 1.000000 -0.000000
vn 0.000000 1.000000 -0.000000
vn 0.000000 1.000000 0.000000
vn -1.000000 0.000000 0.000000
vn -1.000000 -0.000000 0.000000
vn 0.000000 -1.000000 0.000000
vn 0.000000 -1.000000 0.000000
vn 1.000000 0.000000 0.000000
vn 1.000000 -0.000000 0.000000
vn 0.000000 1.000000 0.000000
vn -0.000000 1.000000 0.000000
vn 1.000000 0.000000 0.000000
vn 1.000000 0.000000 0.000000
vn 0.000000 -1.000000 -0.000000
vn -0.000000 -1.000000 0.000000
vn -1.000000 0.000000 0.000000
vn -1.000000 0.000000 0.000000
vn 0.000000 0.000000 1.000000
vn 0.000000 0.000000 1.000000
vn 0.000000 0.000000 1.000000
vn 0.000000 0.000000 1.000000
vn 0.000000 0.000000 1.000000
vn 0.000000 0.000000 1.000000
vn 0.000000 0.000000 1.000000
vn 0.000000 0.000000 1.000000
vn 0.000000 0.000000 1.000000
vn 0.000000 0.000000 1.000000
vn 0.000000 0.000000 1.000000
vn 0.000000 0.000000 1.000000
vn 0.000000 0.000000 1.000000
vn 0.000000 0.000000 1.000000
vn 0.000000 0.000000 1.000000
vn 0.000000 0.000000 1.000000
vn 0.000000 0.000000 -1.000000
vn 0.000000 0.000000 -1.000000
f 1//1 2//1 3//1
f 2//2 4//2 3//2
f 3//3 5//3 6//3
f 4//4 5//4 3//4
f 6//5 7//5 8//5
f 5//6 7//6 6//6
f 8//7 9//7 10//7
f 7//8 9//8 8//8
f 10//9 11//9 12//9
f 12//10 11//10 13//10
f 9//11 11//11 10//11
f 11//12 14//12 13//12
f 13//13 15//13 16//13
f 16//14 15//14 17//14
f 14//15 15//15 13//15
f 15//16 18//16 17//16
f 17//17 19//17 20//17
f 18//18 19//18 17//18
f 20//19 21//19 22//19
f 22//20 21//20 23//20
f 19//21 21//21 20//21
f 21//22 24//22 23//22
f 24//23 25//23 23//23
f 23//24 25//24 26//24
f 25//25 27//25 26//25
f 26//26 27//26 28//26
f 27//27 29//27 28//27
f 28//28 29//28 30//28
f 30//29 29//29 31//29
f 29//30 32//30 31//30
f 32//31 33//31 31//31
f 31//32 33//32 34//32
f 33//33 35//33 34//33
f 34//34 35//34 36//34
f 35//35 37//35 36//35
f 36//36 37//36 38//36
f 37//37 39//37 38//37
f 38//38 39//38 40//38
f 39//39 41//39 40//39
f 40//40 41//40 42//40
f 41//41 43//41 42//41
f 42//42 43//42 44//42
f 43//43 45//43 44//43
f 44//44 45//44 46//44
f 46//45 47//45 48//45
f 45//46 47//46 46//46
f 48//47 47//47 49//47
f 47//48 50//48 49//48
f 50//49 51//49 49//49
f 49//50 51//50 52//50
f 52//51 53//51 54//51
f 51//52 53//52 52//52
f 54//53 55//53 56//53
f 53//54 55//54 54//54
f 56//55 57//55 58//55
f 55//56 57//56 56//56
f 58//57 59//57 60//57
f 57//58 59//58 58//58
f 60//59 61//59 62//59
f 59//60 61//60 60//60
f 62//61 63//61 64//61
f 64//62 63//62 65//62
f 61//63 63//63 62//63
f 63//64 66//64 65//64
f 65//65 67//65 68//65
f 68//66 67//66 69//66
f 66//67 67//67 65//67
f 67//68 70//68 69//68
f 69//69 71//69 72//69
f 70//70 71//70 69//70
f 72//71 73//71 74//71
f 71//72 73//72 72//72
f 73//73 75//73 74//73
f 74//74 75//74 76//74
f 76//75 75//75 77//75
f 75//76 78//76 77//76
f 78//77 79//77 77//77
f 77//78 79//78 80//78
f 79//79 81//79 80//79
f 80//80 81//80 82//80
f 82//81 81//81 83//81
f 81//82 84//82 83//82
f 84//83 85//83 83//83
f 83//84 85//84 86//84
f 85//85 87//85 86//85
f 86//86 87//86 88//86
f 88//87 87//87 89//87
f 87//88 90//88 89//88
f 90//89 91//89 89//89
f 89//90 91//90 92//90
f 91//91 93//91 92//91
f 92//92 93//92 94//92
f 94//93 93//93 95//93
f 93//94 96//94 95//94
f 96//95 97//95 95//95
f 95//96 97//96 98//96
f 97//97 99//97 98//97
f 98//98 99//98 100//98
f 99//99 101//99 100//99
f 100//100 101//100 102//100
f 102//101 101//101 103//101
f 101//102 104//102 103//102
f 104//103 105//103 103//103
f 103//104 105//104 106//104
f 105//105 107//105 106//105
f 106//106 107//106 108//106
f 108//107 107//107 109//107
f 107//108 110//108 109//108
f 110//109 111//109 109//109
f 109//110 111//110 112//110
f 111//111 113//111 112//111
f 112//112 113//112 114//112
f 114//113 113//113 115//113
f 113//114 116//114 115//114
f 115//115 117//115 118//115
f 116//116 117//116 115//116
f 118//117 119//117 120//117
f 120//118 119//118 121//118
f 117//119 119//119 118//119
f 119//120 122//120 121//120
f 121//121 123//121 124//121
f 122//122 123//122 121//122
f 123//123 125//123 124//123
f 124//124 125//124 126//124
f 125//125 127//125 126//125
f 126//126 127//126 128//126
f 128//127 127//127 129//127
f 127//128 130//128 129//128
f 130//129 131//129 129//129
f 129//130 131//130 132//130
f 131//131 133//131 132//131
f 132//132 133//132 134//132
f 134//133 133//133 135//133
f 133//134 136//134 135//134
f 136//135 137//135 135//135
f 135//136 137//136 138//136
f 137//137 139//137 138//137
f 138//138 139//138 140//138
f 140//139 139//139 141//139
f 139//140 142//140 141//140
f 142//141 143//141 141//141
f 141//142 143//142 144//142
f 143//143 145//143 144//143
f 144//144 145//144 146//144
f 145//145 147//145 146//145
f 146//146 147//146 148//146
f 148//147 149//147 150//147
f 150//148 149//148 151//148
f 147//149 149//149 148//149
f 149//150 152//150 151//150
f 151//151 153//151 154//151
f 152//152 153//152 151//152
f 154//153 155//153 156//153
f 153//154 155//154 154//154
f 156//155 157//155 158//155
f 158//156 157//156 159//156
f 155//157 157//157 156//157
f 157//158 160//158 159//158
f 159//159 161//159 162//159
f 162//160 161//160 163//160
f 160//161 161//161 159//161
f 161//162 164//162 163//162
f 163//163 165//163 166//163
f 164//164 165//164 163//164
f 166//165 167//165 168//165
f 165//166 167//166 166//166
f 168//167 169//167 170//167
f 170//168 169//168 171//168
f 167//169 169//169 168//169
f 169//170 172//170 171//170
f 171//171 173//171 174//171
f 174//172 173//172 175//172
f 172//173 173//173 171//173
f 173//174 176//174 175//174
f 176//175 177//175 175//175
f 175//176 177//176 178//176
f 177//177 179//177 178//177
f 178//178 179//178 180//178
f 179//179 181//179 180//179
f 180//180 181//180 182//180
f 182//181 181//181 183//181
f 181//182 184//182 183//182
f 183//183 185//183 186//183
f 186//184 185//184 187//184
f 184//185 185//185 183//185
f 187//186 188//186 189//186
f 185//187 188//187 187//187
f 188//188 190//188 189//188
f 189//189 191//189 192//189
f 192//190 191//190 193//190
f 190//191 191//191 189//191
f 191//192 194//192 193//192
f 193//193 195//193 196//193
f 196//194 195//194 197//194
f 194//195 195//195 193//195
f 195//196 198//196 197//196
f 197//197 199//197 200//197
f 198//198 199//198 197//198
f 200//199 201//199 202//199
f 199//200 201//200 200//200
f 202//201 203//201 204//201
f 204//202 203//202 205//202
f 201//203 203//203 202//203
f 203//204 206//204 205//204
f 205//205 207//205 208//205
f 208//206 207//206 209//206
f 206//207 207//207 205//207
f 207//208 210//208 209//208
f 209//209 211//209 212//209
f 210//210 211//210 209//210
f 212//211 213//211 214//211
f 211//212 213//212 212//212
f 214//213 215//213 216//213
f 216//214 215//214 217//214
f 213//215 215//215 214//215
f 215//216 218//216 217//216
f 217//217 219//217 220//217
f 218//218 219//218 217//218
f 220//219 221//219 222//219
f 219//220 221//220 220//220
f 222//221 223//221 224//221
f 221//222 223//222 222//222
f 223//223 225//223 224//223
f 224//224 225//224 226//224
f 226//225 225//225 227//225
f 225//226 228//226 227//226
f 227//227 229//227 230//227
f 228//228 229//228 227//228
f 229//229 231//229 230//229
f 230//230 231//230 232//230
f 232//231 231//231 233//231
f 231//232 234//232 233//232
f 234//233 235//233 233//233
f 233//234 235//234 236//234
f 235//235 237//235 236//235
f 236//236 237//236 238//236
f 237//237 239//237 238//237
f 238//238 239//238 240//238
f 239//239 241//239 240//239
f 240//240 241//240 242//240
f 241//241 243//241 242//241
f 242//242 243//242 244//242
f 243//243 245//243 244//243
f 244//244 245//244 246//244
f 246//245 245//245 247//245
f 245//246 248//246 247//246
f 248//247 249//247 247//247
f 247//248 249//248 250//248
f 249//249 251//249 250//249
f 250//250 251//250 252//250
f 251//251 2//251 252//251
f 252//252 2//252 1//252
f 219//253 223//253 221//253
f 225//254 223//254 219//254
f 213//255 218//255 215//255
f 231//256 229//256 228//256
f 207//257 211//257 210//257
f 207//258 213//258 211//258
f 207//259 218//259 213//259
f 239//260 234//260 231//260
f 239//261 235//261 234//261
f 239//262 237//262 235//262
f 203//263 207//263 206//263
f 203//264 219//264 218//264
f 203//265 225//265 219//265
f 203//266 218//266 207//266
f 241//267 228//267 225//267
f 241//268 239//268 231//268
f 241//269 231//269 228//269
f 243//270 241//270 225//270
f 248//271 245//271 243//271
f 194//272 203//272 201//272
f 194//273 198//273 195//273
f 194//274 199//274 198//274
f 194//275 201//275 199//275
f 251//276 249//276 248//276
f 251//277 248//277 243//277
f 191//278 203//278 194//278
f 190//279 203//279 191//279
f 4//280 2//280 251//280
f 188//281 203//281 190//281
f 7//282 5//282 4//282
f 184//283 225//283 203//283
f 184//284 188//284 185//284
f 184//285 203//285 188//285
f 9//286 7//286 4//286
f 15//287 9//287 4//287
f 15//288 11//288 9//288
f 15//289 14//289 11//289
f 15//290 4//290 251//290
f 173//291 177//291 176//291
f 173//292 179//292 177//292
f 172//293 179//293 173//293
f 169//294 179//294 172//294
f 24//295 18//295 15//295
f 24//296 19//296 18//296
f 24//297 21//297 19//297
f 24//298 15//298 251//298
f 167//299 179//299 169//299
f 165//300 179//300 167//300
f 165//301 181//301 179//301
f 165//302 184//302 181//302
f 161//303 184//303 165//303
f 161//304 165//304 164//304
f 32//305 25//305 24//305
f 32//306 27//306 25//306
f 32//307 29//307 27//307
f 33//308 32//308 24//308
f 157//309 184//309 161//309
f 157//310 161//310 160//310
f 39//311 37//311 35//311
f 152//312 155//312 153//312
f 41//313 35//313 33//313
f 41//314 33//314 24//314
f 41//315 39//315 35//315
f 149//316 225//316 184//316
f 149//317 184//317 157//317
f 149//318 155//318 152//318
f 149//319 243//319 225//319
f 149//320 157//320 155//320
f 149//321 251//321 243//321
f 45//322 43//322 41//322
f 145//323 251//323 149//323
f 145//324 149//324 147//324
f 47//325 45//325 41//325
f 51//326 50//326 47//326
f 51//327 47//327 41//327
f 139//328 143//328 142//328
f 137//329 145//329 143//329
f 137//330 143//330 139//330
f 133//331 137//331 136//331
f 133//332 145//332 137//332
f 61//333 53//333 51//333
f 61//334 55//334 53//334
f 61//335 57//335 55//335
f 61//336 59//336 57//336
f 127//337 131//337 130//337
f 127//338 133//338 131//338
f 66//339 61//339 51//339
f 66//340 63//340 61//340
f 125//341 133//341 127//341
f 67//342 66//342 51//342
f 67//343 145//343 133//343
f 67//344 24//344 251//344
f 67//345 41//345 24//345
f 67//346 251//346 145//346
f 67//347 51//347 41//347
f 122//348 133//348 125//348
f 122//349 125//349 123//349
f 71//350 70//350 67//350
f 119//351 133//351 122//351
f 73//352 71//352 67//352
f 117//353 133//353 119//353
f 79//354 73//354 67//354
f 79//355 75//355 73//355
f 79//356 78//356 75//356
f 111//357 133//357 117//357
f 111//358 116//358 113//358
f 111//359 117//359 116//359
f 84//360 79//360 67//360
f 84//361 81//361 79//361
f 87//362 85//362 84//362
f 104//363 107//363 105//363
f 104//364 110//364 107//364
f 104//365 111//365 110//365
f 90//366 84//366 67//366
f 90//367 87//367 84//367
f 91//368 90//368 67//368
f 96//369 67//369 133//369
f 96//370 133//370 111//370
f 96//371 93//371 91//371
f 96//372 111//372 104//372
f 96//373 99//373 97//373
f 96//374 101//374 99//374
f 96//375 104//375 101//375
f 96//376 91//376 67//376
f 253//377 254//377 255//377
f 254//378 256//378 255//378
f 255//379 257//379 258//379
f 256//380 257//380 255//380
f 258//381 259//381 260//381
f 257//382 259//382 258//382
f 260//383 261//383 262//383
f 259//384 261//384 260//384
f 262//385 263//385 264//385
f 264//386 263//386 265//386
f 261//387 263//387 262//387
f 263//388 266//388 265//388
f 265//389 267//389 268//389
f 268//390 267//390 269//390
f 266//391 267//391 265//391
f 267//392 270//392 269//392
f 269//393 271//393 272//393
f 270//394 271//394 269//394
f 272//395 273//395 274//395
f 274//396 273//396 275//396
f 271//397 273//397 272//397
f 273//398 276//398 275//398
f 276//399 277//399 275//399
f 275//400 277//400 278//400
f 277//401 279//401 278//401
f 278//402 279//402 280//402
f 279//403 281//403 280//403
f 280//404 281//404 282//404
f 282//405 281//405 283//405
f 281//406 284//406 283//406
f 284//407 285//407 283//407
f 283//408 285//408 286//408
f 285//409 287//409 286//409
f 286//410 287//410 288//410
f 287//411 289//411 288//411
f 288//412 289//412 290//412
f 289//413 291//413 290//413
f 290//414 291//414 292//414
f 291//415 293//415 292//415
f 292//416 293//416 294//416
f 293//417 295//417 294//417
f 294//418 295//418 296//418
f 295//419 297//419 296//419
f 296//420 297//420 298//420
f 298//421 299//421 300//421
f 297//422 299//422 298//422
f 300//423 299//423 301//423
f 299//424 302//424 301//424
f 302//425 303//425 301//425
f 301//426 303//426 304//426
f 304//427 305//427 306//427
f 303//428 305//428 304//428
f 306//429 307//429 308//429
f 305//430 307//430 306//430
f 308//431 309//431 310//431
f 307//432 309//432 308//432
f 310//433 311//433 312//433
f 309//434 311//434 310//434
f 312//435 313//435 314//435
f 311//436 313//436 312//436
f 314//437 315//437 316//437
f 316//438 315//438 317//438
f 313//439 315//439 314//439
f 315//440 318//440 317//440
f 317//441 319//441 320//441
f 320//442 319//442 321//442
f 318//443 319//443 317//443
f 319//444 322//444 321//444
f 321//445 323//445 324//445
f 322//446 323//446 321//446
f 324//447 325//447 326//447
f 323//448 325//448 324//448
f 325//449 327//449 326//449
f 326//450 327//450 328//450
f 328//451 327//451 329//451
f 327//452 330//452 329//452
f 330//453 331//453 329//453
f 329//454 331//454 332//454
f 331//455 333//455 332//455
f 332//456 333//456 334//456
f 334//457 333//457 335//457
f 333//458 336//458 335//458
f 336//459 337//459 335//459
f 335//460 337//460 338//460
f 337//461 339//461 338//461
f 338//462 339//462 340//462
f 340//463 339//463 341//463
f 339//464 342//464 341//464
f 342//465 343//465 341//465
f 341//466 343//466 344//466
f 343//467 345//467 344//467
f 344//468 345//468 346//468
f 346//469 345//469 347//469
f 345//470 348//470 347//470
f 348//471 349//471 347//471
f 347//472 349//472 350//472
f 349//473 351//473 350//473
f 350//474 351//474 352//474
f 351//475 353//475 352//475
f 352//476 353//476 354//476
f 354//477 353//477 355//477
f 353//478 356//478 355//478
f 356//479 357//479 355//479
f 355//480 357//480 358//480
f 357//481 359//481 358//481
f 358//482 359//482 360//482
f 360//483 359//483 361//483
f 359//484 362//484 361//484
f 362//485 363//485 361//485
f 361//486 363//486 364//486
f 363//487 365//487 364//487
f 364//488 365//488 366//488
f 366//489 365//489 367//489
f 365//490 368//490 367//490
f 367//491 369//491 370//491
f 368//492 369//492 367//492
f 370//493 371//493 372//493
f 372//494 371//494 373//494
f 369//495 371//495 370//495
f 371//496 374//496 373//496
f 373//497 375//497 376//497
f 374//498 375//498 373//498
f 375//499 377//499 376//499
f 376//500 377//500 378//500
f 377//501 379//501 378//501
f 378//502 379//502 380//502
f 380//503 379//503 381//503
f 379//504 382//504 381//504
f 382//505 383//505 381//505
f 381//506 383//506 384//506
f 383//507 385//507 384//507
f 384//508 385//508 386//508
f 386//509 385//509 387//509
f 385//510 388//510 387//510
f 388//511 389//511 387//511
f 387//512 389//512 390//512
f 389//513 391//513 390//513
f 390//514 391//514 392//514
f 392//515 391//515 393//515
f 391//516 394//516 393//516
f 394//517 395//517 393//517
f 393//518 395//518 396//518
f 395//519 397//519 396//519
f 396//520 397//520 398//520
f 397//521 399//521 398//521
f 398//522 399//522 400//522
f 400//523 401//523 402//523
f 402//524 401//524 403//524
f 399//525 401//525 400//525
f 401//526 404//526 403//526
f 403//527 405//527 406//527
f 404//528 405//528 403//528
f 406//529 407//529 408//529
f 405//530 407//530 406//530
f 408//531 409//531 410//531
f 410//532 409//532 411//532
f 407//533 409//533 408//533
f 409//534 412//534 411//534
f 411//535 413//535 414//535
f 414//536 413//536 415//536
f 412//537 413//537 411//537
f 413//538 416//538 415//538
f 415//539 417//539 418//539
f 416//540 417//540 415//540
f 418//541 419//541 420//541
f 417//542 419//542 418//542
f 420//543 421//543 422//543
f 422//544 421//544 423//544
f 419//545 421//545 420//545
f 421//546 424//546 423//546
f 423//547 425//547 426//547
f 426//548 425//548 427//548
f 424//549 425//549 423//549
f 425//550 428//550 427//550
f 428//551 429//551 427//551
f 427//552 429//552 430//552
f 429//553 431//553 430//553
f 430//554 431//554 432//554
f 431//555 433//555 432//555
f 432//556 433//556 434//556
f 434//557 433//557 435//557
f 433//558 436//558 435//558
f 435//559 437//559 438//559
f 438//560 437//560 439//560
f 436//561 437//561 435//561
f 439//562 440//562 441//562
f 437//563 440//563 439//563
f 440//564 442//564 441//564
f 441//565 443//565 444//565
f 444//566 443//566 445//566
f 442//567 443//567 441//567
f 443//568 446//568 445//568
f 445//569 447//569 448//569
f 448//570 447//570 449//570
f 446//571 447//571 445//571
f 447//572 450//572 449//572
f 449//573 451//573 452//573
f 450//574 451//574 449//574
f 452//575 453//575 454//575
f 451//576 453//576 452//576
f 454//577 455//577 456//577
f 456//578 455//578 457//578
f 453//579 455//579 454//579
f 455//580 458//580 457//580
f 457//581 459//581 460//581
f 460//582 459//582 461//582
f 458//583 459//583 457//583
f 459//584 462//584 461//584
f 461//585 463//585 464//585
f 462//586 463//586 461//586
f 464//587 465//587 466//587
f 463//588 465//588 464//588
f 466//589 467//589 468//589
f 468//590 467//590 469//590
f 465//591 467//591 466//591
f 467//592 470//592 469//592
f 469//593 471//593 472//593
f 470//594 471//594 469//594
f 472//595 473//595 474//595
f 471//596 473//596 472//596
f 474//597 475//597 476//597
f 473//598 475//598 474//598
f 475//599 477//599 476//599
f 476//600 477//600 478//600
f 478//601 477//601 479//601
f 477//602 480//602 479//602
f 479//603 481//603 482//603
f 480//604 481//604 479//604
f 481//605 483//605 482//605
f 482//606 483//606 484//606
f 484//607 483//607 485//607
f 483//608 486//608 485//608
f 486//609 487//609 485//609
f 485//610 487//610 488//610
f 487//611 489//611 488//611
f 488//612 489//612 490//612
f 489//613 491//613 490//613
f 490//614 491//614 492//614
f 491//615 493//615 492//615
f 492//616 493//616 494//616
f 493//617 495//617 494//617
f 494//618 495//618 496//618
f 495//619 497//619 496//619
f 496//620 497//620 498//620
f 498//621 497//621 499//621
f 497//622 500//622 499//622
f 500//623 501//623 499//623
f 499//624 501//624 502//624
f 501//625 503//625 502//625
f 502//626 503//626 504//626
f 503//627 254//627 504//627
f 504//628 254//628 253//628
f 471//629 475//629 473//629
f 477//630 475//630 471//630
f 465//631 470//631 467//631
f 483//632 481//632 480//632
f 459//633 463//633 462//633
f 459//634 465//634 463//634
f 459//635 470//635 465//635
f 491//636 486//636 483//636
f 491//637 487//637 486//637
f 491//638 489//638 487//638
f 455//639 459//639 458//639
f 455//640 471//640 470//640
f 455//641 477//641 471//641
f 455//642 470//642 459//642
f 493//643 480//643 477//643
f 493//644 491//644 483//644
f 493//645 483//645 480//645
f 495//646 493//646 477//646
f 500//647 497//647 495//647
f 446//648 455//648 453//648
f 446//649 450//649 447//649
f 446//650 451//650 450//650
f 446//651 453//651 451//651
f 503//652 501//652 500//652
f 503//653 500//653 495//653
f 443//654 455//654 446//654
f 442//655 455//655 443//655
f 256//656 254//656 503//656
f 440//657 455//657 442//657
f 259//658 257//658 256//658
f 436//659 477//659 455//659
f 436//660 440//660 437//660
f 436//661 455//661 440//661
f 261//662 259//662 256//662
f 267//663 261//663 256//663
f 267//664 263//664 261//664
f 267//665 266//665 263//665
f 267//666 256//666 503//666
f 425//667 429//667 428//667
f 425//668 431//668 429//668
f 424//669 431//669 425//669
f 421//670 431//670 424//670
f 276//671 270//671 267//671
f 276//672 271//672 270//672
f 276//673 273//673 271//673
f 276//674 267//674 503//674
f 419//675 431//675 421//675
f 417//676 431//676 419//676
f 417//677 433//677 431//677
f 417//678 436//678 433//678
f 413//679 436//679 417//679
f 413//680 417//680 416//680
f 284//681 277//681 276//681
f 284//682 279//682 277//682
f 284//683 281//683 279//683
f 285//684 284//684 276//684
f 409//685 436//685 413//685
f 409//686 413//686 412//686
f 291//687 289//687 287//687
f 404//688 407//688 405//688
f 293//689 287//689 285//689
f 293//690 285//690 276//690
f 293//691 291//691 287//691
f 401//692 477//692 436//692
f 401//693 436//693 409//693
f 401//694 407//694 404//694
f 401//695 495//695 477//695
f 401//696 409//696 407//696
f 401//697 503//697 495//697
f 297//698 295//698 293//698
f 397//699 503//699 401//699
f 397//700 401//700 399//700
f 299//701 297//701 293//701
f 303//702 302//702 299//702
f 303//703 299//703 293//703
f 391//704 395//704 394//704
f 389//705 397//705 395//705
f 389//706 395//706 391//706
f 385//707 389//707 388//707
f 385//708 397//708 389//708
f 313//709 305//709 303//709
f 313//710 307//710 305//710
f 313//711 309//711 307//711
f 313//712 311//712 309//712
f 379//713 383//713 382//713
f 379//714 385//714 383//714
f 318//715 313//715 303//715
f 318//716 315//716 313//716
f 377//717 385//717 379//717
f 319//718 318//718 303//718
f 319//719 397//719 385//719
f 319//720 276//720 503//720
f 319//721 293//721 276//721
f 319//722 503//722 397//722
f 319//723 303//723 293//723
f 374//724 385//724 377//724
f 374//725 377//725 375//725
f 323//726 322//726 319//726
f 371//727 385//727 374//727
f 325//728 323//728 319//728
f 369//729 385//729 371//729
f 331//730 325//730 319//730
f 331//731 327//731 325//731
f 331//732 330//732 327//732
f 363//733 385//733 369//733
f 363//734 368//734 365//734
f 363//735 369//735 368//735
f 336//736 331//736 319//736
f 336//737 333//737 331//737
f 339//738 337//738 336//738
f 356//739 359//739 357//739
f 356//740 362//740 359//740
f 356//741 363//741 362//741
f 342//742 336//742 319//742
f 342//743 339//743 336//743
f 343//744 342//744 319//744
f 348//745 319//745 385//745
f 348//746 385//746 363//746
f 348//747 345//747 343//747
f 348//748 363//748 356//748
f 348//749 351//749 349//749
f 348//750 353//750 351//750
f 348//751 356//751 353//751
f 348//752 343//752 319//752
f 505//753 506//753 507//753
f 507//754 506//754 508//754
f 509//755 510//755 511//755
f 506//756 512//756 509//756
f 505//757 512//757 506//757
f 509//758 512//758 510//758
f 513//759 505//759 514//759
f 514//760 505//760 507//760
f 515//761 516//761 517//761
f 517//762 516//762 518//762
f 515//763 519//763 516//763
f 519//764 514//764 520//764
f 519//765 513//765 514//765
f 515//766 513//766 519//766
f 512//767 515//767 510//767
f 510//768 515//768 517//768
f 505//769 513//769 512//769
f 512//770 513//770 515//770
f 521//771 519//771 522//771
f 522//772 519//772 520//772
f 516//773 283//773 286//773
f 286//774 288//774 516//774
f 516//775 282//775 283//775
f 288//776 290//776 516//776
f 516//777 280//777 282//777
f 290//778 292//778 516//778
f 516//779 278//779 280//779
f 292//780 294//780 516//780
f 516//781 275//781 278//781
f 294//782 296//782 516//782
f 516//783 274//783 275//783
f 296//784 298//784 516//784
f 516//785 272//785 274//785
f 298//786 300//786 516//786
f 516//787 269//787 272//787
f 300//788 301//788 516//788
f 516//789 268//789 269//789
f 301//790 304//790 516//790
f 516//791 265//791 268//791
f 304//792 306//792 516//792
f 516//793 264//793 265//793
f 306//794 308//794 516//794
f 516//795 262//795 264//795
f 516//796 260//796 262//796
f 516//797 258//797 260//797
f 516//798 255//798 258//798
f 519//799 253//799 516//799
f 516//800 253//800 255//800
f 519//801 504//801 253//801
f 519//802 502//802 504//802
f 519//803 499//803 502//803
f 519//804 498//804 499//804
f 519//805 496//805 498//805
f 519//806 494//806 496//806
f 519//807 492//807 494//807
f 519//808 490//808 492//808
f 519//809 488//809 490//809
f 519//810 485//810 488//810
f 519//811 484//811 485//811
f 519//812 482//812 484//812
f 519//813 479//813 482//813
f 519//814 478//814 479//814
f 519//815 476//815 478//815
f 310//816 523//816 308//816
f 312//817 523//817 310//817
f 314//818 523//818 312//818
f 316//819 523//819 314//819
f 317//820 523//820 316//820
f 320//821 523//821 317//821
f 321//822 523//822 320//822
f 324//823 523//823 321//823
f 326//824 523//824 324//824
f 328//825 523//825 326//825
f 329//826 523//826 328//826
f 332//827 523//827 329//827
f 334//828 523//828 332//828
f 335//829 523//829 334//829
f 338//830 523//830 335//830
f 340//831 523//831 338//831
f 341//832 523//832 340//832
f 344//833 523//833 341//833
f 346//834 523//834 344//834
f 347//835 523//835 346//835
f 308//836 523//836 516//836
f 519//837 474//837 476//837
f 347//838 350//838 523//838
f 519//839 472//839 474//839
f 350//840 352//840 523//840
f 519//841 469//841 472//841
f 352//842 354//842 523//842
f 519//843 468//843 469//843
f 354//844 355//844 523//844
f 519//845 466//845 468//845
f 355//846 358//846 523//846
f 519//847 464//847 466//847
f 358//848 360//848 523//848
f 519//849 461//849 464//849
f 360//850 361//850 523//850
f 361//851 364//851 523//851
f 364//852 366//852 523//852
f 366//853 367//853 523//853
f 367//854 370//854 523//854
f 370//855 372//855 523//855
f 372//856 373//856 523//856
f 373//857 376//857 523//857
f 376//858 378//858 523//858
f 378//859 380//859 523//859
f 448//860 521//860 445//860
f 449//861 521//861 448//861
f 380//862 521//862 523//862
f 381//863 521//863 380//863
f 384//864 521//864 381//864
f 386//865 521//865 384//865
f 387//866 521//866 386//866
f 390//867 521//867 387//867
f 392//868 521//868 390//868
f 393//869 521//869 392//869
f 396//870 521//870 393//870
f 398//871 521//871 396//871
f 400//872 521//872 398//872
f 402//873 521//873 400//873
f 403//874 521//874 402//874
f 406//875 521//875 403//875
f 408//876 521//876 406//876
f 410//877 521//877 408//877
f 411//878 521//878 410//878
f 414//879 521//879 411//879
f 415//880 521//880 414//880
f 418//881 521//881 415//881
f 420//882 521//882 418//882
f 422//883 521//883 420//883
f 423//884 521//884 422//884
f 426//885 521//885 423//885
f 427//886 521//886 426//886
f 430//887 521//887 427//887
f 432//888 521//888 430//888
f 434//889 521//889 432//889
f 435//890 521//890 434//890
f 438//891 521//891 435//891
f 439//892 521//892 438//892
f 441//893 521//893 439//893
f 444//894 521//894 441//894
f 445//895 521//895 444//895
f 519//896 521//896 449//896
f 519//897 449//897 452//897
f 519//898 452//898 454//898
f 519//899 454//899 456//899
f 519//900 456//900 457//900
f 519//901 457//901 460//901
f 519//902 460//902 461//902
f 524//903 31//903 34//903
f 34//904 36//904 524//904
f 524//905 30//905 31//905
f 36//906 38//906 524//906
f 524//907 28//907 30//907
f 38//908 40//908 524//908
f 524//909 26//909 28//909
f 40//910 42//910 524//910
f 524//911 23//911 26//911
f 42//912 44//912 524//912
f 524//913 22//913 23//913
f 44//914 46//914 524//914
f 524//915 20//915 22//915
f 46//916 48//916 524//916
f 524//917 17//917 20//917
f 48//918 49//918 524//918
f 524//919 16//919 17//919
f 49//920 52//920 524//920
f 524//921 13//921 16//921
f 52//922 54//922 524//922
f 524//923 12//923 13//923
f 54//924 56//924 524//924
f 524//925 10//925 12//925
f 56//926 58//926 524//926
f 524//927 8//927 10//927
f 58//928 60//928 524//928
f 524//929 6//929 8//929
f 60//930 62//930 524//930
f 524//931 3//931 6//931
f 62//932 64//932 524//932
f 524//933 1//933 3//933
f 64//934 65//934 524//934
f 65//935 68//935 524//935
f 68//936 69//936 524//936
f 69//937 72//937 524//937
f 72//938 74//938 524//938
f 226//939 525//939 224//939
f 227//940 525//940 226//940
f 230//941 525//941 227//941
f 232//942 525//942 230//942
f 233//943 525//943 232//943
f 236//944 525//944 233//944
f 238//945 525//945 236//945
f 240//946 525//946 238//946
f 242//947 525//947 240//947
f 244//948 525//948 242//948
f 246//949 525//949 244//949
f 247//950 525//950 246//950
f 250//951 525//951 247//951
f 252//952 525//952 250//952
f 1//953 525//953 252//953
f 524//954 525//954 1//954
f 525//955 222//955 224//955
f 525//956 220//956 222//956
f 525//957 217//957 220//957
f 525//958 216//958 217//958
f 525//959 214//959 216//959
f 525//960 212//960 214//960
f 525//961 209//961 212//961
f 525//962 208//962 209//962
f 525//963 205//963 208//963
f 525//964 204//964 205//964
f 525//965 202//965 204//965
f 525//966 200//966 202//966
f 525//967 197//967 200//967
f 525//968 196//968 197//968
f 525//969 193//969 196//969
f 525//970 192//970 193//970
f 525//971 189//971 192//971
f 525//972 187//972 189//972
f 525//973 186//973 187//973
f 525//974 183//974 186//974
f 76//975 509//975 74//975
f 77//976 509//976 76//976
f 80//977 509//977 77//977
f 82//978 509//978 80//978
f 83//979 509//979 82//979
f 86//980 509//980 83//980
f 88//981 509//981 86//981
f 89//982 509//982 88//982
f 92//983 509//983 89//983
f 94//984 509//984 92//984
f 95//985 509//985 94//985
f 98//986 509//986 95//986
f 100//987 509//987 98//987
f 102//988 509//988 100//988
f 103//989 509//989 102//989
f 106//990 509//990 103//990
f 108//991 509//991 106//991
f 109//992 509//992 108//992
f 112//993 509//993 109//993
f 114//994 509//994 112//994
f 115//995 509//995 114//995
f 118//996 509//996 115//996
f 120//997 509//997 118//997
f 121//998 509//998 120//998
f 124//999 509//999 121//999
f 126//1000 509//1000 124//1000
f 128//1001 509//1001 126//1001
f 74//1002 509//1002 524//1002
f 128//1003 506//1003 509//1003
f 129//1004 506//1004 128//1004
f 132//1005 506//1005 129//1005
f 134//1006 506//1006 132//1006
f 135//1007 506//1007 134//1007
f 138//1008 506//1008 135//1008
f 140//1009 506//1009 138//1009
f 141//1010 506//1010 140//1010
f 144//1011 506//1011 141//1011
f 146//1012 506//1012 144//1012
f 148//1013 506//1013 146//1013
f 150//1014 506//1014 148//1014
f 151//1015 506//1015 150//1015
f 154//1016 506//1016 151//1016
f 156//1017 506//1017 154//1017
f 158//1018 506//1018 156//1018
f 159//1019 506//1019 158//1019
f 162//1020 506//1020 159//1020
f 163//1021 506//1021 162//1021
f 166//1022 506//1022 163//1022
f 168//1023 506//1023 166//1023
f 170//1024 506//1024 168//1024
f 171//1025 506//1025 170//1025
f 525//1026 506//1026 183//1026
f 183//1027 506//1027 182//1027
f 182//1028 506//1028 180//1028
f 180//1029 506//1029 178//1029
f 178//1030 506//1030 175//1030
f 175//1031 506//1031 174//1031
f 174//1032 506//1032 171//1032
f 518//1033 523//1033 526//1033
f 516//1034 523//1034 518//1034
f 524//1035 509//1035 527//1035
f 527//1036 509//1036 511//1036
f 525//1037 524//1037 528//1037
f 528//1038 524//1038 527//1038
f 508//1039 525//1039 528//1039
f 506//1040 525//1040 508//1040
f 523//1041 521//1041 526//1041
f 526//1042 521//1042 522//1042
f 529//1043 530//1043 531//1043
f 529//1044 532//1044 530//1044
f 532//1045 533//1045 530//1045
f 532//1046 534//1046 533//1046
f 534//1047 535//1047 533//1047
f 534//1048 536//1048 535//1048
f 536//1049 531//1049 535//1049
f 536//1050 529//1050 531//1050
f 517//1051 526//1051 536//1051
f 518//1052 526//1052 517//1052
f 529//1053 526//1053 522//1053
f 529//1054 536//1054 526//1054
f 534//1055 510//1055 517//1055
f 534//1056 517//1056 536//1056
f 514//1057 522//1057 520//1057
f 514//1058 529//1058 522//1058
f 527//1059 511//1059 510//1059
f 527//1060 510//1060 534//1060
f 528//1061 507//1061 508//1061
f 532//1062 528//1062 527//1062
f 532//1063 514//1063 507//1063
f 532//1064 529//1064 514//1064
f 532//1065 507//1065 528//1065
f 532//1066 527//1066 534//1066
f 535//1067 531//1067 533//1067
f 531//1068 530//1068 533//1068
