# Rescaled and Centered by PostProcess
v 0.000000 0.000000 0.000000
v 0.000000 -0.000000 0.000000
v 0.000000 0.000000 0.000000
v 0.000000 -0.000000 0.000000
v 0.000000 -0.000000 0.000000
v 0.000000 -0.000000 0.000000
v 0.000000 -0.000000 0.000000
v 0.000000 -0.000000 0.000000
v 0.000000 -0.000000 0.000000
v 0.000000 -0.000000 0.000000
v 0.000000 -0.000000 0.000000
v 0.000000 -0.000000 0.000000
v 0.000000 -0.000000 0.000000
v 0.000000 -0.000000 0.000000
v 0.000000 -0.000000 0.000000
v 0.000000 -0.000000 0.000000
v 0.000000 -0.000000 0.000000
v 0.000000 -0.000000 0.000000
v 0.000000 -0.000000 0.000000
v 0.000000 -0.000000 0.000000
v 0.000000 -0.000000 0.000000
v 0.000000 -0.000000 0.000000
v 0.000000 -0.000000 0.000000
v 0.000000 -0.000000 0.000000
v 0.000000 -0.000000 0.000000
v 0.000000 -0.000000 0.000000
v 0.000000 -0.000000 0.000000
v 0.000000 -0.000000 0.000000
v 0.000000 -0.000000 0.000000
v 0.000000 -0.000000 0.000000
v 0.000000 -0.000000 0.000000
v 0.000000 -0.000000 0.000000
v 0.000000 -0.000000 0.000000
v 0.000000 -0.000000 0.000000
v 0.000000 -0.000000 0.000000
v 0.000000 -0.000000 0.000000
v 0.000000 -0.000000 0.000000
v 0.000000 -0.000000 0.000000
v 0.000000 -0.000000 0.000000
v 0.000000 -0.000000 0.000000
v 0.000000 -0.000000 0.000000
v 0.000000 -0.000000 0.000000
v 0.000000 -0.000000 0.000000
v 0.000000 -0.000000 0.000000
v 0.000000 -0.000000 0.000000
v 0.000000 -0.000000 0.000000
v 0.000000 -0.000000 0.000000
v 0.000000 -0.000000 0.000000
v 0.000000 -0.000000 0.000000
v 0.000000 -0.000000 0.000000
v 0.000000 -0.000000 0.000000
v 0.000000 -0.000000 0.000000
v 0.000000 -0.000000 0.000000
v 0.000000 -0.000000 0.000000
v 0.000000 -0.000000 0.000000
v 0.000000 -0.000000 0.000000
v 0.000000 -0.000000 0.000000
v 0.000000 -0.000000 0.000000
v 0.000000 -0.000000 0.000000
v 0.000000 -0.000000 0.000000
v 0.000000 -0.000000 0.000000
v 0.000000 -0.000000 0.000000
v 0.000000 -0.000000 0.000000
v 0.000000 -0.000000 0.000000
v 0.000000 -0.000000 0.000000
v 0.000000 -0.000000 0.000000
v 0.000000 -0.000000 0.000000
v 0.000000 -0.000000 0.000000
v 0.000000 -0.000000 0.000000
v 0.000000 -0.000000 0.000000
v 0.000000 -0.000000 0.000000
v 0.000000 -0.000000 0.000000
v 0.000000 -0.000000 0.000000
v 0.000000 -0.000000 0.000000
v 0.000000 -0.000000 0.000000
v 0.000000 -0.000000 0.000000
v 0.000000 -0.000000 0.000000
v 0.000000 -0.000000 0.000000
v 0.000000 -0.000000 0.000000
v 0.000000 -0.000000 0.000000
v 0.000000 -0.000000 0.000000
v 0.000000 -0.000000 0.000000
v 0.000000 -0.000000 0.000000
v 0.000000 -0.000000 0.000000
v 0.000000 -0.000000 0.000000
v 0.000000 -0.000000 0.000000
v 0.000000 -0.000000 0.000000
v 0.000000 -0.000000 0.000000
v 0.000000 -0.000000 0.000000
v 0.000000 -0.000000 0.000000
v 0.000000 -0.000000 0.000000
v 0.000000 -0.000000 0.000000
v 0.000000 -0.000000 0.000000
v 0.000000 -0.000000 0.000000
v 0.000000 -0.000000 0.000000
v 0.000000 -0.000000 0.000000
v 0.000000 -0.000000 0.000000
v 0.000000 -0.000000 0.000000
v 0.000000 -0.000000 0.000000
v 0.000000 -0.000000 0.000000
v 0.000000 -0.000000 0.000000
v 0.000000 -0.000000 0.000000
v 0.000000 -0.000000 0.000000
v 0.000000 -0.000000 0.000000
v 0.000000 -0.000000 0.000000
v 0.000000 -0.000000 0.000000
v 0.000000 -0.000000 0.000000
v 0.000000 -0.000000 0.000000
v 0.000000 -0.000000 0.000000
v 0.000000 -0.000000 0.000000
v 0.000000 -0.000000 0.000000
v 0.000000 -0.000000 0.000000
v 0.000000 -0.000000 0.000000
v 0.000000 -0.000000 0.000000
v 0.000000 -0.000000 0.000000
v 0.000000 -0.000000 0.000000
v 0.000000 -0.000000 0.000000
v 0.000000 -0.000000 0.000000
v 0.000000 -0.000000 0.000000
v 0.000000 -0.000000 0.000000
v 0.000000 -0.000000 0.000000
v 0.000000 -0.000000 0.000000
v 0.000000 -0.000000 0.000000
v 0.000000 -0.000000 0.000000
v 0.000000 -0.000000 0.000000
v 0.000000 -0.000000 0.000000
v 0.000000 0.000000 0.000000
v 0.000000 0.000000 0.000000
v 0.000000 0.000000 0.000000
v 0.000000 0.000000 0.000000
v 0.000000 0.000000 0.000000
v 0.000000 0.000000 0.000000
v 0.000000 0.000000 0.000000
v 0.000000 0.000000 0.000000
v 0.000000 0.000000 0.000000
v 0.000000 0.000000 0.000000
v 0.000000 0.000000 0.000000
v 0.000000 0.000000 0.000000
v 0.000000 0.000000 0.000000
v 0.000000 0.000000 0.000000
v 0.000000 0.000000 0.000000
v 0.000000 0.000000 0.000000
v 0.000000 0.000000 0.000000
v 0.000000 0.000000 0.000000
v 0.000000 0.000000 0.000000
v 0.000000 0.000000 0.000000
v 0.000000 0.000000 0.000000
v 0.000000 0.000000 0.000000
v 0.000000 0.000000 0.000000
v 0.000000 0.000000 0.000000
v 0.000000 0.000000 0.000000
v 0.000000 0.000000 0.000000
v 0.000000 0.000000 0.000000
v 0.000000 0.000000 0.000000
v 0.000000 0.000000 0.000000
v 0.000000 0.000000 0.000000
v 0.000000 0.000000 0.000000
v 0.000000 0.000000 0.000000
v 0.000000 0.000000 0.000000
v 0.000000 0.000000 0.000000
v 0.000000 0.000000 0.000000
v 0.000000 0.000000 0.000000
v 0.000000 0.000000 0.000000
v 0.000000 0.000000 0.000000
v 0.000000 0.000000 0.000000
v 0.000000 0.000000 0.000000
v 0.000000 0.000000 0.000000
v 0.000000 0.000000 0.000000
v 0.000000 0.000000 0.000000
v 0.000000 0.000000 0.000000
v 0.000000 0.000000 0.000000
v 0.000000 0.000000 0.000000
v 0.000000 0.000000 0.000000
v 0.000000 0.000000 0.000000
v 0.000000 0.000000 0.000000
v 0.000000 0.000000 0.000000
v 0.000000 0.000000 0.000000
v 0.000000 0.000000 0.000000
v 0.000000 0.000000 0.000000
v 0.000000 0.000000 0.000000
v 0.000000 0.000000 0.000000
v 0.000000 0.000000 0.000000
v 0.000000 0.000000 0.000000
v 0.000000 0.000000 0.000000
v 0.000000 0.000000 0.000000
v 0.000000 0.000000 0.000000
v 0.000000 0.000000 0.000000
v 0.000000 0.000000 0.000000
v 0.000000 0.000000 0.000000
v 0.000000 0.000000 0.000000
v 0.000000 0.000000 0.000000
v 0.000000 0.000000 0.000000
v 0.000000 0.000000 0.000000
v 0.000000 0.000000 0.000000
v 0.000000 0.000000 0.000000
v 0.000000 0.000000 0.000000
v 0.000000 0.000000 0.000000
v 0.000000 0.000000 0.000000
v 0.000000 0.000000 0.000000
v 0.000000 0.000000 0.000000
v 0.000000 0.000000 0.000000
v 0.000000 0.000000 0.000000
v 0.000000 0.000000 0.000000
v 0.000000 0.000000 0.000000
v 0.000000 0.000000 0.000000
v 0.000000 0.000000 0.000000
v 0.000000 0.000000 0.000000
v 0.000000 0.000000 0.000000
v 0.000000 0.000000 0.000000
v 0.000000 0.000000 0.000000
v 0.000000 0.000000 0.000000
v 0.000000 0.000000 0.000000
v 0.000000 0.000000 0.000000
v 0.000000 0.000000 0.000000
v 0.000000 0.000000 0.000000
v 0.000000 0.000000 0.000000
v 0.000000 0.000000 0.000000
v 0.000000 0.000000 0.000000
v 0.000000 0.000000 0.000000
v 0.000000 0.000000 0.000000
v 0.000000 0.000000 0.000000
v 0.000000 0.000000 0.000000
v 0.000000 0.000000 0.000000
v 0.000000 0.000000 0.000000
v 0.000000 0.000000 0.000000
v 0.000000 0.000000 0.000000
v 0.000000 0.000000 0.000000
v 0.000000 0.000000 0.000000
v 0.000000 0.000000 0.000000
v 0.000000 0.000000 0.000000
v 0.000000 0.000000 0.000000
v 0.000000 0.000000 0.000000
v 0.000000 0.000000 0.000000
v 0.000000 0.000000 0.000000
v 0.000000 0.000000 0.000000
v 0.000000 0.000000 0.000000
v 0.000000 0.000000 0.000000
v 0.000000 0.000000 0.000000
v 0.000000 0.000000 0.000000
v 0.000000 0.000000 0.000000
v 0.000000 0.000000 0.000000
v 0.000000 0.000000 0.000000
v 0.000000 0.000000 0.000000
v 0.000000 0.000000 0.000000
v 0.000000 0.000000 0.000000
v 0.000000 0.000000 0.000000
v 0.000000 0.000000 0.000000
v 0.000000 0.000000 0.000000
v 0.000000 0.000000 0.000000
v 0.000000 0.000000 0.000000
v 0.000000 0.000000 0.000000
v 0.000000 0.000000 0.000000
v -0.000000 0.000000 0.000000
v -0.000000 -0.000000 0.000000
v -0.000000 0.000000 0.000000
v -0.000000 -0.000000 0.000000
v -0.000000 -0.000000 0.000000
v -0.000000 -0.000000 0.000000
v -0.000000 -0.000000 0.000000
v -0.000000 -0.000000 0.000000
v -0.000000 -0.000000 0.000000
v -0.000000 -0.000000 0.000000
v -0.000000 -0.000000 0.000000
v -0.000000 -0.000000 0.000000
v -0.000000 -0.000000 0.000000
v -0.000000 -0.000000 0.000000
v -0.000000 -0.000000 0.000000
v -0.000000 -0.000000 0.000000
v -0.000000 -0.000000 0.000000
v -0.000000 -0.000000 0.000000
v -0.000000 -0.000000 0.000000
v -0.000000 -0.000000 0.000000
v -0.000000 -0.000000 0.000000
v -0.000000 -0.000000 0.000000
v -0.000000 -0.000000 0.000000
v -0.000000 -0.000000 0.000000
v -0.000000 -0.000000 0.000000
v -0.000000 -0.000000 0.000000
v -0.000000 -0.000000 0.000000
v -0.000000 -0.000000 0.000000
v -0.000000 -0.000000 0.000000
v -0.000000 -0.000000 0.000000
v -0.000000 -0.000000 0.000000
v -0.000000 -0.000000 0.000000
v -0.000000 -0.000000 0.000000
v -0.000000 -0.000000 0.000000
v -0.000000 -0.000000 0.000000
v -0.000000 -0.000000 0.000000
v -0.000000 -0.000000 0.000000
v -0.000000 -0.000000 0.000000
v -0.000000 -0.000000 0.000000
v -0.000000 -0.000000 0.000000
v -0.000000 -0.000000 0.000000
v -0.000000 -0.000000 0.000000
v -0.000000 -0.000000 0.000000
v -0.000000 -0.000000 0.000000
v -0.000000 -0.000000 0.000000
v -0.000000 -0.000000 0.000000
v -0.000000 -0.000000 0.000000
v -0.000000 -0.000000 0.000000
v -0.000000 -0.000000 0.000000
v -0.000000 -0.000000 0.000000
v -0.000000 -0.000000 0.000000
v -0.000000 -0.000000 0.000000
v -0.000000 -0.000000 0.000000
v -0.000000 -0.000000 0.000000
v -0.000000 -0.000000 0.000000
v -0.000000 -0.000000 0.000000
v -0.000000 -0.000000 0.000000
v -0.000000 -0.000000 0.000000
v -0.000000 -0.000000 0.000000
v -0.000000 -0.000000 0.000000
v -0.000000 -0.000000 0.000000
v -0.000000 -0.000000 0.000000
v -0.000000 -0.000000 0.000000
v -0.000000 -0.000000 0.000000
v -0.000000 -0.000000 0.000000
v -0.000000 -0.000000 0.000000
v -0.000000 -0.000000 0.000000
v -0.000000 -0.000000 0.000000
v -0.000000 -0.000000 0.000000
v -0.000000 -0.000000 0.000000
v -0.000000 -0.000000 0.000000
v -0.000000 -0.000000 0.000000
v -0.000000 -0.000000 0.000000
v -0.000000 -0.000000 0.000000
v -0.000000 -0.000000 0.000000
v -0.000000 -0.000000 0.000000
v -0.000000 -0.000000 0.000000
v -0.000000 -0.000000 0.000000
v -0.000000 -0.000000 0.000000
v -0.000000 -0.000000 0.000000
v -0.000000 -0.000000 0.000000
v -0.000000 -0.000000 0.000000
v -0.000000 -0.000000 0.000000
v -0.000000 -0.000000 0.000000
v -0.000000 -0.000000 0.000000
v -0.000000 -0.000000 0.000000
v -0.000000 -0.000000 0.000000
v -0.000000 -0.000000 0.000000
v -0.000000 -0.000000 0.000000
v -0.000000 -0.000000 0.000000
v -0.000000 -0.000000 0.000000
v -0.000000 -0.000000 0.000000
v -0.000000 -0.000000 0.000000
v -0.000000 -0.000000 0.000000
v -0.000000 -0.000000 0.000000
v -0.000000 -0.000000 0.000000
v -0.000000 -0.000000 0.000000
v -0.000000 -0.000000 0.000000
v -0.000000 -0.000000 0.000000
v -0.000000 -0.000000 0.000000
v -0.000000 -0.000000 0.000000
v -0.000000 -0.000000 0.000000
v -0.000000 -0.000000 0.000000
v -0.000000 -0.000000 0.000000
v -0.000000 -0.000000 0.000000
v -0.000000 -0.000000 0.000000
v -0.000000 -0.000000 0.000000
v -0.000000 -0.000000 0.000000
v -0.000000 -0.000000 0.000000
v -0.000000 -0.000000 0.000000
v -0.000000 -0.000000 0.000000
v -0.000000 -0.000000 0.000000
v -0.000000 -0.000000 0.000000
v -0.000000 -0.000000 0.000000
v -0.000000 -0.000000 0.000000
v -0.000000 -0.000000 0.000000
v -0.000000 -0.000000 0.000000
v -0.000000 -0.000000 0.000000
v -0.000000 -0.000000 0.000000
v -0.000000 -0.000000 0.000000
v -0.000000 -0.000000 0.000000
v -0.000000 -0.000000 0.000000
v -0.000000 -0.000000 0.000000
v -0.000000 -0.000000 0.000000
v -0.000000 -0.000000 0.000000
v -0.000000 -0.000000 0.000000
v -0.000000 0.000000 0.000000
v -0.000000 0.000000 0.000000
v -0.000000 0.000000 0.000000
v -0.000000 0.000000 0.000000
v -0.000000 0.000000 0.000000
v -0.000000 0.000000 0.000000
v -0.000000 0.000000 0.000000
v -0.000000 0.000000 0.000000
v -0.000000 0.000000 0.000000
v -0.000000 0.000000 0.000000
v -0.000000 0.000000 0.000000
v -0.000000 0.000000 0.000000
v -0.000000 0.000000 0.000000
v -0.000000 0.000000 0.000000
v -0.000000 0.000000 0.000000
v -0.000000 0.000000 0.000000
v -0.000000 0.000000 0.000000
v -0.000000 0.000000 0.000000
v -0.000000 0.000000 0.000000
v -0.000000 0.000000 0.000000
v -0.000000 0.000000 0.000000
v -0.000000 0.000000 0.000000
v -0.000000 0.000000 0.000000
v -0.000000 0.000000 0.000000
v -0.000000 0.000000 0.000000
v -0.000000 0.000000 0.000000
v -0.000000 0.000000 0.000000
v -0.000000 0.000000 0.000000
v -0.000000 0.000000 0.000000
v -0.000000 0.000000 0.000000
v -0.000000 0.000000 0.000000
v -0.000000 0.000000 0.000000
v -0.000000 0.000000 0.000000
v -0.000000 0.000000 0.000000
v -0.000000 0.000000 0.000000
v -0.000000 0.000000 0.000000
v -0.000000 0.000000 0.000000
v -0.000000 0.000000 0.000000
v -0.000000 0.000000 0.000000
v -0.000000 0.000000 0.000000
v -0.000000 0.000000 0.000000
v -0.000000 0.000000 0.000000
v -0.000000 0.000000 0.000000
v -0.000000 0.000000 0.000000
v -0.000000 0.000000 0.000000
v -0.000000 0.000000 0.000000
v -0.000000 0.000000 0.000000
v -0.000000 0.000000 0.000000
v -0.000000 0.000000 0.000000
v -0.000000 0.000000 0.000000
v -0.000000 0.000000 0.000000
v -0.000000 0.000000 0.000000
v -0.000000 0.000000 0.000000
v -0.000000 0.000000 0.000000
v -0.000000 0.000000 0.000000
v -0.000000 0.000000 0.000000
v -0.000000 0.000000 0.000000
v -0.000000 0.000000 0.000000
v -0.000000 0.000000 0.000000
v -0.000000 0.000000 0.000000
v -0.000000 0.000000 0.000000
v -0.000000 0.000000 0.000000
v -0.000000 0.000000 0.000000
v -0.000000 0.000000 0.000000
v -0.000000 0.000000 0.000000
v -0.000000 0.000000 0.000000
v -0.000000 0.000000 0.000000
v -0.000000 0.000000 0.000000
v -0.000000 0.000000 0.000000
v -0.000000 0.000000 0.000000
v -0.000000 0.000000 0.000000
v -0.000000 0.000000 0.000000
v -0.000000 0.000000 0.000000
v -0.000000 0.000000 0.000000
v -0.000000 0.000000 0.000000
v -0.000000 0.000000 0.000000
v -0.000000 0.000000 0.000000
v -0.000000 0.000000 0.000000
v -0.000000 0.000000 0.000000
v -0.000000 0.000000 0.000000
v -0.000000 0.000000 0.000000
v -0.000000 0.000000 0.000000
v -0.000000 0.000000 0.000000
v -0.000000 0.000000 0.000000
v -0.000000 0.000000 0.000000
v -0.000000 0.000000 0.000000
v -0.000000 0.000000 0.000000
v -0.000000 0.000000 0.000000
v -0.000000 0.000000 0.000000
v -0.000000 0.000000 0.000000
v -0.000000 0.000000 0.000000
v -0.000000 0.000000 0.000000
v -0.000000 0.000000 0.000000
v -0.000000 0.000000 0.000000
v -0.000000 0.000000 0.000000
v -0.000000 0.000000 0.000000
v -0.000000 0.000000 0.000000
v -0.000000 0.000000 0.000000
v -0.000000 0.000000 0.000000
v -0.000000 0.000000 0.000000
v -0.000000 0.000000 0.000000
v -0.000000 0.000000 0.000000
v -0.000000 0.000000 0.000000
v -0.000000 0.000000 0.000000
v -0.000000 0.000000 0.000000
v -0.000000 0.000000 0.000000
v -0.000000 0.000000 0.000000
v -0.000000 0.000000 0.000000
v -0.000000 0.000000 0.000000
v -0.000000 0.000000 0.000000
v -0.000000 0.000000 0.000000
v -0.000000 0.000000 0.000000
v -0.000000 0.000000 0.000000
v -0.000000 0.000000 0.000000
v -0.000000 0.000000 0.000000
v -0.000000 0.000000 0.000000
v -0.000000 0.000000 0.000000
v -0.000000 0.000000 0.000000
v -0.000000 0.000000 0.000000
v -0.000000 0.000000 0.000000
v -0.000000 0.000000 0.000000
v -0.000000 0.000000 0.000000
v -0.000000 0.000000 0.000000
v -0.000000 0.000000 0.000000
v -0.000000 0.000000 0.000000
v -0.000000 0.000000 0.000000
v -0.000000 0.000000 0.000000
v -0.000000 -0.000000 0.000000
v -0.000000 -0.000000 0.000000
v -0.000000 0.000000 0.000000
v -0.000000 -0.000000 0.000000
v -0.000000 0.000000 0.000000
v -0.000000 -0.000000 0.000000
v -0.000000 0.000000 0.000000
v 0.000000 -0.000000 0.000000
v 0.000000 0.000000 0.000000
v 0.000000 -0.000000 0.000000
v 0.000000 0.000000 0.000000
v 0.000000 -0.000000 0.000000
v 0.000000 0.000000 0.000000
v 0.000000 -0.000000 0.000000
v 0.000000 0.000000 0.000000
v 0.000000 -0.000000 0.000000
v 0.000000 0.000000 0.000000
v 0.000000 -0.000000 0.000000
v 0.000000 0.000000 0.000000
v -0.000000 0.000000 0.000000
v -0.000000 -0.000000 0.000000
v -0.000000 -0.000000 0.000000
v -0.000000 0.000000 0.000000
# Rescaled and Centered by PostProcess
# Rescaled and Centered by PostProcess
# Rescaled and Centered by PostProcess
# Rescaled and Centered by PostProcess
# Rescaled and Centered by PostProcess
# Created by FreeCAD <http://www.freecad.org>
vn -0.999689 0.024933 0.000000
vn -0.999689 0.024933 0.000000
vn -0.997204 0.074734 0.000000
vn -0.997204 0.074734 0.000000
vn -0.992239 0.124342 0.000000
vn -0.992239 0.124342 0.000000
vn -0.984811 0.173630 0.000000
vn -0.984811 0.173630 0.000000
vn -0.974926 0.222527 0.000000
vn -0.974926 0.222527 0.000000
vn -0.962622 0.270847 0.000000
vn -0.962622 0.270847 0.000000
vn -0.947927 0.318488 0.000000
vn -0.947927 0.318488 0.000000
vn -0.930879 0.365329 0.000000
vn -0.930879 0.365329 0.000000
vn -0.911502 0.411297 0.000000
vn -0.911502 0.411297 0.000000
vn -0.889875 0.456204 0.000000
vn -0.889875 0.456204 0.000000
vn -0.866022 0.500005 0.000000
vn -0.866022 0.500005 0.000000
vn -0.840030 0.542539 0.000000
vn -0.840030 0.542539 0.000000
vn -0.811931 0.583754 0.000000
vn -0.811931 0.583754 0.000000
vn -0.781833 0.623488 0.000000
vn -0.781833 0.623488 0.000000
vn -0.749777 0.661690 0.000000
vn -0.749777 0.661690 0.000000
vn -0.715878 0.698225 0.000000
vn -0.715878 0.698225 0.000000
vn -0.680166 0.733058 0.000000
vn -0.680166 0.733058 0.000000
vn -0.642792 0.766041 0.000000
vn -0.642792 0.766041 0.000000
vn -0.603797 0.797138 0.000000
vn -0.603797 0.797138 0.000000
vn -0.563327 0.826234 0.000000
vn -0.563327 0.826234 0.000000
vn -0.521433 0.853292 0.000000
vn -0.521433 0.853292 0.000000
vn -0.478251 0.878223 0.000000
vn -0.478251 0.878223 0.000000
vn -0.433893 0.900965 0.000000
vn -0.433893 0.900965 0.000000
vn -0.388423 0.921481 0.000000
vn -0.388423 0.921481 0.000000
vn -0.342024 0.939691 0.000000
vn -0.342024 0.939691 0.000000
vn -0.294751 0.955574 0.000000
vn -0.294751 0.955574 0.000000
vn -0.246770 0.969074 0.000000
vn -0.246770 0.969074 0.000000
vn -0.198141 0.980173 0.000000
vn -0.198141 0.980173 0.000000
vn -0.149032 0.988832 0.000000
vn -0.149032 0.988832 0.000000
vn -0.099571 0.995031 0.000000
vn -0.099571 0.995031 0.000000
vn -0.049851 0.998757 0.000000
vn -0.049851 0.998757 0.000000
vn 0.000000 1.000000 0.000000
vn 0.000000 1.000000 -0.000000
vn 0.049851 0.998757 0.000000
vn 0.049851 0.998757 -0.000000
vn 0.099571 0.995031 0.000000
vn 0.099571 0.995031 -0.000000
vn 0.149032 0.988832 0.000000
vn 0.149032 0.988832 -0.000000
vn 0.198141 0.980173 0.000000
vn 0.198141 0.980173 -0.000000
vn 0.246770 0.969074 -0.000000
vn 0.246770 0.969074 0.000000
vn 0.294751 0.955574 -0.000000
vn 0.294751 0.955574 0.000000
vn 0.342024 0.939691 -0.000000
vn 0.342024 0.939691 0.000000
vn 0.388423 0.921481 -0.000000
vn 0.388423 0.921481 0.000000
vn 0.433893 0.900965 -0.000000
vn 0.433893 0.900965 0.000000
vn 0.478251 0.878223 -0.000000
vn 0.478251 0.878223 0.000000
vn 0.521433 0.853292 -0.000000
vn 0.521433 0.853292 0.000000
vn 0.563327 0.826234 -0.000000
vn 0.563327 0.826234 0.000000
vn 0.603797 0.797138 -0.000000
vn 0.603797 0.797138 0.000000
vn 0.642792 0.766041 -0.000000
vn 0.642792 0.766041 0.000000
vn 0.680166 0.733058 -0.000000
vn 0.680166 0.733058 0.000000
vn 0.715878 0.698225 -0.000000
vn 0.715878 0.698225 0.000000
vn 0.749777 0.661690 -0.000000
vn 0.749777 0.661690 0.000000
vn 0.781833 0.623488 -0.000000
vn 0.781833 0.623488 0.000000
vn 0.811931 0.583754 -0.000000
vn 0.811931 0.583754 0.000000
vn 0.840030 0.542539 -0.000000
vn 0.840030 0.542539 0.000000
vn 0.866022 0.500005 -0.000000
vn 0.866022 0.500005 0.000000
vn 0.889875 0.456204 -0.000000
vn 0.889875 0.456204 0.000000
vn 0.911502 0.411297 -0.000000
vn 0.911502 0.411297 0.000000
vn 0.930879 0.365329 -0.000000
vn 0.930879 0.365329 0.000000
vn 0.947927 0.318488 -0.000000
vn 0.947927 0.318488 0.000000
vn 0.962622 0.270847 0.000000
vn 0.962622 0.270847 -0.000000
vn 0.974926 0.222527 0.000000
vn 0.974926 0.222527 -0.000000
vn 0.984811 0.173630 0.000000
vn 0.984811 0.173630 -0.000000
vn 0.992239 0.124342 0.000000
vn 0.992239 0.124342 -0.000000
vn 0.997204 0.074734 -0.000000
vn 0.997204 0.074734 0.000000
vn 0.999689 0.024933 -0.000000
vn 0.999689 0.024933 0.000000
vn 0.999689 -0.024933 0.000000
vn 0.999689 -0.024933 0.000000
vn 0.997204 -0.074734 0.000000
vn 0.997204 -0.074734 0.000000
vn 0.992239 -0.124342 0.000000
vn 0.992239 -0.124342 0.000000
vn 0.984811 -0.173630 0.000000
vn 0.984811 -0.173630 0.000000
vn 0.974926 -0.222527 0.000000
vn 0.974926 -0.222527 0.000000
vn 0.962622 -0.270847 0.000000
vn 0.962622 -0.270847 0.000000
vn 0.947927 -0.318488 0.000000
vn 0.947927 -0.318488 0.000000
vn 0.930879 -0.365329 0.000000
vn 0.930879 -0.365329 0.000000
vn 0.911502 -0.411297 0.000000
vn 0.911502 -0.411297 0.000000
vn 0.889875 -0.456204 0.000000
vn 0.889875 -0.456204 0.000000
vn 0.866022 -0.500005 0.000000
vn 0.866022 -0.500005 0.000000
vn 0.840030 -0.542539 0.000000
vn 0.840030 -0.542539 0.000000
vn 0.811931 -0.583754 0.000000
vn 0.811931 -0.583754 0.000000
vn 0.781833 -0.623488 0.000000
vn 0.781833 -0.623488 0.000000
vn 0.749777 -0.661690 0.000000
vn 0.749777 -0.661690 0.000000
vn 0.715878 -0.698225 0.000000
vn 0.715878 -0.698225 0.000000
vn 0.680166 -0.733058 0.000000
vn 0.680166 -0.733058 0.000000
vn 0.642792 -0.766041 0.000000
vn 0.642792 -0.766041 0.000000
vn 0.603797 -0.797138 0.000000
vn 0.603797 -0.797138 0.000000
vn 0.563327 -0.826234 0.000000
vn 0.563327 -0.826234 0.000000
vn 0.521433 -0.853292 0.000000
vn 0.521433 -0.853292 0.000000
vn 0.478251 -0.878223 0.000000
vn 0.478251 -0.878223 0.000000
vn 0.433893 -0.900965 0.000000
vn 0.388423 -0.921481 0.000000
vn 0.433893 -0.900965 0.000000
vn 0.388423 -0.921481 0.000000
vn 0.342024 -0.939691 0.000000
vn 0.342024 -0.939691 0.000000
vn 0.294751 -0.955574 0.000000
vn 0.294751 -0.955574 0.000000
vn 0.246770 -0.969074 0.000000
vn 0.246770 -0.969074 0.000000
vn 0.198141 -0.980173 0.000000
vn 0.198141 -0.980173 0.000000
vn 0.149032 -0.988832 0.000000
vn 0.149032 -0.988832 0.000000
vn 0.099571 -0.995031 0.000000
vn 0.099571 -0.995031 0.000000
vn 0.049851 -0.998757 0.000000
vn 0.049851 -0.998757 0.000000
vn 0.000000 -1.000000 0.000000
vn 0.000000 -1.000000 0.000000
vn -0.049851 -0.998757 0.000000
vn -0.049851 -0.998757 0.000000
vn -0.099571 -0.995031 0.000000
vn -0.099571 -0.995031 0.000000
vn -0.149032 -0.988832 0.000000
vn -0.198141 -0.980173 -0.000000
vn -0.149032 -0.988832 0.000000
vn -0.198141 -0.980173 0.000000
vn -0.246770 -0.969074 0.000000
vn -0.246770 -0.969074 0.000000
vn -0.294751 -0.955574 0.000000
vn -0.294751 -0.955574 0.000000
vn -0.342024 -0.939691 0.000000
vn -0.342024 -0.939691 0.000000
vn -0.388423 -0.921481 0.000000
vn -0.433893 -0.900965 -0.000000
vn -0.388423 -0.921481 0.000000
vn -0.433893 -0.900965 0.000000
vn -0.478251 -0.878223 0.000000
vn -0.478251 -0.878223 0.000000
vn -0.521433 -0.853292 0.000000
vn -0.563327 -0.826234 -0.000000
vn -0.521433 -0.853292 0.000000
vn -0.563327 -0.826234 0.000000
vn -0.603797 -0.797138 0.000000
vn -0.603797 -0.797138 0.000000
vn -0.642792 -0.766041 0.000000
vn -0.642792 -0.766041 0.000000
vn -0.680166 -0.733058 0.000000
vn -0.680166 -0.733058 0.000000
vn -0.715878 -0.698225 0.000000
vn -0.715878 -0.698225 0.000000
vn -0.749777 -0.661690 0.000000
vn -0.749777 -0.661690 0.000000
vn -0.781833 -0.623488 0.000000
vn -0.781833 -0.623488 0.000000
vn -0.811931 -0.583754 0.000000
vn -0.811931 -0.583754 0.000000
vn -0.840030 -0.542539 0.000000
vn -0.840030 -0.542539 0.000000
vn -0.866022 -0.500005 0.000000
vn -0.866022 -0.500005 0.000000
vn -0.889875 -0.456204 0.000000
vn -0.889875 -0.456204 0.000000
vn -0.911502 -0.411297 0.000000
vn -0.911502 -0.411297 0.000000
vn -0.930879 -0.365329 0.000000
vn -0.930879 -0.365329 0.000000
vn -0.947927 -0.318488 0.000000
vn -0.947927 -0.318488 0.000000
vn -0.962622 -0.270847 0.000000
vn -0.962622 -0.270847 0.000000
vn -0.974926 -0.222527 0.000000
vn -0.974926 -0.222527 0.000000
vn -0.984811 -0.173630 0.000000
vn -0.984811 -0.173630 0.000000
vn -0.992239 -0.124342 0.000000
vn -0.992239 -0.124342 0.000000
vn -0.997204 -0.074734 0.000000
vn -0.997204 -0.074734 0.000000
vn -0.999689 -0.024933 0.000000
vn -0.999689 -0.024933 0.000000
vn -0.999689 0.024933 0.000000
vn -0.999689 0.024933 0.000000
vn -0.997204 0.074726 0.000000
vn -0.997204 0.074726 0.000000
vn -0.992239 0.124342 0.000000
vn -0.992239 0.124342 0.000000
vn -0.984807 0.173653 0.000000
vn -0.984807 0.173653 0.000000
vn -0.974928 0.222520 0.000000
vn -0.974928 0.222520 0.000000
vn -0.962624 0.270840 0.000000
vn -0.962624 0.270840 0.000000
vn -0.947927 0.318488 0.000000
vn -0.947927 0.318488 0.000000
vn -0.930876 0.365336 0.000000
vn -0.930876 0.365336 0.000000
vn -0.911505 0.411290 0.000000
vn -0.911505 0.411290 0.000000
vn -0.889872 0.456211 0.000000
vn -0.889872 0.456211 0.000000
vn -0.866026 0.499999 0.000000
vn -0.866026 0.499999 0.000000
vn -0.840027 0.542545 0.000000
vn -0.840027 0.542545 0.000000
vn -0.811938 0.583743 0.000000
vn -0.811938 0.583743 0.000000
vn -0.781833 0.623488 0.000000
vn -0.781833 0.623488 0.000000
vn -0.749777 0.661690 0.000000
vn -0.749777 0.661690 0.000000
vn -0.715870 0.698233 0.000000
vn -0.715870 0.698233 0.000000
vn -0.680174 0.733051 0.000000
vn -0.680174 0.733051 0.000000
vn -0.642784 0.766048 0.000000
vn -0.642784 0.766048 0.000000
vn -0.603805 0.797132 0.000000
vn -0.603805 0.797132 0.000000
vn -0.563323 0.826237 0.000000
vn -0.563323 0.826237 0.000000
vn -0.521433 0.853292 0.000000
vn -0.521433 0.853292 0.000000
vn -0.478251 0.878223 0.000000
vn -0.478251 0.878223 0.000000
vn -0.433893 0.900965 0.000000
vn -0.433893 0.900965 0.000000
vn -0.388429 0.921479 0.000000
vn -0.388429 0.921479 0.000000
vn -0.342021 0.939692 0.000000
vn -0.342021 0.939692 0.000000
vn -0.294749 0.955575 0.000000
vn -0.294749 0.955575 0.000000
vn -0.246768 0.969074 0.000000
vn -0.246768 0.969074 0.000000
vn -0.198143 0.980173 0.000000
vn -0.198143 0.980173 0.000000
vn -0.149034 0.988832 0.000000
vn -0.149034 0.988832 0.000000
vn -0.099570 0.995031 0.000000
vn -0.099570 0.995031 0.000000
vn -0.049850 0.998757 0.000000
vn -0.049850 0.998757 0.000000
vn 0.000000 1.000000 0.000000
vn 0.000000 1.000000 -0.000000
vn 0.049850 0.998757 0.000000
vn 0.049850 0.998757 -0.000000
vn 0.099570 0.995031 0.000000
vn 0.099570 0.995031 -0.000000
vn 0.149034 0.988832 0.000000
vn 0.149034 0.988832 -0.000000
vn 0.198143 0.980173 0.000000
vn 0.198143 0.980173 -0.000000
vn 0.246768 0.969074 -0.000000
vn 0.246768 0.969074 0.000000
vn 0.294749 0.955575 -0.000000
vn 0.294749 0.955575 0.000000
vn 0.342021 0.939692 -0.000000
vn 0.342021 0.939692 0.000000
vn 0.388429 0.921479 -0.000000
vn 0.388429 0.921479 0.000000
vn 0.433893 0.900965 -0.000000
vn 0.433893 0.900965 0.000000
vn 0.478251 0.878223 -0.000000
vn 0.478251 0.878223 0.000000
vn 0.521433 0.853292 -0.000000
vn 0.521433 0.853292 0.000000
vn 0.563323 0.826237 -0.000000
vn 0.563323 0.826237 0.000000
vn 0.603805 0.797132 -0.000000
vn 0.603805 0.797132 0.000000
vn 0.642784 0.766048 -0.000000
vn 0.642784 0.766048 0.000000
vn 0.680174 0.733051 -0.000000
vn 0.680174 0.733051 0.000000
vn 0.715870 0.698233 -0.000000
vn 0.715870 0.698233 0.000000
vn 0.749777 0.661690 -0.000000
vn 0.749777 0.661690 0.000000
vn 0.781833 0.623488 -0.000000
vn 0.781833 0.623488 0.000000
vn 0.811938 0.583743 -0.000000
vn 0.811938 0.583743 0.000000
vn 0.840025 0.542548 -0.000000
vn 0.840025 0.542548 0.000000
vn 0.866027 0.499996 -0.000000
vn 0.866027 0.499996 0.000000
vn 0.889872 0.456211 -0.000000
vn 0.889872 0.456211 0.000000
vn 0.911505 0.411290 -0.000000
vn 0.911505 0.411290 0.000000
vn 0.930874 0.365339 -0.000000
vn 0.930874 0.365339 0.000000
vn 0.947928 0.318485 -0.000000
vn 0.947928 0.318485 0.000000
vn 0.962624 0.270840 0.000000
vn 0.962624 0.270840 -0.000000
vn 0.974928 0.222520 0.000000
vn 0.974928 0.222520 -0.000000
vn 0.984807 0.173650 0.000000
vn 0.984807 0.173650 -0.000000
vn 0.992239 0.124346 0.000000
vn 0.992239 0.124346 -0.000000
vn 0.997204 0.074730 -0.000000
vn 0.997204 0.074730 0.000000
vn 0.999689 0.024929 -0.000000
vn 0.999689 0.024929 0.000000
vn 0.999689 -0.024929 0.000000
vn 0.999689 -0.024929 0.000000
vn 0.997204 -0.074730 0.000000
vn 0.997204 -0.074730 0.000000
vn 0.992239 -0.124346 0.000000
vn 0.992239 -0.124346 0.000000
vn 0.984807 -0.173650 0.000000
vn 0.984807 -0.173650 0.000000
vn 0.974928 -0.222520 0.000000
vn 0.974928 -0.222520 0.000000
vn 0.962624 -0.270840 0.000000
vn 0.962624 -0.270840 0.000000
vn 0.947928 -0.318485 0.000000
vn 0.947928 -0.318485 0.000000
vn 0.930874 -0.365339 0.000000
vn 0.930874 -0.365339 0.000000
vn 0.911505 -0.411290 0.000000
vn 0.911505 -0.411290 0.000000
vn 0.889872 -0.456211 0.000000
vn 0.889872 -0.456211 0.000000
vn 0.866027 -0.499996 0.000000
vn 0.866027 -0.499996 0.000000
vn 0.840025 -0.542548 0.000000
vn 0.840025 -0.542548 0.000000
vn 0.811938 -0.583743 0.000000
vn 0.811938 -0.583743 0.000000
vn 0.781833 -0.623488 0.000000
vn 0.781833 -0.623488 0.000000
vn 0.749777 -0.661690 0.000000
vn 0.749777 -0.661690 0.000000
vn 0.715870 -0.698233 0.000000
vn 0.715870 -0.698233 0.000000
vn 0.680174 -0.733051 0.000000
vn 0.680174 -0.733051 0.000000
vn 0.642784 -0.766048 0.000000
vn 0.642784 -0.766048 0.000000
vn 0.603805 -0.797132 0.000000
vn 0.603805 -0.797132 0.000000
vn 0.563323 -0.826237 0.000000
vn 0.563323 -0.826237 0.000000
vn 0.521433 -0.853292 0.000000
vn 0.521433 -0.853292 0.000000
vn 0.478251 -0.878223 0.000000
vn 0.478251 -0.878223 0.000000
vn 0.433893 -0.900965 0.000000
vn 0.388429 -0.921479 0.000000
vn 0.433893 -0.900965 0.000000
vn 0.388429 -0.921479 0.000000
vn 0.342021 -0.939692 0.000000
vn 0.342021 -0.939692 0.000000
vn 0.294749 -0.955575 0.000000
vn 0.294749 -0.955575 0.000000
vn 0.246768 -0.969074 0.000000
vn 0.246768 -0.969074 0.000000
vn 0.198143 -0.980173 0.000000
vn 0.198143 -0.980173 0.000000
vn 0.149034 -0.988832 0.000000
vn 0.149034 -0.988832 0.000000
vn 0.099570 -0.995031 0.000000
vn 0.099570 -0.995031 0.000000
vn 0.049850 -0.998757 0.000000
vn 0.049850 -0.998757 0.000000
vn 0.000000 -1.000000 0.000000
vn 0.000000 -1.000000 0.000000
vn -0.049850 -0.998757 0.000000
vn -0.049850 -0.998757 0.000000
vn -0.099570 -0.995031 0.000000
vn -0.099570 -0.995031 0.000000
vn -0.149034 -0.988832 0.000000
vn -0.198143 -0.980173 -0.000000
vn -0.149034 -0.988832 0.000000
vn -0.198143 -0.980173 0.000000
vn -0.246768 -0.969074 0.000000
vn -0.246768 -0.969074 0.000000
vn -0.294749 -0.955575 0.000000
vn -0.294749 -0.955575 0.000000
vn -0.342021 -0.939692 0.000000
vn -0.342021 -0.939692 0.000000
vn -0.388429 -0.921479 0.000000
vn -0.433893 -0.900965 -0.000000
vn -0.388429 -0.921479 0.000000
vn -0.433893 -0.900965 0.000000
vn -0.478251 -0.878223 0.000000
vn -0.478251 -0.878223 0.000000
vn -0.521433 -0.853292 0.000000
vn -0.563323 -0.826237 -0.000000
vn -0.521433 -0.853292 0.000000
vn -0.563323 -0.826237 0.000000
vn -0.603805 -0.797132 0.000000
vn -0.603805 -0.797132 0.000000
vn -0.642784 -0.766048 0.000000
vn -0.642784 -0.766048 0.000000
vn -0.680174 -0.733051 0.000000
vn -0.680174 -0.733051 0.000000
vn -0.715870 -0.698233 0.000000
vn -0.715870 -0.698233 0.000000
vn -0.749777 -0.661690 0.000000
vn -0.749777 -0.661690 0.000000
vn -0.781833 -0.623488 0.000000
vn -0.781833 -0.623488 0.000000
vn -0.811938 -0.583743 0.000000
vn -0.811938 -0.583743 0.000000
vn -0.840027 -0.542545 0.000000
vn -0.840027 -0.542545 0.000000
vn -0.866026 -0.499999 0.000000
vn -0.866026 -0.499999 0.000000
vn -0.889872 -0.456211 0.000000
vn -0.889872 -0.456211 0.000000
vn -0.911505 -0.411290 0.000000
vn -0.911505 -0.411290 0.000000
vn -0.930876 -0.365336 0.000000
vn -0.930876 -0.365336 0.000000
vn -0.947927 -0.318488 0.000000
vn -0.947927 -0.318488 0.000000
vn -0.962624 -0.270840 0.000000
vn -0.962624 -0.270840 0.000000
vn -0.974928 -0.222520 0.000000
vn -0.974928 -0.222520 0.000000
vn -0.984807 -0.173653 0.000000
vn -0.984807 -0.173653 0.000000
vn -0.992239 -0.124342 0.000000
vn -0.992239 -0.124342 0.000000
vn -0.997204 -0.074726 0.000000
vn -0.997204 -0.074726 0.000000
vn -0.999689 -0.024933 0.000000
vn -0.999689 -0.024933 0.000000
vn -1.000000 -0.000000 0.000000
vn -1.000000 0.000000 -0.000000
vn 0.000000 -0.000000 -1.000000
vn 0.000000 0.000000 -1.000000
vn 0.000000 -0.000000 -1.000000
vn 0.000000 0.000000 -1.000000
vn 0.000000 -0.000000 -1.000000
vn 0.000000 0.000000 -1.000000
vn 0.000000 -0.000000 -1.000000
vn 0.000000 0.000000 -1.000000
vn 0.000000 -0.000000 -1.000000
vn 0.000000 0.000000 -1.000000
vn 0.000000 -0.000000 -1.000000
vn 0.000000 0.000000 -1.000000
vn 0.000000 -0.000000 -1.000000
vn 0.000000 0.000000 -1.000000
vn 0.000000 -0.000000 -1.000000
vn 0.000000 0.000000 -1.000000
vn 0.000000 -0.000000 -1.000000
vn 0.000000 0.000000 -1.000000
vn 0.000000 -0.000000 -1.000000
vn 0.000000 0.000000 -1.000000
vn 0.000000 -0.000000 -1.000000
vn 0.000000 0.000000 -1.000000
vn 0.000000 -0.000000 -1.000000
vn 0.000000 -0.000000 -1.000000
vn 0.000000 -0.000000 -1.000000
vn 0.000000 -0.000000 -1.000000
vn 0.000000 0.000000 -1.000000
vn 0.000000 -0.000000 -1.000000
vn 0.000000 0.000000 -1.000000
vn 0.000000 0.000000 -1.000000
vn 0.000000 0.000000 -1.000000
vn 0.000000 0.000000 -1.000000
vn 0.000000 0.000000 -1.000000
vn 0.000000 0.000000 -1.000000
vn 0.000000 0.000000 -1.000000
vn 0.000000 0.000000 -1.000000
vn 0.000000 0.000000 -1.000000
vn 0.000000 0.000000 -1.000000
vn 0.000000 0.000000 -1.000000
vn 0.000000 0.000000 -1.000000
vn 0.000000 0.000000 -1.000000
vn 0.000000 0.000000 -1.000000
vn 0.000000 0.000000 -1.000000
vn 0.000000 0.000000 -1.000000
vn 0.000000 0.000000 -1.000000
vn 0.000000 0.000000 -1.000000
vn 0.000000 0.000000 -1.000000
vn 0.000000 0.000000 -1.000000
vn 0.000000 0.000000 -1.000000
vn 0.000000 0.000000 -1.000000
vn 0.000000 0.000000 -1.000000
vn 0.000000 0.000000 -1.000000
vn 0.000000 0.000000 -1.000000
vn 0.000000 0.000000 -1.000000
vn 0.000000 0.000000 -1.000000
vn 0.000000 0.000000 -1.000000
vn 0.000000 0.000000 -1.000000
vn 0.000000 0.000000 -1.000000
vn 0.000000 0.000000 -1.000000
vn 0.000000 0.000000 -1.000000
vn 0.000000 0.000000 -1.000000
vn 0.000000 0.000000 -1.000000
vn 0.000000 0.000000 -1.000000
vn 0.000000 0.000000 -1.000000
vn 0.000000 0.000000 -1.000000
vn 0.000000 -0.000000 -1.000000
vn 0.000000 0.000000 -1.000000
vn 0.000000 -0.000000 -1.000000
vn 0.000000 0.000000 -1.000000
vn 0.000000 -0.000000 -1.000000
vn 0.000000 0.000000 -1.000000
vn 0.000000 -0.000000 -1.000000
vn 0.000000 0.000000 -1.000000
vn 0.000000 -0.000000 -1.000000
vn 0.000000 0.000000 -1.000000
vn 0.000000 -0.000000 -1.000000
vn 0.000000 -0.000000 -1.000000
vn 0.000000 -0.000000 -1.000000
vn 0.000000 -0.000000 -1.000000
vn 0.000000 -0.000000 -1.000000
vn 0.000000 -0.000000 -1.000000
vn 0.000000 -0.000000 -1.000000
vn 0.000000 -0.000000 -1.000000
vn 0.000000 -0.000000 -1.000000
vn 0.000000 -0.000000 -1.000000
vn 0.000000 -0.000000 -1.000000
vn 0.000000 0.000000 -1.000000
vn 0.000000 0.000000 -1.000000
vn 0.000000 0.000000 -1.000000
vn 0.000000 0.000000 -1.000000
vn 0.000000 0.000000 -1.000000
vn 0.000000 0.000000 -1.000000
vn 0.000000 0.000000 -1.000000
vn 0.000000 0.000000 -1.000000
vn 0.000000 0.000000 -1.000000
vn 0.000000 0.000000 -1.000000
vn 0.000000 0.000000 -1.000000
vn 0.000000 0.000000 -1.000000
vn 0.000000 0.000000 -1.000000
vn 0.000000 0.000000 -1.000000
vn 0.000000 0.000000 -1.000000
vn 0.000000 0.000000 -1.000000
vn 0.000000 0.000000 -1.000000
vn 0.000000 0.000000 -1.000000
vn 0.000000 0.000000 -1.000000
vn 0.000000 0.000000 -1.000000
vn 0.000000 0.000000 -1.000000
vn 0.000000 0.000000 -1.000000
vn 0.000000 0.000000 -1.000000
vn 0.000000 0.000000 -1.000000
vn 0.000000 0.000000 -1.000000
vn 0.000000 0.000000 -1.000000
vn 0.000000 0.000000 -1.000000
vn 0.000000 0.000000 -1.000000
vn 0.000000 0.000000 -1.000000
vn 0.000000 0.000000 -1.000000
vn 0.000000 0.000000 -1.000000
vn 0.000000 0.000000 -1.000000
vn 0.000000 0.000000 -1.000000
vn 0.000000 0.000000 -1.000000
vn 0.000000 0.000000 -1.000000
vn 0.000000 0.000000 -1.000000
vn 0.000000 0.000000 -1.000000
vn 0.000000 0.000000 -1.000000
vn 0.000000 0.000000 -1.000000
vn 0.000000 0.000000 -1.000000
vn 0.000000 0.000000 -1.000000
vn 0.000000 0.000000 -1.000000
vn 0.000000 0.000000 -1.000000
vn 0.000000 0.000000 -1.000000
vn 1.000000 0.000000 0.000000
vn 1.000000 0.000000 -0.000000
vn 0.000000 0.000000 -1.000000
vn 0.000000 0.000000 -1.000000
vn -1.000000 -0.000000 0.000000
vn -1.000000 0.000000 -0.000000
vn 0.000000 -0.000000 -1.000000
vn 0.000000 0.000000 -1.000000
vn 0.000000 -0.000000 -1.000000
vn 0.000000 0.000000 -1.000000
vn 0.000000 -0.000000 -1.000000
vn 0.000000 0.000000 -1.000000
vn 0.000000 -0.000000 -1.000000
vn 0.000000 0.000000 -1.000000
vn 0.000000 -0.000000 -1.000000
vn 0.000000 0.000000 -1.000000
vn 0.000000 -0.000000 -1.000000
vn 0.000000 0.000000 -1.000000
vn 0.000000 -0.000000 -1.000000
vn 0.000000 0.000000 -1.000000
vn 0.000000 -0.000000 -1.000000
vn 0.000000 0.000000 -1.000000
vn 0.000000 -0.000000 -1.000000
vn 0.000000 0.000000 -1.000000
vn 0.000000 -0.000000 -1.000000
vn 0.000000 0.000000 -1.000000
vn 0.000000 -0.000000 -1.000000
vn 0.000000 0.000000 -1.000000
vn 0.000000 -0.000000 -1.000000
vn 0.000000 0.000000 -1.000000
vn 0.000000 -0.000000 -1.000000
vn 0.000000 0.000000 -1.000000
vn 0.000000 -0.000000 -1.000000
vn 0.000000 0.000000 -1.000000
vn 0.000000 -0.000000 -1.000000
vn 0.000000 0.000000 -1.000000
vn 0.000000 -0.000000 -1.000000
vn 0.000000 0.000000 -1.000000
vn 0.000000 0.000000 -1.000000
vn 0.000000 0.000000 -1.000000
vn 0.000000 0.000000 -1.000000
vn 0.000000 0.000000 -1.000000
vn 0.000000 0.000000 -1.000000
vn 0.000000 0.000000 -1.000000
vn 0.000000 0.000000 -1.000000
vn 0.000000 0.000000 -1.000000
vn 0.000000 0.000000 -1.000000
vn 0.000000 0.000000 -1.000000
vn 0.000000 0.000000 -1.000000
vn 0.000000 0.000000 -1.000000
vn 0.000000 0.000000 -1.000000
vn 0.000000 0.000000 -1.000000
vn 0.000000 0.000000 -1.000000
vn 0.000000 0.000000 -1.000000
vn 0.000000 0.000000 -1.000000
vn 0.000000 0.000000 -1.000000
vn 0.000000 0.000000 -1.000000
vn 0.000000 -0.000000 -1.000000
vn 0.000000 0.000000 -1.000000
vn 0.000000 0.000000 -1.000000
vn 0.000000 0.000000 -1.000000
vn 0.000000 0.000000 -1.000000
vn 0.000000 0.000000 -1.000000
vn 0.000000 0.000000 -1.000000
vn 0.000000 0.000000 -1.000000
vn 0.000000 0.000000 -1.000000
vn 0.000000 0.000000 -1.000000
vn 0.000000 0.000000 -1.000000
vn 0.000000 0.000000 -1.000000
vn 0.000000 0.000000 -1.000000
vn 0.000000 0.000000 -1.000000
vn 0.000000 0.000000 -1.000000
vn 0.000000 0.000000 -1.000000
vn 0.000000 0.000000 -1.000000
vn 0.000000 0.000000 -1.000000
vn 0.000000 0.000000 -1.000000
vn 0.000000 0.000000 -1.000000
vn 0.000000 0.000000 -1.000000
vn 0.000000 0.000000 -1.000000
vn 0.000000 0.000000 -1.000000
vn 0.000000 0.000000 -1.000000
vn 0.000000 0.000000 -1.000000
vn 0.000000 0.000000 -1.000000
vn 0.000000 0.000000 -1.000000
vn 0.000000 0.000000 -1.000000
vn 0.000000 0.000000 -1.000000
vn 0.000000 0.000000 -1.000000
vn 0.000000 0.000000 -1.000000
vn 0.000000 0.000000 -1.000000
vn 0.000000 0.000000 -1.000000
vn 0.000000 0.000000 -1.000000
vn 0.000000 0.000000 -1.000000
vn 0.000000 0.000000 -1.000000
vn 0.000000 0.000000 -1.000000
vn 0.000000 0.000000 -1.000000
vn 0.000000 0.000000 -1.000000
vn 0.000000 0.000000 -1.000000
vn 0.000000 0.000000 -1.000000
vn 0.000000 0.000000 -1.000000
vn 0.000000 0.000000 -1.000000
vn 0.000000 0.000000 -1.000000
vn 0.000000 0.000000 -1.000000
vn 0.000000 0.000000 -1.000000
vn 0.000000 0.000000 -1.000000
vn 0.000000 0.000000 -1.000000
vn 0.000000 0.000000 -1.000000
vn 0.000000 0.000000 -1.000000
vn 0.000000 0.000000 -1.000000
vn 0.000000 0.000000 -1.000000
vn 0.000000 0.000000 -1.000000
vn 0.000000 0.000000 -1.000000
vn 0.000000 0.000000 -1.000000
vn 0.000000 0.000000 -1.000000
vn 0.000000 0.000000 -1.000000
vn 0.000000 0.000000 -1.000000
vn 0.000000 0.000000 -1.000000
vn 0.000000 0.000000 -1.000000
vn 0.000000 0.000000 -1.000000
vn 0.000000 0.000000 -1.000000
vn 0.000000 0.000000 -1.000000
vn 0.000000 0.000000 -1.000000
vn 0.000000 0.000000 -1.000000
vn 0.000000 0.000000 -1.000000
vn 0.000000 0.000000 -1.000000
vn 0.000000 0.000000 -1.000000
vn 0.000000 0.000000 -1.000000
vn 0.000000 0.000000 -1.000000
vn 0.000000 0.000000 -1.000000
vn 0.000000 0.000000 -1.000000
vn 0.000000 0.000000 -1.000000
vn 0.000000 0.000000 -1.000000
vn 0.000000 0.000000 -1.000000
vn 0.000000 0.000000 -1.000000
vn 0.000000 0.000000 -1.000000
vn 0.000000 0.000000 -1.000000
vn 0.000000 0.000000 -1.000000
vn 1.000000 0.000000 0.000000
vn 1.000000 0.000000 -0.000000
vn 0.000000 0.000000 1.000000
vn 0.000000 0.000000 1.000000
vn 0.000000 0.000000 1.000000
vn 0.000000 0.000000 1.000000
vn 0.000000 0.000000 1.000000
vn 0.000000 0.000000 1.000000
vn 0.000000 0.000000 1.000000
vn 0.000000 0.000000 1.000000
vn 0.000000 0.000000 1.000000
vn 0.000000 0.000000 1.000000
vn 0.000000 0.000000 1.000000
vn 0.000000 0.000000 1.000000
vn 0.000000 0.000000 1.000000
vn 0.000000 0.000000 1.000000
vn 0.000000 0.000000 1.000000
vn 0.000000 0.000000 1.000000
vn 0.000000 0.000000 1.000000
vn 0.000000 0.000000 1.000000
vn 0.000000 0.000000 1.000000
vn 0.000000 0.000000 1.000000
vn 0.000000 0.000000 1.000000
vn 0.000000 0.000000 1.000000
vn 0.000000 0.000000 1.000000
vn 0.000000 0.000000 1.000000
vn 0.000000 0.000000 1.000000
vn 0.000000 0.000000 1.000000
vn 0.000000 0.000000 1.000000
vn 0.000000 0.000000 1.000000
vn 0.000000 0.000000 1.000000
vn 0.000000 0.000000 1.000000
vn 0.000000 0.000000 1.000000
vn 0.000000 0.000000 1.000000
vn 0.000000 0.000000 1.000000
vn 0.000000 0.000000 1.000000
vn 0.000000 0.000000 1.000000
vn 0.000000 0.000000 1.000000
vn 0.000000 0.000000 1.000000
vn 0.000000 0.000000 1.000000
vn 0.000000 0.000000 1.000000
vn 0.000000 0.000000 1.000000
vn 0.000000 0.000000 1.000000
vn 0.000000 0.000000 1.000000
vn 0.000000 0.000000 1.000000
vn 0.000000 0.000000 1.000000
vn 0.000000 0.000000 1.000000
vn 0.000000 0.000000 1.000000
vn 0.000000 0.000000 1.000000
vn 0.000000 0.000000 1.000000
vn 0.000000 0.000000 1.000000
vn 0.000000 0.000000 1.000000
vn 0.000000 0.000000 1.000000
vn 0.000000 0.000000 1.000000
vn 0.000000 0.000000 1.000000
vn 0.000000 0.000000 1.000000
vn 0.000000 0.000000 1.000000
vn 0.000000 0.000000 1.000000
vn 0.000000 0.000000 1.000000
vn 0.000000 0.000000 1.000000
vn 0.000000 0.000000 1.000000
vn 0.000000 0.000000 1.000000
vn 0.000000 0.000000 1.000000
vn 0.000000 0.000000 1.000000
vn 0.000000 0.000000 1.000000
vn 0.000000 0.000000 1.000000
vn 0.000000 0.000000 1.000000
vn 0.000000 0.000000 1.000000
vn 0.000000 0.000000 1.000000
vn 0.000000 0.000000 1.000000
vn 0.000000 0.000000 1.000000
vn 0.000000 0.000000 1.000000
vn 0.000000 0.000000 1.000000
vn 0.000000 0.000000 1.000000
vn 0.000000 0.000000 1.000000
vn 0.000000 0.000000 1.000000
vn 0.000000 0.000000 1.000000
vn 0.000000 0.000000 1.000000
vn 0.000000 0.000000 1.000000
vn 0.000000 0.000000 1.000000
vn 0.000000 0.000000 1.000000
vn 0.000000 0.000000 1.000000
vn 0.000000 0.000000 1.000000
vn 0.000000 0.000000 1.000000
vn 0.000000 0.000000 1.000000
vn 0.000000 0.000000 1.000000
vn 0.000000 0.000000 1.000000
vn 0.000000 0.000000 1.000000
vn 0.000000 0.000000 1.000000
vn 0.000000 0.000000 1.000000
vn 0.000000 0.000000 1.000000
vn 0.000000 0.000000 1.000000
vn 0.000000 0.000000 1.000000
vn 0.000000 0.000000 1.000000
vn 0.000000 0.000000 1.000000
vn 0.000000 0.000000 1.000000
vn 0.000000 0.000000 1.000000
vn 0.000000 0.000000 1.000000
vn 0.000000 0.000000 1.000000
vn 0.000000 0.000000 1.000000
vn 0.000000 0.000000 1.000000
vn 0.000000 0.000000 1.000000
vn 0.000000 0.000000 1.000000
vn 0.000000 0.000000 1.000000
vn 0.000000 0.000000 1.000000
vn 0.000000 0.000000 1.000000
vn 0.000000 0.000000 1.000000
vn 0.000000 0.000000 1.000000
vn 0.000000 0.000000 1.000000
vn 0.000000 0.000000 1.000000
vn 0.000000 0.000000 1.000000
vn 0.000000 0.000000 1.000000
vn 0.000000 0.000000 1.000000
vn 0.000000 0.000000 1.000000
vn 0.000000 0.000000 1.000000
vn 0.000000 0.000000 1.000000
vn 0.000000 0.000000 1.000000
vn 0.000000 0.000000 1.000000
vn 0.000000 0.000000 1.000000
vn 0.000000 0.000000 1.000000
vn 0.000000 0.000000 1.000000
vn 0.000000 0.000000 1.000000
vn 0.000000 0.000000 1.000000
vn 0.000000 0.000000 1.000000
vn 0.000000 0.000000 1.000000
vn 0.000000 0.000000 1.000000
vn 0.000000 0.000000 1.000000
vn 0.000000 0.000000 1.000000
vn 0.000000 0.000000 1.000000
vn 0.000000 0.000000 1.000000
vn 0.000000 0.000000 1.000000
vn 0.000000 0.000000 1.000000
vn 1.000000 0.000000 0.000000
vn 1.000000 0.000000 -0.000000
vn 0.000000 0.000000 1.000000
vn 0.000000 0.000000 1.000000
vn -1.000000 -0.000000 0.000000
vn -1.000000 0.000000 -0.000000
vn 0.000000 0.000000 1.000000
vn 0.000000 0.000000 1.000000
vn 0.000000 0.000000 1.000000
vn 0.000000 0.000000 1.000000
vn 0.000000 0.000000 1.000000
vn 0.000000 0.000000 1.000000
vn 0.000000 0.000000 1.000000
vn 0.000000 0.000000 1.000000
vn 0.000000 0.000000 1.000000
vn 0.000000 0.000000 1.000000
vn 0.000000 0.000000 1.000000
vn 0.000000 0.000000 1.000000
vn 0.000000 0.000000 1.000000
vn 0.000000 0.000000 1.000000
vn 0.000000 0.000000 1.000000
vn 0.000000 0.000000 1.000000
vn 0.000000 0.000000 1.000000
vn 0.000000 0.000000 1.000000
vn 0.000000 0.000000 1.000000
vn 0.000000 0.000000 1.000000
vn 0.000000 0.000000 1.000000
vn 0.000000 0.000000 1.000000
vn 0.000000 0.000000 1.000000
vn 0.000000 0.000000 1.000000
vn 0.000000 0.000000 1.000000
vn 0.000000 0.000000 1.000000
vn 0.000000 0.000000 1.000000
vn 0.000000 0.000000 1.000000
vn 0.000000 0.000000 1.000000
vn 0.000000 0.000000 1.000000
vn 0.000000 0.000000 1.000000
vn 0.000000 0.000000 1.000000
vn 0.000000 0.000000 1.000000
vn 0.000000 0.000000 1.000000
vn 0.000000 0.000000 1.000000
vn 0.000000 0.000000 1.000000
vn 0.000000 0.000000 1.000000
vn 0.000000 0.000000 1.000000
vn 0.000000 0.000000 1.000000
vn 0.000000 0.000000 1.000000
vn 0.000000 0.000000 1.000000
vn 0.000000 0.000000 1.000000
vn 0.000000 0.000000 1.000000
vn 0.000000 0.000000 1.000000
vn 0.000000 0.000000 1.000000
vn 0.000000 0.000000 1.000000
vn 0.000000 0.000000 1.000000
vn 0.000000 0.000000 1.000000
vn 0.000000 0.000000 1.000000
vn 0.000000 0.000000 1.000000
vn 0.000000 0.000000 1.000000
vn 0.000000 0.000000 1.000000
vn 0.000000 0.000000 1.000000
vn 0.000000 0.000000 1.000000
vn 0.000000 0.000000 1.000000
vn 0.000000 0.000000 1.000000
vn 0.000000 0.000000 1.000000
vn 0.000000 0.000000 1.000000
vn 0.000000 0.000000 1.000000
vn 0.000000 0.000000 1.000000
vn 0.000000 0.000000 1.000000
vn 0.000000 0.000000 1.000000
vn 0.000000 0.000000 1.000000
vn 0.000000 0.000000 1.000000
vn 0.000000 0.000000 1.000000
vn 0.000000 0.000000 1.000000
vn 0.000000 0.000000 1.000000
vn 0.000000 0.000000 1.000000
vn 0.000000 0.000000 1.000000
vn 0.000000 0.000000 1.000000
vn 0.000000 0.000000 1.000000
vn 0.000000 0.000000 1.000000
vn 0.000000 0.000000 1.000000
vn 0.000000 0.000000 1.000000
vn 0.000000 0.000000 1.000000
vn 0.000000 0.000000 1.000000
vn 0.000000 0.000000 1.000000
vn 0.000000 0.000000 1.000000
vn 0.000000 0.000000 1.000000
vn 0.000000 0.000000 1.000000
vn 0.000000 0.000000 1.000000
vn 0.000000 0.000000 1.000000
vn 0.000000 0.000000 1.000000
vn 0.000000 0.000000 1.000000
vn 0.000000 0.000000 1.000000
vn 0.000000 0.000000 1.000000
vn 0.000000 0.000000 1.000000
vn 0.000000 0.000000 1.000000
vn 0.000000 0.000000 1.000000
vn 0.000000 0.000000 1.000000
vn 0.000000 0.000000 1.000000
vn 0.000000 0.000000 1.000000
vn 0.000000 0.000000 1.000000
vn 0.000000 0.000000 1.000000
vn 0.000000 0.000000 1.000000
vn 0.000000 0.000000 1.000000
vn 0.000000 0.000000 1.000000
vn 0.000000 0.000000 1.000000
vn 0.000000 0.000000 1.000000
vn 0.000000 0.000000 1.000000
vn 0.000000 0.000000 1.000000
vn 0.000000 0.000000 1.000000
vn 0.000000 0.000000 1.000000
vn 0.000000 0.000000 1.000000
vn 0.000000 0.000000 1.000000
vn 0.000000 0.000000 1.000000
vn 0.000000 0.000000 1.000000
vn 0.000000 0.000000 1.000000
vn 0.000000 0.000000 1.000000
vn 0.000000 0.000000 1.000000
vn 0.000000 0.000000 1.000000
vn 0.000000 0.000000 1.000000
vn 0.000000 0.000000 1.000000
vn 0.000000 0.000000 1.000000
vn 0.000000 0.000000 1.000000
vn 0.000000 0.000000 1.000000
vn 0.000000 0.000000 1.000000
vn 0.000000 0.000000 1.000000
vn 0.000000 0.000000 1.000000
vn 0.000000 0.000000 1.000000
vn 0.000000 0.000000 1.000000
vn 0.000000 0.000000 1.000000
vn 0.000000 0.000000 1.000000
vn 0.000000 0.000000 1.000000
vn 0.000000 0.000000 1.000000
vn 0.000000 0.000000 1.000000
vn 0.000000 0.000000 1.000000
vn 0.000000 0.000000 1.000000
vn 0.000000 0.000000 1.000000
vn 0.000000 0.000000 1.000000
vn 0.000000 1.000000 0.000000
vn 0.000000 1.000000 0.000000
vn 0.000000 1.000000 0.000000
vn 0.000000 1.000000 0.000000
vn 0.000000 1.000000 0.000000
vn 0.000000 1.000000 0.000000
vn 0.000000 1.000000 0.000000
vn 0.000000 1.000000 0.000000
vn 0.000000 1.000000 0.000000
vn 0.000000 1.000000 0.000000
vn 0.000000 -1.000000 0.000000
vn 0.000000 -1.000000 0.000000
vn 0.000000 -1.000000 0.000000
vn 0.000000 -1.000000 0.000000
vn 0.000000 -1.000000 0.000000
vn 0.000000 -1.000000 0.000000
vn 0.000000 -1.000000 0.000000
vn 0.000000 -1.000000 0.000000
vn 0.000000 -1.000000 0.000000
vn 0.000000 -1.000000 0.000000
f 1//1 2//1 3//1
f 3//2 2//2 4//2
f 4//3 5//3 6//3
f 2//4 5//4 4//4
f 6//5 7//5 8//5
f 5//6 7//6 6//6
f 8//7 9//7 10//7
f 7//8 9//8 8//8
f 10//9 11//9 12//9
f 9//10 11//10 10//10
f 12//11 13//11 14//11
f 11//12 13//12 12//12
f 14//13 15//13 16//13
f 13//14 15//14 14//14
f 16//15 17//15 18//15
f 15//16 17//16 16//16
f 18//17 19//17 20//17
f 17//18 19//18 18//18
f 20//19 21//19 22//19
f 19//20 21//20 20//20
f 21//21 23//21 22//21
f 22//22 23//22 24//22
f 23//23 25//23 24//23
f 24//24 25//24 26//24
f 25//25 27//25 26//25
f 26//26 27//26 28//26
f 27//27 29//27 28//27
f 28//28 29//28 30//28
f 29//29 31//29 30//29
f 30//30 31//30 32//30
f 31//31 33//31 32//31
f 32//32 33//32 34//32
f 33//33 35//33 34//33
f 34//34 35//34 36//34
f 35//35 37//35 36//35
f 36//36 37//36 38//36
f 37//37 39//37 38//37
f 38//38 39//38 40//38
f 39//39 41//39 40//39
f 40//40 41//40 42//40
f 41//41 43//41 42//41
f 42//42 43//42 44//42
f 43//43 45//43 44//43
f 44//44 45//44 46//44
f 46//45 47//45 48//45
f 45//46 47//46 46//46
f 48//47 49//47 50//47
f 47//48 49//48 48//48
f 50//49 51//49 52//49
f 49//50 51//50 50//50
f 52//51 53//51 54//51
f 51//52 53//52 52//52
f 54//53 55//53 56//53
f 53//54 55//54 54//54
f 56//55 57//55 58//55
f 55//56 57//56 56//56
f 58//57 59//57 60//57
f 57//58 59//58 58//58
f 60//59 61//59 62//59
f 59//60 61//60 60//60
f 62//61 63//61 64//61
f 61//62 63//62 62//62
f 64//63 65//63 66//63
f 63//64 65//64 64//64
f 66//65 67//65 68//65
f 65//66 67//66 66//66
f 68//67 69//67 70//67
f 67//68 69//68 68//68
f 70//69 71//69 72//69
f 69//70 71//70 70//70
f 72//71 73//71 74//71
f 71//72 73//72 72//72
f 73//73 75//73 74//73
f 74//74 75//74 76//74
f 75//75 77//75 76//75
f 76//76 77//76 78//76
f 77//77 79//77 78//77
f 78//78 79//78 80//78
f 79//79 81//79 80//79
f 80//80 81//80 82//80
f 81//81 83//81 82//81
f 82//82 83//82 84//82
f 83//83 85//83 84//83
f 84//84 85//84 86//84
f 85//85 87//85 86//85
f 86//86 87//86 88//86
f 87//87 89//87 88//87
f 88//88 89//88 90//88
f 89//89 91//89 90//89
f 90//90 91//90 92//90
f 91//91 93//91 92//91
f 92//92 93//92 94//92
f 93//93 95//93 94//93
f 94//94 95//94 96//94
f 95//95 97//95 96//95
f 96//96 97//96 98//96
f 97//97 99//97 98//97
f 98//98 99//98 100//98
f 99//99 101//99 100//99
f 100//100 101//100 102//100
f 101//101 103//101 102//101
f 102//102 103//102 104//102
f 103//103 105//103 104//103
f 104//104 105//104 106//104
f 105//105 107//105 106//105
f 106//106 107//106 108//106
f 107//107 109//107 108//107
f 108//108 109//108 110//108
f 109//109 111//109 110//109
f 110//110 111//110 112//110
f 111//111 113//111 112//111
f 112//112 113//112 114//112
f 113//113 115//113 114//113
f 114//114 115//114 116//114
f 116//115 117//115 118//115
f 115//116 117//116 116//116
f 118//117 119//117 120//117
f 117//118 119//118 118//118
f 120//119 121//119 122//119
f 119//120 121//120 120//120
f 122//121 123//121 124//121
f 121//122 123//122 122//122
f 123//123 125//123 124//123
f 124//124 125//124 126//124
f 125//125 127//125 126//125
f 126//126 127//126 128//126
f 127//127 129//127 128//127
f 128//128 129//128 130//128
f 129//129 131//129 130//129
f 130//130 131//130 132//130
f 131//131 133//131 132//131
f 132//132 133//132 134//132
f 133//133 135//133 134//133
f 134//134 135//134 136//134
f 135//135 137//135 136//135
f 136//136 137//136 138//136
f 137//137 139//137 138//137
f 138//138 139//138 140//138
f 139//139 141//139 140//139
f 140//140 141//140 142//140
f 141//141 143//141 142//141
f 142//142 143//142 144//142
f 143//143 145//143 144//143
f 144//144 145//144 146//144
f 145//145 147//145 146//145
f 146//146 147//146 148//146
f 148//147 149//147 150//147
f 147//148 149//148 148//148
f 150//149 151//149 152//149
f 149//150 151//150 150//150
f 152//151 153//151 154//151
f 151//152 153//152 152//152
f 154//153 155//153 156//153
f 153//154 155//154 154//154
f 156//155 157//155 158//155
f 155//156 157//156 156//156
f 158//157 159//157 160//157
f 157//158 159//158 158//158
f 160//159 161//159 162//159
f 159//160 161//160 160//160
f 162//161 163//161 164//161
f 161//162 163//162 162//162
f 164//163 165//163 166//163
f 163//164 165//164 164//164
f 166//165 167//165 168//165
f 165//166 167//166 166//166
f 168//167 169//167 170//167
f 167//168 169//168 168//168
f 170//169 171//169 172//169
f 169//170 171//170 170//170
f 172//171 173//171 174//171
f 174//172 173//172 175//172
f 171//173 173//173 172//173
f 173//174 176//174 175//174
f 176//175 177//175 175//175
f 175//176 177//176 178//176
f 177//177 179//177 178//177
f 178//178 179//178 180//178
f 179//179 181//179 180//179
f 180//180 181//180 182//180
f 181//181 183//181 182//181
f 182//182 183//182 184//182
f 184//183 185//183 186//183
f 183//184 185//184 184//184
f 186//185 187//185 188//185
f 185//186 187//186 186//186
f 188//187 189//187 190//187
f 187//188 189//188 188//188
f 190//189 191//189 192//189
f 189//190 191//190 190//190
f 192//191 193//191 194//191
f 191//192 193//192 192//192
f 194//193 195//193 196//193
f 193//194 195//194 194//194
f 196//195 197//195 198//195
f 198//196 197//196 199//196
f 195//197 197//197 196//197
f 197//198 200//198 199//198
f 199//199 201//199 202//199
f 200//200 201//200 199//200
f 202//201 203//201 204//201
f 201//202 203//202 202//202
f 204//203 205//203 206//203
f 203//204 205//204 204//204
f 206//205 207//205 208//205
f 208//206 207//206 209//206
f 205//207 207//207 206//207
f 207//208 210//208 209//208
f 209//209 211//209 212//209
f 210//210 211//210 209//210
f 212//211 213//211 214//211
f 214//212 213//212 215//212
f 211//213 213//213 212//213
f 213//214 216//214 215//214
f 215//215 217//215 218//215
f 216//216 217//216 215//216
f 218//217 219//217 220//217
f 217//218 219//218 218//218
f 220//219 221//219 222//219
f 219//220 221//220 220//220
f 222//221 223//221 224//221
f 221//222 223//222 222//222
f 223//223 225//223 224//223
f 224//224 225//224 226//224
f 225//225 227//225 226//225
f 226//226 227//226 228//226
f 227//227 229//227 228//227
f 228//228 229//228 230//228
f 229//229 231//229 230//229
f 230//230 231//230 232//230
f 231//231 233//231 232//231
f 232//232 233//232 234//232
f 233//233 235//233 234//233
f 234//234 235//234 236//234
f 235//235 237//235 236//235
f 236//236 237//236 238//236
f 237//237 239//237 238//237
f 238//238 239//238 240//238
f 239//239 241//239 240//239
f 240//240 241//240 242//240
f 241//241 243//241 242//241
f 242//242 243//242 244//242
f 243//243 245//243 244//243
f 244//244 245//244 246//244
f 245//245 247//245 246//245
f 246//246 247//246 248//246
f 247//247 249//247 248//247
f 248//248 249//248 250//248
f 249//249 251//249 250//249
f 250//250 251//250 252//250
f 252//251 1//251 3//251
f 251//252 1//252 252//252
f 253//253 254//253 255//253
f 255//254 254//254 256//254
f 256//255 257//255 258//255
f 254//256 257//256 256//256
f 258//257 259//257 260//257
f 257//258 259//258 258//258
f 260//259 261//259 262//259
f 259//260 261//260 260//260
f 262//261 263//261 264//261
f 261//262 263//262 262//262
f 264//263 265//263 266//263
f 263//264 265//264 264//264
f 266//265 267//265 268//265
f 265//266 267//266 266//266
f 268//267 269//267 270//267
f 267//268 269//268 268//268
f 270//269 271//269 272//269
f 269//270 271//270 270//270
f 272//271 273//271 274//271
f 271//272 273//272 272//272
f 273//273 275//273 274//273
f 274//274 275//274 276//274
f 275//275 277//275 276//275
f 276//276 277//276 278//276
f 277//277 279//277 278//277
f 278//278 279//278 280//278
f 279//279 281//279 280//279
f 280//280 281//280 282//280
f 281//281 283//281 282//281
f 282//282 283//282 284//282
f 283//283 285//283 284//283
f 284//284 285//284 286//284
f 285//285 287//285 286//285
f 286//286 287//286 288//286
f 287//287 289//287 288//287
f 288//288 289//288 290//288
f 289//289 291//289 290//289
f 290//290 291//290 292//290
f 291//291 293//291 292//291
f 292//292 293//292 294//292
f 293//293 295//293 294//293
f 294//294 295//294 296//294
f 295//295 297//295 296//295
f 296//296 297//296 298//296
f 298//297 299//297 300//297
f 297//298 299//298 298//298
f 300//299 301//299 302//299
f 299//300 301//300 300//300
f 302//301 303//301 304//301
f 301//302 303//302 302//302
f 304//303 305//303 306//303
f 303//304 305//304 304//304
f 306//305 307//305 308//305
f 305//306 307//306 306//306
f 308//307 309//307 310//307
f 307//308 309//308 308//308
f 310//309 311//309 312//309
f 309//310 311//310 310//310
f 312//311 313//311 314//311
f 311//312 313//312 312//312
f 314//313 315//313 316//313
f 313//314 315//314 314//314
f 316//315 317//315 318//315
f 315//316 317//316 316//316
f 318//317 319//317 320//317
f 317//318 319//318 318//318
f 320//319 321//319 322//319
f 319//320 321//320 320//320
f 322//321 323//321 324//321
f 321//322 323//322 322//322
f 324//323 325//323 326//323
f 323//324 325//324 324//324
f 325//325 327//325 326//325
f 326//326 327//326 328//326
f 327//327 329//327 328//327
f 328//328 329//328 330//328
f 329//329 331//329 330//329
f 330//330 331//330 332//330
f 331//331 333//331 332//331
f 332//332 333//332 334//332
f 333//333 335//333 334//333
f 334//334 335//334 336//334
f 335//335 337//335 336//335
f 336//336 337//336 338//336
f 337//337 339//337 338//337
f 338//338 339//338 340//338
f 339//339 341//339 340//339
f 340//340 341//340 342//340
f 341//341 343//341 342//341
f 342//342 343//342 344//342
f 343//343 345//343 344//343
f 344//344 345//344 346//344
f 345//345 347//345 346//345
f 346//346 347//346 348//346
f 347//347 349//347 348//347
f 348//348 349//348 350//348
f 349//349 351//349 350//349
f 350//350 351//350 352//350
f 351//351 353//351 352//351
f 352//352 353//352 354//352
f 353//353 355//353 354//353
f 354//354 355//354 356//354
f 355//355 357//355 356//355
f 356//356 357//356 358//356
f 357//357 359//357 358//357
f 358//358 359//358 360//358
f 359//359 361//359 360//359
f 360//360 361//360 362//360
f 361//361 363//361 362//361
f 362//362 363//362 364//362
f 363//363 365//363 364//363
f 364//364 365//364 366//364
f 365//365 367//365 366//365
f 366//366 367//366 368//366
f 368//367 369//367 370//367
f 367//368 369//368 368//368
f 370//369 371//369 372//369
f 369//370 371//370 370//370
f 372//371 373//371 374//371
f 371//372 373//372 372//372
f 374//373 375//373 376//373
f 373//374 375//374 374//374
f 375//375 377//375 376//375
f 376//376 377//376 378//376
f 377//377 379//377 378//377
f 378//378 379//378 380//378
f 379//379 381//379 380//379
f 380//380 381//380 382//380
f 381//381 383//381 382//381
f 382//382 383//382 384//382
f 383//383 385//383 384//383
f 384//384 385//384 386//384
f 385//385 387//385 386//385
f 386//386 387//386 388//386
f 387//387 389//387 388//387
f 388//388 389//388 390//388
f 389//389 391//389 390//389
f 390//390 391//390 392//390
f 391//391 393//391 392//391
f 392//392 393//392 394//392
f 393//393 395//393 394//393
f 394//394 395//394 396//394
f 395//395 397//395 396//395
f 396//396 397//396 398//396
f 397//397 399//397 398//397
f 398//398 399//398 400//398
f 400//399 401//399 402//399
f 399//400 401//400 400//400
f 402//401 403//401 404//401
f 401//402 403//402 402//402
f 404//403 405//403 406//403
f 403//404 405//404 404//404
f 406//405 407//405 408//405
f 405//406 407//406 406//406
f 408//407 409//407 410//407
f 407//408 409//408 408//408
f 410//409 411//409 412//409
f 409//410 411//410 410//410
f 412//411 413//411 414//411
f 411//412 413//412 412//412
f 414//413 415//413 416//413
f 413//414 415//414 414//414
f 416//415 417//415 418//415
f 415//416 417//416 416//416
f 418//417 419//417 420//417
f 417//418 419//418 418//418
f 420//419 421//419 422//419
f 419//420 421//420 420//420
f 422//421 423//421 424//421
f 421//422 423//422 422//422
f 424//423 425//423 426//423
f 426//424 425//424 427//424
f 423//425 425//425 424//425
f 425//426 428//426 427//426
f 428//427 429//427 427//427
f 427//428 429//428 430//428
f 429//429 431//429 430//429
f 430//430 431//430 432//430
f 431//431 433//431 432//431
f 432//432 433//432 434//432
f 433//433 435//433 434//433
f 434//434 435//434 436//434
f 436//435 437//435 438//435
f 435//436 437//436 436//436
f 438//437 439//437 440//437
f 437//438 439//438 438//438
f 440//439 441//439 442//439
f 439//440 441//440 440//440
f 442//441 443//441 444//441
f 441//442 443//442 442//442
f 444//443 445//443 446//443
f 443//444 445//444 444//444
f 446//445 447//445 448//445
f 445//446 447//446 446//446
f 448//447 449//447 450//447
f 450//448 449//448 451//448
f 447//449 449//449 448//449
f 449//450 452//450 451//450
f 451//451 453//451 454//451
f 452//452 453//452 451//452
f 454//453 455//453 456//453
f 453//454 455//454 454//454
f 456//455 457//455 458//455
f 455//456 457//456 456//456
f 458//457 459//457 460//457
f 460//458 459//458 461//458
f 457//459 459//459 458//459
f 459//460 462//460 461//460
f 461//461 463//461 464//461
f 462//462 463//462 461//462
f 464//463 465//463 466//463
f 466//464 465//464 467//464
f 463//465 465//465 464//465
f 465//466 468//466 467//466
f 467//467 469//467 470//467
f 468//468 469//468 467//468
f 470//469 471//469 472//469
f 469//470 471//470 470//470
f 472//471 473//471 474//471
f 471//472 473//472 472//472
f 474//473 475//473 476//473
f 473//474 475//474 474//474
f 475//475 477//475 476//475
f 476//476 477//476 478//476
f 477//477 479//477 478//477
f 478//478 479//478 480//478
f 479//479 481//479 480//479
f 480//480 481//480 482//480
f 481//481 483//481 482//481
f 482//482 483//482 484//482
f 483//483 485//483 484//483
f 484//484 485//484 486//484
f 485//485 487//485 486//485
f 486//486 487//486 488//486
f 487//487 489//487 488//487
f 488//488 489//488 490//488
f 489//489 491//489 490//489
f 490//490 491//490 492//490
f 491//491 493//491 492//491
f 492//492 493//492 494//492
f 493//493 495//493 494//493
f 494//494 495//494 496//494
f 495//495 497//495 496//495
f 496//496 497//496 498//496
f 497//497 499//497 498//497
f 498//498 499//498 500//498
f 499//499 501//499 500//499
f 500//500 501//500 502//500
f 501//501 503//501 502//501
f 502//502 503//502 504//502
f 504//503 253//503 255//503
f 503//504 253//504 504//504
f 505//505 506//505 507//505
f 505//506 508//506 506//506
f 283//507 509//507 285//507
f 287//508 285//508 509//508
f 281//509 509//509 283//509
f 289//510 287//510 509//510
f 279//511 509//511 281//511
f 291//512 289//512 509//512
f 277//513 509//513 279//513
f 293//514 291//514 509//514
f 275//515 509//515 277//515
f 295//516 293//516 509//516
f 273//517 509//517 275//517
f 297//518 295//518 509//518
f 271//519 509//519 273//519
f 299//520 297//520 509//520
f 269//521 509//521 271//521
f 301//522 299//522 509//522
f 267//523 509//523 269//523
f 303//524 301//524 509//524
f 265//525 509//525 267//525
f 305//526 303//526 509//526
f 263//527 509//527 265//527
f 307//528 305//528 509//528
f 261//529 509//529 263//529
f 259//530 509//530 261//530
f 257//531 509//531 259//531
f 254//532 509//532 257//532
f 253//533 510//533 509//533
f 253//534 509//534 254//534
f 503//535 510//535 253//535
f 501//536 510//536 503//536
f 499//537 510//537 501//537
f 497//538 510//538 499//538
f 495//539 510//539 497//539
f 493//540 510//540 495//540
f 491//541 510//541 493//541
f 489//542 510//542 491//542
f 487//543 510//543 489//543
f 485//544 510//544 487//544
f 483//545 510//545 485//545
f 481//546 510//546 483//546
f 479//547 510//547 481//547
f 477//548 510//548 479//548
f 475//549 510//549 477//549
f 506//550 313//550 311//550
f 506//551 311//551 309//551
f 506//552 309//552 307//552
f 506//553 307//553 509//553
f 506//554 347//554 345//554
f 506//555 345//555 343//555
f 506//556 343//556 341//556
f 506//557 341//557 339//557
f 506//558 339//558 337//558
f 506//559 337//559 335//559
f 506//560 335//560 333//560
f 506//561 333//561 331//561
f 506//562 331//562 329//562
f 506//563 329//563 327//563
f 506//564 327//564 325//564
f 506//565 325//565 323//565
f 506//566 323//566 321//566
f 506//567 321//567 319//567
f 506//568 319//568 317//568
f 506//569 317//569 315//569
f 506//570 315//570 313//570
f 473//571 510//571 475//571
f 349//572 347//572 506//572
f 471//573 510//573 473//573
f 351//574 349//574 506//574
f 469//575 510//575 471//575
f 353//576 351//576 506//576
f 468//577 510//577 469//577
f 355//578 353//578 506//578
f 465//579 510//579 468//579
f 357//580 355//580 506//580
f 463//581 510//581 465//581
f 359//582 357//582 506//582
f 361//583 359//583 506//583
f 363//584 361//584 506//584
f 365//585 363//585 506//585
f 367//586 365//586 506//586
f 369//587 367//587 506//587
f 371//588 369//588 506//588
f 373//589 371//589 506//589
f 375//590 373//590 506//590
f 377//591 375//591 506//591
f 379//592 377//592 506//592
f 508//593 379//593 506//593
f 508//594 447//594 445//594
f 508//595 445//595 443//595
f 508//596 443//596 441//596
f 508//597 441//597 439//597
f 508//598 439//598 437//598
f 508//599 437//599 435//599
f 508//600 435//600 433//600
f 508//601 433//601 431//601
f 508//602 431//602 429//602
f 508//603 429//603 428//603
f 508//604 428//604 425//604
f 508//605 425//605 423//605
f 508//606 423//606 421//606
f 508//607 421//607 419//607
f 508//608 419//608 417//608
f 508//609 417//609 415//609
f 508//610 415//610 413//610
f 508//611 413//611 411//611
f 508//612 411//612 409//612
f 508//613 409//613 407//613
f 508//614 407//614 405//614
f 508//615 405//615 403//615
f 508//616 403//616 401//616
f 508//617 401//617 399//617
f 508//618 399//618 397//618
f 508//619 397//619 395//619
f 508//620 395//620 393//620
f 508//621 393//621 391//621
f 508//622 391//622 389//622
f 508//623 389//623 387//623
f 508//624 387//624 385//624
f 508//625 385//625 383//625
f 508//626 383//626 381//626
f 508//627 381//627 379//627
f 508//628 510//628 447//628
f 447//629 510//629 449//629
f 449//630 510//630 452//630
f 452//631 510//631 453//631
f 453//632 510//632 455//632
f 455//633 510//633 457//633
f 457//634 510//634 459//634
f 459//635 510//635 462//635
f 462//636 510//636 463//636
f 510//637 511//637 509//637
f 510//638 512//638 511//638
f 512//639 513//639 511//639
f 512//640 514//640 513//640
f 514//641 515//641 513//641
f 514//642 516//642 515//642
f 31//643 517//643 33//643
f 35//644 33//644 517//644
f 29//645 517//645 31//645
f 37//646 35//646 517//646
f 27//647 517//647 29//647
f 39//648 37//648 517//648
f 25//649 517//649 27//649
f 41//650 39//650 517//650
f 23//651 517//651 25//651
f 43//652 41//652 517//652
f 21//653 517//653 23//653
f 45//654 43//654 517//654
f 19//655 517//655 21//655
f 47//656 45//656 517//656
f 17//657 517//657 19//657
f 49//658 47//658 517//658
f 15//659 517//659 17//659
f 51//660 49//660 517//660
f 13//661 517//661 15//661
f 53//662 51//662 517//662
f 11//663 517//663 13//663
f 55//664 53//664 517//664
f 9//665 517//665 11//665
f 57//666 55//666 517//666
f 7//667 517//667 9//667
f 59//668 57//668 517//668
f 5//669 517//669 7//669
f 61//670 59//670 517//670
f 2//671 517//671 5//671
f 63//672 61//672 517//672
f 1//673 517//673 2//673
f 65//674 63//674 517//674
f 67//675 65//675 517//675
f 69//676 67//676 517//676
f 71//677 69//677 517//677
f 73//678 71//678 517//678
f 518//679 1//679 251//679
f 518//680 251//680 249//680
f 518//681 249//681 247//681
f 518//682 247//682 245//682
f 518//683 245//683 243//683
f 518//684 243//684 241//684
f 518//685 241//685 239//685
f 518//686 239//686 237//686
f 518//687 237//687 235//687
f 518//688 235//688 233//688
f 518//689 233//689 231//689
f 518//690 231//690 229//690
f 518//691 229//691 227//691
f 518//692 227//692 225//692
f 518//693 225//693 223//693
f 518//694 517//694 1//694
f 221//695 518//695 223//695
f 219//696 518//696 221//696
f 217//697 518//697 219//697
f 216//698 518//698 217//698
f 213//699 518//699 216//699
f 211//700 518//700 213//700
f 210//701 518//701 211//701
f 207//702 518//702 210//702
f 205//703 518//703 207//703
f 203//704 518//704 205//704
f 201//705 518//705 203//705
f 200//706 518//706 201//706
f 197//707 518//707 200//707
f 195//708 518//708 197//708
f 193//709 518//709 195//709
f 191//710 518//710 193//710
f 189//711 518//711 191//711
f 187//712 518//712 189//712
f 185//713 518//713 187//713
f 515//714 127//714 125//714
f 515//715 125//715 123//715
f 515//716 123//716 121//716
f 515//717 121//717 119//717
f 515//718 119//718 117//718
f 515//719 117//719 115//719
f 515//720 115//720 113//720
f 515//721 113//721 111//721
f 515//722 111//722 109//722
f 515//723 109//723 107//723
f 515//724 107//724 105//724
f 515//725 105//725 103//725
f 515//726 103//726 101//726
f 515//727 101//727 99//727
f 515//728 99//728 97//728
f 515//729 97//729 95//729
f 515//730 95//730 93//730
f 515//731 93//731 91//731
f 515//732 91//732 89//732
f 515//733 89//733 87//733
f 515//734 87//734 85//734
f 515//735 85//735 83//735
f 515//736 83//736 81//736
f 515//737 81//737 79//737
f 515//738 79//738 77//738
f 515//739 77//739 75//739
f 515//740 75//740 73//740
f 515//741 73//741 517//741
f 516//742 127//742 515//742
f 516//743 169//743 167//743
f 516//744 167//744 165//744
f 516//745 165//745 163//745
f 516//746 163//746 161//746
f 516//747 161//747 159//747
f 516//748 159//748 157//748
f 516//749 157//749 155//749
f 516//750 155//750 153//750
f 516//751 153//751 151//751
f 516//752 151//752 149//752
f 516//753 149//753 147//753
f 516//754 147//754 145//754
f 516//755 145//755 143//755
f 516//756 143//756 141//756
f 516//757 141//757 139//757
f 516//758 139//758 137//758
f 516//759 137//759 135//759
f 516//760 135//760 133//760
f 516//761 133//761 131//761
f 516//762 131//762 129//762
f 516//763 129//763 127//763
f 516//764 518//764 185//764
f 516//765 185//765 183//765
f 516//766 183//766 181//766
f 516//767 181//767 179//767
f 516//768 179//768 177//768
f 516//769 177//769 176//769
f 516//770 176//770 173//770
f 516//771 173//771 171//771
f 516//772 171//772 169//772
f 518//773 519//773 517//773
f 518//774 520//774 519//774
f 98//775 521//775 96//775
f 94//776 96//776 521//776
f 100//777 521//777 98//777
f 92//778 94//778 521//778
f 102//779 521//779 100//779
f 90//780 92//780 521//780
f 104//781 521//781 102//781
f 88//782 90//782 521//782
f 106//783 521//783 104//783
f 86//784 88//784 521//784
f 108//785 521//785 106//785
f 84//786 86//786 521//786
f 110//787 521//787 108//787
f 82//788 84//788 521//788
f 112//789 521//789 110//789
f 80//790 82//790 521//790
f 114//791 521//791 112//791
f 78//792 80//792 521//792
f 116//793 521//793 114//793
f 76//794 78//794 521//794
f 118//795 521//795 116//795
f 74//796 76//796 521//796
f 120//797 521//797 118//797
f 72//798 74//798 521//798
f 122//799 521//799 120//799
f 124//800 521//800 122//800
f 126//801 521//801 124//801
f 128//802 522//802 521//802
f 128//803 521//803 126//803
f 130//804 522//804 128//804
f 132//805 522//805 130//805
f 134//806 522//806 132//806
f 136//807 522//807 134//807
f 138//808 522//808 136//808
f 140//809 522//809 138//809
f 142//810 522//810 140//810
f 144//811 522//811 142//811
f 146//812 522//812 144//812
f 148//813 522//813 146//813
f 150//814 522//814 148//814
f 152//815 522//815 150//815
f 154//816 522//816 152//816
f 156//817 522//817 154//817
f 158//818 522//818 156//818
f 519//819 34//819 36//819
f 519//820 36//820 38//820
f 519//821 38//821 40//821
f 519//822 40//822 42//822
f 519//823 42//823 44//823
f 519//824 44//824 46//824
f 519//825 46//825 48//825
f 519//826 48//826 50//826
f 519//827 50//827 52//827
f 519//828 52//828 54//828
f 519//829 54//829 56//829
f 519//830 56//830 58//830
f 519//831 58//831 60//831
f 519//832 60//832 62//832
f 519//833 62//833 64//833
f 519//834 64//834 66//834
f 519//835 66//835 68//835
f 519//836 68//836 70//836
f 519//837 72//837 521//837
f 519//838 70//838 72//838
f 160//839 522//839 158//839
f 32//840 34//840 519//840
f 162//841 522//841 160//841
f 30//842 32//842 519//842
f 164//843 522//843 162//843
f 28//844 30//844 519//844
f 166//845 522//845 164//845
f 26//846 28//846 519//846
f 168//847 522//847 166//847
f 24//848 26//848 519//848
f 170//849 522//849 168//849
f 22//850 24//850 519//850
f 172//851 522//851 170//851
f 20//852 22//852 519//852
f 18//853 20//853 519//853
f 16//854 18//854 519//854
f 14//855 16//855 519//855
f 12//856 14//856 519//856
f 10//857 12//857 519//857
f 8//858 10//858 519//858
f 6//859 8//859 519//859
f 4//860 6//860 519//860
f 3//861 4//861 519//861
f 520//862 194//862 196//862
f 520//863 196//863 198//863
f 520//864 198//864 199//864
f 520//865 3//865 519//865
f 520//866 199//866 202//866
f 520//867 202//867 204//867
f 520//868 204//868 206//868
f 520//869 206//869 208//869
f 520//870 208//870 209//870
f 520//871 209//871 212//871
f 520//872 212//872 214//872
f 520//873 214//873 215//873
f 520//874 215//874 218//874
f 520//875 218//875 220//875
f 520//876 220//876 222//876
f 520//877 222//877 224//877
f 520//878 224//878 226//878
f 520//879 226//879 228//879
f 520//880 228//880 230//880
f 520//881 230//881 232//881
f 520//882 232//882 234//882
f 520//883 234//883 236//883
f 520//884 236//884 238//884
f 520//885 238//885 240//885
f 520//886 240//886 242//886
f 520//887 242//887 244//887
f 520//888 244//888 246//888
f 520//889 246//889 248//889
f 520//890 248//890 250//890
f 520//891 250//891 252//891
f 520//892 252//892 3//892
f 520//893 188//893 190//893
f 520//894 190//894 192//894
f 520//895 192//895 194//895
f 520//896 522//896 188//896
f 188//897 522//897 186//897
f 186//898 522//898 184//898
f 184//899 522//899 182//899
f 182//900 522//900 180//900
f 180//901 522//901 178//901
f 178//902 522//902 175//902
f 175//903 522//903 174//903
f 174//904 522//904 172//904
f 522//905 523//905 521//905
f 522//906 524//906 523//906
f 523//907 525//907 526//907
f 524//908 525//908 523//908
f 525//909 527//909 526//909
f 525//910 528//910 527//910
f 350//911 507//911 348//911
f 346//912 348//912 507//912
f 352//913 507//913 350//913
f 344//914 346//914 507//914
f 354//915 507//915 352//915
f 342//916 344//916 507//916
f 356//917 507//917 354//917
f 340//918 342//918 507//918
f 358//919 507//919 356//919
f 338//920 340//920 507//920
f 360//921 507//921 358//921
f 336//922 338//922 507//922
f 362//923 507//923 360//923
f 334//924 336//924 507//924
f 364//925 507//925 362//925
f 332//926 334//926 507//926
f 366//927 507//927 364//927
f 330//928 332//928 507//928
f 368//929 507//929 366//929
f 328//930 330//930 507//930
f 370//931 507//931 368//931
f 326//932 328//932 507//932
f 372//933 507//933 370//933
f 324//934 326//934 507//934
f 374//935 507//935 372//935
f 322//936 324//936 507//936
f 376//937 507//937 374//937
f 320//938 322//938 507//938
f 378//939 507//939 376//939
f 318//940 320//940 507//940
f 380//941 507//941 378//941
f 316//942 318//942 507//942
f 314//943 316//943 507//943
f 312//944 314//944 507//944
f 310//945 312//945 507//945
f 505//946 380//946 382//946
f 505//947 382//947 384//947
f 505//948 384//948 386//948
f 505//949 386//949 388//949
f 505//950 388//950 390//950
f 505//951 390//951 392//951
f 505//952 392//952 394//952
f 505//953 394//953 396//953
f 505//954 396//954 398//954
f 505//955 398//955 400//955
f 505//956 400//956 402//956
f 505//957 402//957 404//957
f 505//958 404//958 406//958
f 505//959 406//959 408//959
f 505//960 408//960 410//960
f 505//961 507//961 380//961
f 412//962 505//962 410//962
f 414//963 505//963 412//963
f 416//964 505//964 414//964
f 418//965 505//965 416//965
f 420//966 505//966 418//966
f 422//967 505//967 420//967
f 424//968 505//968 422//968
f 426//969 505//969 424//969
f 427//970 505//970 426//970
f 430//971 505//971 427//971
f 432//972 505//972 430//972
f 434//973 505//973 432//973
f 436//974 505//974 434//974
f 438//975 505//975 436//975
f 440//976 505//976 438//976
f 442//977 505//977 440//977
f 444//978 505//978 442//978
f 446//979 505//979 444//979
f 527//980 255//980 256//980
f 527//981 256//981 258//981
f 527//982 258//982 260//982
f 527//983 260//983 262//983
f 527//984 262//984 264//984
f 527//985 264//985 266//985
f 527//986 266//986 268//986
f 527//987 310//987 507//987
f 527//988 268//988 270//988
f 527//989 270//989 272//989
f 527//990 272//990 274//990
f 527//991 274//991 276//991
f 527//992 276//992 278//992
f 527//993 278//993 280//993
f 527//994 280//994 282//994
f 527//995 282//995 284//995
f 527//996 284//996 286//996
f 527//997 286//997 288//997
f 527//998 288//998 290//998
f 527//999 290//999 292//999
f 527//1000 292//1000 294//1000
f 527//1001 294//1001 296//1001
f 527//1002 296//1002 298//1002
f 527//1003 298//1003 300//1003
f 527//1004 300//1004 302//1004
f 527//1005 302//1005 304//1005
f 527//1006 304//1006 306//1006
f 527//1007 306//1007 308//1007
f 527//1008 308//1008 310//1008
f 528//1009 461//1009 464//1009
f 528//1010 464//1010 466//1010
f 528//1011 466//1011 467//1011
f 528//1012 467//1012 470//1012
f 528//1013 470//1013 472//1013
f 528//1014 472//1014 474//1014
f 528//1015 474//1015 476//1015
f 528//1016 476//1016 478//1016
f 528//1017 478//1017 480//1017
f 528//1018 480//1018 482//1018
f 528//1019 482//1019 484//1019
f 528//1020 484//1020 486//1020
f 528//1021 486//1021 488//1021
f 528//1022 488//1022 490//1022
f 528//1023 490//1023 492//1023
f 528//1024 492//1024 494//1024
f 528//1025 494//1025 496//1025
f 528//1026 496//1026 498//1026
f 528//1027 498//1027 500//1027
f 528//1028 500//1028 502//1028
f 528//1029 502//1029 504//1029
f 528//1030 504//1030 255//1030
f 528//1031 255//1031 527//1031
f 528//1032 505//1032 446//1032
f 528//1033 446//1033 448//1033
f 528//1034 448//1034 450//1034
f 528//1035 450//1035 451//1035
f 528//1036 451//1036 454//1036
f 528//1037 454//1037 456//1037
f 528//1038 456//1038 458//1038
f 528//1039 458//1039 460//1039
f 528//1040 460//1040 461//1040
f 528//1041 510//1041 508//1041
f 528//1042 508//1042 505//1042
f 512//1043 510//1043 528//1043
f 522//1044 516//1044 514//1044
f 525//1045 512//1045 528//1045
f 518//1046 516//1046 522//1046
f 520//1047 518//1047 522//1047
f 524//1048 514//1048 512//1048
f 524//1049 512//1049 525//1049
f 524//1050 522//1050 514//1050
f 506//1051 527//1051 507//1051
f 527//1052 511//1052 526//1052
f 506//1053 509//1053 527//1053
f 527//1054 509//1054 511//1054
f 526//1055 513//1055 523//1055
f 511//1056 513//1056 526//1056
f 513//1057 521//1057 523//1057
f 513//1058 515//1058 521//1058
f 521//1059 517//1059 519//1059
f 515//1060 517//1060 521//1060
