# Blender 5.1.0
# www.blender.org
mtllib base_board.mtl
o general_board
v -0.015000 -0.000000 0.020000
v -0.015000 -0.000000 0.060000
v 0.015000 -0.000000 0.060000
v 0.045000 -0.000000 0.020000
v 0.045000 -0.000000 -0.020000
v 0.015000 -0.000000 0.020000
v 0.015000 -0.000000 -0.020000
v -0.045000 -0.000000 0.020000
v -0.075000 -0.000000 -0.100000
v -0.075000 -0.000000 0.100000
v 0.015000 -0.000000 -0.060000
v 0.045000 -0.000000 -0.060000
v 0.075000 -0.000000 -0.100000
v 0.075000 -0.000000 0.100000
v 0.045000 -0.000000 0.060000
v -0.045000 -0.000000 0.060000
v -0.015000 -0.000000 -0.060000
v -0.015000 -0.000000 -0.020000
v -0.045000 -0.000000 -0.020000
v -0.045000 -0.000000 -0.060000
v 0.115000 0.025000 0.115000
v -0.115000 0.025000 0.115000
v 0.115000 -0.025000 0.115000
v -0.115000 -0.025000 0.115000
v 0.115000 0.025000 -0.115000
v 0.115000 -0.025000 -0.115000
v -0.115000 0.025000 -0.115000
v -0.115000 -0.025000 -0.115000
v 0.075000 0.025000 -0.100000
v -0.075000 0.025000 -0.100000
v -0.075000 0.025000 0.100000
v 0.075000 0.025000 0.100000
v -0.045000 0.025000 0.020000
v -0.045000 0.025000 0.060000
v -0.015000 0.025000 0.060000
v -0.015000 0.025000 0.020000
v 0.015000 0.025000 0.020000
v 0.015000 0.025000 0.060000
v 0.045000 0.025000 0.060000
v 0.045000 0.025000 0.020000
v 0.045000 0.025000 -0.020000
v 0.045000 0.025000 -0.060000
v 0.015000 0.025000 -0.060000
v 0.015000 0.025000 -0.020000
v -0.015000 0.025000 -0.020000
v -0.015000 0.025000 -0.060000
v -0.045000 0.025000 -0.060000
v -0.045000 0.025000 -0.020000
vn -0.0000 1.0000 -0.0000
vn -0.0000 -0.0000 1.0000
vn 1.0000 -0.0000 -0.0000
vn -0.0000 -0.0000 -1.0000
vn -1.0000 -0.0000 -0.0000
vn -0.0000 -1.0000 -0.0000
s 0
usemtl Material.001
f 1//1 2//1 3//1
f 4//1 5//1 6//1
f 6//1 5//1 7//1
f 8//1 9//1 10//1
f 11//1 12//1 13//1
f 13//1 12//1 5//1
f 13//1 5//1 14//1
f 14//1 5//1 4//1
f 14//1 4//1 15//1
f 15//1 3//1 14//1
f 14//1 3//1 2//1
f 14//1 2//1 10//1
f 10//1 2//1 16//1
f 10//1 16//1 8//1
f 13//1 9//1 11//1
f 11//1 9//1 17//1
f 11//1 17//1 7//1
f 7//1 17//1 18//1
f 7//1 18//1 6//1
f 3//1 6//1 1//1
f 1//1 6//1 18//1
f 1//1 18//1 8//1
f 8//1 18//1 19//1
f 8//1 19//1 9//1
f 9//1 19//1 20//1
f 9//1 20//1 17//1
f 21//2 22//2 23//2
f 23//2 22//2 24//2
f 25//3 21//3 26//3
f 26//3 21//3 23//3
f 27//4 25//4 28//4
f 28//4 25//4 26//4
f 22//5 27//5 24//5
f 24//5 27//5 28//5
f 29//1 25//1 30//1
f 30//1 25//1 27//1
f 30//1 27//1 31//1
f 31//1 27//1 22//1
f 31//1 22//1 32//1
f 32//1 22//1 21//1
f 32//1 21//1 29//1
f 29//1 21//1 25//1
f 28//6 26//6 24//6
f 24//6 26//6 23//6
f 13//5 14//5 29//5
f 29//5 14//5 32//5
f 14//4 10//4 32//4
f 32//4 10//4 31//4
f 10//3 9//3 31//3
f 31//3 9//3 30//3
f 9//2 13//2 30//2
f 30//2 13//2 29//2
f 8//5 16//5 33//5
f 33//5 16//5 34//5
f 16//2 2//2 34//2
f 34//2 2//2 35//2
f 2//3 1//3 35//3
f 35//3 1//3 36//3
f 1//4 8//4 36//4
f 36//4 8//4 33//4
f 34//1 35//1 33//1
f 33//1 35//1 36//1
f 6//5 3//5 37//5
f 37//5 3//5 38//5
f 3//2 15//2 38//2
f 38//2 15//2 39//2
f 15//3 4//3 39//3
f 39//3 4//3 40//3
f 4//4 6//4 40//4
f 40//4 6//4 37//4
f 38//1 39//1 37//1
f 37//1 39//1 40//1
f 5//3 12//3 41//3
f 41//3 12//3 42//3
f 12//4 11//4 42//4
f 42//4 11//4 43//4
f 11//5 7//5 43//5
f 43//5 7//5 44//5
f 7//2 5//2 44//2
f 44//2 5//2 41//2
f 42//1 43//1 41//1
f 41//1 43//1 44//1
f 18//3 17//3 45//3
f 45//3 17//3 46//3
f 17//4 20//4 46//4
f 46//4 20//4 47//4
f 20//5 19//5 47//5
f 47//5 19//5 48//5
f 19//2 18//2 48//2
f 48//2 18//2 45//2
f 46//1 47//1 45//1
f 45//1 47//1 48//1
