# Blender 4.0.2
# www.blender.org
mtllib base_board.mtl.mtl
o general_board
v -0.015000 0.000000 0.020000
v -0.015000 0.000000 0.060000
v 0.015000 0.000000 0.060000
v 0.045000 0.000000 0.020000
v 0.045000 -0.000000 -0.020000
v 0.015000 0.000000 0.020000
v 0.015000 -0.000000 -0.020000
v -0.045000 0.000000 0.020000
v -0.075000 -0.000000 -0.100000
v -0.075000 0.000000 0.100000
v 0.015000 -0.000000 -0.060000
v 0.045000 -0.000000 -0.060000
v 0.075000 -0.000000 -0.100000
v 0.075000 0.000000 0.100000
v 0.045000 0.000000 0.060000
v -0.045000 0.000000 0.060000
v -0.015000 -0.000000 -0.060000
v -0.015000 -0.000000 -0.020000
v -0.045000 -0.000000 -0.020000
v -0.045000 -0.000000 -0.060000
v 0.115000 -0.025000 0.115000
v -0.115000 -0.025000 0.115000
v 0.115000 -0.025000 -0.115000
v -0.115000 -0.025000 -0.115000
v 0.115000 0.015000 0.115000
v -0.069000 0.015000 0.115000
v -0.115000 0.015000 0.115000
v 0.115000 0.015000 0.069000
v 0.115000 0.015000 -0.115000
v 0.069000 0.015000 -0.115000
v -0.115000 0.015000 -0.115000
v -0.115000 0.015000 -0.069000
v 0.075000 0.015000 -0.020000
v 0.075000 0.015000 -0.100000
v 0.075000 0.015000 0.100000
v 0.015000 0.015000 0.100000
v -0.075000 0.015000 0.100000
v -0.075000 0.015000 0.020000
v -0.075000 0.015000 -0.100000
v -0.015000 0.015000 -0.100000
v -0.045000 0.015000 0.036000
v -0.045000 0.015000 0.020000
v -0.045000 0.015000 0.060000
v -0.033000 0.015000 0.060000
v -0.015000 0.015000 0.060000
v -0.015000 0.015000 0.044000
v -0.015000 0.015000 0.020000
v -0.027000 0.015000 0.020000
v 0.015000 0.015000 0.036000
v 0.015000 0.015000 0.020000
v 0.015000 0.015000 0.060000
v 0.027000 0.015000 0.060000
v 0.045000 0.015000 0.060000
v 0.045000 0.015000 0.044000
v 0.045000 0.015000 0.020000
v 0.033000 0.015000 0.020000
v 0.045000 0.015000 -0.020000
v 0.045000 0.015000 -0.036000
v 0.045000 0.015000 -0.060000
v 0.033000 0.015000 -0.060000
v 0.015000 0.015000 -0.060000
v 0.015000 0.015000 -0.044000
v 0.015000 0.015000 -0.020000
v 0.027000 0.015000 -0.020000
v -0.015000 0.015000 -0.020000
v -0.015000 0.015000 -0.036000
v -0.015000 0.015000 -0.060000
v -0.027000 0.015000 -0.060000
v -0.045000 0.015000 -0.060000
v -0.045000 0.015000 -0.044000
v -0.045000 0.015000 -0.020000
v -0.033000 0.015000 -0.020000
v 0.115000 -0.000000 -0.017000
v 0.115000 -0.000000 -0.000000
v 0.115000 0.015000 0.017000
v 0.115000 0.015000 -0.017000
v 0.115000 0.003696 0.017000
v 0.115000 0.000000 0.017000
v -0.115000 0.000000 0.000000
v -0.115000 0.000000 0.017000
v -0.115000 0.015000 -0.017000
v -0.115000 0.003696 -0.017000
v -0.115000 0.015000 0.017000
v -0.115000 -0.000000 -0.017000
v 0.075000 -0.000000 -0.017000
v 0.075000 0.000000 0.017000
v 0.075000 0.014625 -0.017000
v 0.075000 0.010375 0.017000
v 0.075000 0.015000 -0.017000
v 0.075000 0.015000 0.017000
v -0.075000 -0.000000 -0.017000
v -0.075000 0.010375 -0.017000
v -0.075000 0.014625 0.017000
v -0.075000 0.000000 0.017000
v -0.075000 0.015000 -0.017000
v -0.075000 0.015000 0.017000
v -0.054250 -0.000000 -0.017000
v -0.045000 -0.000000 -0.017000
v -0.017250 -0.000000 -0.017000
v -0.015000 -0.000000 -0.017000
v 0.045750 -0.000000 -0.017000
v 0.045000 -0.000000 -0.017000
v 0.042750 -0.000000 -0.017000
v 0.015000 -0.000000 -0.017000
v -0.012750 -0.000000 -0.017000
v -0.045750 0.000000 0.017000
v -0.045000 0.000000 0.017000
v -0.042750 0.000000 0.017000
v -0.015000 0.000000 0.017000
v 0.012750 0.000000 0.017000
v 0.054250 0.000000 0.017000
v 0.045000 0.000000 0.017000
v 0.017250 0.000000 0.017000
v 0.015000 0.000000 0.017000
vn -0.0000 1.0000 -0.0000
vn -0.0000 -0.0000 1.0000
vn 1.0000 -0.0000 -0.0000
vn -0.0000 -0.0000 -1.0000
vn -1.0000 -0.0000 -0.0000
vn -0.0000 -1.0000 -0.0000
vt 0.000000 0.000000
vt 0.245875 0.500000
vt 0.248125 0.500000
vt 0.246625 0.500000
vt 0.244375 0.500000
vt 0.259375 0.500000
vt 0.258625 0.500000
vt 0.235625 0.500000
vt 0.235625 0.500000
vt 0.240625 0.500000
vt 0.241375 0.500000
vt 0.240625 0.500000
vt 0.253375 0.500000
vt 0.255625 0.500000
vt 0.254125 0.500000
vt 0.251875 0.500000
vt 0.264375 0.500000
vt 0.375000 0.279167
vt 0.375000 0.312500
vt 0.375000 0.437500
vt 0.375000 0.470833
vt 0.375000 0.779167
vt 0.375000 0.812500
vt 0.375000 0.937500
vt 0.375000 0.970833
vt 0.154167 0.500000
vt 0.187500 0.500000
vt 0.345833 0.500000
vt 0.312500 0.500000
s 0
usemtl Material.001
f 1/1/1 2/1/1 3/1/1
f 103/1/1 102/1/1 5/1/1
f 6/1/1 4/1/1 112/1/1 113/1/1
f 112/1/1 102/1/1 103/1/1 113/1/1
f 6/1/1 113/1/1 114/1/1
f 5/1/1 7/1/1 104/1/1 103/1/1
f 103/1/1 104/1/1 114/1/1 113/1/1
f 91/1/1 97/1/1 9/1/1
f 10/1/1 8/1/1 106/1/1 94/1/1
f 94/1/1 106/1/1 97/1/1 91/1/1
f 11/1/1 12/1/1 13/1/1
f 13/1/1 12/1/1 5/1/1
f 86/1/1 111/1/1 14/1/1
f 13/1/1 5/1/1 101/1/1 85/1/1
f 85/1/1 101/1/1 111/1/1 86/1/1
f 102/1/1 101/1/1 5/1/1
f 4/1/1 14/1/1 111/1/1 112/1/1
f 112/1/1 111/1/1 101/1/1 102/1/1
f 14/1/1 4/1/1 15/1/1
f 15/1/1 3/1/1 14/1/1
f 14/1/1 3/1/1 2/1/1
f 14/1/1 2/1/1 10/1/1
f 10/1/1 2/1/1 16/1/1
f 10/1/1 16/1/1 8/1/1
f 13/1/1 9/1/1 11/1/1
f 11/1/1 9/1/1 17/1/1
f 11/1/1 17/1/1 7/1/1
f 7/1/1 17/1/1 18/1/1
f 114/1/1 110/1/1 6/1/1
f 7/1/1 18/1/1 105/1/1 104/1/1
f 104/1/1 105/1/1 110/1/1 114/1/1
f 3/1/1 6/1/1 1/1/1
f 100/1/1 105/1/1 18/1/1
f 1/1/1 6/1/1 110/1/1 109/1/1
f 105/1/1 100/1/1 109/1/1 110/1/1
f 99/1/1 100/1/1 18/1/1
f 8/1/1 1/1/1 109/1/1 108/1/1
f 99/1/1 108/1/1 109/1/1 100/1/1
f 8/1/1 108/1/1 107/1/1
f 18/1/1 19/1/1 98/1/1 99/1/1
f 108/1/1 99/1/1 98/1/1 107/1/1
f 107/1/1 106/1/1 8/1/1
f 19/1/1 9/1/1 97/1/1 98/1/1
f 106/1/1 107/1/1 98/1/1 97/1/1
f 9/1/1 19/1/1 20/1/1
f 9/1/1 20/1/1 17/1/1
f 21/1/2 25/1/2 26/1/2
f 27/1/2 22/1/2 21/1/2 26/1/2
f 23/1/3 29/1/3 76/1/3 73/1/3 74/1/3
f 75/1/3 28/1/3 77/1/3
f 77/1/3 28/1/3 25/1/3 21/1/3 23/1/3 74/1/3 78/1/3
f 31/1/4 30/1/4 24/1/4
f 23/1/4 24/1/4 30/1/4 29/1/4
f 22/1/5 27/1/5 83/1/5 80/1/5 79/1/5
f 81/1/5 32/1/5 82/1/5
f 32/1/5 31/1/5 24/1/5 22/1/5 79/1/5 84/1/5 82/1/5
f 24/1/6 23/1/6 22/1/6
f 22/1/6 23/1/6 21/1/6
f 86/1/5 14/1/5 88/1/5
f 33/1/5 34/1/5 13/1/5 85/1/5 87/1/5
f 33/1/5 87/1/5 89/1/5
f 14/1/5 35/1/5 90/1/5 88/1/5
f 14/1/4 10/1/4 36/1/4 35/1/4
f 37/1/4 36/1/4 10/1/4
f 91/1/3 9/1/3 92/1/3
f 93/1/3 38/1/3 37/1/3 10/1/3 94/1/3
f 92/1/3 9/1/3 39/1/3 95/1/3
f 96/1/3 38/1/3 93/1/3
f 39/1/2 9/1/2 13/1/2 40/1/2
f 13/1/2 34/1/2 40/1/2
f 42/1/5 8/1/5 16/1/5 41/1/5
f 16/1/5 43/1/5 41/1/5
f 43/1/2 16/1/2 2/1/2 44/1/2
f 2/1/2 45/1/2 44/1/2
f 46/1/3 45/1/3 2/1/3 1/1/3
f 1/1/3 47/1/3 46/1/3
f 1/1/4 8/1/4 48/1/4 47/1/4
f 42/1/4 48/1/4 8/1/4
f 50/1/5 6/1/5 3/1/5 49/1/5
f 3/1/5 51/1/5 49/1/5
f 51/1/2 3/1/2 15/1/2 52/1/2
f 15/1/2 53/1/2 52/1/2
f 53/1/3 15/1/3 4/1/3 54/1/3
f 4/1/3 55/1/3 54/1/3
f 4/1/4 6/1/4 56/1/4 55/1/4
f 56/1/4 6/1/4 50/1/4
f 58/1/3 57/1/3 5/1/3 12/1/3
f 12/1/3 59/1/3 58/1/3
f 12/1/4 11/1/4 60/1/4 59/1/4
f 61/1/4 60/1/4 11/1/4
f 61/1/5 11/1/5 7/1/5 62/1/5
f 7/1/5 63/1/5 62/1/5
f 63/1/2 7/1/2 5/1/2 64/1/2
f 5/1/2 57/1/2 64/1/2
f 66/1/3 65/1/3 18/1/3 17/1/3
f 17/1/3 67/1/3 66/1/3
f 17/1/4 20/1/4 68/1/4 67/1/4
f 69/1/4 68/1/4 20/1/4
f 20/1/5 19/1/5 70/1/5 69/1/5
f 19/1/5 71/1/5 70/1/5
f 71/1/2 19/1/2 18/1/2 72/1/2
f 72/1/2 18/1/2 65/1/2
usemtl Material.002
f 72/2/1 65/3/1 66/3/1 67/3/1 68/4/1 69/5/1 70/5/1 71/5/1
f 34/6/1 30/7/1 31/8/1 32/8/1 81/9/1 95/10/1 39/10/1 40/3/1
f 27/8/1 26/11/1 37/10/1 38/10/1 96/12/1 83/9/1
f 64/13/1 57/14/1 58/14/1 59/14/1 60/15/1 61/16/1 62/16/1 63/16/1
f 56/15/1 50/16/1 49/16/1 51/16/1 52/13/1 53/14/1 54/14/1 55/14/1
f 48/4/1 42/5/1 41/5/1 43/5/1 44/2/1 45/3/1 46/3/1 47/3/1
f 37/10/1 26/11/1 25/17/1 28/17/1 75/17/1 90/6/1 35/6/1 36/16/1
f 29/17/1 30/7/1 34/6/1 33/6/1 89/6/1 76/17/1
usemtl 
f 81/18/2 82/18/2 84/18/2 91/19/2 92/19/2 95/19/2
f 89/20/2 87/20/2 85/20/2 73/21/2 76/21/2
f 75/22/4 77/22/4 78/22/4 86/23/4 88/23/4 90/23/4
f 93/24/4 94/24/4 80/25/4 83/25/4 96/24/4
f 79/26/1 80/26/1 94/27/1 91/27/1 84/26/1
f 74/28/1 73/28/1 85/29/1 86/29/1 78/28/1
