# Blender 4.0.2
# www.blender.org
mtllib base_board.mtl
o general_board
v -0.015000 0.000000 0.020000
v -0.015000 0.000000 0.060000
v 0.015000 0.000000 0.060000
v 0.045000 0.000000 0.020000
v 0.045000 -0.000000 -0.020000
v 0.015000 0.000000 0.020000
v 0.015000 -0.000000 -0.020000
v -0.045000 0.000000 0.020000
v -0.075000 -0.000000 -0.100000
v -0.075000 0.000000 0.100000
v 0.015000 -0.000000 -0.060000
v 0.045000 -0.000000 -0.060000
v 0.075000 -0.000000 -0.100000
v 0.075000 0.000000 0.100000
v 0.045000 0.000000 0.060000
v -0.045000 0.000000 0.060000
v -0.015000 -0.000000 -0.060000
v -0.015000 -0.000000 -0.020000
v -0.045000 -0.000000 -0.020000
v -0.045000 -0.000000 -0.060000
v 0.115000 -0.025000 0.115000
v -0.115000 -0.025000 0.115000
v 0.115000 -0.025000 -0.115000
v -0.115000 -0.025000 -0.115000
v 0.115000 0.015000 0.115000
v -0.069000 0.015000 0.115000
v -0.115000 0.015000 0.115000
v 0.115000 0.015000 0.069000
v 0.115000 0.015000 -0.115000
v 0.069000 0.015000 -0.115000
v -0.115000 0.015000 -0.115000
v -0.115000 0.015000 -0.069000
v 0.075000 0.015000 -0.100000
v 0.075000 0.015000 0.100000
v 0.015000 0.015000 0.100000
v -0.075000 0.015000 0.100000
v -0.075000 0.015000 -0.100000
v -0.015000 0.015000 -0.100000
v -0.045000 0.015000 0.036000
v -0.045000 0.015000 0.060000
v -0.033000 0.015000 0.060000
v -0.015000 0.015000 0.060000
v -0.015000 0.015000 0.044000
v 0.015000 0.015000 0.036000
v 0.015000 0.015000 0.060000
v 0.027000 0.015000 0.060000
v 0.045000 0.015000 0.060000
v 0.045000 0.015000 0.044000
v 0.045000 0.015000 -0.036000
v 0.045000 0.015000 -0.060000
v 0.033000 0.015000 -0.060000
v 0.015000 0.015000 -0.060000
v 0.015000 0.015000 -0.044000
v -0.015000 0.015000 -0.036000
v -0.015000 0.015000 -0.060000
v -0.027000 0.015000 -0.060000
v -0.045000 0.015000 -0.060000
v -0.045000 0.015000 -0.044000
v 0.115000 -0.000000 -0.029000
v 0.115000 -0.000000 -0.000000
v 0.115000 0.015000 0.029000
v 0.115000 0.015000 -0.029000
v 0.115000 0.006304 0.029000
v 0.115000 0.000000 0.029000
v -0.115000 0.000000 0.000000
v -0.115000 0.000000 0.029000
v -0.115000 0.015000 -0.029000
v -0.115000 0.006304 -0.029000
v -0.115000 0.015000 0.029000
v -0.115000 -0.000000 -0.029000
v 0.075000 -0.000000 -0.029000
v 0.075000 0.000000 0.029000
v 0.075000 0.008875 0.029000
v 0.075000 0.015000 -0.029000
v 0.075000 0.015000 0.029000
v -0.075000 0.015000 0.029000
v -0.075000 -0.000000 -0.029000
v -0.075000 0.008875 -0.029000
v -0.075000 0.000000 0.029000
v -0.075000 0.015000 -0.029000
v -0.045000 0.000000 0.029000
v -0.045000 0.015000 0.029000
v -0.015000 0.000000 0.029000
v -0.015000 0.005625 0.029000
v -0.015000 0.015000 0.029000
v 0.015000 0.000000 0.029000
v 0.015000 0.015000 0.029000
v 0.045000 0.000000 0.029000
v 0.045000 0.005625 0.029000
v 0.045000 0.015000 0.029000
v 0.045000 0.015000 -0.029000
v 0.045000 -0.000000 -0.029000
v 0.015000 -0.000000 -0.029000
v 0.015000 0.005625 -0.029000
v 0.015000 0.015000 -0.029000
v -0.015000 0.015000 -0.029000
v -0.015000 -0.000000 -0.029000
v -0.045000 -0.000000 -0.029000
v -0.045000 0.005625 -0.029000
v -0.045000 0.015000 -0.029000
v -0.048375 -0.000000 -0.029000
v -0.057250 -0.000000 -0.029000
v 0.008250 -0.000000 -0.029000
v 0.048375 -0.000000 -0.029000
v -0.048375 0.000000 0.029000
v -0.008250 0.000000 0.029000
v 0.048375 0.000000 0.029000
v 0.057250 0.000000 0.029000
vn -0.0000 1.0000 -0.0000
vn -0.0000 -0.0000 1.0000
vn 1.0000 -0.0000 -0.0000
vn -0.0000 -0.0000 -1.0000
vn -1.0000 -0.0000 -0.0000
vn -0.0000 -1.0000 -0.0000
vt 0.000000 0.000000
vt 0.248125 0.500000
vt 0.246625 0.500000
vt 0.244375 0.500000
vt 0.244375 0.500000
vt 0.259375 0.500000
vt 0.258625 0.500000
vt 0.235625 0.500000
vt 0.240625 0.500000
vt 0.241375 0.500000
vt 0.255625 0.500000
vt 0.254125 0.500000
vt 0.251875 0.500000
vt 0.253375 0.500000
vt 0.245875 0.500000
vt 0.264375 0.500000
vt 0.259375 0.500000
vt 0.375000 0.279167
vt 0.375000 0.312500
vt 0.375000 0.337500
vt 0.375000 0.362500
vt 0.375000 0.387500
vt 0.375000 0.412500
vt 0.375000 0.437500
vt 0.375000 0.470833
vt 0.375000 0.779167
vt 0.375000 0.812500
vt 0.375000 0.937500
vt 0.375000 0.970833
vt 0.375000 0.887500
vt 0.375000 0.912500
vt 0.375000 0.837500
vt 0.375000 0.862500
vt 0.154167 0.500000
vt 0.187500 0.500000
vt 0.212500 0.500000
vt 0.237500 0.500000
vt 0.262500 0.500000
vt 0.287500 0.500000
vt 0.345833 0.500000
vt 0.312500 0.500000
s 0
usemtl Material.001
f 2/1/1 3/1/1 106/1/1 83/1/1
f 83/1/1 106/1/1 1/1/1
f 6/1/1 4/1/1 5/1/1
f 5/1/1 7/1/1 6/1/1
f 10/1/1 105/1/1 79/1/1
f 77/1/1 102/1/1 9/1/1
f 102/1/1 77/1/1 79/1/1 105/1/1 8/1/1
f 11/1/1 12/1/1 13/1/1
f 12/1/1 92/1/1 104/1/1 13/1/1
f 5/1/1 104/1/1 92/1/1
f 13/1/1 104/1/1 71/1/1
f 108/1/1 14/1/1 72/1/1
f 71/1/1 104/1/1 5/1/1 108/1/1 72/1/1
f 107/1/1 14/1/1 108/1/1
f 4/1/1 107/1/1 108/1/1 5/1/1
f 15/1/1 14/1/1 107/1/1 88/1/1
f 88/1/1 107/1/1 4/1/1
f 15/1/1 3/1/1 14/1/1
f 14/1/1 3/1/1 2/1/1
f 14/1/1 2/1/1 10/1/1
f 10/1/1 2/1/1 16/1/1
f 105/1/1 10/1/1 16/1/1 81/1/1
f 8/1/1 105/1/1 81/1/1
f 13/1/1 9/1/1 11/1/1
f 11/1/1 9/1/1 17/1/1
f 103/1/1 93/1/1 11/1/1 17/1/1
f 93/1/1 103/1/1 7/1/1
f 97/1/1 103/1/1 17/1/1
f 18/1/1 7/1/1 103/1/1 97/1/1
f 7/1/1 18/1/1 6/1/1
f 106/1/1 3/1/1 86/1/1
f 6/1/1 1/1/1 106/1/1 86/1/1
f 18/1/1 1/1/1 6/1/1
f 8/1/1 1/1/1 18/1/1
f 8/1/1 18/1/1 19/1/1
f 101/1/1 9/1/1 102/1/1
f 8/1/1 19/1/1 101/1/1 102/1/1
f 101/1/1 98/1/1 20/1/1 9/1/1
f 98/1/1 101/1/1 19/1/1
f 9/1/1 20/1/1 17/1/1
f 21/1/2 25/1/2 26/1/2
f 27/1/2 22/1/2 21/1/2 26/1/2
f 23/1/3 29/1/3 62/1/3 59/1/3 60/1/3
f 61/1/3 28/1/3 63/1/3
f 63/1/3 28/1/3 25/1/3 21/1/3 23/1/3 60/1/3 64/1/3
f 31/1/4 30/1/4 24/1/4
f 23/1/4 24/1/4 30/1/4 29/1/4
f 22/1/5 27/1/5 69/1/5 66/1/5 65/1/5
f 67/1/5 32/1/5 68/1/5
f 68/1/5 32/1/5 31/1/5 24/1/5 22/1/5 65/1/5 70/1/5
f 24/1/6 23/1/6 22/1/6
f 22/1/6 23/1/6 21/1/6
f 72/1/5 14/1/5 73/1/5
f 74/1/5 33/1/5 13/1/5 71/1/5
f 14/1/5 34/1/5 75/1/5 73/1/5
f 14/1/4 10/1/4 35/1/4 34/1/4
f 36/1/4 35/1/4 10/1/4
f 76/1/3 36/1/3 10/1/3 79/1/3
f 77/1/3 9/1/3 78/1/3
f 78/1/3 9/1/3 37/1/3 80/1/3
f 37/1/2 9/1/2 13/1/2 38/1/2
f 13/1/2 33/1/2 38/1/2
f 81/1/5 16/1/5 39/1/5 82/1/5
f 16/1/5 40/1/5 39/1/5
f 40/1/2 16/1/2 2/1/2 41/1/2
f 2/1/2 42/1/2 41/1/2
f 84/1/3 43/1/3 42/1/3 2/1/3 83/1/3
f 85/1/3 43/1/3 84/1/3
f 86/1/5 3/1/5 44/1/5 87/1/5
f 3/1/5 45/1/5 44/1/5
f 45/1/2 3/1/2 15/1/2 46/1/2
f 15/1/2 47/1/2 46/1/2
f 89/1/3 48/1/3 47/1/3 15/1/3 88/1/3
f 90/1/3 48/1/3 89/1/3
f 92/1/3 12/1/3 49/1/3 91/1/3
f 12/1/3 50/1/3 49/1/3
f 12/1/4 11/1/4 51/1/4 50/1/4
f 52/1/4 51/1/4 11/1/4
f 53/1/5 52/1/5 11/1/5 93/1/5 94/1/5
f 53/1/5 94/1/5 95/1/5
f 97/1/3 17/1/3 54/1/3 96/1/3
f 17/1/3 55/1/3 54/1/3
f 17/1/4 20/1/4 56/1/4 55/1/4
f 57/1/4 56/1/4 20/1/4
f 58/1/5 57/1/5 20/1/5 98/1/5 99/1/5
f 58/1/5 99/1/5 100/1/5
usemtl Material.002
f 54/2/1 55/2/1 56/3/1 57/4/1 58/4/1 100/5/1 96/2/1
f 33/6/1 30/7/1 31/8/1 32/8/1 67/8/1 80/9/1 37/9/1 38/2/1
f 36/9/1 76/9/1 69/8/1 27/8/1 26/10/1
f 49/11/1 50/11/1 51/12/1 52/13/1 53/13/1 95/13/1 91/11/1
f 87/13/1 44/13/1 45/13/1 46/14/1 47/11/1 48/11/1 90/11/1
f 82/5/1 39/4/1 40/4/1 41/15/1 42/2/1 43/2/1 85/2/1
f 36/9/1 26/10/1 25/16/1 28/16/1 61/16/1 75/17/1 34/6/1 35/13/1
f 29/16/1 30/7/1 33/6/1 74/6/1 62/16/1
usemtl 
f 67/18/2 68/18/2 70/18/2 77/19/2 78/19/2 80/19/2
f 100/20/2 99/20/2 98/20/2 97/21/2 96/21/2
f 95/22/2 94/22/2 93/22/2 92/23/2 91/23/2
f 74/24/2 71/24/2 59/25/2 62/25/2
f 63/26/4 64/26/4 72/27/4 73/27/4 75/27/4 61/26/4
f 79/28/4 66/29/4 69/29/4 76/28/4
f 84/30/4 83/30/4 81/31/4 82/31/4 85/30/4
f 89/32/4 88/32/4 86/33/4 87/33/4 90/32/4
f 65/34/1 66/34/1 79/35/1 77/35/1 70/34/1
f 19/36/1 18/37/1 97/37/1 98/36/1
f 7/38/1 5/39/1 92/39/1 93/38/1
f 1/37/1 8/36/1 81/36/1 83/37/1
f 4/39/1 6/38/1 86/38/1 88/39/1
f 60/40/1 59/40/1 71/41/1 72/41/1 64/40/1
