# Blender 5.1.0
# www.blender.org
mtllib shape_3_4.mtl
o shape_3_1
v 0.016000 -0.045000 0.072000
v 0.016000 -0.015000 0.072000
v -0.016000 -0.045000 0.072000
v -0.016000 -0.015000 0.072000
v 0.016000 -0.045000 0.016000
v -0.016000 -0.045000 0.016000
v 0.016000 0.017000 0.016000
v -0.016000 0.017000 0.016000
v 0.016000 0.017000 -0.014000
v -0.016000 0.017000 -0.014000
v 0.016000 -0.045000 -0.014000
v -0.016000 -0.045000 -0.014000
v 0.016000 -0.045000 -0.070000
v -0.016000 -0.045000 -0.070000
v 0.016000 -0.015000 -0.070000
v -0.016000 -0.015000 -0.070000
v 0.016000 -0.015000 -0.024000
v -0.016000 -0.015000 -0.024000
v 0.016000 0.047000 -0.024000
v -0.016000 0.047000 -0.024000
v 0.016000 0.047000 0.026000
v -0.016000 0.047000 0.026000
v 0.016000 -0.015000 0.026000
v -0.016000 -0.015000 0.026000
vn -0.0000 -0.0000 1.0000
vn -0.0000 -1.0000 -0.0000
vn -0.0000 -0.0000 -1.0000
vn -0.0000 1.0000 -0.0000
vn 1.0000 -0.0000 -0.0000
vn -1.0000 -0.0000 -0.0000
s 0
usemtl Material.001
f 1//1 2//1 3//1
f 3//1 2//1 4//1
f 5//2 1//2 6//2
f 6//2 1//2 3//2
f 7//3 5//3 8//3
f 8//3 5//3 6//3
f 9//2 7//2 10//2
f 10//2 7//2 8//2
f 11//1 9//1 12//1
f 12//1 9//1 10//1
f 13//2 11//2 14//2
f 14//2 11//2 12//2
f 15//3 13//3 16//3
f 16//3 13//3 14//3
f 17//4 15//4 18//4
f 18//4 15//4 16//4
f 19//3 17//3 20//3
f 20//3 17//3 18//3
f 21//4 19//4 22//4
f 22//4 19//4 20//4
f 23//1 21//1 24//1
f 24//1 21//1 22//1
f 2//4 23//4 4//4
f 4//4 23//4 24//4
f 2//5 1//5 23//5
f 23//5 1//5 5//5
f 23//5 5//5 21//5
f 21//5 5//5 7//5
f 21//5 7//5 19//5
f 19//5 7//5 9//5
f 19//5 9//5 17//5
f 17//5 9//5 11//5
f 17//5 11//5 15//5
f 15//5 11//5 13//5
f 16//6 14//6 18//6
f 18//6 14//6 12//6
f 18//6 12//6 20//6
f 20//6 12//6 10//6
f 20//6 10//6 22//6
f 22//6 10//6 8//6
f 22//6 8//6 24//6
f 24//6 8//6 6//6
f 24//6 6//6 4//6
f 4//6 6//6 3//6
