# Blender 5.1.0
# www.blender.org
mtllib shape_1_2.mtl
o shape_1_1.001
v -0.070000 0.035000 -0.015000
v -0.070000 -0.040000 -0.015000
v -0.070000 0.035000 0.017000
v -0.070000 -0.040000 0.017000
v -0.020000 0.035000 0.017000
v -0.020000 -0.015000 0.017000
v 0.020000 -0.015000 0.017000
v 0.070000 -0.040000 0.017000
v 0.020000 0.035000 0.017000
v 0.070000 0.035000 0.017000
v 0.070000 0.035000 -0.015000
v 0.070000 -0.040000 -0.015000
v 0.020000 0.035000 -0.015000
v 0.020000 -0.015000 -0.015000
v -0.020000 -0.015000 -0.015000
v -0.020000 0.035000 -0.015000
vn -1.0000 -0.0000 -0.0000
vn -0.0000 -0.0000 1.0000
vn 1.0000 -0.0000 -0.0000
vn -0.0000 -0.0000 -1.0000
vn -0.0000 -1.0000 -0.0000
vn -0.0000 1.0000 -0.0000
s 0
usemtl Material.001
f 1//1 2//1 3//1
f 3//1 2//1 4//1
f 5//2 3//2 6//2
f 6//2 3//2 4//2
f 6//2 4//2 7//2
f 7//2 4//2 8//2
f 7//2 8//2 9//2
f 9//2 8//2 10//2
f 10//3 8//3 11//3
f 11//3 8//3 12//3
f 13//4 11//4 14//4
f 14//4 11//4 12//4
f 14//4 12//4 15//4
f 15//4 12//4 2//4
f 15//4 2//4 16//4
f 16//4 2//4 1//4
f 12//5 8//5 2//5
f 2//5 8//5 4//5
f 7//6 14//6 6//6
f 6//6 14//6 15//6
f 9//1 13//1 7//1
f 7//1 13//1 14//1
f 11//6 13//6 10//6
f 10//6 13//6 9//6
f 16//3 5//3 15//3
f 15//3 5//3 6//3
f 5//6 16//6 3//6
f 3//6 16//6 1//6
