# Blender 5.1.0
# www.blender.org
mtllib shape_4_1.mtl
o shape_4_1
v 0.016000 0.010000 0.075000
v 0.016000 0.010000 0.015000
v -0.016000 0.010000 0.075000
v -0.016000 0.010000 0.015000
v 0.016000 -0.010000 0.075000
v -0.016000 -0.010000 0.075000
v 0.016000 -0.010000 0.045000
v -0.016000 -0.010000 0.045000
v 0.016000 -0.040000 0.045000
v -0.016000 -0.040000 0.045000
v 0.016000 -0.040000 0.015000
v -0.016000 -0.040000 0.015000
v 0.016000 -0.010000 0.015000
v -0.016000 -0.010000 0.015000
v 0.016000 -0.010000 -0.015000
v -0.016000 -0.010000 -0.015000
v 0.016000 -0.040000 -0.015000
v -0.016000 -0.040000 -0.015000
v 0.016000 -0.040000 -0.045000
v -0.016000 -0.040000 -0.045000
v 0.016000 -0.010000 -0.045000
v -0.016000 -0.010000 -0.045000
v 0.016000 -0.010000 -0.075000
v -0.016000 -0.010000 -0.075000
v 0.016000 0.010000 -0.075000
v -0.016000 0.010000 -0.075000
v 0.016000 0.010000 -0.015000
v -0.016000 0.010000 -0.015000
v 0.016000 0.040000 -0.015000
v -0.016000 0.040000 -0.015000
v 0.016000 0.040000 0.015000
v -0.016000 0.040000 0.015000
vn -0.0000 1.0000 -0.0000
vn -0.0000 -0.0000 1.0000
vn -0.0000 -1.0000 -0.0000
vn -0.0000 -0.0000 -1.0000
vn 1.0000 -0.0000 -0.0000
vn -1.0000 -0.0000 -0.0000
s 0
f 1//1 2//1 3//1
f 3//1 2//1 4//1
f 5//2 1//2 6//2
f 6//2 1//2 3//2
f 7//3 5//3 8//3
f 8//3 5//3 6//3
f 9//2 7//2 10//2
f 10//2 7//2 8//2
f 11//3 9//3 12//3
f 12//3 9//3 10//3
f 13//4 11//4 14//4
f 14//4 11//4 12//4
f 15//3 13//3 16//3
f 16//3 13//3 14//3
f 17//2 15//2 18//2
f 18//2 15//2 16//2
f 19//3 17//3 20//3
f 20//3 17//3 18//3
f 21//4 19//4 22//4
f 22//4 19//4 20//4
f 23//3 21//3 24//3
f 24//3 21//3 22//3
f 25//4 23//4 26//4
f 26//4 23//4 24//4
f 27//1 25//1 28//1
f 28//1 25//1 26//1
f 29//4 27//4 30//4
f 30//4 27//4 28//4
f 31//1 29//1 32//1
f 32//1 29//1 30//1
f 2//2 31//2 4//2
f 4//2 31//2 32//2
f 27//5 29//5 31//5
f 15//5 17//5 19//5
f 23//5 25//5 21//5
f 21//5 25//5 27//5
f 21//5 27//5 2//5
f 2//5 27//5 31//5
f 1//5 5//5 2//5
f 2//5 5//5 7//5
f 19//5 21//5 15//5
f 15//5 21//5 2//5
f 15//5 2//5 13//5
f 13//5 2//5 7//5
f 13//5 7//5 11//5
f 11//5 7//5 9//5
f 26//6 24//6 28//6
f 28//6 24//6 22//6
f 14//6 3//6 16//6
f 16//6 3//6 4//6
f 6//6 3//6 8//6
f 8//6 3//6 14//6
f 8//6 14//6 10//6
f 10//6 14//6 12//6
f 20//6 18//6 22//6
f 22//6 18//6 16//6
f 22//6 16//6 28//6
f 28//6 16//6 4//6
f 28//6 4//6 30//6
f 30//6 4//6 32//6
