# Blender 5.1.0
# www.blender.org
mtllib shape_2_1.mtl
o shape_2_1
v 0.095000 -0.012000 -0.014000
v 0.095000 0.014000 -0.014000
v 0.095000 -0.012000 0.012000
v 0.095000 0.014000 0.012000
v -0.095000 -0.012000 -0.014000
v -0.095000 -0.012000 0.012000
v 0.095000 -0.012000 0.012000
v -0.095000 0.014000 -0.014000
v -0.095000 0.014000 0.012000
v -0.095000 -0.012000 0.012000
v 0.095000 0.014000 0.012000
v -0.095000 0.014000 0.012000
vn 1.0000 -0.0000 -0.0000
vn -0.0000 -1.0000 -0.0000
vn -1.0000 -0.0000 -0.0000
vn -0.0000 1.0000 -0.0000
vn -0.0000 -0.0000 -1.0000
vn -0.0000 -0.0000 1.0000
s 0
usemtl Material.001
f 1//1 2//1 3//1
f 3//1 2//1 4//1
f 5//2 1//2 6//2
f 6//2 1//2 7//2
f 8//3 5//3 9//3
f 9//3 5//3 10//3
f 2//4 8//4 11//4
f 11//4 8//4 12//4
f 5//5 8//5 1//5
f 1//5 8//5 2//5
f 9//6 10//6 4//6
f 4//6 10//6 3//6
