# https://github.com/mikedh/trimesh
v 0.11383878 0.11626500 -0.01528496
v 0.11561973 0.11562827 -0.01528496
v 0.11383878 0.11626500 -0.02184977
v -0.01557718 0.11626500 -0.01528496
v 0.11626500 0.11384545 -0.01528496
v 0.11561973 0.11562827 -0.02184977
v 0.11558102 0.11558848 -0.02414982
v 0.11383878 0.11617744 -0.02414982
v -0.01557718 0.11626500 -0.02184977
v -0.01557718 0.07709046 -0.01528496
v 0.11626500 0.11384545 -0.02184977
v 0.11626500 0.03495514 -0.01528496
v 0.11617468 0.11384545 -0.02414982
v 0.11536162 0.11536562 -0.02562120
v 0.11383878 0.11554869 -0.02578242
v -0.01557718 0.11617744 -0.02414982
v -0.01557718 0.03495514 -0.01533655
v 0.01560241 0.03495514 -0.01528496
v 0.11626500 0.03495514 -0.02184977
v 0.11617468 0.03495514 -0.02414982
v 0.11573588 0.03495514 -0.02528909
v 0.11554230 0.11384545 -0.02578242
v 0.11383878 0.11384545 -0.02626500
v -0.01557718 0.11554869 -0.02578242
v -0.01557718 0.03495514 -0.02626500
v 0.11554230 0.03495514 -0.02578242
v 0.11435500 0.03495514 -0.02611883
v 0.11383878 0.03495514 -0.02626500
v -0.01557718 0.11384545 -0.02626500
f 1 2 6
f 1 6 3
f 1 3 9
f 1 9 4
f 1 4 10
f 1 10 18
f 1 18 12
f 1 12 5
f 1 5 2
f 2 5 11
f 2 11 6
f 3 6 7
f 3 7 8
f 3 8 16
f 3 16 9
f 4 9 16
f 4 16 24
f 4 24 29
f 4 29 25
f 4 25 17
f 4 17 10
f 5 12 19
f 5 19 11
f 6 11 7
f 7 11 13
f 7 13 14
f 7 14 8
f 8 14 15
f 8 15 24
f 8 24 16
f 10 17 18
f 11 19 20
f 11 20 13
f 12 18 17
f 12 17 25
f 12 25 28
f 12 28 27
f 12 27 26
f 12 26 21
f 12 21 20
f 12 20 19
f 13 20 21
f 13 21 22
f 13 22 14
f 14 23 15
f 14 22 23
f 15 23 29
f 15 29 24
f 21 26 22
f 22 26 27
f 22 27 23
f 23 27 28
f 23 28 25
f 23 25 29

