# https://github.com/mikedh/trimesh
v -0.09776917 -0.01755568 0.01705580
v -0.09776917 -0.00003047 0.01636164
v -0.10099181 -0.00001846 0.02555027
v -0.10027486 -0.01755568 0.02414652
v -0.09776917 -0.01755568 -0.02430078
v -0.09776917 -0.00001846 0.01633593
v -0.10168161 -0.00001846 0.02579709
v -0.10079810 -0.01755568 0.02558627
v -0.09974440 -0.01755568 -0.02625986
v -0.09776917 -0.01755225 -0.02625986
v -0.09776917 -0.00001846 -0.02625986
v -0.10235149 -0.00001846 0.02603361
v -0.10235149 -0.01755568 0.02605418
v -0.11384983 -0.01755568 -0.02625986
v -0.11384983 -0.00001846 -0.02625986
v -0.10351924 -0.00001846 0.02615188
v -0.10465079 -0.00001846 0.02625986
v -0.10465079 -0.01755568 0.02625986
v -0.11554806 -0.01755568 -0.02578166
v -0.11554806 -0.00001846 -0.02578166
v -0.11384983 -0.00001846 0.02625986
v -0.11384983 -0.01755568 0.02625986
v -0.11618172 -0.01755568 -0.02414652
v -0.11618172 -0.00001846 -0.02414652
v -0.11471162 -0.00001846 0.02601819
v -0.11407433 -0.01755568 0.02619816
v -0.11626319 -0.01755568 -0.02184808
v -0.11626319 -0.00001846 -0.02184808
v -0.11554806 -0.00001846 0.02578166
v -0.11554806 -0.01755568 0.02578166
v -0.11626319 -0.01755568 0.02184808
v -0.11626319 -0.00001846 0.02184808
v -0.11618172 -0.00001846 0.02414652
v -0.11618172 -0.01755568 0.02414652
v -0.11619259 -0.01755568 0.02384315
v -0.11622337 -0.00001846 0.02297930
f 1 2 3
f 1 3 4
f 1 4 8
f 1 8 13
f 1 13 18
f 1 18 22
f 1 22 26
f 1 26 30
f 1 30 34
f 1 34 35
f 1 35 31
f 1 31 27
f 1 27 23
f 1 23 19
f 1 19 14
f 1 14 9
f 1 9 5
f 1 5 10
f 1 10 11
f 1 11 6
f 1 6 2
f 2 6 3
f 3 7 8
f 3 8 4
f 3 6 11
f 3 11 15
f 3 15 20
f 3 20 24
f 3 24 28
f 3 28 32
f 3 32 36
f 3 36 33
f 3 33 29
f 3 29 25
f 3 25 21
f 3 21 17
f 3 17 16
f 3 16 12
f 3 12 7
f 5 9 10
f 7 12 8
f 8 12 13
f 9 14 15
f 9 15 11
f 9 11 10
f 12 16 13
f 13 16 17
f 13 17 18
f 14 19 20
f 14 20 15
f 17 21 22
f 17 22 18
f 19 23 24
f 19 24 20
f 21 25 26
f 21 26 22
f 23 27 28
f 23 28 24
f 25 29 30
f 25 30 26
f 27 31 32
f 27 32 28
f 29 33 34
f 29 34 30
f 31 35 36
f 31 36 32
f 33 36 35
f 33 35 34

