# https://github.com/mikedh/trimesh
v 0.05479812 -0.00002323 -0.02626408
v 0.05567063 -0.04974242 -0.02626408
v 0.05479812 -0.00002323 -0.01849072
v 0.05479812 0.03495514 -0.02626408
v 0.05567063 -0.04974242 -0.01704492
v 0.11384003 -0.04974242 -0.02626408
v 0.05479812 0.03495514 -0.01849072
v 0.11384003 0.03495514 -0.02626408
v 0.08129236 -0.04974242 -0.01683917
v 0.08330215 -0.00002323 -0.01683917
v 0.11406267 -0.04974242 -0.02620226
v 0.08225514 0.03495514 -0.01812627
v 0.11435751 0.03495514 -0.02611830
v 0.11626500 -0.04974242 -0.01683917
v 0.11626500 -0.00002323 -0.01683917
v 0.11470652 -0.00002323 -0.02601958
v 0.11554293 -0.04974242 -0.02578153
v 0.11626500 0.03495514 -0.01812627
v 0.11554293 0.03495514 -0.02578153
v 0.11626500 -0.04974242 -0.02184918
v 0.11618076 -0.04974242 -0.02414843
v 0.11626500 0.03495514 -0.02185010
v 0.11617474 0.03495514 -0.02414935
v 0.11618076 -0.00002323 -0.02414843
v 0.11626500 -0.00002323 -0.02185010
f 1 2 5
f 1 5 3
f 1 3 7
f 1 7 4
f 1 4 8
f 1 8 6
f 1 6 2
f 2 6 11
f 2 11 17
f 2 17 21
f 2 21 20
f 2 20 14
f 2 14 9
f 2 9 5
f 3 5 7
f 4 7 12
f 4 12 18
f 4 18 22
f 4 22 23
f 4 23 19
f 4 19 13
f 4 13 8
f 5 9 10
f 5 10 7
f 6 8 11
f 7 10 12
f 8 13 11
f 9 14 15
f 9 15 10
f 10 15 18
f 10 18 12
f 11 16 17
f 11 13 16
f 13 19 16
f 14 20 25
f 14 25 22
f 14 22 18
f 14 18 15
f 16 19 17
f 17 19 24
f 17 24 21
f 19 23 24
f 20 21 25
f 21 24 22
f 21 22 25
f 22 24 23

