# https://github.com/mikedh/trimesh
v -0.05250950 -0.00001699 -0.01621591
v -0.05226365 -0.00001699 0.01264961
v -0.05250950 0.01493693 -0.01621591
v -0.01557718 -0.00001699 -0.01621591
v -0.05160563 -0.00001699 0.01494880
v -0.05226365 0.01493693 0.01264961
v -0.01557718 0.01493693 -0.01621591
v -0.01557718 -0.00001699 0.01626217
v -0.05119346 -0.00001699 0.01555619
v -0.05077045 0.01493693 0.01618585
v -0.05160563 0.01493693 0.01494880
v -0.01557718 0.01493693 0.01626535
v -0.01557718 0.01432209 0.01626535
v -0.01721861 0.01493693 0.01626853
v -0.01955061 0.01493693 0.01627171
v -0.04944718 -0.00001699 0.01626217
v -0.05077045 -0.00001699 0.01617949
v -0.04944718 0.01493693 0.01627171
v -0.05011966 -0.00001699 0.01622083
f 1 2 6
f 1 6 3
f 1 3 7
f 1 7 4
f 1 4 8
f 1 8 16
f 1 16 19
f 1 19 17
f 1 17 9
f 1 9 5
f 1 5 2
f 2 5 11
f 2 11 6
f 3 6 11
f 3 11 10
f 3 10 18
f 3 18 15
f 3 15 14
f 3 14 12
f 3 12 7
f 4 7 12
f 4 12 13
f 4 13 8
f 5 9 10
f 5 10 11
f 8 13 14
f 8 14 15
f 8 15 18
f 8 18 16
f 9 17 10
f 10 17 18
f 12 14 13
f 16 18 19
f 17 19 18

