# https://github.com/mikedh/trimesh
v 0.11384905 0.07703411 0.02626500
v 0.11554890 0.07703411 0.02578101
v 0.07931676 0.07703411 0.02626500
v 0.11384905 0.03495514 0.02626500
v 0.11503533 0.03495514 0.02592743
v 0.11618182 0.07703411 0.02414602
v 0.11554890 0.03495514 0.02578101
v 0.11599014 0.03495514 0.02464221
v 0.07931676 0.07703411 -0.01528496
v 0.07931676 0.05405236 0.02626500
v 0.08625360 0.03495514 0.02626500
v 0.11626500 0.07703411 0.02184808
v 0.11618182 0.03495514 0.02414602
v 0.11626500 0.07703411 -0.01528496
v 0.07931676 0.05071982 -0.01528496
v 0.07931676 0.05192266 0.02578101
v 0.08452482 0.03495514 0.02578101
v 0.08572918 0.03495514 0.02611858
v 0.11626500 0.03495514 0.02184808
v 0.11626500 0.03495514 -0.01528496
v 0.08365681 0.03495514 -0.01528496
v 0.07931676 0.05073630 0.02184808
v 0.07931676 0.05190619 0.02575661
v 0.08384126 0.03495514 0.02414602
v 0.08431867 0.03495514 0.02528888
v 0.08373637 0.03495514 0.02184808
v 0.07931676 0.05083928 0.02414602
v 0.08380871 0.03495514 0.02345460
f 1 2 6
f 1 6 12
f 1 12 14
f 1 14 9
f 1 9 3
f 1 3 10
f 1 10 11
f 1 11 4
f 1 4 5
f 1 5 2
f 2 5 7
f 2 7 8
f 2 8 6
f 3 9 15
f 3 15 22
f 3 22 27
f 3 27 23
f 3 23 16
f 3 16 10
f 4 11 18
f 4 18 17
f 4 17 25
f 4 25 24
f 4 24 28
f 4 28 26
f 4 26 21
f 4 21 20
f 4 20 19
f 4 19 13
f 4 13 8
f 4 8 7
f 4 7 5
f 6 8 13
f 6 13 19
f 6 19 12
f 9 14 20
f 9 20 21
f 9 21 15
f 10 16 17
f 10 17 18
f 10 18 11
f 12 19 20
f 12 20 14
f 15 21 22
f 16 23 24
f 16 24 25
f 16 25 17
f 21 26 22
f 22 26 27
f 23 27 24
f 24 27 28
f 26 28 27

