# https://github.com/mikedh/trimesh
v -0.06765673 0.11384843 0.02625986
v -0.06765673 0.11399173 0.02622387
v -0.11384792 0.11384843 0.02625986
v -0.06765673 0.05405288 0.02625986
v -0.11384792 0.11554850 0.02578166
v -0.06765673 0.11554850 0.02578166
v -0.11536573 0.11536611 0.02561712
v -0.11554654 0.11384843 0.02578166
v -0.11534670 0.04972780 0.02583822
v -0.11384792 0.04972780 0.02625986
v -0.08625121 0.04972780 0.02625986
v -0.06765673 0.05209877 0.02582280
v -0.11384792 0.11618032 0.02414652
v -0.06765673 0.11618032 0.02414652
v -0.11617936 0.11384843 0.02414652
v -0.11558937 0.11558758 0.02414652
v -0.11554654 0.04972780 0.02578166
v -0.08592290 0.04972780 0.02621358
v -0.06765673 0.05192290 0.02578166
v -0.11384792 0.11626500 0.02184808
v -0.06765673 0.11626500 0.02184808
v -0.11626500 0.11384843 0.02184808
v -0.11617936 0.04972780 0.02414652
v -0.11563218 0.11562667 0.02184808
v -0.08419097 0.04972780 0.02579194
v -0.06765673 0.05084164 0.02414652
v -0.06765673 0.05093283 0.02428536
v -0.11384792 0.11626500 -0.02184808
v -0.06765673 0.11626500 -0.02184808
v -0.11626500 0.11384843 -0.02184808
v -0.11626500 0.04972780 0.02184808
v -0.11563218 0.11562667 -0.02184808
v -0.08392452 0.04972780 0.02565825
v -0.08291581 0.04972780 0.02435220
v -0.06765673 0.05074393 0.02203833
v -0.11384792 0.11618032 -0.02414652
v -0.11558937 0.11558758 -0.02414652
v -0.06765673 0.11618032 -0.02414652
v -0.11617936 0.11384843 -0.02414652
v -0.11626500 0.04972780 -0.02184808
v -0.06766149 0.04972780 -0.01722034
v -0.06765673 0.05073742 0.02184808
v -0.06765673 0.11612822 -0.02428536
v -0.11384792 0.11554850 -0.02578166
v -0.11536573 0.11536611 -0.02561712
v -0.11554654 0.11384843 -0.02578166
v -0.11562267 0.04972780 -0.02558627
v -0.11617936 0.04972780 -0.02414652
v -0.06765673 0.04972780 -0.01725633
v -0.06765673 0.11554850 -0.02578166
v -0.06765673 0.11540520 -0.02582280
v -0.11384792 0.11384843 -0.02625986
v -0.11554654 0.04972780 -0.02578166
v -0.06765673 0.04972780 -0.02625986
v -0.06765673 0.11384843 -0.02625986
v -0.11384792 0.04972780 -0.02625986
f 1 2 3
f 1 3 10
f 1 10 11
f 1 11 4
f 1 4 12
f 1 12 19
f 1 19 27
f 1 27 26
f 1 26 35
f 1 35 42
f 1 42 49
f 1 49 54
f 1 54 55
f 1 55 51
f 1 51 50
f 1 50 43
f 1 43 38
f 1 38 29
f 1 29 21
f 1 21 14
f 1 14 6
f 1 6 2
f 2 5 3
f 2 6 5
f 3 5 7
f 3 7 8
f 3 8 9
f 3 9 10
f 4 11 12
f 5 6 14
f 5 14 13
f 5 13 7
f 7 15 8
f 7 13 16
f 7 16 15
f 8 15 23
f 8 23 17
f 8 17 9
f 9 17 23
f 9 23 31
f 9 31 40
f 9 40 48
f 9 48 47
f 9 47 53
f 9 53 56
f 9 56 54
f 9 54 49
f 9 49 41
f 9 41 34
f 9 34 33
f 9 33 25
f 9 25 18
f 9 18 11
f 9 11 10
f 11 18 19
f 11 19 12
f 13 14 21
f 13 21 20
f 13 20 16
f 15 16 22
f 15 22 31
f 15 31 23
f 16 20 24
f 16 24 22
f 18 25 26
f 18 26 27
f 18 27 19
f 20 21 29
f 20 29 28
f 20 28 32
f 20 32 24
f 22 24 32
f 22 32 30
f 22 30 40
f 22 40 31
f 25 33 26
f 26 33 34
f 26 34 35
f 28 29 38
f 28 38 36
f 28 36 37
f 28 37 32
f 30 32 37
f 30 37 39
f 30 39 48
f 30 48 40
f 34 41 42
f 34 42 35
f 36 43 44
f 36 44 45
f 36 45 37
f 36 38 43
f 37 45 39
f 39 45 46
f 39 46 47
f 39 47 48
f 41 49 42
f 43 50 44
f 44 50 51
f 44 51 52
f 44 52 45
f 45 52 46
f 46 52 56
f 46 56 53
f 46 53 47
f 51 55 52
f 52 55 54
f 52 54 56

