# https://github.com/mikedh/trimesh
v -0.00000247 -0.04974241 -0.01873519
v -0.00000247 -0.07868651 -0.01851129
v -0.00000247 -0.04974241 -0.02626500
v -0.01395625 -0.04974241 -0.01851129
v -0.00000247 -0.11626500 -0.01851129
v -0.00000247 -0.11384919 -0.02626500
v -0.11384073 -0.04974241 -0.02626500
v -0.11626500 -0.04974241 -0.01851129
v -0.00000247 -0.11626500 -0.02185003
v -0.11384073 -0.11626500 -0.01851129
v -0.00000247 -0.11554872 -0.02578229
v -0.11384073 -0.11384919 -0.02626500
v -0.11533172 -0.04974241 -0.02584377
v -0.11626500 -0.04974241 -0.02185003
v -0.11626500 -0.11384919 -0.01851129
v -0.00000247 -0.11618035 -0.02414973
v -0.11384073 -0.11626500 -0.02185003
v -0.11562763 -0.11562686 -0.01851129
v -0.00000247 -0.11586780 -0.02495956
v -0.11384073 -0.11554872 -0.02578229
v -0.11536587 -0.11535989 -0.02562139
v -0.11554797 -0.11384919 -0.02578229
v -0.11554797 -0.04974241 -0.02578229
v -0.11625361 -0.04974241 -0.02214300
v -0.11626500 -0.11384919 -0.02185003
v -0.11384073 -0.11618035 -0.02414973
v -0.11562763 -0.11562686 -0.02185003
v -0.11558211 -0.11558779 -0.02414973
v -0.11617395 -0.11384919 -0.02414973
v -0.11617395 -0.04974241 -0.02414973
f 1 2 5
f 1 5 9
f 1 9 16
f 1 16 19
f 1 19 11
f 1 11 6
f 1 6 3
f 1 3 7
f 1 7 13
f 1 13 23
f 1 23 30
f 1 30 24
f 1 24 14
f 1 14 8
f 1 8 4
f 1 4 2
f 2 4 8
f 2 8 15
f 2 15 18
f 2 18 10
f 2 10 5
f 3 6 12
f 3 12 7
f 5 10 17
f 5 17 9
f 6 11 20
f 6 20 12
f 7 12 13
f 8 14 25
f 8 25 15
f 9 17 26
f 9 26 16
f 10 18 27
f 10 27 17
f 11 19 20
f 12 20 21
f 12 21 22
f 12 22 13
f 13 22 23
f 14 24 25
f 15 25 27
f 15 27 18
f 16 26 19
f 17 27 28
f 17 28 26
f 19 26 20
f 20 26 21
f 21 28 29
f 21 29 22
f 21 26 28
f 22 29 30
f 22 30 23
f 24 30 29
f 24 29 25
f 25 29 28
f 25 28 27

