# Rescaled and Centered by PostProcess
v -0.015000 -0.050000 -0.050000
v 0.015000 -0.050000 0.050000
v -0.015000 -0.050000 0.050000
v 0.015000 -0.050000 -0.050000
v 0.015000 -0.020000 0.050000
v -0.015000 -0.020000 0.050000
v 0.015000 -0.020000 -0.015000
v -0.015000 -0.020000 -0.015000
v 0.015000 0.020000 -0.015000
v -0.015000 0.020000 -0.015000
v 0.015000 0.020000 0.050000
v -0.015000 0.020000 0.050000
v 0.015000 0.050000 0.050000
v -0.015000 0.050000 0.050000
v 0.015000 0.050000 -0.050000
v -0.015000 0.050000 -0.050000
# Created by FreeCAD <http://www.freecad.org>
vn 0.000000 -1.000000 0.000000
vn 0.000000 -1.000000 0.000000
vn 0.000000 0.000000 1.000000
vn 0.000000 -0.000000 1.000000
vn 0.000000 1.000000 0.000000
vn 0.000000 1.000000 0.000000
vn 0.000000 0.000000 1.000000
vn 0.000000 -0.000000 1.000000
vn 0.000000 -1.000000 0.000000
vn 0.000000 -1.000000 0.000000
vn 0.000000 0.000000 1.000000
vn 0.000000 -0.000000 1.000000
vn 0.000000 1.000000 0.000000
vn 0.000000 1.000000 0.000000
vn -0.000000 0.000000 -1.000000
vn 0.000000 -0.000000 -1.000000
vn 1.000000 0.000000 0.000000
vn 1.000000 0.000000 0.000000
vn 1.000000 0.000000 0.000000
vn 1.000000 0.000000 0.000000
vn 1.000000 0.000000 0.000000
vn 1.000000 0.000000 0.000000
vn -1.000000 0.000000 0.000000
vn -1.000000 0.000000 0.000000
vn -1.000000 0.000000 -0.000000
vn -1.000000 0.000000 0.000000
vn -1.000000 0.000000 0.000000
vn -1.000000 0.000000 0.000000
f 1//1 2//1 3//1
f 4//2 2//2 1//2
f 3//3 5//3 6//3
f 2//4 5//4 3//4
f 6//5 7//5 8//5
f 5//6 7//6 6//6
f 8//7 9//7 10//7
f 7//8 9//8 8//8
f 10//9 11//9 12//9
f 9//10 11//10 10//10
f 12//11 13//11 14//11
f 11//12 13//12 12//12
f 14//13 15//13 16//13
f 13//14 15//14 14//14
f 15//15 1//15 16//15
f 15//16 4//16 1//16
f 2//17 4//17 7//17
f 9//18 4//18 15//18
f 9//19 7//19 4//19
f 5//20 2//20 7//20
f 13//21 11//21 9//21
f 13//22 9//22 15//22
f 1//23 3//23 8//23
f 1//24 10//24 16//24
f 8//25 10//25 1//25
f 3//26 6//26 8//26
f 12//27 14//27 10//27
f 10//28 14//28 16//28
