# https://github.com/mikedh/trimesh
v 0.05478609 0.01725482 -0.01848597
v 0.05478609 -0.00001677 -0.01848597
v 0.05478609 0.01725482 -0.02626500
v 0.05226306 0.01725482 0.01264279
v 0.05226306 0.01724975 0.01264700
v 0.05478609 -0.00001677 -0.02626500
v 0.05226306 -0.00001677 0.01264700
v 0.01266967 0.01725482 -0.02626500
v 0.05172713 0.01725482 0.01494487
v 0.05172713 0.01724975 0.01494909
v 0.01266967 -0.00001677 -0.02626500
v 0.05192914 -0.00001677 0.01381491
v 0.01266967 0.01725482 0.01626878
v 0.05089436 0.01725482 0.01636154
v 0.05160345 -0.00001677 0.01494909
v 0.05089436 0.01724975 0.01636576
v 0.01266967 -0.00001677 -0.02552294
v 0.01266967 0.01724975 0.01626878
v 0.01725399 0.01725482 0.01674101
v 0.04944733 0.01725482 0.01671993
v 0.05077068 -0.00001677 0.01618024
v 0.04944733 0.01724975 0.01671993
v 0.01378277 -0.00001677 0.01626457
v 0.01266967 -0.00000831 0.01626457
v 0.01725399 0.01724975 0.01674101
v 0.01955028 0.01725482 0.01680847
v 0.04714693 0.01725482 0.01680847
v 0.04944733 -0.00001677 0.01626457
f 1 2 6
f 1 6 3
f 1 3 8
f 1 8 13
f 1 13 19
f 1 19 26
f 1 26 27
f 1 27 20
f 1 20 14
f 1 14 9
f 1 9 4
f 1 4 5
f 1 5 7
f 1 7 2
f 2 7 12
f 2 12 15
f 2 15 21
f 2 21 28
f 2 28 23
f 2 23 17
f 2 17 11
f 2 11 6
f 3 6 11
f 3 11 8
f 4 9 10
f 4 10 5
f 5 10 7
f 7 10 12
f 8 11 17
f 8 17 24
f 8 24 18
f 8 18 13
f 9 14 16
f 9 16 10
f 10 15 12
f 10 16 15
f 13 18 25
f 13 25 19
f 14 20 16
f 15 16 21
f 16 20 22
f 16 22 21
f 17 23 24
f 18 24 25
f 19 25 26
f 20 27 22
f 21 22 28
f 22 27 28
f 23 28 27
f 23 27 26
f 23 26 24
f 24 26 25

