# https://github.com/mikedh/trimesh
v -0.11626319 -0.00001661 -0.01621591
v -0.11626319 0.01884787 -0.01621591
v -0.09777139 -0.00001661 -0.01621591
v -0.11626319 -0.00001661 0.02184891
v -0.09777139 0.01884787 -0.01621591
v -0.11626319 0.01884787 0.02184891
v -0.09777139 -0.00001661 0.01636415
v -0.11622337 -0.00001661 0.02297996
v -0.11620708 0.01884787 0.02344569
v -0.09777139 0.01884787 0.01802331
v -0.09777139 0.01884418 0.01803994
v -0.09954182 0.01884787 0.02414844
v -0.09954906 0.01884787 0.02416923
v -0.10099184 -0.00001661 0.02554978
v -0.11618174 -0.00001661 0.02414844
v -0.11618174 0.01884787 0.02414844
v -0.10036006 0.01884787 0.02572027
v -0.10168155 -0.00001661 0.02579511
v -0.11587038 -0.00001661 0.02495099
v -0.11574184 0.01884787 0.02528365
v -0.10079633 0.01884787 0.02586165
v -0.10235134 -0.00001661 0.02603214
v -0.11554814 -0.00001661 0.02577848
v -0.11554814 0.01884787 0.02577848
v -0.10235134 0.01884787 0.02611946
v -0.10465037 -0.00001661 0.02626500
v -0.11471180 -0.00001661 0.02601966
v -0.11384831 0.01884787 0.02626500
v -0.10305373 0.01884787 0.02618599
v -0.10465037 0.01884787 0.02626500
v -0.11384831 -0.00001661 0.02626500
f 1 2 5
f 1 5 3
f 1 3 7
f 1 7 14
f 1 14 18
f 1 18 22
f 1 22 26
f 1 26 31
f 1 31 27
f 1 27 23
f 1 23 19
f 1 19 15
f 1 15 8
f 1 8 4
f 1 4 6
f 1 6 2
f 2 6 9
f 2 9 16
f 2 16 20
f 2 20 24
f 2 24 28
f 2 28 30
f 2 30 29
f 2 29 25
f 2 25 21
f 2 21 17
f 2 17 13
f 2 13 12
f 2 12 10
f 2 10 5
f 3 5 10
f 3 10 11
f 3 11 7
f 4 8 9
f 4 9 6
f 7 11 12
f 7 12 13
f 7 13 14
f 8 15 9
f 9 15 16
f 10 12 11
f 13 17 14
f 14 17 18
f 15 19 20
f 15 20 16
f 17 21 22
f 17 22 18
f 19 23 20
f 20 23 24
f 21 25 22
f 22 25 26
f 23 27 24
f 24 27 28
f 25 29 26
f 26 29 30
f 26 30 28
f 26 28 31
f 27 31 28

