# https://github.com/mikedh/trimesh
v 0.01266967 0.01726605 0.01627086
v -0.01557718 0.02001002 0.01848185
v 0.01266967 -0.00000699 0.01626432
v 0.01266967 0.01854519 0.01618909
v 0.01264755 -0.00001616 0.01626432
v -0.01557718 0.02172701 0.01723899
v -0.01557718 -0.00001616 0.01626432
v 0.01266414 -0.00001616 -0.01492502
v 0.01266967 0.01059524 -0.01492502
v 0.01266967 0.01923520 0.01494950
v -0.01557718 0.02310702 0.01494950
v -0.01557718 -0.00001616 -0.01492502
v 0.01266967 0.01978537 -0.01492502
v 0.01266967 0.01978308 0.01264693
v -0.01557718 0.02331333 0.01264693
v -0.01557718 0.02339815 -0.01492502
f 1 2 3
f 1 3 9
f 1 9 13
f 1 13 14
f 1 14 10
f 1 10 4
f 1 4 2
f 2 5 3
f 2 4 6
f 2 6 11
f 2 11 15
f 2 15 16
f 2 16 12
f 2 12 7
f 2 7 5
f 3 5 8
f 3 8 9
f 4 10 11
f 4 11 6
f 5 7 12
f 5 12 8
f 8 12 16
f 8 16 13
f 8 13 9
f 10 14 11
f 11 14 15
f 13 16 14
f 14 16 15

