# https://github.com/mikedh/trimesh
v 0.00000891 -0.01880551 -0.01621591
v 0.00000891 -0.01880551 0.01570089
v 0.00000891 -0.00001846 -0.01621591
v 0.05251311 -0.01880551 -0.01621591
v 0.00000891 -0.01853886 0.01618125
v 0.01725163 -0.01880551 0.01766900
v 0.00000891 -0.00001846 0.01626464
v 0.05251311 -0.00001846 -0.01621591
v 0.05226129 -0.01880551 0.01264865
v 0.00000891 -0.01724973 0.01626464
v 0.01955408 -0.01880551 0.01786248
v 0.04944489 -0.00001846 0.01626464
v 0.05226129 -0.00001846 0.01264865
v 0.05210197 -0.01880551 0.01420312
v 0.04714757 -0.01880551 0.01786248
v 0.04944489 -0.01880551 0.01774573
v 0.05077086 -0.00001846 0.01618125
v 0.05192722 -0.00001846 0.01381617
v 0.05192722 -0.01880551 0.01494700
v 0.04949628 -0.01880551 0.01773239
v 0.05121285 -0.01880551 0.01693513
v 0.05118201 -0.00001846 0.01557413
v 0.05160344 -0.00001846 0.01494700
v 0.05147495 -0.01880551 0.01648814
f 1 2 5
f 1 5 10
f 1 10 7
f 1 7 3
f 1 3 8
f 1 8 4
f 1 4 9
f 1 9 14
f 1 14 19
f 1 19 24
f 1 24 21
f 1 21 20
f 1 20 16
f 1 16 15
f 1 15 11
f 1 11 6
f 1 6 2
f 2 6 5
f 3 7 12
f 3 12 17
f 3 17 22
f 3 22 23
f 3 23 18
f 3 18 13
f 3 13 8
f 4 8 13
f 4 13 9
f 5 6 10
f 6 11 10
f 7 10 11
f 7 11 15
f 7 15 12
f 9 13 14
f 12 15 16
f 12 16 17
f 13 18 19
f 13 19 14
f 16 20 17
f 17 20 21
f 17 21 22
f 18 23 19
f 19 23 24
f 21 24 23
f 21 23 22

