# https://github.com/mikedh/trimesh
v 0.05448168 -0.04974241 -0.01621591
v 0.01526339 -0.04974241 -0.01621591
v 0.05251258 -0.01880551 -0.01621591
v 0.05226286 -0.01880551 0.01264666
v 0.05375299 -0.04974241 0.02184891
v 0.01265976 -0.01978365 0.01264666
v 0.01265976 -0.02007436 -0.01620759
v 0.01265976 -0.01998654 -0.01621591
v 0.01575874 -0.04974241 0.02414844
v 0.01265976 -0.01880551 -0.01621591
v 0.05210320 -0.01880551 0.01420185
v 0.05209911 -0.02185196 0.02414844
v 0.05223011 -0.02185196 0.02184891
v 0.05223011 -0.02188224 0.02187802
v 0.05367112 -0.04974241 0.02225227
v 0.01265976 -0.01923553 0.01494618
v 0.01265976 -0.01880551 0.01571546
v 0.01591839 -0.04974241 0.02532939
v 0.05192717 -0.01880551 0.01494618
v 0.05134176 -0.02003196 0.02414844
v 0.05303249 -0.04974241 0.02414844
v 0.05105110 -0.02029542 0.02562047
v 0.05128035 -0.02185196 0.02577848
v 0.01594296 -0.02185196 0.02549988
v 0.01599618 -0.02052254 0.02543334
v 0.01725296 -0.01974428 0.02414844
v 0.01333932 -0.01880551 0.01642237
v 0.01594296 -0.04974241 0.02549988
v 0.05147276 -0.01880551 0.01648890
v 0.04944635 -0.01935969 0.02414844
v 0.05187395 -0.04974241 0.02565789
v 0.04944635 -0.02009253 0.02577848
v 0.04944635 -0.02185196 0.02626500
v 0.05125579 -0.02188224 0.02578680
v 0.05178798 -0.04974241 0.02569532
v 0.01725296 -0.02185196 0.02598224
v 0.01725296 -0.02026211 0.02564126
v 0.01955366 -0.01935969 0.02414844
v 0.01725296 -0.01880551 0.01766569
v 0.01725296 -0.04974241 0.02598224
v 0.05121076 -0.01880551 0.01692968
v 0.04949138 -0.01880551 0.01773223
v 0.04944635 -0.01880551 0.01774054
v 0.04714565 -0.01880551 0.01786113
v 0.01955366 -0.02009253 0.02577848
v 0.01955366 -0.02185196 0.02626500
v 0.04944635 -0.04974241 0.02626500
v 0.01955366 -0.01880551 0.01786113
v 0.01955366 -0.04974241 0.02626500
f 1 2 8
f 1 8 10
f 1 10 3
f 1 3 4
f 1 4 5
f 1 5 15
f 1 15 21
f 1 21 31
f 1 31 35
f 1 35 47
f 1 47 49
f 1 49 40
f 1 40 28
f 1 28 18
f 1 18 9
f 1 9 2
f 2 6 7
f 2 7 8
f 2 9 6
f 3 10 17
f 3 17 27
f 3 27 39
f 3 39 48
f 3 48 44
f 3 44 43
f 3 43 42
f 3 42 41
f 3 41 29
f 3 29 19
f 3 19 11
f 3 11 4
f 4 11 12
f 4 12 13
f 4 13 5
f 5 13 14
f 5 14 12
f 5 12 15
f 6 16 17
f 6 17 10
f 6 10 8
f 6 8 7
f 6 9 16
f 9 17 16
f 9 18 17
f 11 19 20
f 11 20 12
f 12 21 15
f 12 14 13
f 12 20 22
f 12 22 23
f 12 23 21
f 17 24 25
f 17 25 26
f 17 26 27
f 17 18 28
f 17 28 24
f 19 29 20
f 20 29 30
f 20 30 22
f 21 23 31
f 22 30 32
f 22 32 33
f 22 33 23
f 23 33 34
f 23 34 35
f 23 35 31
f 24 28 40
f 24 40 36
f 24 36 25
f 25 36 37
f 25 37 26
f 26 37 38
f 26 38 27
f 27 38 39
f 29 41 30
f 30 41 42
f 30 42 43
f 30 43 44
f 30 44 48
f 30 48 38
f 30 38 45
f 30 45 32
f 32 45 46
f 32 46 33
f 33 46 49
f 33 49 47
f 33 47 35
f 33 35 34
f 36 40 49
f 36 49 46
f 36 46 37
f 37 45 38
f 37 46 45
f 38 48 39

