# https://github.com/mikedh/trimesh
v -0.08231776 -0.04974241 -0.01501445
v -0.08231776 -0.04974241 -0.02625986
v -0.08231776 -0.01755883 -0.01805333
v -0.08236096 -0.04974241 0.02184808
v -0.11384922 -0.04974241 -0.02625986
v -0.08231776 -0.01755883 -0.02625986
v -0.08373665 -0.01755883 0.01264916
v -0.08383966 -0.02185313 0.02414652
v -0.08373665 -0.02185313 0.02184808
v -0.08272316 -0.04974241 0.02342151
v -0.11384922 -0.01755883 -0.02625986
v -0.11533127 -0.04974241 -0.02584336
v -0.08376656 -0.01755883 0.01295253
v -0.08291256 -0.04974241 0.02416195
v -0.08447103 -0.02004152 0.02414652
v -0.08471693 -0.02029672 0.02561712
v -0.08452419 -0.02185313 0.02578166
v -0.11554725 -0.01755883 -0.02578166
v -0.11554725 -0.04974241 -0.02578166
v -0.08416864 -0.01755883 0.01494760
v -0.08314185 -0.04974241 0.02454759
v -0.08423842 -0.01755883 0.01524584
v -0.08625212 -0.02009193 0.02578166
v -0.08625212 -0.02185313 0.02625986
v -0.08482991 -0.01755883 0.01644391
v -0.08625212 -0.01937044 0.02414652
v -0.08418193 -0.04974241 0.02579194
v -0.11618194 -0.01755883 -0.02414652
v -0.11618194 -0.04974241 -0.02414652
v -0.10079335 -0.01755883 0.02558627
v -0.10234850 -0.01755883 0.02605418
v -0.10464797 -0.01755883 0.02625986
v -0.08625212 -0.04974241 0.02625986
v -0.11625172 -0.01755883 -0.02215145
v -0.11625172 -0.04974241 -0.02214117
v -0.11384922 -0.01755883 0.02625986
v -0.11384922 -0.04974241 0.02625986
v -0.11626169 -0.01755883 -0.02184808
v -0.11626169 -0.04974241 -0.02184808
v -0.11407519 -0.01755883 0.02619816
v -0.11406521 -0.04974241 0.02620330
v -0.11626169 -0.01755883 0.02184808
v -0.11626169 -0.04974241 0.02184808
v -0.11554725 -0.01755883 0.02578166
v -0.11554725 -0.04974241 0.02578166
v -0.11618194 -0.01755883 0.02414652
v -0.11618194 -0.04974241 0.02414652
f 1 2 6
f 1 6 3
f 1 3 4
f 1 4 10
f 1 10 14
f 1 14 21
f 1 21 27
f 1 27 33
f 1 33 37
f 1 37 41
f 1 41 45
f 1 45 47
f 1 47 43
f 1 43 39
f 1 39 35
f 1 35 29
f 1 29 19
f 1 19 12
f 1 12 5
f 1 5 2
f 2 5 11
f 2 11 6
f 3 6 11
f 3 11 18
f 3 18 28
f 3 28 34
f 3 34 38
f 3 38 42
f 3 42 46
f 3 46 44
f 3 44 40
f 3 40 36
f 3 36 32
f 3 32 31
f 3 31 30
f 3 30 25
f 3 25 22
f 3 22 20
f 3 20 13
f 3 13 7
f 3 7 8
f 3 8 9
f 3 9 4
f 4 9 8
f 4 8 10
f 5 12 11
f 7 13 8
f 8 14 10
f 8 13 15
f 8 15 16
f 8 16 17
f 8 17 14
f 11 12 18
f 12 19 18
f 13 20 15
f 14 17 21
f 15 20 22
f 15 22 16
f 16 23 24
f 16 24 17
f 16 22 25
f 16 25 26
f 16 26 23
f 17 27 21
f 17 24 27
f 18 19 29
f 18 29 28
f 23 26 30
f 23 30 31
f 23 31 32
f 23 32 24
f 24 33 27
f 24 32 36
f 24 36 37
f 24 37 33
f 25 30 26
f 28 29 34
f 29 35 34
f 34 35 39
f 34 39 38
f 36 40 41
f 36 41 37
f 38 39 43
f 38 43 42
f 40 44 41
f 41 44 45
f 42 43 47
f 42 47 46
f 44 46 47
f 44 47 45

