# https://github.com/mikedh/trimesh
v 0.11626500 0.03495340 0.02184593
v 0.11618175 0.03495340 0.02414889
v 0.11626500 0.01955052 0.02184593
v 0.11626500 0.03495340 -0.01812562
v 0.11554908 0.03495340 0.02577834
v 0.11618175 0.01955052 0.02414889
v 0.11626500 0.01725482 0.02184158
v 0.11626500 0.01725482 -0.01812562
v 0.08225057 0.03495340 -0.01812562
v 0.11503296 0.03495340 0.02592607
v 0.11554908 0.01725482 0.02577834
v 0.11618175 0.01725482 0.02414454
v 0.08225057 0.01725482 -0.01812562
v 0.08373569 0.03495340 0.02184593
v 0.11384753 0.03495340 0.02626500
v 0.11384753 0.01725482 0.02626500
v 0.08373569 0.01725482 0.01264712
v 0.08384224 0.02185143 0.02414889
v 0.08373569 0.02185143 0.02184593
v 0.08380894 0.03495340 0.02345365
v 0.08625306 0.03495340 0.02626500
v 0.10464715 0.01725482 0.02626500
v 0.08420187 0.01725482 0.01494574
v 0.08447158 0.02003912 0.02414889
v 0.08471799 0.02029381 0.02561757
v 0.08452486 0.02185143 0.02577834
v 0.08431841 0.03495340 0.02528733
v 0.08384224 0.03495340 0.02414889
v 0.08452486 0.03495340 0.02577834
v 0.08625306 0.02185143 0.02626500
v 0.08625306 0.02009110 0.02577834
v 0.10234955 0.01725482 0.02603905
v 0.08488449 0.01725482 0.01633186
v 0.10089774 0.01725482 0.02555673
v 0.08625306 0.01936860 0.02414889
f 1 2 6
f 1 6 3
f 1 3 7
f 1 7 8
f 1 8 4
f 1 4 9
f 1 9 14
f 1 14 20
f 1 20 28
f 1 28 27
f 1 27 29
f 1 29 21
f 1 21 15
f 1 15 10
f 1 10 5
f 1 5 2
f 2 5 11
f 2 11 6
f 3 6 12
f 3 12 7
f 4 8 13
f 4 13 9
f 5 10 11
f 6 11 12
f 7 12 11
f 7 11 16
f 7 16 22
f 7 22 32
f 7 32 34
f 7 34 33
f 7 33 23
f 7 23 17
f 7 17 13
f 7 13 8
f 9 13 19
f 9 19 14
f 10 15 16
f 10 16 11
f 13 17 18
f 13 18 19
f 14 19 20
f 15 21 30
f 15 30 22
f 15 22 16
f 17 23 24
f 17 24 18
f 18 24 25
f 18 25 26
f 18 26 27
f 18 27 28
f 18 28 20
f 18 20 19
f 21 29 26
f 21 26 30
f 22 30 31
f 22 31 32
f 23 33 25
f 23 25 24
f 25 34 31
f 25 31 30
f 25 30 26
f 25 33 35
f 25 35 34
f 26 29 27
f 31 34 32
f 33 34 35

