# https://github.com/mikedh/trimesh
v 0.05506618 0.05064912 -0.01528496
v 0.05506618 0.07703566 -0.01528496
v 0.07931676 0.05071887 -0.01528496
v 0.05506618 0.05066462 0.02184808
v 0.07931676 0.07703566 -0.01528496
v 0.05506618 0.07703566 0.02626500
v 0.07931676 0.05073695 0.02184808
v 0.05506618 0.05075245 0.02414602
v 0.07931676 0.07703566 0.02626500
v 0.05506618 0.05405109 0.02626500
v 0.07931676 0.05083769 0.02414602
v 0.05506618 0.05175211 0.02573220
v 0.07931676 0.05405109 0.02626500
v 0.05635052 0.05192002 0.02578101
v 0.07931676 0.05192002 0.02578101
f 1 2 5
f 1 5 3
f 1 3 4
f 1 4 8
f 1 8 12
f 1 12 10
f 1 10 6
f 1 6 2
f 2 6 9
f 2 9 5
f 3 5 9
f 3 9 13
f 3 13 15
f 3 15 11
f 3 11 7
f 3 7 4
f 4 7 8
f 6 10 13
f 6 13 9
f 7 11 8
f 8 11 12
f 10 12 14
f 10 14 15
f 10 15 13
f 11 15 12
f 12 15 14

