# https://github.com/mikedh/trimesh
v 0.05478609 0.03495340 -0.01848525
v 0.05478609 0.01725482 -0.01848525
v 0.05478609 0.03495340 -0.02625986
v 0.05226306 0.03495340 0.02184808
v 0.05478609 0.01725482 -0.02625986
v 0.05226306 0.02415060 0.02184808
v 0.05209816 0.02185143 0.02414652
v 0.05226306 0.01725482 0.01264402
v 0.01266967 0.03495340 -0.02625986
v 0.05211465 0.03495340 0.02414652
v 0.01266967 0.01725482 -0.02625986
v 0.05211465 0.02415060 0.02414652
v 0.05128189 0.02185143 0.02578166
v 0.05105514 0.02029381 0.02561712
v 0.05133960 0.02003046 0.02414652
v 0.05172713 0.01725482 0.01494246
v 0.01266967 0.03495340 -0.01868579
v 0.05128189 0.03495340 0.02578166
v 0.01266967 0.01725482 0.01626908
v 0.04944733 0.02185143 0.02625986
v 0.04944733 0.02009110 0.02578166
v 0.04944733 0.01935820 0.02414652
v 0.05089436 0.01725482 0.01636164
v 0.01266967 0.01923865 0.01494760
v 0.01575749 0.03495340 0.02414652
v 0.04944733 0.03495340 0.02625986
v 0.01725399 0.01725482 0.01674214
v 0.01955028 0.01935820 0.02414652
v 0.01725399 0.02026262 0.02563769
v 0.01599660 0.02052252 0.02543201
v 0.01594301 0.02185143 0.02549885
v 0.01266967 0.01726868 0.01626908
v 0.01955028 0.02185143 0.02625986
v 0.01955028 0.02009110 0.02578166
v 0.04714693 0.01725482 0.01680384
v 0.04944733 0.01725482 0.01672157
v 0.01266967 0.01854734 0.01619195
v 0.01588529 0.03495340 0.02509264
v 0.01955028 0.03495340 0.02625986
v 0.01955028 0.01725482 0.01680384
v 0.01725399 0.02185143 0.02598219
v 0.01685410 0.03495340 0.02583822
v 0.01594301 0.03495340 0.02549885
v 0.01885768 0.03495340 0.02617759
v 0.01725399 0.03495340 0.02598219
f 1 2 5
f 1 5 3
f 1 3 9
f 1 9 17
f 1 17 25
f 1 25 38
f 1 38 43
f 1 43 42
f 1 42 45
f 1 45 44
f 1 44 39
f 1 39 26
f 1 26 18
f 1 18 10
f 1 10 4
f 1 4 6
f 1 6 2
f 2 6 7
f 2 7 8
f 2 8 16
f 2 16 23
f 2 23 36
f 2 36 35
f 2 35 40
f 2 40 27
f 2 27 19
f 2 19 11
f 2 11 5
f 3 5 11
f 3 11 9
f 4 10 12
f 4 12 6
f 6 12 7
f 7 12 13
f 7 13 14
f 7 14 15
f 7 15 8
f 8 15 16
f 9 11 19
f 9 19 32
f 9 32 37
f 9 37 24
f 9 24 17
f 10 18 13
f 10 13 12
f 13 18 26
f 13 26 20
f 13 20 14
f 14 20 21
f 14 21 22
f 14 22 23
f 14 23 16
f 14 16 15
f 17 24 25
f 19 27 28
f 19 28 29
f 19 29 30
f 19 30 31
f 19 31 43
f 19 43 32
f 20 26 39
f 20 39 33
f 20 33 34
f 20 34 21
f 21 34 28
f 21 28 22
f 22 28 40
f 22 40 35
f 22 35 36
f 22 36 23
f 24 37 25
f 25 37 38
f 27 40 28
f 28 34 29
f 29 34 33
f 29 33 41
f 29 41 30
f 30 41 31
f 31 41 42
f 31 42 43
f 32 43 37
f 33 39 44
f 33 44 41
f 37 43 38
f 41 44 45
f 41 45 42

