# https://github.com/mikedh/trimesh
v 0.05506381 0.07703411 0.02626500
v 0.05506381 0.07703411 -0.01528496
v 0.01955101 0.07703411 0.02626500
v 0.05506381 0.05405236 0.02626500
v 0.01558625 0.07703411 -0.01528496
v 0.05506381 0.05064979 -0.01528496
v 0.01725176 0.07703411 0.02598030
v 0.01885544 0.03495514 0.02617959
v 0.01955101 0.03495514 0.02626500
v 0.05506381 0.05174965 0.02573220
v 0.04944900 0.03495514 0.02626500
v 0.05072808 0.03495514 0.02592743
v 0.05128067 0.03495514 0.02578101
v 0.01572537 0.07703411 0.02184808
v 0.01559784 0.03495514 -0.01528496
v 0.05506381 0.05066627 0.02184808
v 0.05232789 0.03495514 -0.01528496
v 0.01593790 0.07703411 0.02550038
v 0.01685760 0.03495514 0.02583795
v 0.01725176 0.03495514 0.02598030
v 0.05506381 0.05075277 0.02414602
v 0.05186418 0.03495514 0.02464221
v 0.05211536 0.03495514 0.02414602
v 0.01574855 0.07703411 0.02414602
v 0.01573696 0.03495514 0.02184808
v 0.01575242 0.03495514 0.02345460
v 0.05226220 0.03495514 0.02184808
v 0.01594177 0.03495514 0.02550038
v 0.05221969 0.03495514 0.02254356
v 0.01576014 0.03495514 0.02414602
f 1 2 5
f 1 5 14
f 1 14 24
f 1 24 18
f 1 18 7
f 1 7 3
f 1 3 9
f 1 9 11
f 1 11 4
f 1 4 10
f 1 10 21
f 1 21 16
f 1 16 6
f 1 6 2
f 2 6 17
f 2 17 15
f 2 15 5
f 3 7 8
f 3 8 9
f 4 11 12
f 4 12 13
f 4 13 10
f 5 15 25
f 5 25 14
f 6 16 17
f 7 18 19
f 7 19 20
f 7 20 8
f 8 20 19
f 8 19 28
f 8 28 30
f 8 30 26
f 8 26 25
f 8 25 15
f 8 15 17
f 8 17 27
f 8 27 29
f 8 29 23
f 8 23 22
f 8 22 13
f 8 13 12
f 8 12 11
f 8 11 9
f 10 13 22
f 10 22 23
f 10 23 21
f 14 25 26
f 14 26 24
f 16 21 27
f 16 27 17
f 18 24 28
f 18 28 19
f 21 23 29
f 21 29 27
f 24 26 30
f 24 30 28

