# https://github.com/mikedh/trimesh
v 0.01503268 -0.07819716 -0.01617333
v 0.01503268 -0.07819716 -0.01615672
v 0.01528043 -0.04974241 -0.01617333
v 0.11626500 -0.07819716 -0.01617333
v 0.01547864 -0.07819716 0.02299987
v 0.01575612 -0.04974241 0.02385562
v 0.11626500 -0.04974241 -0.01617333
v 0.11626500 -0.07819716 0.02184919
v 0.01555792 -0.07819716 0.02414641
v 0.01576603 -0.04974241 0.02414641
v 0.11626500 -0.04974241 0.02184919
v 0.11617581 -0.07819716 0.02414641
v 0.01565702 -0.07819716 0.02482353
v 0.01594441 -0.04974241 0.02550064
v 0.11617581 -0.04974241 0.02414641
v 0.11609653 -0.04974241 0.02435411
v 0.11554156 -0.07819716 0.02577897
v 0.01588495 -0.07819716 0.02550895
v 0.01725256 -0.04974241 0.02598252
v 0.11554156 -0.04974241 0.02577897
v 0.11533345 -0.04974241 0.02584128
v 0.11384692 -0.07819716 0.02626500
v 0.01653902 -0.07819716 0.02574989
v 0.01725256 -0.07819716 0.02599083
v 0.01955172 -0.04974241 0.02626500
v 0.11384692 -0.04974241 0.02626500
v 0.01955172 -0.07819716 0.02626500
v 0.01841205 -0.07819716 0.02613207
f 1 2 3
f 1 3 7
f 1 7 4
f 1 4 8
f 1 8 12
f 1 12 17
f 1 17 22
f 1 22 27
f 1 27 28
f 1 28 24
f 1 24 23
f 1 23 18
f 1 18 13
f 1 13 9
f 1 9 5
f 1 5 2
f 2 5 3
f 3 5 6
f 3 6 10
f 3 10 14
f 3 14 19
f 3 19 25
f 3 25 26
f 3 26 21
f 3 21 20
f 3 20 16
f 3 16 15
f 3 15 11
f 3 11 7
f 4 7 11
f 4 11 8
f 5 9 10
f 5 10 6
f 8 11 15
f 8 15 12
f 9 13 14
f 9 14 10
f 12 15 16
f 12 16 17
f 13 18 14
f 14 18 23
f 14 23 19
f 16 20 17
f 17 21 22
f 17 20 21
f 19 23 24
f 19 24 25
f 21 26 22
f 22 26 25
f 22 25 27
f 24 28 25
f 25 28 27

