# https://github.com/mikedh/trimesh
v -0.08165309 0.04972129 -0.01621591
v -0.08344196 0.01884787 -0.01621591
v -0.11626162 0.04972129 -0.01621591
v -0.08238829 0.04972129 0.02184891
v -0.08373671 0.02185180 0.02184891
v -0.08373671 0.01884787 0.01264666
v -0.11626162 0.01884787 -0.01621591
v -0.11626162 0.04972129 0.02184891
v -0.08291343 0.04972129 0.02435635
v -0.08384174 0.02185180 0.02414844
v -0.08447191 0.02004159 0.02414844
v -0.08402808 0.01884787 0.01494618
v -0.11626162 0.01884787 0.02184891
v -0.11625485 0.04972129 0.02211920
v -0.08392644 0.04972129 0.02566205
v -0.08452273 0.02185180 0.02577848
v -0.08471585 0.02029544 0.02562047
v -0.08625062 0.01937069 0.02414844
v -0.08459388 0.01884787 0.01692552
v -0.11618031 0.01884787 0.02414844
v -0.11618031 0.04972129 0.02414844
v -0.08418732 0.04972129 0.02579096
v -0.08625062 0.02185180 0.02626500
v -0.08625062 0.02009296 0.02577848
v -0.10079535 0.01884787 0.02586165
v -0.10035830 0.01884787 0.02572027
v -0.11573986 0.01884787 0.02528365
v -0.11554675 0.04972129 0.02577848
v -0.08592537 0.04972129 0.02621094
v -0.08625062 0.04972129 0.02626500
v -0.10464751 0.01884787 0.02626500
v -0.10305177 0.01884787 0.02618599
v -0.10234706 0.01884787 0.02611946
v -0.11554675 0.01884787 0.02577848
v -0.11534685 0.04972129 0.02583670
v -0.11384936 0.04972129 0.02626500
v -0.11384936 0.01884787 0.02626500
f 1 2 7
f 1 7 3
f 1 3 8
f 1 8 14
f 1 14 21
f 1 21 28
f 1 28 35
f 1 35 36
f 1 36 30
f 1 30 29
f 1 29 22
f 1 22 15
f 1 15 9
f 1 9 4
f 1 4 5
f 1 5 6
f 1 6 2
f 2 6 12
f 2 12 19
f 2 19 26
f 2 26 25
f 2 25 33
f 2 33 32
f 2 32 31
f 2 31 37
f 2 37 34
f 2 34 27
f 2 27 20
f 2 20 13
f 2 13 7
f 3 7 13
f 3 13 8
f 4 9 10
f 4 10 5
f 5 10 6
f 6 10 11
f 6 11 12
f 8 13 14
f 9 15 16
f 9 16 10
f 10 16 17
f 10 17 11
f 11 18 19
f 11 19 12
f 11 17 18
f 13 20 14
f 14 20 21
f 15 22 16
f 16 22 23
f 16 23 17
f 17 23 24
f 17 24 18
f 18 24 25
f 18 25 26
f 18 26 19
f 20 27 21
f 21 27 28
f 22 29 23
f 23 30 36
f 23 36 37
f 23 37 31
f 23 31 24
f 23 29 30
f 24 31 32
f 24 32 33
f 24 33 25
f 27 34 28
f 28 34 35
f 34 37 35
f 35 37 36

