# https://github.com/mikedh/trimesh
v -0.01560946 -0.02365802 -0.01499444
v -0.01569912 -0.04973475 -0.01500656
v -0.01568044 -0.02409723 -0.01500656
v -0.01929646 -0.02365802 -0.01500656
v -0.01563935 -0.02365802 0.01264652
v -0.01573647 -0.04974241 0.02184940
v -0.01571779 -0.04974241 -0.01494596
v -0.01574768 -0.04974241 -0.01500656
v -0.05227397 -0.02365802 -0.01500656
v -0.01564308 -0.02365802 0.01445235
v -0.01566176 -0.02365802 0.01675509
v -0.01575888 -0.04974241 0.02414810
v -0.05376819 -0.04974241 -0.01500656
v -0.05375699 -0.04974241 0.02184940
v -0.05226276 -0.02365802 0.01264652
v -0.01575888 -0.02365802 0.02414810
v -0.01578130 -0.04974241 0.02432181
v -0.05303229 -0.04974241 0.02414810
v -0.05210960 -0.02365802 0.02414810
v -0.05222914 -0.02365802 0.02234226
v -0.05225529 -0.02365802 0.02184940
v -0.01590084 -0.02365802 0.02521059
v -0.01594193 -0.04974241 0.02550146
v -0.05268861 -0.04974241 0.02464904
v -0.05128031 -0.02365802 0.02578021
v -0.05193403 -0.02365802 0.02449957
v -0.01594193 -0.02365802 0.02550146
v -0.01610629 -0.04974241 0.02556206
v -0.05186306 -0.04974241 0.02568729
v -0.05088808 -0.02365802 0.02588525
v -0.01725311 -0.02365802 0.02598221
v -0.01725311 -0.04974241 0.02598221
v -0.04974126 -0.04974241 0.02623268
v -0.04944988 -0.02365802 0.02626500
v -0.01905738 -0.02365802 0.02620440
v -0.01754448 -0.04974241 0.02601857
v -0.04944988 -0.04974241 0.02626500
v -0.01955048 -0.02365802 0.02626500
v -0.01955048 -0.04974241 0.02626500
f 1 2 3
f 1 3 4
f 1 4 9
f 1 9 15
f 1 15 21
f 1 21 20
f 1 20 19
f 1 19 26
f 1 26 25
f 1 25 30
f 1 30 34
f 1 34 38
f 1 38 35
f 1 35 31
f 1 31 27
f 1 27 22
f 1 22 16
f 1 16 11
f 1 11 10
f 1 10 5
f 1 5 6
f 1 6 2
f 2 7 8
f 2 8 13
f 2 13 9
f 2 9 4
f 2 4 3
f 2 6 7
f 5 10 6
f 6 10 11
f 6 11 12
f 6 12 17
f 6 17 23
f 6 23 28
f 6 28 32
f 6 32 36
f 6 36 39
f 6 39 37
f 6 37 33
f 6 33 29
f 6 29 24
f 6 24 18
f 6 18 14
f 6 14 13
f 6 13 8
f 6 8 7
f 9 13 14
f 9 14 15
f 11 16 12
f 12 16 17
f 14 18 19
f 14 19 20
f 14 20 21
f 14 21 15
f 16 22 17
f 17 22 23
f 18 24 25
f 18 25 26
f 18 26 19
f 22 27 23
f 23 27 28
f 24 29 25
f 25 29 30
f 27 31 28
f 28 31 32
f 29 33 34
f 29 34 30
f 31 35 36
f 31 36 32
f 33 37 34
f 34 37 39
f 34 39 38
f 35 38 36
f 36 38 39

