# https://github.com/mikedh/trimesh
v 0.01265852 -0.01880551 0.01571577
v 0.00000891 -0.01880551 0.01570014
v 0.01265852 -0.01923313 0.01494991
v 0.01265852 -0.01880551 -0.01621278
v 0.00000891 -0.01922210 0.01494991
v 0.00000891 -0.01880551 -0.01621278
v 0.01265852 -0.01977990 0.01266171
v 0.01265852 -0.01998597 -0.01621278
v 0.00000891 -0.01976490 0.01264921
v 0.00000891 -0.02006123 -0.01621278
v 0.01265852 -0.01978164 0.01264921
v 0.01264985 -0.02007102 -0.01621278
v 0.01265852 -0.02007214 -0.01620653
f 1 2 3
f 1 3 7
f 1 7 11
f 1 11 13
f 1 13 8
f 1 8 4
f 1 4 6
f 1 6 2
f 2 5 3
f 2 6 10
f 2 10 9
f 2 9 5
f 3 5 7
f 4 8 12
f 4 12 10
f 4 10 6
f 5 9 7
f 7 9 11
f 8 13 12
f 9 10 11
f 10 12 13
f 10 13 11

