# https://github.com/mikedh/trimesh
v 0.11626500 -0.04974241 -0.01617333
v 0.11626500 -0.07819716 -0.01617333
v 0.11626500 -0.04974241 -0.02184940
v 0.01528061 -0.04974241 -0.01617333
v 0.11626500 -0.07819716 -0.02184940
v 0.01503026 -0.07819716 -0.01617333
v 0.11621948 -0.07819716 -0.02300220
v 0.11617396 -0.04974241 -0.02414907
v 0.00000891 -0.04974241 -0.01873576
v 0.00000891 -0.07819716 -0.01861130
v 0.11617396 -0.07819716 -0.02414907
v 0.11562774 -0.04974241 -0.02557451
v 0.00000891 -0.04974241 -0.02626500
v 0.00000891 -0.07819716 -0.02626500
v 0.11554807 -0.07819716 -0.02578195
v 0.11554807 -0.04974241 -0.02578195
v 0.11384110 -0.04974241 -0.02626500
v 0.11384110 -0.07819716 -0.02626500
v 0.11469459 -0.07819716 -0.02602397
f 1 2 5
f 1 5 3
f 1 3 8
f 1 8 12
f 1 12 16
f 1 16 17
f 1 17 13
f 1 13 9
f 1 9 4
f 1 4 6
f 1 6 2
f 2 6 10
f 2 10 14
f 2 14 18
f 2 18 19
f 2 19 15
f 2 15 11
f 2 11 7
f 2 7 5
f 3 5 7
f 3 7 8
f 4 9 10
f 4 10 6
f 7 11 8
f 8 11 12
f 9 13 14
f 9 14 10
f 11 15 12
f 12 15 16
f 13 17 18
f 13 18 14
f 15 19 16
f 16 19 17
f 17 19 18

