# https://github.com/mikedh/trimesh
v -0.05224365 -0.02365547 0.01680764
v -0.05225850 -0.02365547 0.02004496
v -0.05223252 -0.02184946 0.02184922
v -0.05218797 -0.02184946 0.01680764
v -0.01566723 -0.02365547 0.01680764
v -0.05225850 -0.02365547 0.02184922
v -0.05209889 -0.02184946 0.02414969
v -0.05114123 -0.01845364 0.01680764
v -0.05147901 -0.01952709 0.01680764
v -0.01441262 -0.01922066 0.01680764
v -0.01575260 -0.02365547 0.02365534
v -0.05222880 -0.02365547 0.02234449
v -0.05211003 -0.02365547 0.02414969
v -0.05193557 -0.02365547 0.02450054
v -0.05128229 -0.02184946 0.02578176
v -0.05105215 -0.02029411 0.02562161
v -0.05134167 -0.02002967 0.02414969
v -0.04944864 -0.01738270 0.01680764
v -0.01434210 -0.01878263 0.01680764
v -0.01576002 -0.02365547 0.02414969
v -0.05128229 -0.02365547 0.02578176
v -0.05088883 -0.02365547 0.02588545
v -0.04944864 -0.02184946 0.02626407
v -0.04944864 -0.02009108 0.02578176
v -0.04944864 -0.01935853 0.02414969
v -0.04714730 -0.01725423 0.01680764
v -0.01594190 -0.02184946 0.02550127
v -0.01594190 -0.02365547 0.02550127
v -0.01590107 -0.02365547 0.02521058
v -0.01552989 -0.01769728 0.01680764
v -0.01599387 -0.02052096 0.02543369
v -0.04944864 -0.02365547 0.02626407
v -0.01955352 -0.02184946 0.02626407
v -0.01955352 -0.02009108 0.02578176
v -0.01955352 -0.01935853 0.02414969
v -0.01955352 -0.01725423 0.01680764
v -0.01725218 -0.02184946 0.02598358
v -0.01697008 -0.02365547 0.02587989
v -0.01725218 -0.01736202 0.01680764
v -0.01725218 -0.01974391 0.02414969
v -0.01725218 -0.02026153 0.02564198
v -0.01955352 -0.02365547 0.02626407
v -0.01905613 -0.02365547 0.02620390
v -0.01738952 -0.01734259 0.01680764
v -0.01725218 -0.02365547 0.02598358
f 1 2 3
f 1 3 4
f 1 4 9
f 1 9 8
f 1 8 18
f 1 18 26
f 1 26 36
f 1 36 44
f 1 44 39
f 1 39 30
f 1 30 19
f 1 19 10
f 1 10 5
f 1 5 11
f 1 11 20
f 1 20 29
f 1 29 28
f 1 28 38
f 1 38 45
f 1 45 43
f 1 43 42
f 1 42 32
f 1 32 22
f 1 22 21
f 1 21 14
f 1 14 13
f 1 13 12
f 1 12 6
f 1 6 2
f 2 6 3
f 3 6 7
f 3 7 8
f 3 8 9
f 3 9 4
f 5 10 11
f 6 12 7
f 7 13 14
f 7 14 15
f 7 15 16
f 7 16 17
f 7 17 8
f 7 12 13
f 8 17 18
f 10 19 20
f 10 20 11
f 14 21 15
f 15 21 22
f 15 22 23
f 15 23 16
f 16 23 24
f 16 24 25
f 16 25 18
f 16 18 17
f 18 25 26
f 19 27 28
f 19 28 29
f 19 29 20
f 19 30 31
f 19 31 27
f 22 32 23
f 23 32 42
f 23 42 33
f 23 33 34
f 23 34 24
f 24 34 35
f 24 35 25
f 25 35 36
f 25 36 26
f 27 31 37
f 27 37 38
f 27 38 28
f 30 39 40
f 30 40 31
f 31 40 41
f 31 41 37
f 33 42 43
f 33 43 37
f 33 37 41
f 33 41 34
f 34 41 35
f 35 41 40
f 35 40 39
f 35 39 44
f 35 44 36
f 37 45 38
f 37 43 45

