# https://github.com/mikedh/trimesh
v 0.05566718 -0.00001846 -0.01865736
v 0.05566718 -0.04974241 -0.01704415
v 0.05566718 -0.00001846 -0.02626500
v 0.05251270 -0.00001846 -0.01621591
v 0.05447948 -0.04974241 -0.01621591
v 0.05566718 -0.04974241 -0.02626500
v 0.00000891 -0.00001846 -0.02626500
v 0.00000891 -0.00001846 -0.01621591
v 0.01526372 -0.04974241 -0.01621591
v 0.00000891 -0.04974241 -0.02626500
v 0.00000891 -0.02006184 -0.01621591
v 0.00000891 -0.04974241 -0.01873507
f 1 2 6
f 1 6 3
f 1 3 7
f 1 7 8
f 1 8 4
f 1 4 2
f 2 4 5
f 2 5 9
f 2 9 12
f 2 12 10
f 2 10 6
f 3 6 10
f 3 10 7
f 4 8 11
f 4 11 9
f 4 9 5
f 7 10 12
f 7 12 11
f 7 11 8
f 9 11 12

