# https://github.com/mikedh/trimesh
v 0.09776699 -0.01818905 -0.01683075
v 0.09776699 -0.00001956 -0.01683075
v 0.09778872 -0.00001956 -0.01812562
v 0.11626500 -0.01818905 -0.01683075
v 0.09776699 -0.01818905 0.01744858
v 0.09776699 -0.00001956 0.01635793
v 0.09778872 0.01725482 -0.01747819
v 0.09778872 0.01724788 -0.01812562
v 0.11626500 -0.00001956 -0.01812562
v 0.11626500 -0.01818905 0.02184593
v 0.10010640 -0.01818905 0.02473983
v 0.09776699 -0.01817864 0.01746596
v 0.09778872 0.01724788 0.01686632
v 0.09778872 0.01725482 0.01683156
v 0.11626500 0.01725482 -0.01812562
v 0.11626500 0.01724788 0.02184593
v 0.11618171 -0.00001956 0.02414889
v 0.11617990 -0.01818905 0.02414454
v 0.10058261 -0.01818905 0.02564798
v 0.10089948 0.01725482 0.02555673
v 0.11626500 0.01725482 0.02184158
v 0.11618171 0.01724788 0.02414889
v 0.11554979 0.01725482 0.02577834
v 0.11585941 -0.00001956 0.02497882
v 0.11554616 -0.01818905 0.02577834
v 0.10143726 -0.01818905 0.02593476
v 0.10235166 0.01725482 0.02603905
v 0.11618171 0.01725482 0.02414454
v 0.11384773 0.01725482 0.02626500
v 0.11468427 -0.00001956 0.02602601
v 0.11384773 -0.00001956 0.02626500
v 0.11384773 -0.01818905 0.02626066
v 0.10235166 -0.01818905 0.02608250
v 0.10371330 -0.01818905 0.02621720
v 0.10465124 0.01725482 0.02626500
v 0.10465124 -0.00001956 0.02626500
v 0.10465305 -0.01818905 0.02626066
f 1 2 8
f 1 8 3
f 1 3 9
f 1 9 4
f 1 4 10
f 1 10 18
f 1 18 25
f 1 25 32
f 1 32 37
f 1 37 34
f 1 34 33
f 1 33 26
f 1 26 19
f 1 19 11
f 1 11 5
f 1 5 12
f 1 12 6
f 1 6 2
f 2 6 14
f 2 14 7
f 2 7 8
f 3 8 15
f 3 15 9
f 4 9 15
f 4 15 21
f 4 21 16
f 4 16 10
f 5 11 12
f 6 13 14
f 6 12 13
f 7 15 8
f 7 14 20
f 7 20 27
f 7 27 35
f 7 35 29
f 7 29 23
f 7 23 28
f 7 28 21
f 7 21 15
f 10 16 22
f 10 22 17
f 10 17 18
f 11 13 12
f 11 19 20
f 11 20 13
f 13 20 14
f 16 21 28
f 16 28 22
f 17 22 23
f 17 23 24
f 17 24 25
f 17 25 18
f 19 26 20
f 20 26 27
f 22 28 23
f 23 29 30
f 23 30 25
f 23 25 24
f 25 30 31
f 25 31 32
f 26 33 27
f 27 33 34
f 27 34 35
f 29 35 36
f 29 36 31
f 29 31 30
f 31 36 37
f 31 37 32
f 34 37 36
f 34 36 35

