# https://github.com/mikedh/trimesh
v -0.01557718 0.07709582 -0.01528496
v -0.01557718 0.07769483 0.02184808
v -0.01557718 0.11626500 -0.01528496
v 0.01558951 0.07703823 -0.01528496
v 0.01573147 0.07703823 0.02184808
v 0.01575728 0.07703823 0.02414602
v 0.01593796 0.07703823 0.02550038
v -0.01557718 0.07776394 0.02343427
v -0.01557718 0.11626500 0.02184808
v 0.11383878 0.11626500 -0.01528496
v 0.11626500 0.07703823 -0.01528496
v 0.01725432 0.07703823 0.02598030
v -0.01557718 0.07808264 0.02414602
v -0.01557718 0.11618053 0.02414602
v 0.11383878 0.11626500 0.02184808
v 0.11561973 0.11563145 -0.01528496
v 0.11626500 0.11384981 -0.01528496
v 0.11626500 0.07703823 0.02184808
v 0.01955149 0.07703823 0.02626500
v -0.01557718 0.07850501 0.02464627
v -0.01557718 0.11600774 0.02459340
v 0.11383878 0.11618053 0.02414602
v 0.11558102 0.11558922 0.02414602
v 0.11561973 0.11563145 0.02184808
v 0.11626500 0.11384981 0.02184808
v 0.11617468 0.07703823 0.02414602
v -0.01557718 0.08395360 0.02626500
v -0.01557718 0.08332388 0.02622840
v -0.01557718 0.08105844 0.02583388
v -0.01557718 0.08004091 0.02559799
v 0.11383878 0.07703823 0.02626500
v -0.01557718 0.11554698 0.02578101
v 0.11383878 0.11554698 0.02578101
v 0.11536162 0.11536266 0.02561832
v 0.11617468 0.11384981 0.02414602
v 0.11554230 0.07703823 0.02578101
v -0.01557718 0.11384981 0.02626500
v 0.11383878 0.11384981 0.02626500
v 0.11554230 0.11384981 0.02578101
f 1 2 8
f 1 8 13
f 1 13 20
f 1 20 30
f 1 30 29
f 1 29 28
f 1 28 27
f 1 27 37
f 1 37 32
f 1 32 21
f 1 21 14
f 1 14 9
f 1 9 3
f 1 3 10
f 1 10 16
f 1 16 17
f 1 17 11
f 1 11 4
f 1 4 5
f 1 5 6
f 1 6 7
f 1 7 2
f 2 7 8
f 3 9 15
f 3 15 10
f 4 11 18
f 4 18 26
f 4 26 36
f 4 36 31
f 4 31 19
f 4 19 12
f 4 12 7
f 4 7 6
f 4 6 5
f 7 12 8
f 8 12 13
f 9 14 22
f 9 22 15
f 10 15 24
f 10 24 16
f 11 17 25
f 11 25 18
f 12 19 13
f 13 19 20
f 14 21 22
f 15 22 23
f 15 23 24
f 16 24 25
f 16 25 17
f 18 25 35
f 18 35 26
f 19 27 28
f 19 28 29
f 19 29 30
f 19 30 20
f 19 31 38
f 19 38 37
f 19 37 27
f 21 32 33
f 21 33 22
f 22 33 34
f 22 34 23
f 23 35 25
f 23 25 24
f 23 34 35
f 26 35 39
f 26 39 36
f 31 36 39
f 31 39 38
f 32 37 38
f 32 38 33
f 33 38 34
f 34 38 39
f 34 39 35

