# https://github.com/mikedh/trimesh
v -0.11626500 -0.11384869 -0.01851129
v -0.11626500 -0.11384869 0.02184698
v -0.11626500 -0.07817071 -0.01851129
v -0.11562763 -0.11563110 -0.01851129
v -0.11562763 -0.11563110 0.02184698
v -0.11558211 -0.11559008 0.02414803
v -0.11617395 -0.11384869 0.02414803
v -0.11621948 -0.07817071 0.02302600
v -0.11626500 -0.07817071 0.02184698
v -0.01372862 -0.07817071 -0.01851129
v -0.11384073 -0.11626500 -0.01851129
v -0.11384073 -0.11626500 0.02184698
v -0.11384073 -0.11617924 0.02414803
v -0.11536587 -0.11536635 0.02562071
v -0.11554797 -0.11384869 0.02577849
v -0.11585527 -0.07817071 0.02498518
v -0.11617395 -0.07817071 0.02414803
v -0.01547000 -0.07817071 0.02184698
v -0.00000247 -0.07868902 -0.01851129
v -0.00000247 -0.11626500 -0.01851129
v -0.00000247 -0.11626500 0.02184698
v -0.11384073 -0.11554906 0.02577849
v -0.00000247 -0.11617924 0.02414803
v -0.00000247 -0.11586229 0.02497203
v -0.11384073 -0.11384869 0.02626500
v -0.11467159 -0.07817071 0.02602832
v -0.11554797 -0.07817071 0.02577849
v -0.01557243 -0.07817071 0.02414803
v -0.00000247 -0.08137382 0.02414803
v -0.01587973 -0.07817071 0.02551113
v -0.00000247 -0.11554906 0.02577849
v -0.00000247 -0.11469142 0.02602394
v -0.11384073 -0.07817071 0.02626500
v -0.00000247 -0.11384869 0.02626500
v -0.00000247 -0.08176162 0.02495888
v -0.01725690 -0.07817071 0.02599326
v -0.00000247 -0.08215689 0.02577849
v -0.01955598 -0.07817071 0.02626500
v -0.00000247 -0.08395048 0.02626500
f 1 2 9
f 1 9 3
f 1 3 10
f 1 10 19
f 1 19 20
f 1 20 11
f 1 11 4
f 1 4 5
f 1 5 2
f 2 5 6
f 2 6 7
f 2 7 8
f 2 8 9
f 3 9 8
f 3 8 17
f 3 17 16
f 3 16 27
f 3 27 26
f 3 26 33
f 3 33 38
f 3 38 36
f 3 36 30
f 3 30 28
f 3 28 18
f 3 18 10
f 4 11 12
f 4 12 5
f 5 12 6
f 6 12 13
f 6 13 14
f 6 14 7
f 7 14 15
f 7 15 16
f 7 16 17
f 7 17 8
f 10 18 19
f 11 20 21
f 11 21 12
f 12 21 23
f 12 23 13
f 13 22 14
f 13 23 24
f 13 24 22
f 14 22 25
f 14 25 15
f 15 25 26
f 15 26 27
f 15 27 16
f 18 28 19
f 19 29 35
f 19 35 37
f 19 37 39
f 19 39 34
f 19 34 32
f 19 32 31
f 19 31 24
f 19 24 23
f 19 23 21
f 19 21 20
f 19 28 30
f 19 30 29
f 22 24 31
f 22 31 32
f 22 32 25
f 25 33 26
f 25 32 34
f 25 34 39
f 25 39 38
f 25 38 33
f 29 30 35
f 30 36 37
f 30 37 35
f 36 38 37
f 37 38 39

