# https://github.com/mikedh/trimesh
v -0.11626500 -0.00001846 -0.02184934
v -0.11622218 -0.00001846 -0.02301793
v -0.11626500 -0.00001846 -0.01621591
v -0.11626500 0.04972129 -0.02184934
v -0.11617936 -0.00001846 -0.02414914
v -0.11617936 0.04972129 -0.02414914
v -0.08343920 -0.00001846 -0.01621591
v -0.11626500 0.04972129 -0.01621591
v -0.11586057 -0.00001846 -0.02497837
v -0.11562267 0.04972129 -0.02558922
v -0.06765673 -0.00001846 -0.01873507
v -0.06766149 0.04972129 -0.01722219
v -0.08165493 0.04972129 -0.01621591
v -0.11554654 -0.00001846 -0.02578202
v -0.11554654 0.04972129 -0.02578202
v -0.06765673 -0.00001846 -0.02626500
v -0.06765673 0.04970668 -0.01723498
v -0.06765673 0.04972129 -0.01725859
v -0.11468533 -0.00001846 -0.02602695
v -0.11384792 0.04972129 -0.02626500
v -0.11384792 -0.00001846 -0.02626500
v -0.06765673 0.04972129 -0.02626500
f 1 2 5
f 1 5 9
f 1 9 14
f 1 14 19
f 1 19 21
f 1 21 16
f 1 16 11
f 1 11 7
f 1 7 3
f 1 3 8
f 1 8 4
f 1 4 2
f 2 4 6
f 2 6 5
f 3 7 13
f 3 13 8
f 4 8 13
f 4 13 12
f 4 12 18
f 4 18 22
f 4 22 20
f 4 20 15
f 4 15 10
f 4 10 6
f 5 6 9
f 6 10 9
f 7 11 12
f 7 12 13
f 9 10 14
f 10 15 14
f 11 16 22
f 11 22 18
f 11 18 17
f 11 17 12
f 12 17 18
f 14 15 19
f 15 20 19
f 16 21 20
f 16 20 22
f 19 20 21

