# https://github.com/mikedh/trimesh
v -0.05227626 -0.02365547 -0.01500656
v -0.05226091 -0.02365547 0.01264713
v -0.05227626 -0.00001846 -0.01500656
v -0.01929607 -0.02365547 -0.01500656
v -0.05226091 -0.00001846 0.01264713
v -0.05225579 -0.02365547 0.01494849
v 0.00000379 -0.00001846 -0.01500656
v 0.00000891 -0.01977998 -0.01500656
v -0.01560602 -0.02365547 -0.01499410
v -0.05224555 -0.02365547 0.01680764
v -0.05218926 -0.02184845 0.01680764
v -0.05193848 -0.00001846 0.01378069
v 0.00000891 -0.00001846 0.01626267
v 0.00000891 -0.00004853 -0.01500656
v 0.00000891 -0.01976378 0.01264713
v -0.01564184 -0.02365547 0.01445334
v -0.01566743 -0.02365547 0.01680764
v -0.05160069 -0.00001846 0.01494849
v -0.05147786 -0.01952547 0.01680764
v -0.05077158 -0.00001846 0.01618170
v -0.01955197 -0.01725339 0.01680764
v -0.01738707 -0.01734131 0.01680764
v -0.01725400 -0.01735982 0.01680764
v -0.01552925 -0.01769531 0.01680764
v -0.01434188 -0.01878045 0.01680764
v 0.00000891 -0.01724876 0.01626267
v -0.04944603 -0.00001846 0.01626267
v 0.00000891 -0.01949076 0.01380871
v -0.01566231 -0.02365547 0.01675470
v 0.00000891 -0.01922006 0.01494849
v 0.00000891 -0.01887763 0.01556821
v 0.00000891 -0.01853751 0.01618170
v -0.01441353 -0.01922006 0.01680764
v -0.05114008 -0.01845190 0.01680764
v -0.05012160 -0.00001846 0.01622218
v -0.04714806 -0.01725339 0.01680764
v -0.04944603 -0.01738064 0.01680764
f 1 2 5
f 1 5 3
f 1 3 7
f 1 7 14
f 1 14 8
f 1 8 4
f 1 4 9
f 1 9 16
f 1 16 29
f 1 29 17
f 1 17 10
f 1 10 6
f 1 6 2
f 2 6 5
f 3 5 12
f 3 12 18
f 3 18 20
f 3 20 35
f 3 35 27
f 3 27 13
f 3 13 7
f 4 8 9
f 5 6 10
f 5 10 11
f 5 11 12
f 7 13 14
f 8 14 13
f 8 13 26
f 8 26 32
f 8 32 31
f 8 31 30
f 8 30 28
f 8 28 15
f 8 15 16
f 8 16 9
f 10 17 33
f 10 33 25
f 10 25 24
f 10 24 23
f 10 23 22
f 10 22 21
f 10 21 36
f 10 36 37
f 10 37 34
f 10 34 19
f 10 19 11
f 11 18 12
f 11 19 20
f 11 20 18
f 13 21 22
f 13 22 23
f 13 23 24
f 13 24 25
f 13 25 26
f 13 27 36
f 13 36 21
f 15 28 17
f 15 17 29
f 15 29 16
f 17 28 30
f 17 30 31
f 17 31 32
f 17 32 26
f 17 26 33
f 19 34 20
f 20 34 35
f 25 33 26
f 27 35 34
f 27 34 37
f 27 37 36

