# https://github.com/mikedh/trimesh
v -0.05269274 0.11384801 0.02626500
v -0.05269274 0.11484793 0.02597808
v -0.06765673 0.11384801 0.02626500
v -0.05269274 0.05405241 0.02626500
v -0.05269274 0.11554322 0.02577848
v -0.06765673 0.11554322 0.02577848
v -0.06765673 0.05405241 0.02626500
v -0.05269274 0.05168177 0.02586996
v -0.05269274 0.11592067 0.02481792
v -0.06765673 0.11617893 0.02414844
v -0.06765673 0.05209895 0.02582007
v -0.06765673 0.05192016 0.02577848
v -0.05269274 0.05040375 0.02537929
v -0.05269274 0.11617893 0.02414844
v -0.06765673 0.11626500 0.02184891
v -0.06765673 0.05084079 0.02414844
v -0.05269274 0.04931776 0.02414844
v -0.05269274 0.11626500 0.02184891
v -0.06765673 0.11626500 -0.01621591
v -0.06765673 0.05074809 0.02204020
v -0.05269274 0.04882774 0.02184891
v -0.05269274 0.04919194 0.02384904
v -0.05269274 0.11626500 -0.01621591
v -0.06765673 0.05064213 -0.01621591
v -0.06765673 0.05074146 0.02184891
v -0.05269274 0.04861584 -0.01621591
f 1 2 3
f 1 3 7
f 1 7 4
f 1 4 8
f 1 8 13
f 1 13 17
f 1 17 22
f 1 22 21
f 1 21 26
f 1 26 23
f 1 23 18
f 1 18 14
f 1 14 9
f 1 9 5
f 1 5 2
f 2 5 6
f 2 6 3
f 3 6 10
f 3 10 15
f 3 15 19
f 3 19 24
f 3 24 25
f 3 25 20
f 3 20 16
f 3 16 12
f 3 12 11
f 3 11 7
f 4 7 8
f 5 9 6
f 6 9 10
f 7 11 8
f 8 11 12
f 8 12 13
f 9 14 10
f 10 14 18
f 10 18 15
f 12 16 17
f 12 17 13
f 15 18 23
f 15 23 19
f 16 20 21
f 16 21 22
f 16 22 17
f 19 23 26
f 19 26 24
f 20 25 21
f 21 25 26
f 24 26 25

