# Rescaled and Centered by PostProcess
v -0.100000 0.018500 0.018500
v -0.100000 0.018500 -0.018500
v -0.100000 -0.018500 -0.018500
v -0.100000 -0.018500 0.018500
v 0.100000 0.018500 -0.018500
v 0.100000 0.018500 0.018500
v 0.100000 -0.018500 -0.018500
v 0.100000 -0.018500 0.018500
# Created by FreeCAD <http://www.freecad.org>
vn -1.000000 0.000000 -0.000000
vn -1.000000 0.000000 0.000000
vn 0.000000 1.000000 0.000000
vn -0.000000 1.000000 0.000000
vn 1.000000 0.000000 0.000000
vn 1.000000 0.000000 0.000000
vn 0.000000 -1.000000 -0.000000
vn -0.000000 -1.000000 0.000000
vn 0.000000 0.000000 1.000000
vn -0.000000 0.000000 1.000000
vn 0.000000 0.000000 -1.000000
vn 0.000000 0.000000 -1.000000
f 1//1 2//1 3//1
f 4//2 1//2 3//2
f 1//3 5//3 2//3
f 1//4 6//4 5//4
f 6//5 7//5 5//5
f 6//6 8//6 7//6
f 8//7 3//7 7//7
f 8//8 4//8 3//8
f 1//9 4//9 8//9
f 1//10 8//10 6//10
f 7//11 2//11 5//11
f 3//12 2//12 7//12
