# https://github.com/mikedh/trimesh
v -0.09777138 -0.00001661 -0.01621255
v -0.09777138 0.01884787 -0.01621255
v -0.08343867 -0.00001661 -0.01621255
v -0.09777138 -0.00001661 0.01636393
v -0.08343867 0.01884787 -0.01621255
v -0.09777138 0.01884787 0.01802042
v -0.08373611 -0.00001661 0.01264857
v -0.08625022 -0.00001661 0.01626334
v -0.08855109 0.01884787 0.01801371
v -0.09777138 0.01884418 0.01803719
v -0.08373611 0.01884787 0.01264857
v -0.09774893 0.01884787 0.01803719
v -0.08402792 0.01884787 0.01494888
v -0.08401108 -0.00001661 0.01381549
v -0.08561608 -0.00001661 0.01622310
v -0.08836449 0.01884787 0.01800030
v -0.08496090 -0.00001661 0.01617950
v -0.08427905 -0.00001661 0.01494888
v -0.08459331 0.01884787 0.01692392
v -0.08625022 0.01884787 0.01775552
v -0.08462559 -0.00001661 0.01557593
f 1 2 5
f 1 5 3
f 1 3 7
f 1 7 14
f 1 14 18
f 1 18 21
f 1 21 17
f 1 17 15
f 1 15 8
f 1 8 4
f 1 4 10
f 1 10 6
f 1 6 2
f 2 6 12
f 2 12 9
f 2 9 16
f 2 16 20
f 2 20 19
f 2 19 13
f 2 13 11
f 2 11 5
f 3 5 11
f 3 11 7
f 4 8 9
f 4 9 10
f 6 10 12
f 7 11 13
f 7 13 14
f 8 15 9
f 9 12 10
f 9 15 17
f 9 17 16
f 13 18 14
f 13 19 18
f 16 17 20
f 17 21 19
f 17 19 20
f 18 19 21

