# https://github.com/mikedh/trimesh
v -0.11626500 -0.07816793 -0.01851129
v -0.11626500 -0.07816793 0.02184698
v -0.11626500 -0.04974519 -0.01851129
v -0.01371992 -0.07816793 -0.01851129
v -0.11617466 -0.07816793 0.02414803
v -0.11626500 -0.04974519 0.02184698
v -0.01395078 -0.04974519 -0.01851129
v -0.01575757 -0.04974519 0.02414803
v -0.01556685 -0.07816793 0.02414803
v -0.11585346 -0.07816793 0.02498518
v -0.11617466 -0.04974519 0.02414803
v -0.01594828 -0.04974519 0.02549798
v -0.01587802 -0.07816793 0.02551113
v -0.11562258 -0.04974519 0.02557249
v -0.11554229 -0.07816793 0.02577849
v -0.11554229 -0.04974519 0.02577849
v -0.01610889 -0.04974519 0.02555934
v -0.01725318 -0.04974519 0.02598011
v -0.01725318 -0.07816793 0.02599326
v -0.11384592 -0.07816793 0.02626500
v -0.11384592 -0.04974519 0.02626500
v -0.01754428 -0.04974519 0.02601955
v -0.01955181 -0.07816793 0.02626500
v -0.01955181 -0.04974519 0.02626500
f 1 2 6
f 1 6 3
f 1 3 7
f 1 7 4
f 1 4 9
f 1 9 13
f 1 13 19
f 1 19 23
f 1 23 20
f 1 20 15
f 1 15 10
f 1 10 5
f 1 5 2
f 2 5 11
f 2 11 6
f 3 6 11
f 3 11 14
f 3 14 16
f 3 16 21
f 3 21 24
f 3 24 22
f 3 22 18
f 3 18 17
f 3 17 12
f 3 12 8
f 3 8 7
f 4 7 8
f 4 8 9
f 5 10 11
f 8 12 9
f 9 12 13
f 10 14 11
f 10 15 16
f 10 16 14
f 12 17 13
f 13 17 18
f 13 18 19
f 15 20 21
f 15 21 16
f 18 22 19
f 19 22 24
f 19 24 23
f 20 23 24
f 20 24 21

