# https://github.com/mikedh/trimesh
v -0.01557718 0.11384487 0.02626500
v -0.01557718 0.11508469 0.02591155
v -0.05269274 0.11384487 0.02626500
v -0.01557718 0.08394040 0.02626500
v -0.01557718 0.11554095 0.02577848
v -0.05269274 0.11554095 0.02577848
v -0.05269274 0.11484665 0.02597808
v -0.05269274 0.05405576 0.02626500
v -0.01557718 0.08331553 0.02623173
v -0.01955177 0.02185017 0.02626500
v -0.01725203 0.02185017 0.02598224
v -0.01594048 0.02185017 0.02549988
v -0.01557718 0.11600712 0.02459337
v -0.05269274 0.11591785 0.02481792
v -0.05269274 0.05168522 0.02586996
v -0.05210055 0.02185017 0.02414844
v -0.05128310 0.02185017 0.02577848
v -0.04944840 0.02185017 0.02626500
v -0.01575883 0.02185017 0.02414844
v -0.01557718 0.02001524 0.01848487
v -0.01955177 0.02009459 0.02577848
v -0.01725203 0.02026320 0.02564126
v -0.01599498 0.02053101 0.02543334
v -0.01557718 0.11617574 0.02414844
v -0.05269274 0.11617574 0.02414844
v -0.05269274 0.05040573 0.02537929
v -0.05223134 0.02185017 0.02184891
v -0.05226403 0.01493693 0.01264666
v -0.05134123 0.02003508 0.02414844
v -0.05105422 0.02030288 0.02562047
v -0.04944840 0.02009459 0.02577848
v -0.01557718 0.01493693 0.01626436
v -0.01721570 0.01493693 0.01626851
v -0.01557718 0.11626500 0.02184891
v -0.05269274 0.11626500 0.02184891
v -0.05269274 0.04932460 0.02414844
v -0.05251108 0.01493693 -0.01621591
v -0.05160644 0.01493693 0.01493371
v -0.05160281 0.01493693 0.01494618
v -0.05077084 0.01493693 0.01618535
v -0.04944840 0.01493693 0.01626851
v -0.01557718 0.01493693 -0.01621591
v -0.01557718 0.11626500 -0.01621591
v -0.05269274 0.11626500 -0.01621591
v -0.05269274 0.04919566 0.02384904
v -0.05269274 0.04882868 0.02184891
v -0.05269274 0.04862038 -0.01621591
f 1 2 3
f 1 3 8
f 1 8 18
f 1 18 10
f 1 10 4
f 1 4 9
f 1 9 20
f 1 20 32
f 1 32 42
f 1 42 43
f 1 43 34
f 1 34 24
f 1 24 13
f 1 13 5
f 1 5 2
f 2 5 6
f 2 6 7
f 2 7 3
f 3 7 6
f 3 6 14
f 3 14 25
f 3 25 35
f 3 35 44
f 3 44 47
f 3 47 46
f 3 46 45
f 3 45 36
f 3 36 26
f 3 26 15
f 3 15 8
f 4 10 11
f 4 11 12
f 4 12 9
f 5 13 6
f 6 13 14
f 8 15 16
f 8 16 17
f 8 17 18
f 9 12 19
f 9 19 20
f 10 18 31
f 10 31 21
f 10 21 22
f 10 22 11
f 11 22 23
f 11 23 12
f 12 23 19
f 13 24 25
f 13 25 14
f 15 26 16
f 16 27 28
f 16 28 29
f 16 29 30
f 16 30 17
f 16 26 27
f 17 30 18
f 18 30 31
f 19 23 32
f 19 32 20
f 21 31 41
f 21 41 33
f 21 33 32
f 21 32 22
f 22 32 23
f 24 34 35
f 24 35 25
f 26 36 28
f 26 28 27
f 28 37 42
f 28 42 32
f 28 32 33
f 28 33 41
f 28 41 40
f 28 40 39
f 28 39 38
f 28 38 30
f 28 30 29
f 28 36 37
f 30 38 39
f 30 39 40
f 30 40 31
f 31 40 41
f 34 43 44
f 34 44 35
f 36 45 37
f 37 45 46
f 37 46 47
f 37 47 44
f 37 44 43
f 37 43 42

