# https://github.com/mikedh/trimesh
v 0.08329677 -0.01818905 -0.01683648
v 0.09776643 -0.01818905 -0.01683648
v 0.08373635 -0.01818905 0.01264662
v 0.08224725 -0.00001956 -0.01812563
v 0.09778620 -0.00001956 -0.01812563
v 0.09776643 -0.01818905 0.01745129
v 0.08409988 -0.01818905 0.01494617
v 0.08373635 0.01725482 0.01264662
v 0.08224725 0.01725482 -0.01812563
v 0.09778620 0.01724788 -0.01812563
v 0.09778620 -0.00001956 0.01637120
v 0.09776643 -0.01817864 0.01746872
v 0.09774969 -0.01818905 0.01746523
v 0.08420026 0.01725482 0.01494617
v 0.08471286 -0.01818905 0.01667781
v 0.08243586 0.01725482 -0.01812563
v 0.09778620 0.01725482 -0.01747757
v 0.09778620 0.01724788 0.01686595
v 0.08855044 -0.01818905 0.01744084
v 0.09636555 -0.01818905 0.01746175
v 0.08488473 0.01725482 0.01633287
v 0.08625215 -0.01818905 0.01730844
v 0.09778620 0.01725482 0.01682763
v 0.09774817 0.01725482 0.01685202
v 0.08855197 0.01725482 0.01680672
v 0.08625062 0.01725482 0.01668478
f 1 2 6
f 1 6 13
f 1 13 20
f 1 20 19
f 1 19 22
f 1 22 15
f 1 15 7
f 1 7 3
f 1 3 4
f 1 4 5
f 1 5 2
f 2 5 11
f 2 11 6
f 3 7 8
f 3 8 9
f 3 9 4
f 4 9 16
f 4 16 10
f 4 10 5
f 5 10 17
f 5 17 23
f 5 23 18
f 5 18 11
f 6 11 12
f 6 12 13
f 7 14 8
f 7 15 14
f 8 14 21
f 8 21 26
f 8 26 25
f 8 25 24
f 8 24 23
f 8 23 17
f 8 17 16
f 8 16 9
f 10 16 17
f 11 18 12
f 12 18 19
f 12 19 20
f 12 20 13
f 14 15 21
f 15 22 21
f 18 23 24
f 18 24 25
f 18 25 19
f 19 25 26
f 19 26 22
f 21 22 26

