# https://github.com/mikedh/trimesh
v -0.01557718 -0.00001846 -0.02626500
v 0.01266967 -0.00001846 -0.02626500
v -0.01557718 -0.00001846 -0.01492940
v -0.01557718 0.03495513 -0.02626500
v 0.01266967 -0.00001846 -0.02552483
v 0.01266967 0.03495513 -0.02626500
v 0.01266414 -0.00001846 -0.01492940
v -0.01557718 0.02339769 -0.01492940
v -0.01557718 0.03495513 -0.01533666
v 0.01266967 0.01059412 -0.01492940
v 0.01266967 0.03495513 -0.01868685
v 0.01266967 0.01978599 -0.01492940
f 1 2 5
f 1 5 7
f 1 7 3
f 1 3 8
f 1 8 9
f 1 9 4
f 1 4 6
f 1 6 2
f 2 6 11
f 2 11 12
f 2 12 10
f 2 10 5
f 3 7 10
f 3 10 12
f 3 12 8
f 4 9 11
f 4 11 6
f 5 10 7
f 8 12 9
f 9 12 11

