# https://github.com/mikedh/trimesh
v -0.09774950 -0.01755568 -0.02626500
v -0.08231775 -0.01755568 -0.02626500
v -0.09776916 -0.01755568 -0.02429739
v -0.09776916 -0.01755225 -0.02626500
v -0.08231775 -0.00001846 -0.02626500
v -0.08231775 -0.01755568 -0.01805109
v -0.09776916 -0.01755568 0.01705626
v -0.09776916 -0.00001846 -0.02626500
v -0.08231775 -0.00001846 -0.01805109
v -0.08373645 -0.01755568 0.01264611
v -0.08855065 -0.01755568 0.01700962
v -0.09776916 -0.00003047 0.01636081
v -0.09776916 -0.00001846 0.01633537
v -0.08373645 -0.00001846 0.01264611
v -0.08376519 -0.01755568 0.01295567
v -0.08670090 -0.01755568 0.01691632
v -0.08625018 -0.00001846 0.01626328
v -0.09774950 -0.00001846 0.01635233
v -0.08401172 -0.00001846 0.01381650
v -0.08416750 -0.01755568 0.01494872
v -0.08625018 -0.01755568 0.01688664
v -0.08496155 -0.00001846 0.01617847
v -0.08427943 -0.00001846 0.01494872
v -0.08423859 -0.01755568 0.01524979
v -0.08514608 -0.01755568 0.01660252
v -0.08482845 -0.01755568 0.01644562
f 1 2 6
f 1 6 10
f 1 10 15
f 1 15 20
f 1 20 24
f 1 24 26
f 1 26 25
f 1 25 21
f 1 21 16
f 1 16 11
f 1 11 7
f 1 7 3
f 1 3 4
f 1 4 8
f 1 8 5
f 1 5 2
f 2 5 9
f 2 9 6
f 3 7 12
f 3 12 13
f 3 13 8
f 3 8 4
f 5 8 13
f 5 13 18
f 5 18 17
f 5 17 22
f 5 22 23
f 5 23 19
f 5 19 14
f 5 14 9
f 6 9 14
f 6 14 10
f 7 11 12
f 10 14 15
f 11 16 17
f 11 17 12
f 12 18 13
f 12 17 18
f 14 19 20
f 14 20 15
f 16 21 22
f 16 22 17
f 19 23 24
f 19 24 20
f 21 25 22
f 22 25 26
f 22 26 23
f 23 26 24

