# https://github.com/mikedh/trimesh
v 0.00000890 -0.00001846 -0.01526334
v 0.00000890 -0.00001846 -0.02626390
v 0.00000085 -0.00001846 -0.01500656
v 0.00000890 -0.00004766 -0.01500656
v 0.00000890 -0.04974241 -0.02626390
v -0.08231775 -0.00001846 -0.02626390
v -0.05227529 -0.00001846 -0.01500656
v 0.00000890 -0.01978441 -0.01500656
v 0.00000890 -0.04974241 -0.01873586
v -0.08231775 -0.04974241 -0.02626390
v -0.08231775 -0.00001846 -0.01805480
v -0.08231775 -0.04974241 -0.01501979
v -0.05376613 -0.04974241 -0.01500656
v -0.01569731 -0.04973267 -0.01500656
v -0.01575372 -0.04974241 -0.01500656
f 1 2 6
f 1 6 11
f 1 11 7
f 1 7 3
f 1 3 4
f 1 4 8
f 1 8 9
f 1 9 5
f 1 5 2
f 2 5 10
f 2 10 6
f 3 7 13
f 3 13 15
f 3 15 14
f 3 14 8
f 3 8 4
f 5 9 15
f 5 15 13
f 5 13 12
f 5 12 10
f 6 10 12
f 6 12 11
f 7 11 12
f 7 12 13
f 8 14 9
f 9 14 15

