# https://github.com/mikedh/trimesh
v -0.06765673 -0.00000707 -0.02626500
v -0.01557718 -0.00000707 -0.02626500
v -0.06765673 -0.00000707 -0.01873507
v -0.06765673 0.11384054 -0.02626500
v -0.01557718 -0.00000707 -0.01621591
v -0.01557718 0.11384054 -0.02626500
v -0.05251104 -0.00000707 -0.01621591
v -0.06765673 0.05064498 -0.01621591
v -0.06765673 0.11554791 -0.02578202
v -0.01557718 0.11430722 -0.02613319
v -0.01557718 0.11625363 -0.01621591
v -0.06765673 0.11625363 -0.01621591
v -0.06765673 0.11612842 -0.02428686
v -0.01557718 0.11554791 -0.02578202
v -0.01557718 0.11625363 -0.02184934
v -0.06765673 0.11625363 -0.02204312
v -0.06765673 0.11617395 -0.02414914
v -0.01557718 0.11617395 -0.02414914
v -0.01557718 0.11619672 -0.02352255
f 1 2 5
f 1 5 7
f 1 7 3
f 1 3 8
f 1 8 12
f 1 12 16
f 1 16 17
f 1 17 13
f 1 13 9
f 1 9 4
f 1 4 6
f 1 6 2
f 2 6 10
f 2 10 14
f 2 14 18
f 2 18 19
f 2 19 15
f 2 15 11
f 2 11 5
f 3 7 8
f 4 9 10
f 4 10 6
f 5 11 12
f 5 12 8
f 5 8 7
f 9 13 14
f 9 14 10
f 11 15 16
f 11 16 12
f 13 17 18
f 13 18 14
f 15 19 16
f 16 19 18
f 16 18 17

