# https://github.com/mikedh/trimesh
v 0.11626159 -0.01818905 0.02184751
v 0.11623077 -0.01818905 0.02278839
v 0.11626159 -0.04974241 0.02184751
v 0.11626159 -0.01818905 -0.01683403
v 0.11625131 -0.04974241 0.02213863
v 0.11617942 -0.01818905 0.02414697
v 0.11617942 -0.04974241 0.02414697
v 0.11626159 -0.04974241 -0.01683403
v 0.08329744 -0.01818905 -0.01683403
v 0.11592263 -0.01818905 0.02481360
v 0.11610067 -0.04974241 0.02435371
v 0.08128769 -0.04974241 -0.01683403
v 0.08373569 -0.01818905 0.01264967
v 0.11554943 -0.01818905 0.02577979
v 0.11554943 -0.04974241 0.02577979
v 0.08236275 -0.04974241 0.02184751
v 0.08373569 -0.02185215 0.02184751
v 0.08384182 -0.02185215 0.02414697
v 0.08447180 -0.02003913 0.02414697
v 0.08410203 -0.01818905 0.01494913
v 0.11485441 -0.01818905 0.02597809
v 0.11533032 -0.04974241 0.02584308
v 0.08288316 -0.04974241 0.02435371
v 0.08452316 -0.02185215 0.02577979
v 0.08471489 -0.02029549 0.02561946
v 0.08625217 -0.01936890 0.02414697
v 0.08471489 -0.01818905 0.01667900
v 0.11384782 -0.01818905 0.02626078
v 0.11384782 -0.04974241 0.02626078
v 0.08390003 -0.04974241 0.02564900
v 0.08418420 -0.04974241 0.02579245
v 0.08625217 -0.02185215 0.02626078
v 0.08625217 -0.02009164 0.02577979
v 0.10143662 -0.01818905 0.02593590
v 0.10058068 -0.01818905 0.02564900
v 0.10464812 -0.01818905 0.02626078
v 0.08625217 -0.04974241 0.02626078
v 0.08589951 -0.04974241 0.02621015
v 0.10371001 -0.01818905 0.02621859
v 0.10234735 -0.01818905 0.02608358
f 1 2 3
f 1 3 8
f 1 8 4
f 1 4 9
f 1 9 13
f 1 13 20
f 1 20 27
f 1 27 35
f 1 35 34
f 1 34 40
f 1 40 39
f 1 39 36
f 1 36 28
f 1 28 21
f 1 21 14
f 1 14 10
f 1 10 6
f 1 6 2
f 2 5 3
f 2 6 7
f 2 7 5
f 3 5 7
f 3 7 11
f 3 11 15
f 3 15 22
f 3 22 29
f 3 29 37
f 3 37 38
f 3 38 31
f 3 31 30
f 3 30 23
f 3 23 16
f 3 16 12
f 3 12 8
f 4 8 12
f 4 12 9
f 6 10 11
f 6 11 7
f 9 12 13
f 10 14 11
f 11 14 15
f 12 16 17
f 12 17 13
f 13 17 18
f 13 18 19
f 13 19 20
f 14 21 22
f 14 22 15
f 16 23 18
f 16 18 17
f 18 23 24
f 18 24 25
f 18 25 19
f 19 26 27
f 19 27 20
f 19 25 26
f 21 28 29
f 21 29 22
f 23 30 24
f 24 30 31
f 24 31 32
f 24 32 25
f 25 32 33
f 25 33 26
f 26 33 34
f 26 34 35
f 26 35 27
f 28 36 32
f 28 32 37
f 28 37 29
f 31 38 32
f 32 36 39
f 32 39 33
f 32 38 37
f 33 39 40
f 33 40 34

