# https://github.com/mikedh/trimesh
v 0.00000891 -0.11384664 -0.02625986
v 0.00000891 -0.11554583 -0.02578166
v 0.00000891 -0.07819716 -0.02625986
v 0.11384110 -0.11384664 -0.02625986
v 0.00000891 -0.11586629 -0.02495895
v 0.11384110 -0.11554583 -0.02578166
v 0.00000891 -0.07819716 -0.01860866
v 0.11384110 -0.07819716 -0.02625986
v 0.11469459 -0.07819716 -0.02602333
v 0.11554807 -0.11384664 -0.02578166
v 0.11536600 -0.11536324 -0.02561712
v 0.00000891 -0.11617930 -0.02414652
v 0.11384110 -0.11617930 -0.02414652
v 0.00000891 -0.08137569 0.02414652
v 0.01588374 -0.07819716 0.02550914
v 0.11554807 -0.07819716 -0.02578166
v 0.11617396 -0.11384664 -0.02414652
v 0.11558221 -0.11559055 -0.02414652
v 0.00000891 -0.11626500 -0.02184808
v 0.11384110 -0.11626500 -0.02184808
v 0.00000891 -0.08176322 0.02495895
v 0.01654377 -0.07819716 0.02575081
v 0.00000891 -0.08215821 0.02578166
v 0.11617396 -0.07819716 -0.02414652
v 0.11621948 -0.07819716 -0.02299987
v 0.11626500 -0.11384664 -0.02184808
v 0.11562774 -0.11563154 -0.02184808
v 0.00000891 -0.11626500 0.02184808
v 0.11384110 -0.11626500 0.02184808
v 0.01726070 -0.07819716 0.02599248
v 0.00000891 -0.08395056 0.02625986
v 0.01955942 -0.07819716 0.02625986
v 0.01841006 -0.07819716 0.02613131
v 0.11626500 -0.07819716 -0.02184808
v 0.11626500 -0.11384664 0.02184808
v 0.11562774 -0.11563154 0.02184808
v 0.00000891 -0.11617930 0.02414652
v 0.11558221 -0.11559055 0.02414652
v 0.11384110 -0.11617930 0.02414652
v 0.00000891 -0.11384664 0.02625986
v 0.11384110 -0.07819716 0.02625986
v 0.11626500 -0.07819716 0.02184808
v 0.11617396 -0.11384664 0.02414652
v 0.00000891 -0.11586256 0.02496923
v 0.11536600 -0.11536324 0.02561712
v 0.11384110 -0.11554583 0.02578166
v 0.00000891 -0.11469251 0.02602333
v 0.11384110 -0.11384664 0.02625986
v 0.11554807 -0.07819716 0.02578166
v 0.11617396 -0.07819716 0.02414652
v 0.11554807 -0.11384664 0.02578166
v 0.00000891 -0.11554583 0.02578166
f 1 2 5
f 1 5 12
f 1 12 19
f 1 19 28
f 1 28 37
f 1 37 44
f 1 44 52
f 1 52 47
f 1 47 40
f 1 40 31
f 1 31 23
f 1 23 21
f 1 21 14
f 1 14 7
f 1 7 3
f 1 3 8
f 1 8 4
f 1 4 6
f 1 6 2
f 2 6 5
f 3 7 15
f 3 15 22
f 3 22 30
f 3 30 33
f 3 33 32
f 3 32 41
f 3 41 49
f 3 49 50
f 3 50 42
f 3 42 34
f 3 34 25
f 3 25 24
f 3 24 16
f 3 16 9
f 3 9 8
f 4 8 9
f 4 9 10
f 4 10 11
f 4 11 6
f 5 6 13
f 5 13 12
f 6 11 13
f 7 14 15
f 9 16 10
f 10 16 24
f 10 24 17
f 10 17 11
f 11 17 18
f 11 18 13
f 12 13 20
f 12 20 19
f 13 18 20
f 14 21 15
f 15 21 23
f 15 23 22
f 17 24 25
f 17 25 26
f 17 26 18
f 18 26 27
f 18 27 20
f 19 20 29
f 19 29 28
f 20 27 36
f 20 36 29
f 22 23 30
f 23 31 32
f 23 32 33
f 23 33 30
f 25 34 26
f 26 34 42
f 26 42 35
f 26 35 36
f 26 36 27
f 28 29 39
f 28 39 37
f 29 36 38
f 29 38 39
f 31 40 48
f 31 48 41
f 31 41 32
f 35 43 38
f 35 38 36
f 35 42 50
f 35 50 43
f 37 39 44
f 38 43 45
f 38 45 39
f 39 45 46
f 39 46 44
f 40 47 48
f 41 48 51
f 41 51 49
f 43 50 49
f 43 49 51
f 43 51 45
f 44 46 52
f 45 51 48
f 45 48 46
f 46 48 47
f 46 47 52

