# Created by FreeCAD <http://www.freecad.org>
v 199.500000 115.000000 30.000000
v 199.305542 113.087662 30.000000
v 199.500000 115.000000 60.000000
v 199.305542 113.087662 60.000000
v 198.730103 111.253616 30.000000
v 198.730103 111.253616 60.000000
v 197.797256 109.572952 30.000000
v 197.797256 109.572952 60.000000
v 196.545181 108.114471 30.000000
v 196.545181 108.114471 60.000000
v 195.025162 106.937881 30.000000
v 195.025162 106.937881 60.000000
v 193.299393 106.091354 30.000000
v 193.299393 106.091354 60.000000
v 191.438568 105.609550 60.000000
v 191.438568 105.609550 30.000000
v 189.518829 105.512192 30.000000
v 189.518829 105.512192 60.000000
v 187.618805 105.803268 60.000000
v 187.618805 105.803268 30.000000
v 185.816254 106.470856 30.000000
v 185.816254 106.470856 60.000000
v 184.184998 107.487633 60.000000
v 184.184998 107.487633 30.000000
v 182.791794 108.811958 60.000000
v 182.791794 108.811958 30.000000
v 181.693710 110.389633 60.000000
v 181.693710 110.389633 30.000000
v 180.935684 112.156052 60.000000
v 180.935684 112.156052 30.000000
v 180.548737 114.038902 30.000000
v 180.548737 114.038902 60.000000
v 180.548737 115.961098 60.000000
v 180.548737 115.961098 30.000000
v 180.935684 117.843948 30.000000
v 180.935684 117.843948 60.000000
v 181.693710 119.610367 30.000000
v 181.693710 119.610367 60.000000
v 182.791794 121.188042 30.000000
v 182.791794 121.188042 60.000000
v 184.184998 122.512367 30.000000
v 184.184998 122.512367 60.000000
v 185.816254 123.529144 60.000000
v 185.816254 123.529144 30.000000
v 187.618805 124.196732 30.000000
v 187.618805 124.196732 60.000000
v 189.518829 124.487808 60.000000
v 189.518829 124.487808 30.000000
v 191.438568 124.390450 30.000000
v 191.438568 124.390450 60.000000
v 193.299393 123.908646 30.000000
v 193.299393 123.908646 60.000000
v 195.025162 123.062119 30.000000
v 195.025162 123.062119 60.000000
v 196.545181 121.885529 60.000000
v 196.545181 121.885529 30.000000
v 197.797256 120.427048 30.000000
v 197.797256 120.427048 60.000000
v 198.730103 118.746384 30.000000
v 198.730103 118.746384 60.000000
v 199.305542 116.912338 60.000000
v 199.305542 116.912338 30.000000
v 49.500000 115.000000 30.000000
v 49.305534 113.087662 30.000000
v 49.500000 115.000000 60.000000
v 49.305534 113.087662 60.000000
v 48.730099 111.253616 30.000000
v 48.730099 111.253616 60.000000
v 47.797253 109.572952 30.000000
v 47.797253 109.572952 60.000000
v 46.545185 108.114471 30.000000
v 46.545185 108.114471 60.000000
v 45.025158 106.937881 30.000000
v 45.025158 106.937881 60.000000
v 43.299400 106.091354 30.000000
v 43.299400 106.091354 60.000000
v 41.438564 105.609550 60.000000
v 41.438564 105.609550 30.000000
v 39.518833 105.512192 30.000000
v 39.518833 105.512192 60.000000
v 37.618801 105.803268 60.000000
v 37.618801 105.803268 30.000000
v 35.816254 106.470856 30.000000
v 35.816254 106.470856 60.000000
v 34.184994 107.487633 60.000000
v 34.184994 107.487633 30.000000
v 32.791798 108.811958 60.000000
v 32.791798 108.811958 30.000000
v 31.693707 110.389633 60.000000
v 31.693707 110.389633 30.000000
v 30.935677 112.156052 60.000000
v 30.935677 112.156052 30.000000
v 30.548742 114.038902 30.000000
v 30.548742 114.038902 60.000000
v 30.548742 115.961098 60.000000
v 30.548742 115.961098 30.000000
v 30.935677 117.843948 30.000000
v 30.935677 117.843948 60.000000
v 31.693707 119.610367 30.000000
v 31.693707 119.610367 60.000000
v 32.791798 121.188042 30.000000
v 32.791798 121.188042 60.000000
v 34.184994 122.512367 30.000000
v 34.184994 122.512367 60.000000
v 35.816254 123.529144 60.000000
v 35.816254 123.529144 30.000000
v 37.618801 124.196732 30.000000
v 37.618801 124.196732 60.000000
v 39.518833 124.487808 60.000000
v 39.518833 124.487808 30.000000
v 41.438564 124.390450 30.000000
v 41.438564 124.390450 60.000000
v 43.299400 123.908646 30.000000
v 43.299400 123.908646 60.000000
v 45.025158 123.062119 30.000000
v 45.025158 123.062119 60.000000
v 46.545185 121.885529 60.000000
v 46.545185 121.885529 30.000000
v 47.797253 120.427048 30.000000
v 47.797253 120.427048 60.000000
v 48.730099 118.746384 30.000000
v 48.730099 118.746384 60.000000
v 49.305534 116.912338 60.000000
v 49.305534 116.912338 30.000000
v 25.000000 130.000000 60.000000
v 25.000000 100.000000 30.000000
v 25.000000 100.000000 60.000000
v 25.000000 130.000000 30.000000
v 98.000000 100.000000 30.000000
v 98.000000 130.000000 30.000000
v 98.000000 100.000000 60.000000
v 98.000000 130.000000 60.000000
v 132.000000 100.000000 60.000000
v 132.000000 130.000000 60.000000
v 132.000000 100.000000 30.000000
v 132.000000 130.000000 30.000000
v 205.000000 100.000000 30.000000
v 205.000000 130.000000 30.000000
v 205.000000 100.000000 60.000000
v 205.000000 130.000000 60.000000
v 145.000000 100.000000 60.000000
v 145.000000 130.000000 60.000000
v 145.000000 100.000000 130.000000
v 145.000000 130.000000 130.000000
v 85.000000 130.000000 130.000000
v 85.000000 100.000000 130.000000
v 85.000000 100.000000 60.000000
v 85.000000 130.000000 60.000000
vn -0.994870 0.101164 0.000000
vn -0.994870 0.101164 0.000000
vn -0.954139 0.299365 0.000000
vn -0.954139 0.299365 0.000000
vn -0.874346 0.485303 0.000000
vn -0.874346 0.485303 0.000000
vn -0.758755 0.651376 0.000000
vn -0.758755 0.651376 0.000000
vn -0.612108 0.790774 0.000000
vn -0.612108 0.790774 0.000000
vn -0.440393 0.897805 0.000000
vn -0.250654 0.968077 0.000000
vn -0.440393 0.897805 0.000000
vn -0.250654 0.968077 0.000000
vn -0.050649 0.998717 0.000000
vn 0.151430 0.988468 0.000000
vn -0.050649 0.998717 0.000000
vn 0.151430 0.988468 0.000000
vn 0.347303 0.937753 -0.000000
vn 0.347303 0.937753 0.000000
vn 0.528967 0.848643 0.000000
vn 0.528967 0.848643 0.000000
vn 0.688963 0.724796 0.000000
vn 0.688963 0.724796 0.000000
vn 0.820766 0.571265 0.000000
vn 0.820766 0.571265 0.000000
vn 0.918959 0.394354 0.000000
vn 0.918959 0.394354 0.000000
vn 0.979529 0.201304 -0.000000
vn 0.979529 0.201304 0.000000
vn 1.000000 -0.000000 0.000000
vn 1.000000 0.000000 0.000000
vn 0.979529 -0.201304 0.000000
vn 0.979529 -0.201304 0.000000
vn 0.918959 -0.394354 0.000000
vn 0.918959 -0.394354 0.000000
vn 0.820766 -0.571265 0.000000
vn 0.820766 -0.571265 0.000000
vn 0.688963 -0.724796 0.000000
vn 0.688963 -0.724796 0.000000
vn 0.528967 -0.848643 0.000000
vn 0.528967 -0.848643 0.000000
vn 0.347303 -0.937753 0.000000
vn 0.347303 -0.937753 0.000000
vn 0.151430 -0.988468 0.000000
vn 0.151430 -0.988468 0.000000
vn -0.050649 -0.998717 0.000000
vn -0.050649 -0.998717 0.000000
vn -0.250654 -0.968077 0.000000
vn -0.250654 -0.968077 0.000000
vn -0.440393 -0.897805 0.000000
vn -0.612108 -0.790774 -0.000000
vn -0.440393 -0.897805 0.000000
vn -0.612108 -0.790774 0.000000
vn -0.758755 -0.651376 0.000000
vn -0.758755 -0.651376 0.000000
vn -0.874346 -0.485303 0.000000
vn -0.954139 -0.299365 -0.000000
vn -0.874346 -0.485303 0.000000
vn -0.954139 -0.299365 0.000000
vn -0.994870 -0.101164 0.000000
vn -0.994870 -0.101164 0.000000
vn -0.994869 0.101168 0.000000
vn -0.994869 0.101168 0.000000
vn -0.954139 0.299363 0.000000
vn -0.954139 0.299363 0.000000
vn -0.874346 0.485303 0.000000
vn -0.874346 0.485303 0.000000
vn -0.758757 0.651373 0.000000
vn -0.758757 0.651373 0.000000
vn -0.612106 0.790775 0.000000
vn -0.612106 0.790775 0.000000
vn -0.440395 0.897804 0.000000
vn -0.250653 0.968077 0.000000
vn -0.440395 0.897804 0.000000
vn -0.250653 0.968077 0.000000
vn -0.050650 0.998717 0.000000
vn 0.151429 0.988468 0.000000
vn -0.050650 0.998717 0.000000
vn 0.151429 0.988468 0.000000
vn 0.347304 0.937753 -0.000000
vn 0.347304 0.937753 0.000000
vn 0.528966 0.848643 0.000000
vn 0.528966 0.848643 0.000000
vn 0.688965 0.724794 0.000000
vn 0.688965 0.724794 0.000000
vn 0.820764 0.571267 0.000000
vn 0.820764 0.571267 0.000000
vn 0.918958 0.394356 0.000000
vn 0.918958 0.394356 0.000000
vn 0.979530 0.201298 -0.000000
vn 0.979530 0.201298 0.000000
vn 1.000000 -0.000000 0.000000
vn 1.000000 0.000000 0.000000
vn 0.979530 -0.201298 0.000000
vn 0.979530 -0.201298 0.000000
vn 0.918958 -0.394356 0.000000
vn 0.918958 -0.394356 0.000000
vn 0.820764 -0.571267 0.000000
vn 0.820764 -0.571267 0.000000
vn 0.688965 -0.724794 0.000000
vn 0.688965 -0.724794 0.000000
vn 0.528966 -0.848643 0.000000
vn 0.528966 -0.848643 0.000000
vn 0.347304 -0.937753 0.000000
vn 0.347304 -0.937753 0.000000
vn 0.151429 -0.988468 0.000000
vn 0.151429 -0.988468 0.000000
vn -0.050650 -0.998717 0.000000
vn -0.050650 -0.998717 0.000000
vn -0.250653 -0.968077 0.000000
vn -0.250653 -0.968077 0.000000
vn -0.440395 -0.897804 0.000000
vn -0.612106 -0.790775 -0.000000
vn -0.440395 -0.897804 0.000000
vn -0.612106 -0.790775 0.000000
vn -0.758757 -0.651373 0.000000
vn -0.758757 -0.651373 0.000000
vn -0.874346 -0.485303 0.000000
vn -0.954139 -0.299363 -0.000000
vn -0.874346 -0.485303 0.000000
vn -0.954139 -0.299363 0.000000
vn -0.994869 -0.101168 0.000000
vn -0.994869 -0.101168 0.000000
vn -1.000000 -0.000000 0.000000
vn -1.000000 0.000000 -0.000000
vn 0.000000 -0.000000 -1.000000
vn 0.000000 0.000000 -1.000000
vn 0.000000 -0.000000 -1.000000
vn 0.000000 0.000000 -1.000000
vn 0.000000 -0.000000 -1.000000
vn 0.000000 0.000000 -1.000000
vn 0.000000 0.000000 -1.000000
vn 0.000000 -0.000000 -1.000000
vn 0.000000 0.000000 -1.000000
vn 0.000000 0.000000 -1.000000
vn 0.000000 0.000000 -1.000000
vn 0.000000 0.000000 -1.000000
vn 0.000000 0.000000 -1.000000
vn 0.000000 0.000000 -1.000000
vn 0.000000 0.000000 -1.000000
vn 0.000000 0.000000 -1.000000
vn 0.000000 0.000000 -1.000000
vn 0.000000 -0.000000 -1.000000
vn 0.000000 0.000000 -1.000000
vn 0.000000 -0.000000 -1.000000
vn 0.000000 -0.000000 -1.000000
vn 0.000000 -0.000000 -1.000000
vn 0.000000 0.000000 -1.000000
vn 0.000000 0.000000 -1.000000
vn 0.000000 0.000000 -1.000000
vn 0.000000 0.000000 -1.000000
vn 0.000000 0.000000 -1.000000
vn 0.000000 0.000000 -1.000000
vn 0.000000 0.000000 -1.000000
vn 0.000000 0.000000 -1.000000
vn 0.000000 0.000000 -1.000000
vn 0.000000 0.000000 -1.000000
vn 0.000000 0.000000 -1.000000
vn 0.000000 0.000000 -1.000000
vn 0.000000 0.000000 -1.000000
vn 1.000000 0.000000 0.000000
vn 1.000000 0.000000 -0.000000
vn 0.000000 0.000000 -1.000000
vn 0.000000 0.000000 -1.000000
vn -1.000000 -0.000000 0.000000
vn -1.000000 0.000000 -0.000000
vn 0.000000 -0.000000 -1.000000
vn 0.000000 0.000000 -1.000000
vn 0.000000 -0.000000 -1.000000
vn 0.000000 0.000000 -1.000000
vn 0.000000 -0.000000 -1.000000
vn 0.000000 0.000000 -1.000000
vn 0.000000 -0.000000 -1.000000
vn 0.000000 0.000000 -1.000000
vn 0.000000 0.000000 -1.000000
vn 0.000000 0.000000 -1.000000
vn 0.000000 0.000000 -1.000000
vn 0.000000 0.000000 -1.000000
vn 0.000000 -0.000000 -1.000000
vn 0.000000 0.000000 -1.000000
vn 0.000000 0.000000 -1.000000
vn 0.000000 0.000000 -1.000000
vn 0.000000 0.000000 -1.000000
vn 0.000000 0.000000 -1.000000
vn 0.000000 0.000000 -1.000000
vn 0.000000 0.000000 -1.000000
vn 0.000000 0.000000 -1.000000
vn 0.000000 0.000000 -1.000000
vn 0.000000 0.000000 -1.000000
vn 0.000000 0.000000 -1.000000
vn 0.000000 0.000000 -1.000000
vn 0.000000 0.000000 -1.000000
vn 0.000000 0.000000 -1.000000
vn 0.000000 0.000000 -1.000000
vn 0.000000 0.000000 -1.000000
vn 0.000000 0.000000 -1.000000
vn 0.000000 0.000000 -1.000000
vn 0.000000 0.000000 -1.000000
vn 0.000000 0.000000 -1.000000
vn 0.000000 0.000000 -1.000000
vn 0.000000 0.000000 -1.000000
vn 1.000000 0.000000 0.000000
vn 1.000000 0.000000 -0.000000
vn 0.000000 0.000000 1.000000
vn 0.000000 0.000000 1.000000
vn 0.000000 0.000000 1.000000
vn 0.000000 0.000000 1.000000
vn 0.000000 0.000000 1.000000
vn 0.000000 0.000000 1.000000
vn 0.000000 0.000000 1.000000
vn 0.000000 0.000000 1.000000
vn 0.000000 0.000000 1.000000
vn 0.000000 0.000000 1.000000
vn 0.000000 0.000000 1.000000
vn 0.000000 0.000000 1.000000
vn 0.000000 0.000000 1.000000
vn 0.000000 0.000000 1.000000
vn 0.000000 0.000000 1.000000
vn 0.000000 0.000000 1.000000
vn 0.000000 0.000000 1.000000
vn 0.000000 0.000000 1.000000
vn 0.000000 0.000000 1.000000
vn 0.000000 0.000000 1.000000
vn 0.000000 0.000000 1.000000
vn 0.000000 0.000000 1.000000
vn 0.000000 0.000000 1.000000
vn 0.000000 0.000000 1.000000
vn 0.000000 0.000000 1.000000
vn 0.000000 0.000000 1.000000
vn 0.000000 0.000000 1.000000
vn 0.000000 0.000000 1.000000
vn 0.000000 0.000000 1.000000
vn 0.000000 0.000000 1.000000
vn 0.000000 0.000000 1.000000
vn 0.000000 0.000000 1.000000
vn 0.000000 0.000000 1.000000
vn 0.000000 0.000000 1.000000
vn 0.000000 0.000000 1.000000
vn 1.000000 0.000000 0.000000
vn 1.000000 0.000000 -0.000000
vn 0.000000 0.000000 1.000000
vn 0.000000 0.000000 1.000000
vn -1.000000 -0.000000 0.000000
vn -1.000000 0.000000 -0.000000
vn 0.000000 0.000000 1.000000
vn 0.000000 0.000000 1.000000
vn 0.000000 0.000000 1.000000
vn 0.000000 0.000000 1.000000
vn 0.000000 0.000000 1.000000
vn 0.000000 0.000000 1.000000
vn 0.000000 0.000000 1.000000
vn 0.000000 0.000000 1.000000
vn 0.000000 0.000000 1.000000
vn 0.000000 0.000000 1.000000
vn 0.000000 0.000000 1.000000
vn 0.000000 0.000000 1.000000
vn 0.000000 0.000000 1.000000
vn 0.000000 0.000000 1.000000
vn 0.000000 0.000000 1.000000
vn 0.000000 0.000000 1.000000
vn 0.000000 0.000000 1.000000
vn 0.000000 0.000000 1.000000
vn 0.000000 0.000000 1.000000
vn 0.000000 0.000000 1.000000
vn 0.000000 0.000000 1.000000
vn 0.000000 0.000000 1.000000
vn 0.000000 0.000000 1.000000
vn 0.000000 0.000000 1.000000
vn 0.000000 0.000000 1.000000
vn 0.000000 0.000000 1.000000
vn 0.000000 0.000000 1.000000
vn 0.000000 0.000000 1.000000
vn 0.000000 0.000000 1.000000
vn 0.000000 0.000000 1.000000
vn 0.000000 0.000000 1.000000
vn 0.000000 0.000000 1.000000
vn 0.000000 0.000000 1.000000
vn 0.000000 0.000000 1.000000
vn 0.000000 0.000000 1.000000
vn 0.000000 1.000000 0.000000
vn 0.000000 1.000000 0.000000
vn 0.000000 1.000000 0.000000
vn 0.000000 1.000000 0.000000
vn 0.000000 1.000000 0.000000
vn 0.000000 1.000000 0.000000
vn 0.000000 1.000000 0.000000
vn 0.000000 1.000000 0.000000
vn 0.000000 1.000000 0.000000
vn 0.000000 1.000000 0.000000
vn 0.000000 -1.000000 0.000000
vn 0.000000 -1.000000 0.000000
vn 0.000000 -1.000000 0.000000
vn 0.000000 -1.000000 0.000000
vn 0.000000 -1.000000 0.000000
vn 0.000000 -1.000000 0.000000
vn 0.000000 -1.000000 0.000000
vn 0.000000 -1.000000 0.000000
vn 0.000000 -1.000000 0.000000
vn 0.000000 -1.000000 0.000000
f 1//1 2//1 3//1
f 3//2 2//2 4//2
f 4//3 5//3 6//3
f 2//4 5//4 4//4
f 6//5 7//5 8//5
f 5//6 7//6 6//6
f 8//7 9//7 10//7
f 7//8 9//8 8//8
f 10//9 11//9 12//9
f 9//10 11//10 10//10
f 12//11 13//11 14//11
f 14//12 13//12 15//12
f 11//13 13//13 12//13
f 13//14 16//14 15//14
f 15//15 17//15 18//15
f 18//16 17//16 19//16
f 16//17 17//17 15//17
f 17//18 20//18 19//18
f 20//19 21//19 19//19
f 19//20 21//20 22//20
f 22//21 21//21 23//21
f 21//22 24//22 23//22
f 23//23 24//23 25//23
f 24//24 26//24 25//24
f 25//25 26//25 27//25
f 26//26 28//26 27//26
f 27//27 28//27 29//27
f 28//28 30//28 29//28
f 30//29 31//29 29//29
f 29//30 31//30 32//30
f 32//31 31//31 33//31
f 31//32 34//32 33//32
f 34//33 35//33 33//33
f 33//34 35//34 36//34
f 35//35 37//35 36//35
f 36//36 37//36 38//36
f 37//37 39//37 38//37
f 38//38 39//38 40//38
f 39//39 41//39 40//39
f 40//40 41//40 42//40
f 42//41 41//41 43//41
f 41//42 44//42 43//42
f 44//43 45//43 43//43
f 43//44 45//44 46//44
f 46//45 45//45 47//45
f 45//46 48//46 47//46
f 47//47 49//47 50//47
f 48//48 49//48 47//48
f 50//49 51//49 52//49
f 49//50 51//50 50//50
f 52//51 53//51 54//51
f 54//52 53//52 55//52
f 51//53 53//53 52//53
f 53//54 56//54 55//54
f 55//55 57//55 58//55
f 56//56 57//56 55//56
f 58//57 59//57 60//57
f 60//58 59//58 61//58
f 57//59 59//59 58//59
f 59//60 62//60 61//60
f 61//61 1//61 3//61
f 62//62 1//62 61//62
f 63//63 64//63 65//63
f 65//64 64//64 66//64
f 66//65 67//65 68//65
f 64//66 67//66 66//66
f 68//67 69//67 70//67
f 67//68 69//68 68//68
f 70//69 71//69 72//69
f 69//70 71//70 70//70
f 72//71 73//71 74//71
f 71//72 73//72 72//72
f 74//73 75//73 76//73
f 76//74 75//74 77//74
f 73//75 75//75 74//75
f 75//76 78//76 77//76
f 77//77 79//77 80//77
f 80//78 79//78 81//78
f 78//79 79//79 77//79
f 79//80 82//80 81//80
f 82//81 83//81 81//81
f 81//82 83//82 84//82
f 84//83 83//83 85//83
f 83//84 86//84 85//84
f 85//85 86//85 87//85
f 86//86 88//86 87//86
f 87//87 88//87 89//87
f 88//88 90//88 89//88
f 89//89 90//89 91//89
f 90//90 92//90 91//90
f 92//91 93//91 91//91
f 91//92 93//92 94//92
f 94//93 93//93 95//93
f 93//94 96//94 95//94
f 96//95 97//95 95//95
f 95//96 97//96 98//96
f 97//97 99//97 98//97
f 98//98 99//98 100//98
f 99//99 101//99 100//99
f 100//100 101//100 102//100
f 101//101 103//101 102//101
f 102//102 103//102 104//102
f 104//103 103//103 105//103
f 103//104 106//104 105//104
f 106//105 107//105 105//105
f 105//106 107//106 108//106
f 108//107 107//107 109//107
f 107//108 110//108 109//108
f 109//109 111//109 112//109
f 110//110 111//110 109//110
f 112//111 113//111 114//111
f 111//112 113//112 112//112
f 114//113 115//113 116//113
f 116//114 115//114 117//114
f 113//115 115//115 114//115
f 115//116 118//116 117//116
f 117//117 119//117 120//117
f 118//118 119//118 117//118
f 120//119 121//119 122//119
f 122//120 121//120 123//120
f 119//121 121//121 120//121
f 121//122 124//122 123//122
f 123//123 63//123 65//123
f 124//124 63//124 123//124
f 125//125 126//125 127//125
f 125//126 128//126 126//126
f 69//127 129//127 71//127
f 73//128 71//128 129//128
f 67//129 129//129 69//129
f 75//130 73//130 129//130
f 64//131 129//131 67//131
f 78//132 75//132 129//132
f 63//133 130//133 129//133
f 63//134 129//134 64//134
f 124//135 130//135 63//135
f 121//136 130//136 124//136
f 119//137 130//137 121//137
f 126//138 86//138 83//138
f 126//139 83//139 82//139
f 126//140 82//140 79//140
f 126//141 79//141 78//141
f 126//142 78//142 129//142
f 118//143 130//143 119//143
f 88//144 86//144 126//144
f 115//145 130//145 118//145
f 90//146 88//146 126//146
f 92//147 90//147 126//147
f 93//148 92//148 126//148
f 128//149 111//149 110//149
f 128//150 110//150 107//150
f 128//151 107//151 106//151
f 128//152 106//152 103//152
f 128//153 103//153 101//153
f 128//154 101//154 99//154
f 128//155 99//155 97//155
f 128//156 97//156 96//156
f 128//157 96//157 93//157
f 128//158 93//158 126//158
f 128//159 130//159 111//159
f 111//160 130//160 113//160
f 113//161 130//161 115//161
f 130//162 131//162 129//162
f 130//163 132//163 131//163
f 132//164 133//164 131//164
f 132//165 134//165 133//165
f 134//166 135//166 133//166
f 134//167 136//167 135//167
f 7//168 137//168 9//168
f 11//169 9//169 137//169
f 5//170 137//170 7//170
f 13//171 11//171 137//171
f 2//172 137//172 5//172
f 16//173 13//173 137//173
f 1//174 137//174 2//174
f 17//175 16//175 137//175
f 20//176 17//176 137//176
f 138//177 1//177 62//177
f 138//178 62//178 59//178
f 138//179 59//179 57//179
f 138//180 137//180 1//180
f 56//181 138//181 57//181
f 53//182 138//182 56//182
f 51//183 138//183 53//183
f 49//184 138//184 51//184
f 48//185 138//185 49//185
f 135//186 31//186 30//186
f 135//187 30//187 28//187
f 135//188 28//188 26//188
f 135//189 26//189 24//189
f 135//190 24//190 21//190
f 135//191 21//191 20//191
f 135//192 20//192 137//192
f 136//193 44//193 41//193
f 136//194 41//194 39//194
f 136//195 39//195 37//195
f 136//196 37//196 35//196
f 136//197 35//197 34//197
f 136//198 34//198 31//198
f 136//199 31//199 135//199
f 136//200 138//200 48//200
f 136//201 48//201 45//201
f 136//202 45//202 44//202
f 138//203 139//203 137//203
f 138//204 140//204 139//204
f 23//205 25//205 141//205
f 27//206 141//206 25//206
f 22//207 23//207 141//207
f 29//208 141//208 27//208
f 19//209 22//209 141//209
f 32//210 141//210 29//210
f 33//211 142//211 141//211
f 33//212 141//212 32//212
f 36//213 142//213 33//213
f 38//214 142//214 36//214
f 40//215 142//215 38//215
f 139//216 10//216 12//216
f 139//217 12//217 14//217
f 139//218 14//218 15//218
f 139//219 15//219 18//219
f 139//220 18//220 19//220
f 139//221 19//221 141//221
f 42//222 142//222 40//222
f 8//223 10//223 139//223
f 43//224 142//224 42//224
f 6//225 8//225 139//225
f 4//226 6//226 139//226
f 3//227 4//227 139//227
f 140//228 47//228 50//228
f 140//229 50//229 52//229
f 140//230 52//230 54//230
f 140//231 54//231 55//231
f 140//232 55//232 58//232
f 140//233 58//233 60//233
f 140//234 60//234 61//234
f 140//235 61//235 3//235
f 140//236 3//236 139//236
f 140//237 142//237 47//237
f 47//238 142//238 46//238
f 46//239 142//239 43//239
f 142//240 143//240 141//240
f 142//241 144//241 143//241
f 143//242 145//242 146//242
f 144//243 145//243 143//243
f 145//244 147//244 146//244
f 145//245 148//245 147//245
f 85//246 87//246 127//246
f 89//247 127//247 87//247
f 84//248 85//248 127//248
f 91//249 127//249 89//249
f 81//250 84//250 127//250
f 94//251 127//251 91//251
f 80//252 81//252 127//252
f 95//253 127//253 94//253
f 77//254 80//254 127//254
f 125//255 95//255 98//255
f 125//256 98//256 100//256
f 125//257 100//257 102//257
f 125//258 127//258 95//258
f 104//259 125//259 102//259
f 105//260 125//260 104//260
f 108//261 125//261 105//261
f 109//262 125//262 108//262
f 112//263 125//263 109//263
f 147//264 65//264 66//264
f 147//265 66//265 68//265
f 147//266 68//266 70//266
f 147//267 70//267 72//267
f 147//268 72//268 74//268
f 147//269 74//269 76//269
f 147//270 76//270 77//270
f 147//271 77//271 127//271
f 148//272 116//272 117//272
f 148//273 117//273 120//273
f 148//274 120//274 122//274
f 148//275 122//275 123//275
f 148//276 123//276 65//276
f 148//277 65//277 147//277
f 148//278 125//278 112//278
f 148//279 112//279 114//279
f 148//280 114//280 116//280
f 148//281 130//281 128//281
f 148//282 128//282 125//282
f 132//283 130//283 148//283
f 142//284 136//284 134//284
f 145//285 132//285 148//285
f 138//286 136//286 142//286
f 140//287 138//287 142//287
f 144//288 134//288 132//288
f 144//289 132//289 145//289
f 144//290 142//290 134//290
f 126//291 147//291 127//291
f 147//292 131//292 146//292
f 126//293 129//293 147//293
f 147//294 129//294 131//294
f 146//295 133//295 143//295
f 131//296 133//296 146//296
f 133//297 141//297 143//297
f 133//298 135//298 141//298
f 141//299 137//299 139//299
f 135//300 137//300 141//300
