# Created by FreeCAD <http://www.freecad.org>
v 199.500000 115.000000 30.000000
v 199.500000 115.000000 15.000000
v 199.305542 113.087662 30.000000
v 199.305542 113.087662 15.000000
v 198.730103 111.253616 15.000000
v 198.730103 111.253616 30.000000
v 197.797256 109.572952 15.000000
v 197.797256 109.572952 30.000000
v 196.545181 108.114471 30.000000
v 196.545181 108.114471 15.000000
v 195.025162 106.937881 15.000000
v 195.025162 106.937881 30.000000
v 193.299393 106.091354 15.000000
v 193.299393 106.091354 30.000000
v 191.438568 105.609550 15.000000
v 191.438568 105.609550 30.000000
v 189.518829 105.512192 15.000000
v 189.518829 105.512192 30.000000
v 187.618805 105.803268 30.000000
v 187.618805 105.803268 15.000000
v 185.816254 106.470856 15.000000
v 185.816254 106.470856 30.000000
v 184.184998 107.487633 30.000000
v 184.184998 107.487633 15.000000
v 182.791794 108.811958 30.000000
v 182.791794 108.811958 15.000000
v 181.693710 110.389633 15.000000
v 181.693710 110.389633 30.000000
v 180.935684 112.156052 15.000000
v 180.935684 112.156052 30.000000
v 180.548737 114.038902 15.000000
v 180.548737 114.038902 30.000000
v 180.548737 115.961098 15.000000
v 180.548737 115.961098 30.000000
v 180.935684 117.843948 15.000000
v 180.935684 117.843948 30.000000
v 181.693710 119.610367 15.000000
v 181.693710 119.610367 30.000000
v 182.791794 121.188042 15.000000
v 182.791794 121.188042 30.000000
v 184.184998 122.512367 15.000000
v 184.184998 122.512367 30.000000
v 185.816254 123.529144 15.000000
v 185.816254 123.529144 30.000000
v 187.618805 124.196732 15.000000
v 187.618805 124.196732 30.000000
v 189.518829 124.487808 15.000000
v 189.518829 124.487808 30.000000
v 191.438568 124.390450 15.000000
v 191.438568 124.390450 30.000000
v 193.299393 123.908646 15.000000
v 193.299393 123.908646 30.000000
v 195.025162 123.062119 15.000000
v 195.025162 123.062119 30.000000
v 196.545181 121.885529 30.000000
v 196.545181 121.885529 15.000000
v 197.797256 120.427048 30.000000
v 197.797256 120.427048 15.000000
v 198.730103 118.746384 15.000000
v 198.730103 118.746384 30.000000
v 199.305542 116.912338 30.000000
v 199.305542 116.912338 15.000000
v 49.500000 115.000000 30.000000
v 49.500000 115.000000 15.000000
v 49.305534 113.087662 30.000000
v 49.305534 113.087662 15.000000
v 48.730099 111.253616 15.000000
v 48.730099 111.253616 30.000000
v 47.797253 109.572952 15.000000
v 47.797253 109.572952 30.000000
v 46.545185 108.114471 30.000000
v 46.545185 108.114471 15.000000
v 45.025158 106.937881 15.000000
v 45.025158 106.937881 30.000000
v 43.299400 106.091354 15.000000
v 43.299400 106.091354 30.000000
v 41.438564 105.609550 15.000000
v 41.438564 105.609550 30.000000
v 39.518833 105.512192 15.000000
v 39.518833 105.512192 30.000000
v 37.618801 105.803268 30.000000
v 37.618801 105.803268 15.000000
v 35.816254 106.470856 15.000000
v 35.816254 106.470856 30.000000
v 34.184994 107.487633 30.000000
v 34.184994 107.487633 15.000000
v 32.791798 108.811958 30.000000
v 32.791798 108.811958 15.000000
v 31.693707 110.389633 15.000000
v 31.693707 110.389633 30.000000
v 30.935677 112.156052 15.000000
v 30.935677 112.156052 30.000000
v 30.548742 114.038902 15.000000
v 30.548742 114.038902 30.000000
v 30.548742 115.961098 15.000000
v 30.548742 115.961098 30.000000
v 30.935677 117.843948 15.000000
v 30.935677 117.843948 30.000000
v 31.693707 119.610367 15.000000
v 31.693707 119.610367 30.000000
v 32.791798 121.188042 15.000000
v 32.791798 121.188042 30.000000
v 34.184994 122.512367 15.000000
v 34.184994 122.512367 30.000000
v 35.816254 123.529144 15.000000
v 35.816254 123.529144 30.000000
v 37.618801 124.196732 15.000000
v 37.618801 124.196732 30.000000
v 39.518833 124.487808 15.000000
v 39.518833 124.487808 30.000000
v 41.438564 124.390450 15.000000
v 41.438564 124.390450 30.000000
v 43.299400 123.908646 15.000000
v 43.299400 123.908646 30.000000
v 45.025158 123.062119 15.000000
v 45.025158 123.062119 30.000000
v 46.545185 121.885529 30.000000
v 46.545185 121.885529 15.000000
v 47.797253 120.427048 30.000000
v 47.797253 120.427048 15.000000
v 48.730099 118.746384 15.000000
v 48.730099 118.746384 30.000000
v 49.305534 116.912338 30.000000
v 49.305534 116.912338 15.000000
v 132.000000 167.000000 5.000000
v 132.000000 132.000000 30.000000
v 132.000000 167.000000 50.000000
v 132.000000 132.000000 50.000000
v 132.000000 98.000000 30.000000
v 132.000000 63.000000 50.000000
v 132.000000 98.000000 50.000000
v 132.000000 63.000000 5.000000
v 98.000000 167.000000 5.000000
v 98.000000 167.000000 50.000000
v 98.000000 63.000000 5.000000
v 98.000000 98.000000 30.000000
v 98.000000 63.000000 50.000000
v 98.000000 98.000000 50.000000
v 98.000000 132.000000 30.000000
v 98.000000 132.000000 50.000000
v 23.000000 132.000000 30.000000
v 23.000000 132.000000 50.000000
v 23.000000 98.000000 30.000000
v 207.000000 98.000000 30.000000
v 207.000000 132.000000 30.000000
v 23.000000 98.000000 50.000000
v 207.000000 98.000000 50.000000
v 207.000000 132.000000 50.000000
v 0.000000 230.000000 50.000000
v 230.000000 230.000000 0.000000
v 0.000000 230.000000 0.000000
v 230.000000 230.000000 50.000000
v 230.000000 0.000000 0.000000
v 230.000000 0.000000 50.000000
v 0.000000 0.000000 0.000000
v 0.000000 0.000000 50.000000
vn -0.994870 0.101164 0.000000
vn -0.994870 0.101164 0.000000
vn -0.954139 0.299365 0.000000
vn -0.954139 0.299365 0.000000
vn -0.874346 0.485303 0.000000
vn -0.758755 0.651376 0.000000
vn -0.874346 0.485303 0.000000
vn -0.758755 0.651376 0.000000
vn -0.612108 0.790774 0.000000
vn -0.612108 0.790774 0.000000
vn -0.440393 0.897805 0.000000
vn -0.440393 0.897805 0.000000
vn -0.250654 0.968077 0.000000
vn -0.250654 0.968077 0.000000
vn -0.050649 0.998717 0.000000
vn 0.151430 0.988468 0.000000
vn -0.050649 0.998717 0.000000
vn 0.151430 0.988468 0.000000
vn 0.347303 0.937753 -0.000000
vn 0.347303 0.937753 0.000000
vn 0.528967 0.848643 0.000000
vn 0.528967 0.848643 0.000000
vn 0.688963 0.724796 0.000000
vn 0.688963 0.724796 0.000000
vn 0.820766 0.571265 -0.000000
vn 0.820766 0.571265 0.000000
vn 0.918959 0.394354 -0.000000
vn 0.918959 0.394354 0.000000
vn 0.979529 0.201304 -0.000000
vn 0.979529 0.201304 0.000000
vn 1.000000 0.000000 0.000000
vn 1.000000 -0.000000 0.000000
vn 0.979529 -0.201304 0.000000
vn 0.979529 -0.201304 0.000000
vn 0.918959 -0.394354 0.000000
vn 0.918959 -0.394354 0.000000
vn 0.820766 -0.571265 0.000000
vn 0.820766 -0.571265 0.000000
vn 0.688963 -0.724796 0.000000
vn 0.688963 -0.724796 0.000000
vn 0.528967 -0.848643 0.000000
vn 0.528967 -0.848643 0.000000
vn 0.347303 -0.937753 0.000000
vn 0.347303 -0.937753 0.000000
vn 0.151430 -0.988468 0.000000
vn 0.151430 -0.988468 0.000000
vn -0.050649 -0.998717 0.000000
vn -0.050649 -0.998717 0.000000
vn -0.250654 -0.968077 0.000000
vn -0.250654 -0.968077 0.000000
vn -0.440393 -0.897805 0.000000
vn -0.612108 -0.790774 -0.000000
vn -0.440393 -0.897805 0.000000
vn -0.612108 -0.790774 0.000000
vn -0.758755 -0.651376 -0.000000
vn -0.758755 -0.651376 0.000000
vn -0.874346 -0.485303 0.000000
vn -0.954139 -0.299365 -0.000000
vn -0.874346 -0.485303 0.000000
vn -0.954139 -0.299365 0.000000
vn -0.994870 -0.101164 0.000000
vn -0.994870 -0.101164 0.000000
vn 0.000000 0.000000 1.000000
vn 0.000000 -0.000000 1.000000
vn 0.000000 0.000000 1.000000
vn 0.000000 0.000000 1.000000
vn -0.000000 0.000000 1.000000
vn 0.000000 0.000000 1.000000
vn 0.000000 0.000000 1.000000
vn 0.000000 0.000000 1.000000
vn 0.000000 -0.000000 1.000000
vn 0.000000 0.000000 1.000000
vn 0.000000 0.000000 1.000000
vn 0.000000 0.000000 1.000000
vn 0.000000 0.000000 1.000000
vn 0.000000 0.000000 1.000000
vn 0.000000 0.000000 1.000000
vn 0.000000 0.000000 1.000000
vn 0.000000 0.000000 1.000000
vn 0.000000 -0.000000 1.000000
vn 0.000000 0.000000 1.000000
vn 0.000000 0.000000 1.000000
vn 0.000000 0.000000 1.000000
vn -0.000000 0.000000 1.000000
vn 0.000000 0.000000 1.000000
vn 0.000000 0.000000 1.000000
vn 0.000000 0.000000 1.000000
vn 0.000000 0.000000 1.000000
vn 0.000000 0.000000 1.000000
vn -0.000000 -0.000000 1.000000
vn 0.000000 0.000000 1.000000
vn -0.994869 0.101168 0.000000
vn -0.994869 0.101168 0.000000
vn -0.954139 0.299363 0.000000
vn -0.954139 0.299363 0.000000
vn -0.874346 0.485303 0.000000
vn -0.758757 0.651373 0.000000
vn -0.874346 0.485303 0.000000
vn -0.758757 0.651373 0.000000
vn -0.612106 0.790775 0.000000
vn -0.612106 0.790775 0.000000
vn -0.440395 0.897804 0.000000
vn -0.440395 0.897804 0.000000
vn -0.250653 0.968077 0.000000
vn -0.250653 0.968077 0.000000
vn -0.050650 0.998717 0.000000
vn 0.151429 0.988468 0.000000
vn -0.050650 0.998717 0.000000
vn 0.151429 0.988468 0.000000
vn 0.347304 0.937753 -0.000000
vn 0.347304 0.937753 0.000000
vn 0.528966 0.848643 0.000000
vn 0.528966 0.848643 0.000000
vn 0.688965 0.724794 0.000000
vn 0.688965 0.724794 0.000000
vn 0.820764 0.571267 -0.000000
vn 0.820764 0.571267 0.000000
vn 0.918958 0.394356 -0.000000
vn 0.918958 0.394356 0.000000
vn 0.979530 0.201298 -0.000000
vn 0.979530 0.201298 0.000000
vn 1.000000 0.000000 0.000000
vn 1.000000 -0.000000 0.000000
vn 0.979530 -0.201298 0.000000
vn 0.979530 -0.201298 0.000000
vn 0.918958 -0.394356 0.000000
vn 0.918958 -0.394356 0.000000
vn 0.820764 -0.571267 0.000000
vn 0.820764 -0.571267 0.000000
vn 0.688965 -0.724794 0.000000
vn 0.688965 -0.724794 0.000000
vn 0.528966 -0.848643 0.000000
vn 0.528966 -0.848643 0.000000
vn 0.347304 -0.937753 0.000000
vn 0.347304 -0.937753 0.000000
vn 0.151429 -0.988468 0.000000
vn 0.151429 -0.988468 0.000000
vn -0.050650 -0.998717 0.000000
vn -0.050650 -0.998717 0.000000
vn -0.250653 -0.968077 0.000000
vn -0.250653 -0.968077 0.000000
vn -0.440395 -0.897804 0.000000
vn -0.612106 -0.790775 -0.000000
vn -0.440395 -0.897804 0.000000
vn -0.612106 -0.790775 0.000000
vn -0.758757 -0.651373 -0.000000
vn -0.758757 -0.651373 0.000000
vn -0.874346 -0.485303 0.000000
vn -0.954139 -0.299363 -0.000000
vn -0.874346 -0.485303 0.000000
vn -0.954139 -0.299363 0.000000
vn -0.994869 -0.101168 0.000000
vn -0.994869 -0.101168 0.000000
vn 0.000000 0.000000 1.000000
vn 0.000000 0.000000 1.000000
vn 0.000000 0.000000 1.000000
vn 0.000000 0.000000 1.000000
vn 0.000000 0.000000 1.000000
vn 0.000000 -0.000000 1.000000
vn 0.000000 0.000000 1.000000
vn 0.000000 0.000000 1.000000
vn 0.000000 0.000000 1.000000
vn 0.000000 -0.000000 1.000000
vn 0.000000 -0.000000 1.000000
vn 0.000000 0.000000 1.000000
vn 0.000000 0.000000 1.000000
vn 0.000000 0.000000 1.000000
vn 0.000000 -0.000000 1.000000
vn 0.000000 0.000000 1.000000
vn 0.000000 0.000000 1.000000
vn 0.000000 0.000000 1.000000
vn 0.000000 0.000000 1.000000
vn -0.000000 0.000000 1.000000
vn 0.000000 0.000000 1.000000
vn 0.000000 0.000000 1.000000
vn 0.000000 0.000000 1.000000
vn 0.000000 0.000000 1.000000
vn 0.000000 0.000000 1.000000
vn 0.000000 -0.000000 1.000000
vn -0.000000 0.000000 1.000000
vn 0.000000 0.000000 1.000000
vn 0.000000 0.000000 1.000000
vn -1.000000 0.000000 0.000000
vn -1.000000 -0.000000 0.000000
vn -1.000000 0.000000 0.000000
vn -1.000000 -0.000000 0.000000
vn -1.000000 0.000000 0.000000
vn -1.000000 -0.000000 0.000000
vn 0.000000 -1.000000 0.000000
vn 0.000000 -1.000000 0.000000
vn 1.000000 0.000000 0.000000
vn 1.000000 -0.000000 0.000000
vn 1.000000 0.000000 0.000000
vn 1.000000 0.000000 0.000000
vn 1.000000 -0.000000 0.000000
vn 1.000000 0.000000 0.000000
vn 0.000000 1.000000 -0.000000
vn 0.000000 1.000000 0.000000
vn 0.000000 0.000000 1.000000
vn 0.000000 0.000000 1.000000
vn 0.000000 -1.000000 0.000000
vn 0.000000 -1.000000 0.000000
vn 0.000000 0.000000 1.000000
vn 0.000000 0.000000 1.000000
vn 0.000000 0.000000 1.000000
vn 0.000000 0.000000 1.000000
vn 0.000000 0.000000 1.000000
vn 0.000000 0.000000 1.000000
vn 0.000000 0.000000 1.000000
vn 0.000000 0.000000 1.000000
vn 0.000000 0.000000 1.000000
vn 0.000000 0.000000 1.000000
vn 0.000000 0.000000 1.000000
vn -0.000000 0.000000 1.000000
vn 0.000000 0.000000 1.000000
vn 0.000000 0.000000 1.000000
vn 0.000000 0.000000 1.000000
vn 0.000000 0.000000 1.000000
vn 0.000000 0.000000 1.000000
vn 0.000000 0.000000 1.000000
vn 0.000000 0.000000 1.000000
vn 0.000000 0.000000 1.000000
vn 0.000000 0.000000 1.000000
vn 0.000000 0.000000 1.000000
vn 0.000000 -0.000000 1.000000
vn 0.000000 0.000000 1.000000
vn 0.000000 0.000000 1.000000
vn 0.000000 0.000000 1.000000
vn 0.000000 0.000000 1.000000
vn 0.000000 0.000000 1.000000
vn 0.000000 0.000000 1.000000
vn 0.000000 0.000000 1.000000
vn 0.000000 0.000000 1.000000
vn 0.000000 0.000000 1.000000
vn 0.000000 0.000000 1.000000
vn 0.000000 0.000000 1.000000
vn 0.000000 0.000000 1.000000
vn 0.000000 0.000000 1.000000
vn 0.000000 0.000000 1.000000
vn 0.000000 0.000000 1.000000
vn 0.000000 0.000000 1.000000
vn 0.000000 0.000000 1.000000
vn 0.000000 0.000000 1.000000
vn 0.000000 0.000000 1.000000
vn 0.000000 0.000000 1.000000
vn 0.000000 0.000000 1.000000
vn 0.000000 -0.000000 1.000000
vn 0.000000 -0.000000 1.000000
vn 0.000000 -0.000000 1.000000
vn 0.000000 -0.000000 1.000000
vn 0.000000 0.000000 1.000000
vn 0.000000 0.000000 1.000000
vn 0.000000 0.000000 1.000000
vn 0.000000 0.000000 1.000000
vn 0.000000 0.000000 1.000000
vn 0.000000 0.000000 1.000000
vn 0.000000 0.000000 1.000000
vn 0.000000 0.000000 1.000000
vn 0.000000 0.000000 1.000000
vn 0.000000 0.000000 1.000000
vn 0.000000 0.000000 1.000000
vn 0.000000 0.000000 1.000000
vn 0.000000 0.000000 1.000000
vn 0.000000 0.000000 1.000000
vn 0.000000 0.000000 1.000000
vn 0.000000 0.000000 1.000000
vn 0.000000 0.000000 1.000000
vn 0.000000 0.000000 1.000000
vn 0.000000 0.000000 1.000000
vn 0.000000 0.000000 1.000000
vn 0.000000 0.000000 1.000000
vn 0.000000 0.000000 1.000000
vn 0.000000 1.000000 0.000000
vn 0.000000 1.000000 -0.000000
vn 0.000000 1.000000 -0.000000
vn 0.000000 1.000000 0.000000
vn -1.000000 0.000000 0.000000
vn -1.000000 -0.000000 0.000000
vn 0.000000 -1.000000 0.000000
vn 0.000000 -1.000000 0.000000
vn 1.000000 0.000000 0.000000
vn 1.000000 -0.000000 0.000000
vn 0.000000 1.000000 0.000000
vn -0.000000 1.000000 0.000000
vn 1.000000 0.000000 0.000000
vn 1.000000 0.000000 0.000000
vn 0.000000 -1.000000 -0.000000
vn -0.000000 -1.000000 0.000000
vn -1.000000 0.000000 0.000000
vn -1.000000 0.000000 0.000000
vn 0.000000 0.000000 1.000000
vn 0.000000 0.000000 1.000000
vn 0.000000 0.000000 1.000000
vn 0.000000 0.000000 1.000000
vn 0.000000 0.000000 1.000000
vn 0.000000 0.000000 1.000000
vn 0.000000 0.000000 1.000000
vn 0.000000 0.000000 1.000000
vn 0.000000 0.000000 1.000000
vn 0.000000 0.000000 1.000000
vn 0.000000 0.000000 1.000000
vn 0.000000 0.000000 1.000000
vn 0.000000 0.000000 1.000000
vn 0.000000 0.000000 1.000000
vn 0.000000 0.000000 1.000000
vn 0.000000 0.000000 1.000000
vn 0.000000 0.000000 -1.000000
vn 0.000000 0.000000 -1.000000
f 1//1 2//1 3//1
f 2//2 4//2 3//2
f 3//3 5//3 6//3
f 4//4 5//4 3//4
f 6//5 7//5 8//5
f 8//6 7//6 9//6
f 5//7 7//7 6//7
f 7//8 10//8 9//8
f 9//9 11//9 12//9
f 10//10 11//10 9//10
f 12//11 13//11 14//11
f 11//12 13//12 12//12
f 14//13 15//13 16//13
f 13//14 15//14 14//14
f 16//15 17//15 18//15
f 18//16 17//16 19//16
f 15//17 17//17 16//17
f 17//18 20//18 19//18
f 20//19 21//19 19//19
f 19//20 21//20 22//20
f 22//21 21//21 23//21
f 21//22 24//22 23//22
f 23//23 24//23 25//23
f 24//24 26//24 25//24
f 26//25 27//25 25//25
f 25//26 27//26 28//26
f 27//27 29//27 28//27
f 28//28 29//28 30//28
f 29//29 31//29 30//29
f 30//30 31//30 32//30
f 31//31 33//31 32//31
f 32//32 33//32 34//32
f 33//33 35//33 34//33
f 34//34 35//34 36//34
f 35//35 37//35 36//35
f 36//36 37//36 38//36
f 37//37 39//37 38//37
f 38//38 39//38 40//38
f 39//39 41//39 40//39
f 40//40 41//40 42//40
f 41//41 43//41 42//41
f 42//42 43//42 44//42
f 43//43 45//43 44//43
f 44//44 45//44 46//44
f 46//45 47//45 48//45
f 45//46 47//46 46//46
f 48//47 49//47 50//47
f 47//48 49//48 48//48
f 50//49 51//49 52//49
f 49//50 51//50 50//50
f 52//51 53//51 54//51
f 54//52 53//52 55//52
f 51//53 53//53 52//53
f 53//54 56//54 55//54
f 55//55 56//55 57//55
f 56//56 58//56 57//56
f 57//57 59//57 60//57
f 60//58 59//58 61//58
f 58//59 59//59 57//59
f 59//60 62//60 61//60
f 61//61 2//61 1//61
f 62//62 2//62 61//62
f 4//63 59//63 58//63
f 4//64 62//64 59//64
f 4//65 2//65 62//65
f 45//66 49//66 47//66
f 45//67 51//67 49//67
f 5//68 53//68 51//68
f 5//69 56//69 53//69
f 5//70 58//70 56//70
f 5//71 4//71 58//71
f 39//72 43//72 41//72
f 37//73 43//73 39//73
f 13//74 7//74 5//74
f 13//75 10//75 7//75
f 13//76 11//76 10//76
f 13//77 5//77 51//77
f 17//78 15//78 13//78
f 20//79 37//79 35//79
f 20//80 45//80 43//80
f 20//81 51//81 45//81
f 20//82 13//82 51//82
f 20//83 43//83 37//83
f 20//84 17//84 13//84
f 27//85 31//85 29//85
f 27//86 33//86 31//86
f 26//87 21//87 20//87
f 26//88 24//88 21//88
f 26//89 35//89 33//89
f 26//90 20//90 35//90
f 26//91 33//91 27//91
f 63//92 64//92 65//92
f 64//93 66//93 65//93
f 65//94 67//94 68//94
f 66//95 67//95 65//95
f 68//96 69//96 70//96
f 70//97 69//97 71//97
f 67//98 69//98 68//98
f 69//99 72//99 71//99
f 71//100 73//100 74//100
f 72//101 73//101 71//101
f 74//102 75//102 76//102
f 73//103 75//103 74//103
f 76//104 77//104 78//104
f 75//105 77//105 76//105
f 78//106 79//106 80//106
f 80//107 79//107 81//107
f 77//108 79//108 78//108
f 79//109 82//109 81//109
f 82//110 83//110 81//110
f 81//111 83//111 84//111
f 84//112 83//112 85//112
f 83//113 86//113 85//113
f 85//114 86//114 87//114
f 86//115 88//115 87//115
f 88//116 89//116 87//116
f 87//117 89//117 90//117
f 89//118 91//118 90//118
f 90//119 91//119 92//119
f 91//120 93//120 92//120
f 92//121 93//121 94//121
f 93//122 95//122 94//122
f 94//123 95//123 96//123
f 95//124 97//124 96//124
f 96//125 97//125 98//125
f 97//126 99//126 98//126
f 98//127 99//127 100//127
f 99//128 101//128 100//128
f 100//129 101//129 102//129
f 101//130 103//130 102//130
f 102//131 103//131 104//131
f 103//132 105//132 104//132
f 104//133 105//133 106//133
f 105//134 107//134 106//134
f 106//135 107//135 108//135
f 108//136 109//136 110//136
f 107//137 109//137 108//137
f 110//138 111//138 112//138
f 109//139 111//139 110//139
f 112//140 113//140 114//140
f 111//141 113//141 112//141
f 114//142 115//142 116//142
f 116//143 115//143 117//143
f 113//144 115//144 114//144
f 115//145 118//145 117//145
f 117//146 118//146 119//146
f 118//147 120//147 119//147
f 119//148 121//148 122//148
f 122//149 121//149 123//149
f 120//150 121//150 119//150
f 121//151 124//151 123//151
f 123//152 64//152 63//152
f 124//153 64//153 123//153
f 113//154 118//154 115//154
f 124//155 121//155 120//155
f 109//156 113//156 111//156
f 66//157 120//157 118//157
f 66//158 64//158 124//158
f 66//159 124//159 120//159
f 66//160 118//160 113//160
f 67//161 109//161 107//161
f 67//162 113//162 109//162
f 67//163 66//163 113//163
f 69//164 67//164 107//164
f 103//165 107//165 105//165
f 75//166 72//166 69//166
f 75//167 73//167 72//167
f 75//168 69//168 107//168
f 97//169 101//169 99//169
f 97//170 103//170 101//170
f 79//171 77//171 75//171
f 82//172 75//172 107//172
f 82//173 79//173 75//173
f 91//174 95//174 93//174
f 89//175 95//175 91//175
f 86//176 83//176 82//176
f 88//177 97//177 95//177
f 88//178 107//178 103//178
f 88//179 103//179 97//179
f 88//180 82//180 107//180
f 88//181 95//181 89//181
f 88//182 86//182 82//182
f 125//183 126//183 127//183
f 127//184 126//184 128//184
f 129//185 130//185 131//185
f 126//186 132//186 129//186
f 125//187 132//187 126//187
f 129//188 132//188 130//188
f 133//189 125//189 134//189
f 134//190 125//190 127//190
f 135//191 136//191 137//191
f 137//192 136//192 138//192
f 135//193 139//193 136//193
f 139//194 134//194 140//194
f 139//195 133//195 134//195
f 135//196 133//196 139//196
f 132//197 135//197 130//197
f 130//198 135//198 137//198
f 125//199 133//199 132//199
f 132//200 133//200 135//200
f 141//201 139//201 142//201
f 142//202 139//202 140//202
f 136//203 70//203 71//203
f 71//204 74//204 136//204
f 136//205 68//205 70//205
f 74//206 76//206 136//206
f 136//207 65//207 68//207
f 76//208 78//208 136//208
f 139//209 63//209 136//209
f 136//210 63//210 65//210
f 139//211 123//211 63//211
f 139//212 122//212 123//212
f 139//213 119//213 122//213
f 80//214 143//214 78//214
f 81//215 143//215 80//215
f 84//216 143//216 81//216
f 85//217 143//217 84//217
f 78//218 143//218 136//218
f 139//219 117//219 119//219
f 85//220 87//220 143//220
f 139//221 116//221 117//221
f 87//222 90//222 143//222
f 90//223 92//223 143//223
f 92//224 94//224 143//224
f 94//225 96//225 143//225
f 98//226 141//226 96//226
f 100//227 141//227 98//227
f 102//228 141//228 100//228
f 104//229 141//229 102//229
f 106//230 141//230 104//230
f 108//231 141//231 106//231
f 110//232 141//232 108//232
f 112//233 141//233 110//233
f 96//234 141//234 143//234
f 139//235 141//235 112//235
f 139//236 112//236 114//236
f 139//237 114//237 116//237
f 144//238 8//238 9//238
f 9//239 12//239 144//239
f 144//240 6//240 8//240
f 12//241 14//241 144//241
f 144//242 3//242 6//242
f 14//243 16//243 144//243
f 144//244 1//244 3//244
f 16//245 18//245 144//245
f 18//246 19//246 144//246
f 60//247 145//247 57//247
f 61//248 145//248 60//248
f 1//249 145//249 61//249
f 144//250 145//250 1//250
f 145//251 55//251 57//251
f 145//252 54//252 55//252
f 145//253 52//253 54//253
f 145//254 50//254 52//254
f 145//255 48//255 50//255
f 145//256 46//256 48//256
f 22//257 129//257 19//257
f 23//258 129//258 22//258
f 25//259 129//259 23//259
f 28//260 129//260 25//260
f 30//261 129//261 28//261
f 32//262 129//262 30//262
f 19//263 129//263 144//263
f 34//264 126//264 32//264
f 36//265 126//265 34//265
f 38//266 126//266 36//266
f 40//267 126//267 38//267
f 42//268 126//268 40//268
f 44//269 126//269 42//269
f 32//270 126//270 129//270
f 145//271 126//271 46//271
f 46//272 126//272 44//272
f 138//273 143//273 146//273
f 136//274 143//274 138//274
f 144//275 129//275 147//275
f 147//276 129//276 131//276
f 145//277 144//277 148//277
f 148//278 144//278 147//278
f 128//279 145//279 148//279
f 126//280 145//280 128//280
f 143//281 141//281 146//281
f 146//282 141//282 142//282
f 149//283 150//283 151//283
f 149//284 152//284 150//284
f 152//285 153//285 150//285
f 152//286 154//286 153//286
f 154//287 155//287 153//287
f 154//288 156//288 155//288
f 156//289 151//289 155//289
f 156//290 149//290 151//290
f 137//291 146//291 156//291
f 138//292 146//292 137//292
f 149//293 146//293 142//293
f 149//294 156//294 146//294
f 154//295 130//295 137//295
f 154//296 137//296 156//296
f 134//297 142//297 140//297
f 134//298 149//298 142//298
f 147//299 131//299 130//299
f 147//300 130//300 154//300
f 148//301 127//301 128//301
f 152//302 148//302 147//302
f 152//303 134//303 127//303
f 152//304 149//304 134//304
f 152//305 127//305 148//305
f 152//306 147//306 154//306
f 155//307 151//307 153//307
f 151//308 150//308 153//308
