<svg width="856" height="520" xmlns="http://www.w3.org/2000/svg">
<rect width="100%" height="100%" fill="white"/>
<text x="428" y="30" font-family="Arial" font-size="20" text-anchor="middle" font-weight="bold">Average Solving Time (Successful Trials)</text>
<line x1="80" y1="460.0" x2="836" y2="460.0" stroke="#ddd" stroke-width="1"/>
<text x="70" y="464.0" font-family="Arial" font-size="12" text-anchor="end">0</text>
<line x1="80" y1="398.3" x2="836" y2="398.3" stroke="#ddd" stroke-width="1"/>
<text x="70" y="402.3" font-family="Arial" font-size="12" text-anchor="end">50</text>
<line x1="80" y1="336.7" x2="836" y2="336.7" stroke="#ddd" stroke-width="1"/>
<text x="70" y="340.7" font-family="Arial" font-size="12" text-anchor="end">100</text>
<line x1="80" y1="275.0" x2="836" y2="275.0" stroke="#ddd" stroke-width="1"/>
<text x="70" y="279.0" font-family="Arial" font-size="12" text-anchor="end">150</text>
<line x1="80" y1="213.3" x2="836" y2="213.3" stroke="#ddd" stroke-width="1"/>
<text x="70" y="217.3" font-family="Arial" font-size="12" text-anchor="end">200</text>
<line x1="80" y1="151.7" x2="836" y2="151.7" stroke="#ddd" stroke-width="1"/>
<text x="70" y="155.7" font-family="Arial" font-size="12" text-anchor="end">250</text>
<line x1="80" y1="90.0" x2="836" y2="90.0" stroke="#ddd" stroke-width="1"/>
<text x="70" y="94.0" font-family="Arial" font-size="12" text-anchor="end">300</text>
<line x1="80" y1="460" x2="80" y2="90" stroke="black" stroke-width="2"/>
<line x1="80" y1="460" x2="836" y2="460" stroke="black" stroke-width="2"/>
<text x="24" y="275" font-family="Arial" font-size="14" text-anchor="middle" transform="rotate(-90, 24, 275)">Time (s)</text>
<text x="151" y="480" font-family="Arial" font-size="12" text-anchor="middle">4cubes</text>
<rect x="90.0" y="424.6" width="26" height="35.4" fill="#4CAF50"/>
<text x="103.0" y="420.6" font-family="Arial" font-size="9.5" text-anchor="middle">28.7</text>
<rect x="122.0" y="431.3" width="26" height="28.7" fill="#81C784"/>
<text x="135.0" y="427.3" font-family="Arial" font-size="9.5" text-anchor="middle">23.3</text>
<rect x="154.0" y="426.8" width="26" height="33.2" fill="#F44336"/>
<text x="167.0" y="422.8" font-family="Arial" font-size="9.5" text-anchor="middle">26.9</text>
<rect x="186.0" y="420.8" width="26" height="39.2" fill="#E57373"/>
<text x="199.0" y="416.8" font-family="Arial" font-size="9.5" text-anchor="middle">31.8</text>
<text x="307" y="480" font-family="Arial" font-size="12" text-anchor="middle">5cubes</text>
<rect x="246.0" y="421.5" width="26" height="38.5" fill="#4CAF50"/>
<text x="259.0" y="417.5" font-family="Arial" font-size="9.5" text-anchor="middle">31.2</text>
<rect x="278.0" y="417.9" width="26" height="42.1" fill="#81C784"/>
<text x="291.0" y="413.9" font-family="Arial" font-size="9.5" text-anchor="middle">34.1</text>
<rect x="310.0" y="413.1" width="26" height="46.9" fill="#F44336"/>
<text x="323.0" y="409.1" font-family="Arial" font-size="9.5" text-anchor="middle">38.1</text>
<rect x="342.0" y="381.5" width="26" height="78.5" fill="#E57373"/>
<text x="355.0" y="377.5" font-family="Arial" font-size="9.5" text-anchor="middle">63.7</text>
<text x="463" y="480" font-family="Arial" font-size="12" text-anchor="middle">6cubes</text>
<rect x="402.0" y="414.6" width="26" height="45.4" fill="#4CAF50"/>
<text x="415.0" y="410.6" font-family="Arial" font-size="9.5" text-anchor="middle">36.8</text>
<rect x="434.0" y="407.3" width="26" height="52.7" fill="#81C784"/>
<text x="447.0" y="403.3" font-family="Arial" font-size="9.5" text-anchor="middle">42.8</text>
<rect x="466.0" y="414.1" width="26" height="45.9" fill="#F44336"/>
<text x="479.0" y="410.1" font-family="Arial" font-size="9.5" text-anchor="middle">37.2</text>
<rect x="498.0" y="280.1" width="26" height="179.9" fill="#E57373"/>
<text x="511.0" y="276.1" font-family="Arial" font-size="9.5" text-anchor="middle">145.9</text>
<text x="619" y="480" font-family="Arial" font-size="12" text-anchor="middle">7cubes</text>
<rect x="558.0" y="409.6" width="26" height="50.4" fill="#4CAF50"/>
<text x="571.0" y="405.6" font-family="Arial" font-size="9.5" text-anchor="middle">40.9</text>
<rect x="590.0" y="388.8" width="26" height="71.2" fill="#81C784"/>
<text x="603.0" y="384.8" font-family="Arial" font-size="9.5" text-anchor="middle">57.7</text>
<rect x="622.0" y="374.9" width="26" height="85.1" fill="#F44336"/>
<text x="635.0" y="370.9" font-family="Arial" font-size="9.5" text-anchor="middle">69.0</text>
<rect x="654.0" y="95.2" width="26" height="364.8" fill="#E57373"/>
<text x="667.0" y="91.2" font-family="Arial" font-size="9.5" text-anchor="middle">295.8</text>
<text x="775" y="480" font-family="Arial" font-size="12" text-anchor="middle">8cubes</text>
<rect x="714.0" y="392.2" width="26" height="67.8" fill="#4CAF50"/>
<text x="727.0" y="388.2" font-family="Arial" font-size="9.5" text-anchor="middle">55.0</text>
<rect x="746.0" y="384.1" width="26" height="75.9" fill="#81C784"/>
<text x="759.0" y="380.1" font-family="Arial" font-size="9.5" text-anchor="middle">61.6</text>
<rect x="778.0" y="364.0" width="26" height="96.0" fill="#F44336"/>
<text x="791.0" y="360.0" font-family="Arial" font-size="9.5" text-anchor="middle">77.9</text>
<text x="823.0" y="454.0" font-family="Arial" font-size="10" text-anchor="middle" fill="#888">&#8211;</text>
<rect x="88" y="52" width="10" height="10" fill="#4CAF50"/>
<text x="102" y="61" font-family="Arial" font-size="10">Smart NR</text>
<rect x="180" y="52" width="10" height="10" fill="#81C784"/>
<text x="194" y="61" font-family="Arial" font-size="10">Smart R</text>
<rect x="272" y="52" width="10" height="10" fill="#F44336"/>
<text x="286" y="61" font-family="Arial" font-size="10">Global NR</text>
<rect x="364" y="52" width="10" height="10" fill="#E57373"/>
<text x="378" y="61" font-family="Arial" font-size="10">Global R</text>
</svg>