# https://github.com/mikedh/trimesh
v -0.00033069 0.00018761 -0.11626500
v -0.00033069 0.00018761 -0.00048974
v -0.00033069 0.00135245 -0.11626500
v 0.11384544 0.00018761 -0.11626500
v -0.00031928 0.00018761 -0.00013735
v -0.00033069 0.00126499 -0.00013735
v -0.00033069 0.00135245 -0.09586082
v 0.11384544 0.00135245 -0.11626500
v 0.11562587 0.00018761 -0.11562844
v 0.11570577 0.00018761 -0.00013735
v 0.01559051 0.00135245 -0.01541491
v 0.01344486 0.00135245 -0.01574456
v 0.01113942 0.00135245 -0.01804074
v 0.01079703 0.00135245 -0.02018915
v 0.11384544 0.00127285 -0.00013735
v 0.07537205 0.00135245 -0.01308463
v 0.07307803 0.00135245 -0.01311873
v 0.11562587 0.00135245 -0.11562844
v 0.11578567 0.00018761 -0.11519648
v 0.11626500 0.00018761 -0.01899559
v 0.11626500 0.00135245 -0.01955259
v 0.11562587 0.00044030 -0.00013735
v 0.11608240 0.00135245 -0.01725640
v 0.11571718 0.00135245 -0.01550585
v 0.11556882 0.00135245 -0.01515347
v 0.11384544 0.00135245 -0.01338018
v 0.11223620 0.00135245 -0.01315283
v 0.11154000 0.00135245 -0.01307326
v 0.07704978 0.00135245 -0.01307326
v 0.11626500 0.00135245 -0.11384378
v 0.11626500 0.00018761 -0.11384378
v 0.11616228 0.00135245 -0.01785887
f 1 2 6
f 1 6 7
f 1 7 3
f 1 3 8
f 1 8 4
f 1 4 9
f 1 9 19
f 1 19 31
f 1 31 20
f 1 20 10
f 1 10 5
f 1 5 2
f 2 5 6
f 3 7 14
f 3 14 13
f 3 13 12
f 3 12 11
f 3 11 17
f 3 17 16
f 3 16 29
f 3 29 28
f 3 28 27
f 3 27 26
f 3 26 25
f 3 25 24
f 3 24 23
f 3 23 32
f 3 32 21
f 3 21 30
f 3 30 18
f 3 18 8
f 4 8 18
f 4 18 9
f 5 10 22
f 5 22 15
f 5 15 6
f 6 11 12
f 6 12 13
f 6 13 14
f 6 14 7
f 6 15 16
f 6 16 17
f 6 17 11
f 9 18 19
f 10 20 21
f 10 21 22
f 15 22 23
f 15 23 24
f 15 24 25
f 15 25 26
f 15 26 27
f 15 27 28
f 15 28 29
f 15 29 16
f 18 30 19
f 19 30 31
f 20 31 30
f 20 30 21
f 21 32 22
f 22 32 23

