# https://github.com/mikedh/trimesh
v 0.07012280 0.01375485 0.09677126
v 0.07012280 0.00761119 0.09872139
v 0.07012280 0.01626415 0.09677126
v 0.07348804 0.00761543 0.09677126
v 0.07015442 0.00761035 0.09872139
v 0.07012280 0.00761035 0.11275209
v 0.07012280 0.01626415 0.11384928
v 0.11384835 0.01626415 0.09677126
v 0.07367776 0.00761035 0.09677126
v 0.07015442 0.00761035 0.11626310
v 0.07012280 0.00761882 0.11626310
v 0.07012280 0.01626076 0.11387027
v 0.11384835 0.01626415 0.11384928
v 0.11449881 0.01614470 0.09677126
v 0.11626500 0.00761035 0.09677126
v 0.11384835 0.00761035 0.11626310
v 0.07012280 0.01224943 0.11626310
v 0.07012280 0.01598205 0.11537962
v 0.11384835 0.01598205 0.11537962
v 0.11525317 0.01588801 0.11525369
v 0.11537965 0.01598205 0.11384928
v 0.11537965 0.01598205 0.09677126
v 0.11626500 0.01224943 0.09677126
v 0.11626500 0.00761035 0.11384928
v 0.11560099 0.00761035 0.11564296
v 0.11384835 0.01224943 0.11626310
v 0.07012280 0.01451814 0.11601695
v 0.07012280 0.01596256 0.11538916
v 0.11384835 0.01454949 0.11601313
v 0.11550613 0.01454949 0.11550556
v 0.11601204 0.01454949 0.11384928
v 0.11601204 0.01454949 0.09677126
v 0.11626500 0.01224943 0.11384928
v 0.11562809 0.00761035 0.11563149
v 0.11562809 0.01224943 0.11563149
v 0.07012280 0.01454949 0.11601313
f 1 2 6
f 1 6 11
f 1 11 17
f 1 17 27
f 1 27 36
f 1 36 28
f 1 28 18
f 1 18 12
f 1 12 7
f 1 7 3
f 1 3 8
f 1 8 14
f 1 14 22
f 1 22 32
f 1 32 23
f 1 23 15
f 1 15 9
f 1 9 4
f 1 4 2
f 2 4 9
f 2 9 5
f 2 5 6
f 3 7 13
f 3 13 8
f 5 9 15
f 5 15 24
f 5 24 34
f 5 34 25
f 5 25 16
f 5 16 10
f 5 10 6
f 6 10 11
f 7 12 13
f 8 13 14
f 10 16 26
f 10 26 17
f 10 17 11
f 12 18 19
f 12 19 13
f 13 19 20
f 13 20 21
f 13 21 14
f 14 21 22
f 15 23 33
f 15 33 24
f 16 25 26
f 17 26 27
f 18 28 19
f 19 29 20
f 19 28 29
f 20 30 31
f 20 31 21
f 20 29 30
f 21 31 32
f 21 32 22
f 23 32 31
f 23 31 33
f 24 33 35
f 24 35 34
f 25 34 35
f 25 35 26
f 26 35 30
f 26 30 29
f 26 29 27
f 27 29 36
f 28 36 29
f 30 35 33
f 30 33 31

