# https://github.com/mikedh/trimesh
v -0.06885437 0.01626416 -0.09224195
v -0.06885437 0.01424766 -0.09224195
v -0.06885437 0.01626416 -0.09660077
v -0.11384690 0.01626416 -0.09224195
v -0.06885437 0.01382291 -0.09660077
v -0.07373699 0.00764590 -0.09224195
v -0.11384690 0.01626416 -0.09660077
v -0.11537852 0.01598212 -0.09224195
v -0.07363952 0.00765012 -0.09660077
v -0.07373699 0.00763830 -0.09313855
v -0.09049200 0.00763830 -0.09224195
v -0.11537852 0.01598212 -0.09660077
v -0.11576375 0.01511573 -0.09224195
v -0.07370450 0.00763830 -0.09543788
v -0.07370450 0.00763830 -0.09544983
v -0.07479056 0.00763830 -0.09660077
v -0.11626500 0.00764337 -0.09224195
v -0.11626500 0.00763830 -0.09315007
v -0.11600973 0.01454996 -0.09660077
v -0.11600973 0.01454996 -0.09224195
v -0.11524856 0.00763830 -0.09660077
v -0.11626500 0.01224973 -0.09224195
v -0.11626500 0.00763830 -0.09546135
v -0.11626500 0.01224973 -0.09660077
v -0.11626500 0.00764421 -0.09660077
f 1 2 5
f 1 5 3
f 1 3 7
f 1 7 4
f 1 4 8
f 1 8 13
f 1 13 20
f 1 20 22
f 1 22 17
f 1 17 11
f 1 11 6
f 1 6 2
f 2 6 5
f 3 5 9
f 3 9 16
f 3 16 21
f 3 21 25
f 3 25 24
f 3 24 19
f 3 19 12
f 3 12 7
f 4 7 12
f 4 12 8
f 5 6 9
f 6 10 9
f 6 11 10
f 8 12 13
f 9 10 14
f 9 14 15
f 9 15 16
f 10 11 18
f 10 18 23
f 10 23 21
f 10 21 16
f 10 16 15
f 10 15 14
f 11 17 18
f 12 19 13
f 13 19 20
f 17 22 24
f 17 24 25
f 17 25 23
f 17 23 18
f 19 24 22
f 19 22 20
f 21 23 25

