# https://github.com/mikedh/trimesh
v 0.07014657 0.00047183 0.08845403
v 0.07014657 0.00126565 0.08845497
v 0.07015108 0.00126565 0.08845403
v 0.07015108 0.00046962 0.08845403
v 0.07014657 0.00046962 0.08897250
v 0.07014657 0.00322099 0.09810206
v 0.07069285 0.00399055 0.09810206
v 0.07085991 0.00422550 0.09810206
v 0.07367713 0.00421924 0.08845403
v 0.11626500 0.00046962 0.08845403
v 0.07014657 0.00046962 0.09810206
v 0.07367713 0.00422550 0.08855035
v 0.11626500 0.00422550 0.09810206
v 0.07715350 0.00422550 0.08845403
v 0.11626500 0.00422550 0.08845403
v 0.11626500 0.00046962 0.09810206
f 1 2 3
f 1 3 9
f 1 9 14
f 1 14 15
f 1 15 10
f 1 10 4
f 1 4 5
f 1 5 11
f 1 11 6
f 1 6 2
f 2 6 7
f 2 7 8
f 2 8 9
f 2 9 3
f 4 10 16
f 4 16 11
f 4 11 5
f 6 11 16
f 6 16 13
f 6 13 8
f 6 8 7
f 8 12 9
f 8 13 15
f 8 15 14
f 8 14 12
f 9 12 14
f 10 15 13
f 10 13 16

