# https://github.com/mikedh/trimesh
v -0.01043759 0.00128407 -0.02415453
v -0.01339457 0.00424960 -0.02415453
v -0.01044141 0.00128407 -0.02185003
v -0.01043759 0.00128407 -0.05851927
v -0.01342125 0.00424960 -0.02185003
v -0.01339457 0.00424960 -0.05754846
v -0.01051762 0.00128407 -0.01955025
v -0.01044522 0.00128407 -0.06081433
v -0.01362321 0.00424960 -0.02047865
v -0.01343649 0.00424960 -0.05927800
v -0.01265152 0.00128407 -0.01741542
v -0.01052143 0.00128407 -0.06308113
v -0.01435483 0.00424960 -0.01986600
v -0.01495308 0.00128407 -0.01512035
v -0.01362321 0.00424960 -0.05999433
v -0.01278489 0.00128407 -0.06315653
v -0.01725084 0.00424960 -0.06130445
v -0.01615341 0.00424960 -0.06109710
v -0.01495308 0.00424960 -0.06074836
v -0.01424051 0.00424960 -0.06037605
v -0.01495690 0.00424960 -0.01936646
v -0.01725084 0.00128407 -0.01504966
v -0.01725084 0.00424960 -0.01861715
v -0.01506359 0.00128407 -0.06317538
v -0.01955241 0.00424960 -0.06130916
v -0.01734610 0.00128407 -0.06318952
v -0.01955241 0.00128407 -0.01504495
v -0.01898845 0.00424960 -0.01861244
v -0.04144777 0.00424960 -0.06130916
v -0.04024745 0.00128407 -0.06318952
v -0.04241183 0.00128407 -0.01504495
v -0.04024745 0.00424960 -0.01861244
v -0.04254901 0.00424960 -0.06130445
v -0.04264428 0.00128407 -0.06318481
v -0.04471340 0.00128407 -0.01504966
v -0.04254901 0.00424960 -0.01861715
v -0.04484677 0.00424960 -0.06088031
v -0.04484677 0.00128407 -0.06317067
v -0.04715215 0.00128407 -0.06308584
v -0.04698067 0.00128407 -0.01512035
v -0.04368075 0.00424960 -0.01886221
v -0.04626048 0.00424960 -0.06013100
v -0.04928605 0.00128407 -0.06095100
v -0.04928224 0.00128407 -0.01741542
v -0.04484677 0.00424960 -0.01918267
v -0.04626048 0.00424960 -0.02028072
v -0.04655008 0.00424960 -0.05864651
v -0.04936226 0.00128407 -0.05864651
v -0.04647768 0.00424960 -0.02107245
v -0.04655008 0.00424960 -0.02185003
v -0.04935845 0.00128407 -0.01968221
v -0.04657294 0.00424960 -0.05634673
v -0.04936607 0.00128407 -0.05634673
v -0.04657294 0.00424960 -0.02295280
v -0.04936607 0.00128407 -0.02197728
f 1 2 3
f 1 3 7
f 1 7 11
f 1 11 14
f 1 14 22
f 1 22 27
f 1 27 31
f 1 31 35
f 1 35 40
f 1 40 44
f 1 44 51
f 1 51 55
f 1 55 53
f 1 53 48
f 1 48 43
f 1 43 39
f 1 39 38
f 1 38 34
f 1 34 30
f 1 30 26
f 1 26 24
f 1 24 16
f 1 16 12
f 1 12 8
f 1 8 4
f 1 4 6
f 1 6 2
f 2 5 3
f 2 6 10
f 2 10 15
f 2 15 20
f 2 20 19
f 2 19 18
f 2 18 17
f 2 17 25
f 2 25 29
f 2 29 33
f 2 33 37
f 2 37 42
f 2 42 47
f 2 47 52
f 2 52 54
f 2 54 50
f 2 50 49
f 2 49 46
f 2 46 45
f 2 45 41
f 2 41 36
f 2 36 32
f 2 32 28
f 2 28 23
f 2 23 21
f 2 21 13
f 2 13 9
f 2 9 5
f 3 5 7
f 4 8 6
f 5 9 7
f 6 8 10
f 7 9 11
f 8 12 10
f 9 13 14
f 9 14 11
f 10 12 15
f 12 16 17
f 12 17 18
f 12 18 19
f 12 19 20
f 12 20 15
f 13 21 14
f 14 21 23
f 14 23 22
f 16 24 17
f 17 24 26
f 17 26 25
f 22 23 28
f 22 28 27
f 25 26 30
f 25 30 29
f 27 28 32
f 27 32 31
f 29 30 34
f 29 34 33
f 31 32 36
f 31 36 35
f 33 34 38
f 33 38 39
f 33 39 37
f 35 36 40
f 36 41 40
f 37 39 42
f 39 43 42
f 40 41 45
f 40 45 46
f 40 46 44
f 42 43 47
f 43 48 47
f 44 46 49
f 44 49 50
f 44 50 51
f 47 48 52
f 48 53 52
f 50 54 51
f 51 54 55
f 52 53 55
f 52 55 54

