# https://github.com/mikedh/trimesh
v -0.07362616 0.00424993 -0.09658632
v -0.11626500 0.00424993 -0.09658632
v -0.07364285 0.00763830 -0.09658632
v -0.07368042 0.00424993 -0.01955081
v -0.11626500 0.00763830 -0.09658632
v -0.11626500 0.00424993 -0.01955081
v -0.07373884 0.00763830 -0.01954270
v -0.07388493 0.00424993 -0.01783819
v -0.11626500 0.00763830 -0.01955081
v -0.11609806 0.00424993 -0.01725379
v -0.07426891 0.00763830 -0.01725379
v -0.07402266 0.00424993 -0.01725379
v -0.11589771 0.00763830 -0.01725379
v -0.11558051 0.00424993 -0.01503793
v -0.07535408 0.00763830 -0.01592265
v -0.07506609 0.00424993 -0.01573597
v -0.07450681 0.00424993 -0.01642589
v -0.11526748 0.00763830 -0.01590642
v -0.11505045 0.00424993 -0.01367433
v -0.07705279 0.00763830 -0.01573597
v -0.07616379 0.00424993 -0.01555740
v -0.11503792 0.00424993 -0.01366621
v -0.11384841 0.00763830 -0.01571974
v -0.11493776 0.00424993 -0.01366621
v -0.07705279 0.00424993 -0.01546000
f 1 2 5
f 1 5 3
f 1 3 4
f 1 4 8
f 1 8 12
f 1 12 17
f 1 17 16
f 1 16 21
f 1 21 25
f 1 25 24
f 1 24 22
f 1 22 19
f 1 19 14
f 1 14 10
f 1 10 6
f 1 6 2
f 2 6 9
f 2 9 5
f 3 5 9
f 3 9 13
f 3 13 18
f 3 18 23
f 3 23 20
f 3 20 15
f 3 15 11
f 3 11 7
f 3 7 4
f 4 7 8
f 6 10 9
f 7 11 8
f 8 11 12
f 9 10 13
f 10 14 13
f 11 15 16
f 11 16 17
f 11 17 12
f 13 14 19
f 13 19 18
f 15 20 21
f 15 21 16
f 18 19 22
f 18 22 23
f 20 23 24
f 20 24 25
f 20 25 21
f 22 24 23

