# https://github.com/mikedh/trimesh
v -0.07369421 0.01224943 0.11626500
v -0.07369421 0.00761035 0.11626500
v -0.07369421 0.01454949 0.11600915
v -0.11384811 0.01224943 0.11626500
v -0.11384811 0.00761035 0.11626500
v -0.07369421 0.00761035 0.09560987
v -0.07369421 0.01598205 0.11537936
v -0.11384811 0.01454949 0.11600915
v -0.11550660 0.01454949 0.11549745
v -0.11563160 0.01224943 0.11562538
v -0.11563160 0.00761035 0.11562538
v -0.07369421 0.01214438 0.09429124
v -0.07373588 0.00761035 0.01955287
v -0.07369421 0.01626415 0.11384426
v -0.11384811 0.01598205 0.11537936
v -0.11525241 0.01588801 0.11525144
v -0.11601081 0.01454949 0.11384426
v -0.11626084 0.01224943 0.11384426
v -0.11626084 0.00761035 0.11384426
v -0.07369421 0.01448680 0.09546225
v -0.07373588 0.01224943 0.01955287
v -0.07426926 0.00761035 0.01725020
v -0.11384811 0.01626415 0.11384426
v -0.07369421 0.01626415 0.10234074
v -0.11537742 0.01598205 0.11384426
v -0.11601081 0.01454949 0.01955287
v -0.11626084 0.01224943 0.01955287
v -0.11626084 0.00761035 0.01955287
v -0.07369421 0.01547290 0.09683992
v -0.07426926 0.01224943 0.01725020
v -0.07406924 0.01454949 0.01955287
v -0.07369421 0.01625314 0.10004792
v -0.07369421 0.01600407 0.09780429
v -0.07533603 0.00761035 0.01594142
v -0.11384811 0.01626415 0.01955287
v -0.07705286 0.01626415 0.01955287
v -0.11537742 0.01598205 0.01955287
v -0.11523991 0.01587700 0.01725020
v -0.11568995 0.01454949 0.01725020
v -0.11589830 0.01224943 0.01725020
v -0.11625667 0.00761035 0.01951351
v -0.07535270 0.01224943 0.01592174
v -0.07551938 0.01454949 0.01598078
v -0.07460262 0.01454949 0.01725020
v -0.07541937 0.01587700 0.01725020
v -0.07515268 0.01598205 0.01955287
v -0.07535270 0.00761035 0.01592174
v -0.11384811 0.01605405 0.01725020
v -0.07705286 0.01605405 0.01725020
v -0.11506489 0.01574738 0.01605951
v -0.11518156 0.01454949 0.01598078
v -0.11589830 0.00761035 0.01725020
v -0.11526491 0.01224943 0.01592174
v -0.07705286 0.00761035 0.01573477
v -0.07705286 0.01224943 0.01574461
v -0.07705286 0.01454949 0.01585286
v -0.07575690 0.01574738 0.01605951
v -0.11384811 0.01577195 0.01603983
v -0.07705286 0.01577195 0.01603983
v -0.11384811 0.01454949 0.01585286
v -0.11384811 0.01224943 0.01574461
v -0.11526491 0.00761035 0.01592174
v -0.11384811 0.00761035 0.01573477
f 1 2 6
f 1 6 12
f 1 12 20
f 1 20 29
f 1 29 33
f 1 33 32
f 1 32 24
f 1 24 14
f 1 14 7
f 1 7 3
f 1 3 8
f 1 8 4
f 1 4 5
f 1 5 2
f 2 5 11
f 2 11 19
f 2 19 28
f 2 28 41
f 2 41 52
f 2 52 62
f 2 62 63
f 2 63 54
f 2 54 47
f 2 47 34
f 2 34 22
f 2 22 13
f 2 13 6
f 3 7 15
f 3 15 8
f 4 8 9
f 4 9 10
f 4 10 11
f 4 11 5
f 6 13 12
f 7 14 23
f 7 23 15
f 8 15 16
f 8 16 9
f 9 16 17
f 9 17 18
f 9 18 10
f 10 18 19
f 10 19 11
f 12 13 21
f 12 21 20
f 13 22 30
f 13 30 21
f 14 24 36
f 14 36 35
f 14 35 23
f 15 23 16
f 16 23 25
f 16 25 17
f 17 25 37
f 17 37 26
f 17 26 27
f 17 27 18
f 18 27 28
f 18 28 19
f 20 21 29
f 21 30 44
f 21 44 31
f 21 31 32
f 21 32 33
f 21 33 29
f 22 34 30
f 23 35 37
f 23 37 25
f 24 32 36
f 26 37 38
f 26 38 39
f 26 39 27
f 27 39 40
f 27 40 41
f 27 41 28
f 30 34 42
f 30 42 43
f 30 43 44
f 31 44 45
f 31 45 46
f 31 46 32
f 32 46 36
f 34 47 42
f 35 36 49
f 35 49 48
f 35 48 38
f 35 38 37
f 36 46 45
f 36 45 49
f 38 48 50
f 38 50 39
f 39 50 51
f 39 51 40
f 40 52 41
f 40 51 53
f 40 53 62
f 40 62 52
f 42 47 54
f 42 54 55
f 42 55 43
f 43 55 56
f 43 56 57
f 43 57 44
f 44 57 45
f 45 57 49
f 48 58 50
f 48 49 59
f 48 59 58
f 49 57 59
f 50 58 60
f 50 60 51
f 51 60 61
f 51 61 53
f 53 61 63
f 53 63 62
f 54 63 61
f 54 61 55
f 55 61 60
f 55 60 56
f 56 59 57
f 56 60 58
f 56 58 59

