# https://github.com/mikedh/trimesh
v -0.01156939 0.01381661 -0.05634974
v -0.01373622 0.00763830 -0.05864817
v -0.01158738 0.01381661 -0.05864817
v -0.01159818 0.01381661 -0.05404688
v -0.01373622 0.00763830 -0.02185114
v -0.01376861 0.00763830 -0.05985927
v -0.01202291 0.01381661 -0.06094660
v -0.01377221 0.01381661 -0.02185114
v -0.01377941 0.01366298 -0.02064005
v -0.01376861 0.01224950 -0.02060910
v -0.01376861 0.00763830 -0.02060910
v -0.01495281 0.00763830 -0.06059300
v -0.01282557 0.01381661 -0.06295331
v -0.01397377 0.01381661 -0.02052512
v -0.01484843 0.01381661 -0.01990631
v -0.01495281 0.01224950 -0.01962785
v -0.01495281 0.00763830 -0.01962785
v -0.01725281 0.00763830 -0.06126485
v -0.01495281 0.01381661 -0.06366936
v -0.01552871 0.01381661 -0.01964111
v -0.01496361 0.00763830 -0.01962343
v -0.01725281 0.01224950 -0.01873942
v -0.04254927 0.00763830 -0.06126485
v -0.01725281 0.01381661 -0.06389037
v -0.01725281 0.01381661 -0.01898252
v -0.01725281 0.00763830 -0.01873942
v -0.04254927 0.01224950 -0.01873942
v -0.04484927 0.01381661 -0.06374450
v -0.04481688 0.01381661 -0.06374892
v -0.04254927 0.01381661 -0.06389037
v -0.04484927 0.00763830 -0.06076096
v -0.04254927 0.01381661 -0.01898252
v -0.04256007 0.00763830 -0.01873942
v -0.04484927 0.01381661 -0.01959249
v -0.04484927 0.01224950 -0.01937591
v -0.04679654 0.01381661 -0.06309917
v -0.04693692 0.01381661 -0.06303729
v -0.04613065 0.00763830 -0.06002723
v -0.04484927 0.00763830 -0.01937591
v -0.04609466 0.01381661 -0.02045440
v -0.04613065 0.01224950 -0.02035716
v -0.04790515 0.01381661 -0.06107920
v -0.04626383 0.00763830 -0.05864817
v -0.04830828 0.01381661 -0.05896200
v -0.04613065 0.00763830 -0.02035716
v -0.04830108 0.01381661 -0.03335215
v -0.04834067 0.01381661 -0.05669008
v -0.04832268 0.01381661 -0.05864817
v -0.04626383 0.00763830 -0.02185114
v -0.04834067 0.01381661 -0.03565058
f 1 2 3
f 1 3 7
f 1 7 13
f 1 13 19
f 1 19 24
f 1 24 30
f 1 30 29
f 1 29 28
f 1 28 36
f 1 36 37
f 1 37 42
f 1 42 44
f 1 44 48
f 1 48 47
f 1 47 50
f 1 50 46
f 1 46 40
f 1 40 34
f 1 34 32
f 1 32 25
f 1 25 20
f 1 20 15
f 1 15 14
f 1 14 8
f 1 8 4
f 1 4 5
f 1 5 2
f 2 6 3
f 2 5 11
f 2 11 17
f 2 17 21
f 2 21 26
f 2 26 33
f 2 33 39
f 2 39 45
f 2 45 49
f 2 49 43
f 2 43 38
f 2 38 31
f 2 31 23
f 2 23 18
f 2 18 12
f 2 12 6
f 3 6 7
f 4 8 9
f 4 9 10
f 4 10 11
f 4 11 5
f 6 12 13
f 6 13 7
f 8 14 9
f 9 14 15
f 9 15 16
f 9 16 10
f 10 16 17
f 10 17 11
f 12 18 19
f 12 19 13
f 15 20 16
f 16 21 17
f 16 20 22
f 16 22 21
f 18 23 30
f 18 30 24
f 18 24 19
f 20 25 22
f 21 22 26
f 22 25 32
f 22 32 27
f 22 27 33
f 22 33 26
f 23 28 29
f 23 29 30
f 23 31 28
f 27 32 34
f 27 34 35
f 27 35 33
f 28 31 36
f 31 37 36
f 31 38 37
f 33 35 39
f 34 40 35
f 35 40 41
f 35 41 45
f 35 45 39
f 37 38 42
f 38 43 44
f 38 44 42
f 40 46 41
f 41 46 45
f 43 47 48
f 43 48 44
f 43 49 50
f 43 50 47
f 45 46 49
f 46 50 49

