# https://github.com/mikedh/trimesh
v 0.04936260 0.00128449 0.05634912
v 0.04658140 0.00422557 0.05634912
v 0.04935879 0.00128449 0.05864857
v 0.04936260 0.00128449 0.02198463
v 0.04655473 0.00422557 0.05864857
v 0.04658140 0.00422557 0.02297415
v 0.04928259 0.00128449 0.06094802
v 0.04935498 0.00128449 0.01968990
v 0.04626519 0.00422557 0.06013285
v 0.04655473 0.00422557 0.02185270
v 0.04714907 0.00128449 0.06308255
v 0.04927497 0.00128449 0.01742343
v 0.04484792 0.00422557 0.06088205
v 0.04648616 0.00422557 0.02108936
v 0.04484792 0.00128449 0.06316737
v 0.04254677 0.00422557 0.06130613
v 0.04697382 0.00128449 0.01512870
v 0.04626519 0.00422557 0.02027890
v 0.04254677 0.00128449 0.06318150
v 0.04142285 0.00422557 0.06131085
v 0.04470695 0.00128449 0.01505331
v 0.04254677 0.00422557 0.01861085
v 0.04370496 0.00422557 0.01886530
v 0.04484792 0.00422557 0.01918100
v 0.01725313 0.00128449 0.06318150
v 0.01955047 0.00422557 0.06131085
v 0.01725313 0.00128449 0.01505331
v 0.04024942 0.00422557 0.01860614
v 0.01506627 0.00128449 0.06317208
v 0.01725313 0.00422557 0.06130613
v 0.01495197 0.00128449 0.01512870
v 0.01725313 0.00422557 0.01861085
v 0.01902471 0.00422557 0.01860614
v 0.01278797 0.00128449 0.06315323
v 0.01612922 0.00422557 0.06109409
v 0.01052492 0.00128449 0.06307313
v 0.01265082 0.00128449 0.01742343
v 0.01362233 0.00422557 0.02047680
v 0.01436525 0.00422557 0.01985011
v 0.01495578 0.00422557 0.01936006
v 0.01495197 0.00422557 0.06075012
v 0.01422429 0.00422557 0.06037316
v 0.01362233 0.00422557 0.06000091
v 0.01343184 0.00422557 0.05926584
v 0.01044872 0.00128449 0.06081137
v 0.01052111 0.00128449 0.01954854
v 0.01341279 0.00422557 0.02185270
v 0.01341279 0.00422557 0.05864857
v 0.01338612 0.00422557 0.05752241
v 0.01044491 0.00128449 0.05864857
v 0.01044491 0.00128449 0.02185270
v 0.01338612 0.00422557 0.02415215
f 1 2 3
f 1 3 7
f 1 7 11
f 1 11 15
f 1 15 19
f 1 19 25
f 1 25 29
f 1 29 34
f 1 34 36
f 1 36 45
f 1 45 50
f 1 50 51
f 1 51 46
f 1 46 37
f 1 37 31
f 1 31 27
f 1 27 21
f 1 21 17
f 1 17 12
f 1 12 8
f 1 8 4
f 1 4 6
f 1 6 2
f 2 5 3
f 2 6 10
f 2 10 14
f 2 14 18
f 2 18 24
f 2 24 23
f 2 23 22
f 2 22 28
f 2 28 33
f 2 33 32
f 2 32 40
f 2 40 39
f 2 39 38
f 2 38 47
f 2 47 52
f 2 52 49
f 2 49 48
f 2 48 44
f 2 44 43
f 2 43 42
f 2 42 41
f 2 41 35
f 2 35 30
f 2 30 26
f 2 26 20
f 2 20 16
f 2 16 13
f 2 13 9
f 2 9 5
f 3 5 7
f 4 8 6
f 5 9 7
f 6 8 10
f 7 9 11
f 8 12 10
f 9 13 11
f 10 12 14
f 11 13 16
f 11 16 15
f 12 17 18
f 12 18 14
f 15 16 19
f 16 20 19
f 17 21 22
f 17 22 23
f 17 23 24
f 17 24 18
f 19 20 26
f 19 26 25
f 21 27 33
f 21 33 28
f 21 28 22
f 25 26 30
f 25 30 29
f 27 31 32
f 27 32 33
f 29 30 34
f 30 35 36
f 30 36 34
f 31 37 38
f 31 38 39
f 31 39 40
f 31 40 32
f 35 41 36
f 36 41 42
f 36 42 43
f 36 43 44
f 36 44 45
f 37 46 38
f 38 46 47
f 44 48 45
f 45 48 49
f 45 49 50
f 46 51 47
f 47 51 52
f 49 52 51
f 49 51 50

