# https://github.com/mikedh/trimesh
v -0.07369420 0.00761035 0.09561981
v -0.07369420 0.01214492 0.09429280
v -0.07014090 0.00761035 0.09872121
v -0.07369420 0.00761035 0.11626285
v -0.07369420 0.01376918 0.09543054
v -0.07014090 0.01376918 0.09726085
v -0.07014090 0.00761035 0.11619188
v -0.07015029 0.00761035 0.11626285
v -0.07369420 0.01224982 0.11626285
v -0.07369420 0.01376918 0.11609725
v -0.07014090 0.01376918 0.11609725
v -0.07014090 0.00761095 0.11626285
v -0.07369420 0.01330554 0.11614886
v -0.07014090 0.01224982 0.11626285
f 1 2 3
f 1 3 7
f 1 7 8
f 1 8 4
f 1 4 9
f 1 9 13
f 1 13 10
f 1 10 5
f 1 5 2
f 2 5 6
f 2 6 3
f 3 6 11
f 3 11 14
f 3 14 12
f 3 12 7
f 4 8 12
f 4 12 14
f 4 14 9
f 5 10 11
f 5 11 6
f 7 12 8
f 9 14 13
f 10 13 11
f 11 13 14

