# https://github.com/mikedh/trimesh
v -0.00033069 -0.02224897 -0.11625482
v -0.00033069 0.00018749 -0.11625482
v 0.11383403 -0.02224897 -0.11625482
v -0.00033069 -0.02454828 -0.11600477
v -0.00033069 0.00018749 -0.00048971
v 0.11383403 0.00018749 -0.11625482
v 0.11383403 -0.02454828 -0.11600477
v 0.11562587 -0.02224897 -0.11561831
v 0.11548892 -0.02454828 -0.11549328
v -0.00033069 -0.02598017 -0.11536825
v -0.00033069 -0.02100868 -0.00013735
v -0.00031928 0.00018749 -0.00013735
v 0.11562587 0.00018749 -0.11561831
v 0.11524924 -0.02588696 -0.11524323
v 0.11383403 -0.02598017 -0.11536825
v 0.11578567 0.00018749 -0.11518639
v 0.11626500 -0.02224897 -0.11384518
v 0.11599108 -0.02454828 -0.11384518
v -0.00033069 -0.02626500 -0.11384518
v -0.00033069 -0.02626500 -0.00013735
v 0.11570577 0.00018749 -0.00013735
v 0.11537479 -0.02598017 -0.11384518
v 0.11383403 -0.02626500 -0.11384518
v 0.11626500 0.00018749 -0.11384518
v 0.11626500 -0.02224897 -0.00013735
v 0.11615088 -0.02326139 -0.00013735
v 0.11599108 -0.02454828 -0.00013735
v 0.11586555 -0.02486159 -0.01215146
v 0.11383403 -0.02626500 -0.00013735
v 0.11626500 -0.00155253 -0.00013735
v 0.11626500 0.00018749 -0.01900530
v 0.11537479 -0.02598017 -0.00013735
f 1 2 6
f 1 6 3
f 1 3 7
f 1 7 4
f 1 4 10
f 1 10 19
f 1 19 20
f 1 20 11
f 1 11 5
f 1 5 2
f 2 5 12
f 2 12 21
f 2 21 31
f 2 31 24
f 2 24 16
f 2 16 13
f 2 13 6
f 3 6 13
f 3 13 8
f 3 8 9
f 3 9 7
f 4 7 15
f 4 15 10
f 5 11 12
f 7 9 14
f 7 14 15
f 8 13 16
f 8 16 17
f 8 17 9
f 9 17 18
f 9 18 14
f 10 15 23
f 10 23 19
f 11 20 29
f 11 29 32
f 11 32 27
f 11 27 26
f 11 26 25
f 11 25 30
f 11 30 21
f 11 21 12
f 14 22 23
f 14 23 15
f 14 18 22
f 16 24 17
f 17 24 31
f 17 31 30
f 17 30 25
f 17 25 26
f 17 26 18
f 18 26 27
f 18 27 28
f 18 28 22
f 19 23 29
f 19 29 20
f 21 30 31
f 22 28 32
f 22 32 29
f 22 29 23
f 27 32 28

