# https://github.com/mikedh/trimesh
v 0.00001866 0.00133322 0.11626500
v -0.11384053 0.00133322 0.11626500
v 0.00001866 0.00016826 0.11626500
v 0.00001866 0.00133322 0.09576698
v -0.11562759 0.00133322 0.11562694
v -0.11384053 0.00016826 0.11626500
v 0.00001866 0.00016826 -0.00002341
v 0.00001866 0.00126491 -0.00012596
v -0.01096546 0.00133322 0.01786536
v -0.11626500 0.00133322 0.11384945
v -0.11562759 0.00016826 0.11562694
v 0.00000728 0.00016826 -0.00012596
v -0.11384053 0.00129057 -0.00012596
v -0.01545016 0.00133322 0.01531308
v -0.01327611 0.00133322 0.01557514
v -0.11626500 0.00016826 0.11384945
v -0.11626500 0.00133322 0.01955169
v -0.11571864 0.00016826 -0.00012596
v -0.11562759 0.00045801 -0.00012596
v -0.11616256 0.00133322 0.01784258
v -0.11608288 0.00133322 0.01725008
v -0.11571864 0.00133322 0.01549538
v -0.11557068 0.00133322 0.01514217
v -0.11384053 0.00133322 0.01328492
v -0.11208763 0.00133322 0.01304565
v -0.11154127 0.00133322 0.01297729
v -0.07753035 0.00133322 0.01297729
v -0.07523108 0.00133322 0.01298868
v -0.07293181 0.00133322 0.01302286
v -0.11626500 0.00016826 0.01897059
f 1 2 6
f 1 6 3
f 1 3 7
f 1 7 8
f 1 8 4
f 1 4 9
f 1 9 15
f 1 15 14
f 1 14 29
f 1 29 28
f 1 28 27
f 1 27 26
f 1 26 25
f 1 25 24
f 1 24 23
f 1 23 22
f 1 22 21
f 1 21 20
f 1 20 17
f 1 17 10
f 1 10 5
f 1 5 2
f 2 5 11
f 2 11 6
f 3 6 11
f 3 11 16
f 3 16 30
f 3 30 18
f 3 18 12
f 3 12 7
f 4 8 9
f 5 10 16
f 5 16 11
f 7 12 8
f 8 12 18
f 8 18 19
f 8 19 13
f 8 13 14
f 8 14 15
f 8 15 9
f 10 17 30
f 10 30 16
f 13 19 20
f 13 20 21
f 13 21 22
f 13 22 23
f 13 23 24
f 13 24 25
f 13 25 26
f 13 26 27
f 13 27 28
f 13 28 29
f 13 29 14
f 17 20 19
f 17 19 18
f 17 18 30

