# https://github.com/mikedh/trimesh
v -0.07170530 0.00160759 0.09572896
v -0.07365481 0.00422586 0.09572896
v -0.07170530 0.00133322 0.09572896
v -0.07170530 0.00157786 0.02180892
v -0.11626064 0.00422586 0.09572896
v -0.07368098 0.00422586 0.01955689
v -0.11626064 0.00133322 0.09572896
v -0.07170530 0.00133322 0.01587912
v -0.07170530 0.00157446 0.01947588
v -0.11626064 0.00422586 0.01955689
v -0.07170530 0.00155605 0.01706184
v -0.07170965 0.00143543 0.01421035
v -0.07170965 0.00133322 0.01327875
v -0.07402116 0.00422586 0.01725626
v -0.11626064 0.00133322 0.01955689
v -0.07170530 0.00148753 0.01587912
v -0.11609928 0.00422586 0.01843088
v -0.11616034 0.00133322 0.01783952
v -0.07170530 0.00154954 0.01694843
v -0.07295264 0.00133322 0.01301953
v -0.07505916 0.00422586 0.01573330
v -0.11591174 0.00422586 0.01725626
v -0.11607310 0.00133322 0.01725626
v -0.07523797 0.00133322 0.01298712
v -0.07705664 0.00422586 0.01545788
v -0.11560645 0.00422586 0.01651098
v -0.11557156 0.00133322 0.01514194
v -0.11571112 0.00133322 0.01549028
v -0.11579835 0.00133322 0.01587912
v -0.07753639 0.00133322 0.01297092
v -0.07935507 0.00422586 0.01544168
v -0.11528807 0.00422586 0.01583051
v -0.11384883 0.00133322 0.01328685
v -0.11154605 0.00133322 0.01297092
v -0.11271925 0.00422586 0.01544168
v -0.11457281 0.00422586 0.01559559
v -0.11208249 0.00133322 0.01304383
v -0.11384883 0.00422586 0.01549838
f 1 2 5
f 1 5 7
f 1 7 3
f 1 3 8
f 1 8 16
f 1 16 19
f 1 19 11
f 1 11 9
f 1 9 4
f 1 4 2
f 2 4 6
f 2 6 14
f 2 14 21
f 2 21 25
f 2 25 31
f 2 31 35
f 2 35 38
f 2 38 36
f 2 36 32
f 2 32 26
f 2 26 22
f 2 22 17
f 2 17 10
f 2 10 5
f 3 7 15
f 3 15 18
f 3 18 23
f 3 23 29
f 3 29 28
f 3 28 27
f 3 27 33
f 3 33 37
f 3 37 34
f 3 34 30
f 3 30 24
f 3 24 20
f 3 20 13
f 3 13 8
f 4 9 6
f 5 10 15
f 5 15 7
f 6 9 11
f 6 11 12
f 6 12 13
f 6 13 14
f 8 13 16
f 10 17 18
f 10 18 15
f 11 19 12
f 12 19 16
f 12 16 13
f 13 20 21
f 13 21 14
f 17 22 23
f 17 23 18
f 20 24 25
f 20 25 21
f 22 26 27
f 22 27 28
f 22 28 29
f 22 29 23
f 24 30 31
f 24 31 25
f 26 32 27
f 27 32 33
f 30 34 35
f 30 35 31
f 32 36 33
f 33 36 37
f 34 37 36
f 34 36 38
f 34 38 35

