# https://github.com/mikedh/trimesh
v -0.01339127 0.00422737 0.05634233
v -0.01339127 0.00422737 0.02297440
v -0.01377144 0.01379434 0.05864573
v -0.01341727 0.00422737 0.05864991
v -0.01341727 0.00422737 0.02185405
v -0.01378118 0.01366237 0.02064174
v -0.01377144 0.01379434 0.02185405
v -0.01400863 0.01494323 0.05864573
v -0.01378118 0.01366237 0.05983296
v -0.01362197 0.00422737 0.06000018
v -0.01343351 0.00422737 0.02121445
v -0.01400863 0.01494323 0.02185405
v -0.01362197 0.00422737 0.02047452
v -0.01495742 0.00422737 0.01936254
v -0.01495417 0.01224836 0.01962590
v -0.01480470 0.01447661 0.02002304
v -0.01547405 0.01588708 0.02029059
v -0.01515887 0.01598135 0.05864573
v -0.01547405 0.01588708 0.06007960
v -0.01480470 0.01447661 0.06028444
v -0.01495417 0.01224836 0.06058961
v -0.01495417 0.00422737 0.06074847
v -0.01515887 0.01598135 0.02185405
v -0.01610441 0.00422737 0.01891942
v -0.01725140 0.01224836 0.01873966
v -0.01725140 0.01454848 0.01909917
v -0.01725140 0.01598135 0.02008157
v -0.01725140 0.01626415 0.02185405
v -0.01725140 0.01626415 0.05864573
v -0.01725140 0.01598135 0.06022592
v -0.01725140 0.01454848 0.06095749
v -0.01725140 0.01224836 0.06125848
v -0.01725464 0.00422737 0.06130028
v -0.01725464 0.00422737 0.01861425
v -0.01955512 0.00422737 0.01860589
v -0.04254691 0.01224836 0.01873966
v -0.04254691 0.01454848 0.01909917
v -0.04254691 0.01598135 0.02008157
v -0.04254691 0.01626415 0.02185405
v -0.04254691 0.01626415 0.05864573
v -0.04254691 0.01598135 0.06022592
v -0.04254691 0.01454848 0.06095749
v -0.04254691 0.01224836 0.06125848
v -0.01837889 0.00422737 0.06131282
v -0.04077281 0.00422737 0.01860589
v -0.04254691 0.00422737 0.01861425
v -0.04484413 0.00422737 0.01917860
v -0.04484738 0.01224836 0.01937926
v -0.04484738 0.01454848 0.01969697
v -0.04484738 0.01585409 0.02036165
v -0.04484738 0.01600727 0.02185405
v -0.04484738 0.01600727 0.05864573
v -0.04484738 0.01585409 0.06002944
v -0.04484738 0.01454848 0.06051436
v -0.04367115 0.00422737 0.06113724
v -0.04254691 0.00422737 0.06130028
v -0.04024642 0.00422737 0.06131282
v -0.04484738 0.01224836 0.06076101
v -0.04548424 0.00422737 0.01966771
v -0.04613084 0.01224836 0.02036165
v -0.04607560 0.01454848 0.02049961
v -0.04601062 0.01571622 0.02065846
v -0.04602037 0.01572565 0.02185405
v -0.04602037 0.01572565 0.05864573
v -0.04601062 0.01571622 0.05982042
v -0.04607560 0.01454848 0.05992911
v -0.04484413 0.00422737 0.06088224
v -0.04613084 0.01224836 0.06002526
v -0.04626081 0.00422737 0.06012977
v -0.04560121 0.00422737 0.06050182
v -0.04626081 0.00422737 0.02028223
v -0.04655325 0.00422737 0.02185405
v -0.04626081 0.01224836 0.02185405
v -0.04615359 0.01454848 0.02185405
v -0.04615359 0.01454848 0.05864573
v -0.04626081 0.01224836 0.05864573
v -0.04655325 0.00422737 0.05864991
v -0.04648176 0.00422737 0.05935222
v -0.04657924 0.00422737 0.02415327
v -0.04657924 0.00422737 0.05752538
f 1 2 7
f 1 7 3
f 1 3 4
f 1 4 10
f 1 10 22
f 1 22 33
f 1 33 44
f 1 44 57
f 1 57 56
f 1 56 55
f 1 55 67
f 1 67 70
f 1 70 69
f 1 69 78
f 1 78 77
f 1 77 80
f 1 80 79
f 1 79 72
f 1 72 71
f 1 71 59
f 1 59 47
f 1 47 46
f 1 46 45
f 1 45 35
f 1 35 34
f 1 34 24
f 1 24 14
f 1 14 13
f 1 13 11
f 1 11 5
f 1 5 2
f 2 5 6
f 2 6 7
f 3 8 9
f 3 9 4
f 3 7 12
f 3 12 8
f 4 9 10
f 5 11 6
f 6 12 7
f 6 11 13
f 6 13 14
f 6 14 15
f 6 15 16
f 6 16 17
f 6 17 12
f 8 12 23
f 8 23 18
f 8 18 19
f 8 19 9
f 9 19 20
f 9 20 21
f 9 21 10
f 10 21 22
f 12 17 23
f 14 24 15
f 15 24 25
f 15 25 16
f 16 25 26
f 16 26 17
f 17 26 27
f 17 27 28
f 17 28 23
f 18 23 28
f 18 28 29
f 18 29 19
f 19 29 30
f 19 30 31
f 19 31 20
f 20 31 32
f 20 32 21
f 21 32 22
f 22 32 33
f 24 34 25
f 25 34 35
f 25 35 45
f 25 45 36
f 25 36 37
f 25 37 26
f 26 37 38
f 26 38 27
f 27 38 39
f 27 39 28
f 28 39 40
f 28 40 29
f 29 40 41
f 29 41 30
f 30 41 42
f 30 42 31
f 31 42 43
f 31 43 32
f 32 43 57
f 32 57 44
f 32 44 33
f 36 45 46
f 36 46 47
f 36 47 48
f 36 48 49
f 36 49 37
f 37 49 50
f 37 50 38
f 38 50 39
f 39 50 51
f 39 51 52
f 39 52 40
f 40 52 53
f 40 53 41
f 41 53 42
f 42 53 54
f 42 54 43
f 43 55 56
f 43 56 57
f 43 54 58
f 43 58 55
f 47 59 48
f 48 59 60
f 48 60 61
f 48 61 49
f 49 61 62
f 49 62 50
f 50 62 51
f 51 62 63
f 51 63 64
f 51 64 52
f 52 64 65
f 52 65 53
f 53 65 54
f 54 65 66
f 54 66 58
f 55 58 67
f 58 66 68
f 58 68 69
f 58 69 70
f 58 70 67
f 59 71 60
f 60 72 61
f 60 71 72
f 61 72 73
f 61 73 74
f 61 74 62
f 62 74 63
f 63 74 75
f 63 75 64
f 64 75 65
f 65 75 66
f 66 75 76
f 66 76 77
f 66 77 78
f 66 78 68
f 68 78 69
f 72 79 73
f 73 79 80
f 73 80 76
f 73 76 75
f 73 75 74
f 76 80 77

