# https://github.com/mikedh/trimesh
v 0.10964881 0.00422557 0.08845402
v 0.07715339 0.00422557 0.08845402
v 0.10964881 0.00128449 0.08845402
v 0.10964881 0.00422557 0.01542224
v 0.07367780 0.00421924 0.08845402
v 0.07367780 0.00422557 0.08652687
v 0.07024464 0.00128449 0.08845402
v 0.10964881 0.00128449 0.01273164
v 0.07705309 0.00128449 0.01273905
v 0.07817562 0.00422557 0.01543707
v 0.07367780 0.00422557 0.01955080
v 0.07024464 0.00128449 0.02185598
v 0.07475018 0.00128449 0.01275387
v 0.07705309 0.00422557 0.01545930
v 0.07388996 0.00422557 0.01780154
v 0.07032950 0.00128449 0.01495527
v 0.07025621 0.00128449 0.01725304
v 0.07024849 0.00128449 0.01955080
v 0.07245498 0.00128449 0.01282799
v 0.07618516 0.00422557 0.01555566
v 0.07401340 0.00422557 0.01725304
v 0.07451487 0.00422557 0.01640064
v 0.07505877 0.00422557 0.01572614
f 1 2 5
f 1 5 7
f 1 7 3
f 1 3 8
f 1 8 4
f 1 4 10
f 1 10 14
f 1 14 20
f 1 20 23
f 1 23 22
f 1 22 21
f 1 21 15
f 1 15 11
f 1 11 6
f 1 6 2
f 2 6 5
f 3 7 12
f 3 12 18
f 3 18 17
f 3 17 16
f 3 16 19
f 3 19 13
f 3 13 9
f 3 9 8
f 4 8 9
f 4 9 10
f 5 6 7
f 6 11 12
f 6 12 7
f 9 13 10
f 10 13 14
f 11 15 16
f 11 16 17
f 11 17 18
f 11 18 12
f 13 19 14
f 14 19 20
f 15 21 16
f 16 21 22
f 16 22 23
f 16 23 19
f 19 23 20

