# https://github.com/mikedh/trimesh
v 0.00793730 0.01419602 -0.11605246
v 0.00793730 0.01419602 -0.09545994
v 0.00793730 0.01455006 -0.11601366
v 0.07368509 0.01419602 -0.11605246
v 0.00793730 0.01425617 -0.09274211
v 0.06324526 0.01419602 -0.09545994
v 0.00793730 0.01598245 -0.11537928
v 0.07368509 0.01455006 -0.11601366
v 0.07368509 0.01419602 -0.09547592
v 0.00793730 0.01626500 -0.09274211
v 0.05404765 0.01425617 -0.09274211
v 0.00793730 0.01599703 -0.11530168
v 0.07368509 0.01598245 -0.11537928
v 0.05864967 0.01425617 -0.09315059
v 0.07368509 0.01447857 -0.09547592
v 0.06283976 0.01514068 -0.09274211
v 0.06094746 0.01462845 -0.09274211
v 0.05864323 0.01437142 -0.09274211
v 0.05634544 0.01427197 -0.09274211
v 0.00793730 0.01626500 -0.11384807
v 0.05593351 0.01626500 -0.09274211
v 0.07368509 0.01611329 -0.11467186
v 0.07368509 0.01546738 -0.09684282
v 0.06283976 0.01591278 -0.09274211
v 0.07368509 0.01626500 -0.11384807
v 0.05823774 0.01625771 -0.09274211
v 0.05864967 0.01626500 -0.09315059
v 0.07368509 0.01600392 -0.09781494
v 0.06251151 0.01595815 -0.09274211
v 0.07368509 0.01626500 -0.10235150
v 0.06052910 0.01615704 -0.09274211
v 0.06094746 0.01618945 -0.09315059
v 0.07368509 0.01625345 -0.10005127
v 0.06324526 0.01626500 -0.09545081
v 0.06784728 0.01626419 -0.09775104
f 1 2 5
f 1 5 10
f 1 10 20
f 1 20 12
f 1 12 7
f 1 7 3
f 1 3 8
f 1 8 4
f 1 4 9
f 1 9 6
f 1 6 2
f 2 6 11
f 2 11 5
f 3 7 13
f 3 13 8
f 4 8 13
f 4 13 22
f 4 22 25
f 4 25 30
f 4 30 33
f 4 33 28
f 4 28 23
f 4 23 15
f 4 15 9
f 5 11 19
f 5 19 18
f 5 18 17
f 5 17 16
f 5 16 24
f 5 24 29
f 5 29 31
f 5 31 26
f 5 26 21
f 5 21 10
f 6 9 11
f 7 12 13
f 9 14 11
f 9 15 24
f 9 24 16
f 9 16 17
f 9 17 18
f 9 18 19
f 9 19 14
f 10 21 27
f 10 27 34
f 10 34 30
f 10 30 25
f 10 25 20
f 11 14 19
f 12 20 22
f 12 22 13
f 15 23 24
f 20 25 22
f 21 26 27
f 23 28 24
f 24 28 29
f 26 31 32
f 26 32 33
f 26 33 27
f 27 33 34
f 28 33 32
f 28 32 31
f 28 31 29
f 30 35 33
f 30 34 35
f 33 35 34

