# https://github.com/mikedh/trimesh
v 0.11626049 0.01224951 0.09223925
v 0.11604843 0.01423078 0.09223925
v 0.11626049 0.00761035 0.09223925
v 0.11626049 0.01224951 0.01955628
v 0.07016851 0.01423078 0.09223925
v 0.11604843 0.01423078 0.01955628
v 0.07373764 0.00761035 0.09223925
v 0.11626049 0.00761035 0.01955628
v 0.11589952 0.01224951 0.01725637
v 0.11576867 0.01423078 0.01757102
v 0.07016851 0.01423078 0.02415608
v 0.07373764 0.00761035 0.01955628
v 0.11589952 0.00761035 0.01725637
v 0.11526782 0.00761035 0.01589291
v 0.11526330 0.01224951 0.01592288
v 0.11528135 0.01423078 0.01615512
v 0.11571904 0.01423078 0.01725637
v 0.07017302 0.01423078 0.02185618
v 0.07374667 0.00761035 0.01951133
v 0.11385099 0.00761035 0.01570562
v 0.11519110 0.01423078 0.01596783
v 0.11384648 0.01224951 0.01573559
v 0.07110704 0.01423078 0.01955628
v 0.07427008 0.00761035 0.01725637
v 0.07705410 0.00761035 0.01573559
v 0.07705410 0.01224951 0.01573559
v 0.11384648 0.01423078 0.01584047
v 0.07246521 0.01423078 0.01770586
v 0.07428813 0.00761035 0.01723390
v 0.07538459 0.00761035 0.01591539
v 0.07705410 0.01423078 0.01584047
v 0.07535300 0.01224951 0.01592288
v 0.07546130 0.01423078 0.01596783
v 0.07569594 0.01423078 0.01594535
v 0.07257801 0.01423078 0.01760098
v 0.07535300 0.00761035 0.01592288
v 0.07446862 0.01423078 0.01638735
f 1 2 5
f 1 5 7
f 1 7 3
f 1 3 8
f 1 8 4
f 1 4 6
f 1 6 2
f 2 6 10
f 2 10 17
f 2 17 16
f 2 16 21
f 2 21 27
f 2 27 31
f 2 31 34
f 2 34 33
f 2 33 37
f 2 37 35
f 2 35 28
f 2 28 23
f 2 23 18
f 2 18 11
f 2 11 5
f 3 7 12
f 3 12 19
f 3 19 24
f 3 24 29
f 3 29 36
f 3 36 30
f 3 30 25
f 3 25 20
f 3 20 14
f 3 14 13
f 3 13 8
f 4 8 13
f 4 13 9
f 4 9 10
f 4 10 6
f 5 11 12
f 5 12 7
f 9 13 14
f 9 14 15
f 9 15 16
f 9 16 17
f 9 17 10
f 11 18 12
f 12 18 19
f 14 20 22
f 14 22 15
f 15 21 16
f 15 22 21
f 18 23 24
f 18 24 19
f 20 25 26
f 20 26 22
f 21 22 27
f 22 26 31
f 22 31 27
f 23 28 24
f 24 28 29
f 25 30 26
f 26 30 32
f 26 32 33
f 26 33 34
f 26 34 31
f 28 35 36
f 28 36 29
f 30 36 32
f 32 36 37
f 32 37 33
f 35 37 36

