# https://github.com/mikedh/trimesh
v 0.00001866 0.00046999 0.09810383
v 0.00001866 0.00046999 0.11626500
v 0.00001866 0.00319829 0.09810383
v 0.11626500 0.00046999 0.09810383
v 0.00001866 0.00421851 0.11626500
v 0.11384131 0.00046999 0.11626500
v 0.00001866 0.00422550 0.09840249
v 0.07085201 0.00422550 0.09810383
v 0.11626500 0.00422550 0.09810383
v 0.11626500 0.00046999 0.11384731
v 0.00004142 0.00422550 0.11626500
v 0.00001866 0.00422550 0.11377442
v 0.11562779 0.00046999 0.11563036
v 0.11384131 0.00422550 0.11626500
v 0.11626500 0.00422550 0.11384731
v 0.11562779 0.00422550 0.11563036
f 1 2 5
f 1 5 12
f 1 12 7
f 1 7 3
f 1 3 8
f 1 8 9
f 1 9 4
f 1 4 10
f 1 10 13
f 1 13 6
f 1 6 2
f 2 6 14
f 2 14 11
f 2 11 5
f 3 7 8
f 4 9 15
f 4 15 10
f 5 11 12
f 6 13 16
f 6 16 14
f 7 12 11
f 7 11 14
f 7 14 16
f 7 16 15
f 7 15 9
f 7 9 8
f 10 15 16
f 10 16 13

