# https://github.com/mikedh/trimesh
v 0.11384835 0.01626415 0.09677125
v 0.11449881 0.01614470 0.09677125
v 0.11384835 0.01626415 0.09223925
v 0.07012280 0.01626415 0.09677125
v 0.11537965 0.01598205 0.09677125
v 0.11537965 0.01598205 0.09223925
v 0.07012280 0.01626415 0.09223925
v 0.07012280 0.01375485 0.09677125
v 0.11601204 0.01454949 0.09677125
v 0.11601204 0.01454949 0.09223925
v 0.07012280 0.01423688 0.09223925
v 0.07348804 0.00761543 0.09677125
v 0.07373648 0.00761035 0.09223925
v 0.11626500 0.01224943 0.09677125
v 0.11626500 0.01224943 0.09223925
v 0.07363711 0.00761035 0.09663861
v 0.07367776 0.00761035 0.09677125
v 0.11626500 0.00761035 0.09223925
v 0.11626500 0.00761035 0.09677125
f 1 2 3
f 1 3 7
f 1 7 4
f 1 4 8
f 1 8 12
f 1 12 17
f 1 17 19
f 1 19 14
f 1 14 9
f 1 9 5
f 1 5 2
f 2 5 6
f 2 6 3
f 3 6 10
f 3 10 15
f 3 15 18
f 3 18 13
f 3 13 11
f 3 11 7
f 4 7 11
f 4 11 8
f 5 9 10
f 5 10 6
f 8 11 13
f 8 13 12
f 9 14 15
f 9 15 10
f 12 16 17
f 12 13 16
f 13 18 19
f 13 19 17
f 13 17 16
f 14 19 18
f 14 18 15

