# https://github.com/mikedh/trimesh
v -0.00778310 0.01504643 0.06246455
v -0.01035157 0.01502751 0.06383286
v -0.01191324 0.01528457 0.06419588
v -0.00778310 0.01595458 0.06246455
v -0.00778310 0.01475473 0.06316577
v -0.01035729 0.01442818 0.06526013
v -0.01495650 0.01437422 0.06785092
v -0.01955572 0.01447597 0.07015316
v -0.03105375 0.01501835 0.07530373
v -0.03263830 0.01527162 0.07568537
v -0.01638089 0.01537576 0.06656018
v -0.01191324 0.01585742 0.06419588
v -0.05781384 0.01533654 0.08953294
v -0.00778310 0.01602587 0.06287721
v -0.01035157 0.01595936 0.06383286
v -0.00778310 0.01432743 0.06526013
v -0.00778882 0.01425635 0.06555489
v -0.00805768 0.01425635 0.06555489
v -0.01035729 0.01430573 0.06555489
v -0.03565868 0.01435889 0.07934971
v -0.06094291 0.01443376 0.09314764
v -0.04024645 0.01445427 0.08164885
v -0.05174448 0.01500959 0.08676839
v -0.05335192 0.01526047 0.08717175
v -0.02084281 0.01551156 0.06893068
v -0.02531045 0.01569554 0.07130118
v -0.01638089 0.01581879 0.06656018
v -0.06228148 0.01545541 0.09189724
v -0.05781384 0.01583472 0.08953294
v -0.03263830 0.01586319 0.07568537
v -0.06312238 0.01497594 0.09317557
v -0.06554212 0.01527959 0.09402572
v -0.00778310 0.01606887 0.06316577
v -0.01035729 0.01619392 0.06526013
v -0.01035729 0.01624190 0.06555489
v -0.01955572 0.01617341 0.07015316
v -0.01495650 0.01621263 0.06785092
v -0.03105375 0.01596334 0.07530373
v -0.00778310 0.01626201 0.06526013
v -0.00778882 0.01423086 0.09416224
v -0.01265690 0.01425635 0.06785092
v -0.05864330 0.01423086 0.09416224
v -0.02185532 0.01425635 0.07245230
v -0.02645453 0.01426292 0.07475454
v -0.03105375 0.01429617 0.07705368
v -0.05634369 0.01434495 0.09084851
v -0.05864330 0.01425635 0.09314764
v -0.06094291 0.01433022 0.09416224
v -0.06317387 0.01463864 0.09416224
v -0.06554212 0.01520472 0.09416224
v -0.05634369 0.01506694 0.08921336
v -0.04602407 0.01565731 0.08278446
v -0.02531045 0.01570111 0.07130118
v -0.02084281 0.01576642 0.06893068
v -0.06228148 0.01578733 0.09189724
v -0.06622285 0.01547193 0.09416224
v -0.06573661 0.01586896 0.09416224
v -0.06312238 0.01597848 0.09317557
v -0.05335192 0.01586837 0.08717175
v -0.05174448 0.01596733 0.08676839
v -0.00778882 0.01626400 0.06528495
v -0.03565868 0.01621881 0.07934971
v -0.05634369 0.01622478 0.09084851
v -0.03105375 0.01624608 0.07705368
v -0.02645453 0.01626162 0.07475454
v -0.02185532 0.01626500 0.07245230
v -0.04024645 0.01618157 0.08164885
v -0.06094291 0.01618914 0.09314764
v -0.00778882 0.01626500 0.06555489
v -0.00778882 0.01626500 0.09416224
v -0.04714527 0.01425973 0.08624713
v -0.05174448 0.01428781 0.08854627
v -0.04602407 0.01571425 0.08278446
v -0.06622285 0.01578554 0.09416224
v -0.06417494 0.01605016 0.09416224
v -0.01265690 0.01626500 0.06785092
v -0.00805768 0.01626500 0.06555489
v -0.06195542 0.01622279 0.09416224
v -0.05174448 0.01624967 0.08854627
v -0.04714527 0.01626301 0.08624713
v -0.04254606 0.01626500 0.08394489
v -0.05965581 0.01626500 0.09416224
v -0.05864330 0.01626500 0.09314764
f 1 2 3
f 1 3 12
f 1 12 4
f 1 4 14
f 1 14 33
f 1 33 39
f 1 39 16
f 1 16 5
f 1 5 6
f 1 6 2
f 2 6 7
f 2 7 8
f 2 8 9
f 2 9 10
f 2 10 3
f 3 11 27
f 3 27 12
f 3 10 13
f 3 13 11
f 4 12 15
f 4 15 14
f 5 16 17
f 5 17 18
f 5 18 19
f 5 19 6
f 6 19 7
f 7 19 20
f 7 20 21
f 7 21 22
f 7 22 8
f 8 22 23
f 8 23 9
f 9 23 10
f 10 23 24
f 10 24 13
f 11 25 26
f 11 26 53
f 11 53 27
f 11 13 28
f 11 28 25
f 12 27 29
f 12 29 30
f 12 30 15
f 13 31 32
f 13 32 28
f 13 24 31
f 14 15 34
f 14 34 35
f 14 35 33
f 15 36 37
f 15 37 34
f 15 30 38
f 15 38 36
f 16 39 70
f 16 70 40
f 16 40 17
f 17 40 42
f 17 42 18
f 18 41 19
f 18 42 41
f 19 41 43
f 19 43 44
f 19 44 45
f 19 45 46
f 19 46 20
f 20 46 21
f 21 46 47
f 21 47 48
f 21 48 49
f 21 49 50
f 21 50 31
f 21 31 23
f 21 23 22
f 23 31 51
f 23 51 24
f 24 51 31
f 25 28 52
f 25 52 26
f 26 52 73
f 26 73 53
f 27 53 54
f 27 54 55
f 27 55 29
f 28 32 56
f 28 56 74
f 28 74 55
f 28 55 73
f 28 73 52
f 29 55 57
f 29 57 58
f 29 58 59
f 29 59 30
f 30 59 60
f 30 60 38
f 31 50 32
f 32 50 56
f 33 35 39
f 34 37 35
f 35 61 39
f 35 37 62
f 35 62 63
f 35 63 64
f 35 64 65
f 35 65 66
f 35 66 61
f 36 38 60
f 36 60 67
f 36 67 37
f 37 67 68
f 37 68 62
f 39 61 69
f 39 69 70
f 40 70 82
f 40 82 78
f 40 78 75
f 40 75 57
f 40 57 74
f 40 74 56
f 40 56 50
f 40 50 49
f 40 49 48
f 40 48 42
f 41 42 43
f 42 48 47
f 42 47 71
f 42 71 43
f 43 71 44
f 44 71 72
f 44 72 45
f 45 72 46
f 46 72 47
f 47 72 71
f 53 73 54
f 54 73 55
f 55 74 57
f 57 75 58
f 58 75 60
f 58 60 59
f 60 75 68
f 60 68 67
f 61 66 76
f 61 76 77
f 61 77 69
f 62 68 63
f 63 68 78
f 63 78 79
f 63 79 64
f 64 79 65
f 65 79 80
f 65 80 66
f 66 80 81
f 66 81 83
f 66 83 82
f 66 82 70
f 66 70 69
f 66 69 77
f 66 77 76
f 68 75 78
f 78 82 83
f 78 83 79
f 79 83 80
f 80 83 81

