# https://github.com/mikedh/trimesh
v 0.04739949 0.01263404 0.05634871
v 0.04738925 0.01263404 0.05805900
v 0.04626182 0.00761035 0.05867043
v 0.04739949 0.01263404 0.03565411
v 0.04738241 0.01263404 0.05864905
v 0.04613200 0.00761035 0.06002584
v 0.04626182 0.00761035 0.02185201
v 0.04739266 0.01263404 0.03335376
v 0.04678112 0.01263404 0.06082969
v 0.04650781 0.01263404 0.06118457
v 0.04554437 0.01263404 0.06188579
v 0.04484741 0.00761035 0.06076127
v 0.04613200 0.00761035 0.02035978
v 0.04613200 0.01224995 0.02035978
v 0.04612175 0.01263404 0.02038116
v 0.04484741 0.01263404 0.06210813
v 0.04480984 0.00761035 0.06076982
v 0.04487133 0.00761035 0.01939346
v 0.04484741 0.01224995 0.01937636
v 0.04484741 0.01263404 0.01942767
v 0.04396598 0.01263404 0.06225350
v 0.04254815 0.00761035 0.06126154
v 0.04484741 0.00761035 0.01937636
v 0.04258915 0.00761035 0.01874782
v 0.04254815 0.01224995 0.01873927
v 0.04254815 0.01263404 0.01879913
v 0.04254815 0.01263404 0.06241598
v 0.01725285 0.00761035 0.06126154
v 0.04254815 0.00761035 0.01873927
v 0.01725285 0.01224995 0.01873927
v 0.01725285 0.01263404 0.01879913
v 0.01725285 0.01263404 0.06241598
v 0.01721185 0.00761035 0.06125298
v 0.01495017 0.01263404 0.06199268
v 0.01725285 0.00761035 0.01873927
v 0.01495017 0.01224995 0.01962435
v 0.01682921 0.01263404 0.01895734
v 0.01495017 0.00761035 0.06059024
v 0.01324878 0.01263404 0.06103919
v 0.01495017 0.00761035 0.01962435
v 0.01463244 0.01263404 0.01990228
v 0.01492625 0.01263404 0.01969276
v 0.01378858 0.00761035 0.02059067
v 0.01376808 0.01224995 0.02060777
v 0.01377150 0.01263404 0.02061632
v 0.01376808 0.00761035 0.05985909
v 0.01314629 0.01263404 0.06076982
v 0.01376808 0.00761035 0.02060777
v 0.01250400 0.01263404 0.05404835
v 0.01261674 0.01263404 0.05921773
v 0.01251766 0.01263404 0.05864905
v 0.01373733 0.00761035 0.05864905
v 0.01373733 0.00761035 0.02183064
v 0.01250400 0.01263404 0.05634871
v 0.01250742 0.01263404 0.05692593
f 1 2 3
f 1 3 7
f 1 7 4
f 1 4 8
f 1 8 15
f 1 15 20
f 1 20 26
f 1 26 31
f 1 31 37
f 1 37 42
f 1 42 41
f 1 41 45
f 1 45 49
f 1 49 54
f 1 54 55
f 1 55 51
f 1 51 50
f 1 50 47
f 1 47 39
f 1 39 34
f 1 34 32
f 1 32 27
f 1 27 21
f 1 21 16
f 1 16 11
f 1 11 10
f 1 10 9
f 1 9 5
f 1 5 2
f 2 5 3
f 3 5 6
f 3 6 12
f 3 12 17
f 3 17 22
f 3 22 28
f 3 28 33
f 3 33 38
f 3 38 46
f 3 46 52
f 3 52 53
f 3 53 48
f 3 48 43
f 3 43 40
f 3 40 35
f 3 35 29
f 3 29 24
f 3 24 23
f 3 23 18
f 3 18 13
f 3 13 7
f 4 7 8
f 5 9 6
f 6 9 10
f 6 10 11
f 6 11 12
f 7 13 8
f 8 13 14
f 8 14 15
f 11 16 12
f 12 16 17
f 13 18 14
f 14 18 19
f 14 19 15
f 15 19 20
f 16 21 22
f 16 22 17
f 18 23 19
f 19 23 24
f 19 24 25
f 19 25 20
f 20 25 26
f 21 27 22
f 22 27 32
f 22 32 28
f 24 29 25
f 25 29 35
f 25 35 30
f 25 30 31
f 25 31 26
f 28 32 34
f 28 34 33
f 30 35 40
f 30 40 36
f 30 36 37
f 30 37 31
f 33 34 38
f 34 39 38
f 36 41 42
f 36 42 37
f 36 40 43
f 36 43 44
f 36 44 45
f 36 45 41
f 38 39 46
f 39 47 46
f 43 48 44
f 44 49 45
f 44 48 49
f 46 47 50
f 46 50 51
f 46 51 52
f 48 53 49
f 49 53 52
f 49 52 54
f 51 55 52
f 52 55 54

