# https://github.com/mikedh/trimesh
v 0.07705575 0.01423163 0.01583431
v 0.07569993 0.01423163 0.01594308
v 0.07547831 0.01455012 0.01597816
v 0.07705575 0.01455012 0.01585186
v 0.11384535 0.01423163 0.01583431
v 0.07546527 0.01423163 0.01596764
v 0.07570644 0.01574785 0.01605535
v 0.07447447 0.01423163 0.01638515
v 0.07433107 0.01455012 0.01646234
v 0.07705575 0.01577193 0.01603430
v 0.11384535 0.01455012 0.01585186
v 0.11518162 0.01455012 0.01597816
v 0.11519466 0.01423163 0.01596764
v 0.07705575 0.01605440 0.01725176
v 0.07100019 0.01582966 0.01824467
v 0.07245378 0.01593855 0.01793241
v 0.07486558 0.01595467 0.01719913
v 0.07257763 0.01423163 0.01760261
v 0.04946354 0.01487478 0.03104025
v 0.05027181 0.01533082 0.02973157
v 0.06206352 0.01564494 0.02298117
v 0.06206352 0.01571879 0.02298117
v 0.11384535 0.01577193 0.01603430
v 0.11506430 0.01574785 0.01605535
v 0.11569006 0.01455012 0.01725176
v 0.11527939 0.01423163 0.01615359
v 0.07245378 0.01622101 0.01955335
v 0.07475476 0.01626480 0.01955335
v 0.11384535 0.01605440 0.01725176
v 0.06653511 0.01578069 0.02061292
v 0.05027181 0.01583742 0.02973157
v 0.05473689 0.01586987 0.02737033
v 0.06785182 0.01618418 0.02185143
v 0.05635344 0.01596860 0.02696335
v 0.04946354 0.01423163 0.03322255
v 0.05175148 0.01434031 0.03105077
v 0.04946354 0.01600742 0.03104025
v 0.11524029 0.01587724 0.01725176
v 0.11600945 0.01455012 0.01955335
v 0.11604857 0.01423163 0.01955335
v 0.11576827 0.01423163 0.01757103
v 0.11571613 0.01423163 0.01725176
v 0.05175148 0.01622678 0.03105077
v 0.05635344 0.01625107 0.02875269
v 0.06095540 0.01626361 0.02645110
v 0.06555084 0.01626480 0.02415302
v 0.07015281 0.01626480 0.02185143
v 0.11384535 0.01626480 0.01955335
v 0.05175148 0.01594432 0.02940878
v 0.04946354 0.01423163 0.05167737
v 0.04946354 0.01601060 0.03106831
v 0.11537716 0.01598234 0.01955335
v 0.11598990 0.01459531 0.05167737
v 0.11600945 0.01455012 0.05167737
v 0.11604857 0.01423163 0.04976523
v 0.04946354 0.01626480 0.03334534
v 0.11384535 0.01626480 0.05167737
v 0.11389750 0.01625604 0.05167737
v 0.04946354 0.01606634 0.05167737
v 0.07185409 0.01423163 0.05167737
v 0.11537716 0.01598234 0.05167737
v 0.11604204 0.01424158 0.05167737
v 0.04946354 0.01626480 0.05167036
v 0.04952872 0.01626480 0.05167737
f 1 2 3
f 1 3 4
f 1 4 11
f 1 11 5
f 1 5 13
f 1 13 26
f 1 26 42
f 1 42 41
f 1 41 40
f 1 40 55
f 1 55 60
f 1 60 50
f 1 50 35
f 1 35 18
f 1 18 8
f 1 8 6
f 1 6 2
f 2 6 3
f 3 7 4
f 3 6 8
f 3 8 9
f 3 9 7
f 4 7 10
f 4 10 23
f 4 23 11
f 5 11 12
f 5 12 13
f 7 14 10
f 7 9 15
f 7 15 16
f 7 16 17
f 7 17 14
f 8 18 19
f 8 19 20
f 8 20 21
f 8 21 22
f 8 22 9
f 9 22 15
f 10 14 29
f 10 29 23
f 11 23 24
f 11 24 12
f 12 24 25
f 12 25 26
f 12 26 13
f 14 17 27
f 14 27 28
f 14 28 48
f 14 48 29
f 15 22 30
f 15 30 31
f 15 31 32
f 15 32 16
f 16 33 27
f 16 27 17
f 16 32 34
f 16 34 33
f 18 35 36
f 18 36 19
f 19 36 35
f 19 35 50
f 19 50 59
f 19 59 63
f 19 63 56
f 19 56 51
f 19 51 37
f 19 37 31
f 19 31 20
f 20 31 22
f 20 22 21
f 22 31 30
f 23 29 24
f 24 29 38
f 24 38 25
f 25 39 40
f 25 40 41
f 25 41 42
f 25 42 26
f 25 38 39
f 27 33 43
f 27 43 44
f 27 44 45
f 27 45 46
f 27 46 47
f 27 47 28
f 28 47 46
f 28 46 56
f 28 56 63
f 28 63 64
f 28 64 57
f 28 57 48
f 29 48 38
f 31 37 49
f 31 49 32
f 32 49 34
f 33 34 43
f 34 49 37
f 34 37 43
f 37 51 43
f 38 48 52
f 38 52 39
f 39 53 54
f 39 54 55
f 39 55 40
f 39 52 53
f 43 51 56
f 43 56 44
f 44 56 45
f 45 56 46
f 48 57 58
f 48 58 52
f 50 60 62
f 50 62 54
f 50 54 53
f 50 53 61
f 50 61 58
f 50 58 57
f 50 57 64
f 50 64 59
f 52 58 61
f 52 61 53
f 54 62 55
f 55 62 60
f 59 64 63

