# https://github.com/mikedh/trimesh
v 0.11626500 0.01224973 -0.01955302
v 0.11601076 0.01454996 -0.01955302
v 0.11568983 0.01454996 -0.01725036
v 0.11589822 0.01224973 -0.01725036
v 0.11626500 0.00763830 -0.01955302
v 0.11626500 0.01224973 -0.11384425
v 0.11537723 0.01598212 -0.01955302
v 0.11523969 0.01587656 -0.01725036
v 0.11601076 0.01454996 -0.11384425
v 0.11506462 0.01574736 -0.01605966
v 0.11518133 0.01454996 -0.01598094
v 0.11589822 0.00763830 -0.01725036
v 0.11526469 0.01224973 -0.01592190
v 0.11626500 0.00763830 -0.11384425
v 0.11563147 0.01224973 -0.11562538
v 0.11550644 0.01454996 -0.11549745
v 0.11384759 0.01626416 -0.01955302
v 0.11537723 0.01598212 -0.11384425
v 0.11384759 0.01605389 -0.01725036
v 0.11525219 0.01588754 -0.11525144
v 0.11384759 0.01577185 -0.01603998
v 0.11384759 0.01454996 -0.01585301
v 0.11384759 0.01224973 -0.01574477
v 0.11526469 0.00763830 -0.01592190
v 0.11563147 0.00763830 -0.11562538
v 0.11384759 0.01224973 -0.11626500
v 0.11384759 0.01454996 -0.11600915
v 0.07705281 0.01626416 -0.01955302
v 0.11384759 0.01626416 -0.11384425
v 0.07705281 0.01605389 -0.01725036
v 0.11384759 0.01598212 -0.11537936
v 0.07705281 0.01577185 -0.01603998
v 0.07705281 0.01454996 -0.01585301
v 0.11384759 0.00763830 -0.01574477
v 0.07705281 0.01224973 -0.01574477
v 0.11384759 0.00763830 -0.11626500
v 0.07368509 0.01224973 -0.11626500
v 0.07368509 0.01331456 -0.11614691
v 0.07368509 0.01454996 -0.11600915
v 0.07515221 0.01598212 -0.01955302
v 0.07541897 0.01587656 -0.01725036
v 0.07368509 0.01626416 -0.10234076
v 0.07368509 0.01625909 -0.10127799
v 0.07368509 0.01625318 -0.10004793
v 0.07368509 0.01611300 -0.11467085
v 0.07368509 0.01626416 -0.11384425
v 0.07575657 0.01574736 -0.01605966
v 0.07368509 0.01598212 -0.11537936
v 0.07551899 0.01454996 -0.01598094
v 0.07705281 0.00763830 -0.01574477
v 0.07535228 0.01224973 -0.01592190
v 0.07475209 0.00763830 -0.11626500
v 0.07368509 0.00764421 -0.11626500
v 0.07406855 0.01454996 -0.01955302
v 0.07460204 0.01454996 -0.01725036
v 0.07368509 0.01600323 -0.09780431
v 0.07373511 0.01224973 -0.01955302
v 0.07426860 0.01224973 -0.01725036
v 0.07535228 0.00763830 -0.01592190
v 0.07368509 0.00763830 -0.11220090
v 0.07368509 0.01546701 -0.09683995
v 0.07373511 0.00763830 -0.01955302
v 0.07368509 0.01447819 -0.09547212
v 0.07368509 0.01211800 -0.09458648
v 0.07426860 0.00763830 -0.01725036
v 0.07368509 0.00763830 -0.09668250
v 0.07368509 0.00764759 -0.09577718
f 1 2 3
f 1 3 4
f 1 4 12
f 1 12 5
f 1 5 14
f 1 14 6
f 1 6 9
f 1 9 2
f 2 7 8
f 2 8 3
f 2 9 18
f 2 18 7
f 3 8 10
f 3 10 11
f 3 11 4
f 4 11 13
f 4 13 24
f 4 24 12
f 5 12 24
f 5 24 34
f 5 34 50
f 5 50 59
f 5 59 65
f 5 65 62
f 5 62 66
f 5 66 60
f 5 60 52
f 5 52 36
f 5 36 25
f 5 25 14
f 6 14 25
f 6 25 15
f 6 15 16
f 6 16 9
f 7 17 8
f 7 18 29
f 7 29 17
f 8 17 19
f 8 19 10
f 9 16 20
f 9 20 18
f 10 19 21
f 10 21 22
f 10 22 11
f 11 22 23
f 11 23 13
f 13 23 34
f 13 34 24
f 15 25 36
f 15 36 26
f 15 26 16
f 16 26 27
f 16 27 20
f 17 28 30
f 17 30 19
f 17 29 46
f 17 46 42
f 17 42 28
f 18 20 29
f 19 30 32
f 19 32 21
f 20 27 31
f 20 31 29
f 21 32 33
f 21 33 22
f 22 33 35
f 22 35 23
f 23 35 50
f 23 50 34
f 26 36 52
f 26 52 53
f 26 53 37
f 26 37 38
f 26 38 27
f 27 38 39
f 27 39 48
f 27 48 31
f 28 40 41
f 28 41 30
f 28 42 43
f 28 43 44
f 28 44 40
f 29 31 45
f 29 45 46
f 30 41 47
f 30 47 32
f 31 48 45
f 32 47 33
f 33 47 49
f 33 49 35
f 35 49 51
f 35 51 59
f 35 59 50
f 37 53 60
f 37 60 66
f 37 66 67
f 37 67 64
f 37 64 63
f 37 63 61
f 37 61 56
f 37 56 44
f 37 44 43
f 37 43 42
f 37 42 46
f 37 46 45
f 37 45 48
f 37 48 39
f 37 39 38
f 40 54 41
f 40 44 54
f 41 55 47
f 41 54 55
f 44 56 57
f 44 57 54
f 47 55 49
f 49 55 58
f 49 58 51
f 51 58 65
f 51 65 59
f 52 60 53
f 54 57 58
f 54 58 55
f 56 61 57
f 57 62 65
f 57 65 58
f 57 61 63
f 57 63 64
f 57 64 62
f 62 64 67
f 62 67 66

