# https://github.com/mikedh/trimesh
v -0.07316234 0.00424960 -0.09695155
v -0.07368043 0.00424960 -0.08855020
v -0.06942564 0.00126266 -0.08852956
v -0.06942564 0.00157330 -0.09695155
v -0.11626500 0.00424960 -0.09695155
v -0.07368043 0.00424661 -0.08851966
v -0.07475788 0.00424960 -0.08851966
v -0.07015006 0.00126266 -0.08851966
v -0.06942564 -0.01773131 -0.08851966
v -0.06942564 -0.02626500 -0.09695155
v -0.11626500 -0.02224756 -0.09695155
v -0.11626500 0.00424960 -0.08851966
v -0.06942564 -0.02626500 -0.08851966
v -0.11384876 -0.02626500 -0.09695155
v -0.11626500 -0.02224756 -0.08851966
v -0.11601284 -0.02454751 -0.09695155
v -0.11384876 -0.02626500 -0.08851966
v -0.11484827 -0.02607981 -0.09695155
v -0.11601284 -0.02454751 -0.08851966
v -0.11538013 -0.02598124 -0.09695155
v -0.11538928 -0.02596332 -0.08851966
v -0.11538013 -0.02598124 -0.08851966
f 1 2 3
f 1 3 4
f 1 4 10
f 1 10 14
f 1 14 18
f 1 18 20
f 1 20 16
f 1 16 11
f 1 11 5
f 1 5 12
f 1 12 7
f 1 7 2
f 2 6 3
f 2 7 6
f 3 8 9
f 3 9 13
f 3 13 10
f 3 10 4
f 3 6 8
f 5 11 15
f 5 15 12
f 6 7 12
f 6 12 15
f 6 15 19
f 6 19 21
f 6 21 22
f 6 22 17
f 6 17 13
f 6 13 9
f 6 9 8
f 10 13 17
f 10 17 14
f 11 16 19
f 11 19 15
f 14 17 18
f 16 20 21
f 16 21 19
f 17 22 18
f 18 22 20
f 20 22 21

