# https://github.com/mikedh/trimesh
v 0.01326801 0.00424993 -0.11626500
v 0.01326801 0.00424993 -0.09840762
v 0.01326801 0.00763830 -0.11626500
v 0.11384511 0.00424993 -0.11626500
v 0.01326801 0.00763830 -0.09873610
v 0.07362435 0.00424993 -0.09653146
v 0.07362435 0.00425424 -0.09652566
v 0.07362435 0.00434447 -0.09652566
v 0.07363444 0.00763830 -0.09652566
v 0.11384511 0.00763830 -0.11626500
v 0.11470216 0.00424993 -0.11596165
v 0.07466289 0.00424993 -0.09652566
v 0.11625493 0.00763830 -0.09652566
v 0.11562978 0.00763830 -0.11563125
v 0.11562978 0.00424993 -0.11563125
v 0.11625493 0.00424993 -0.09652566
v 0.11625493 0.00763830 -0.11384975
v 0.11593227 0.00424993 -0.11477915
v 0.11625493 0.00424993 -0.11384975
f 1 2 5
f 1 5 3
f 1 3 10
f 1 10 4
f 1 4 11
f 1 11 15
f 1 15 18
f 1 18 19
f 1 19 16
f 1 16 12
f 1 12 6
f 1 6 2
f 2 6 7
f 2 7 8
f 2 8 9
f 2 9 5
f 3 5 9
f 3 9 13
f 3 13 17
f 3 17 14
f 3 14 10
f 4 10 11
f 6 12 7
f 7 12 16
f 7 16 13
f 7 13 9
f 7 9 8
f 10 14 11
f 11 14 15
f 13 16 19
f 13 19 17
f 14 17 18
f 14 18 15
f 17 19 18

