# https://github.com/mikedh/trimesh
v -0.07362958 0.00423315 0.09654622
v -0.07364210 0.00761002 0.09654622
v -0.07468545 0.00422619 0.09654622
v -0.07365880 0.00422619 0.09544264
v -0.07367966 0.00422619 0.01955721
v -0.11626500 0.00761002 0.09654622
v -0.07373809 0.00761002 0.01955721
v -0.11626500 0.00422619 0.09654622
v -0.07401353 0.00422619 0.01725476
v -0.11626500 0.00761002 0.01955721
v -0.07425977 0.00761002 0.01729446
v -0.11626500 0.00422619 0.01955721
v -0.07427228 0.00761002 0.01725476
v -0.07506106 0.00422619 0.01573038
v -0.11589775 0.00761002 0.01725476
v -0.11611059 0.00422619 0.01842980
v -0.07533233 0.00761002 0.01594475
v -0.07705177 0.00422619 0.01545250
v -0.07535320 0.00761002 0.01592093
v -0.11526339 0.00761002 0.01592093
v -0.11561395 0.00422619 0.01650845
v -0.11592278 0.00422619 0.01725476
v -0.07935131 0.00422619 0.01543662
v -0.07702256 0.00761002 0.01573832
v -0.11528843 0.00422619 0.01582566
v -0.11384861 0.00761002 0.01573832
v -0.11384861 0.00422619 0.01549220
v -0.11457060 0.00422619 0.01559541
v -0.11272179 0.00422619 0.01543662
f 1 2 6
f 1 6 8
f 1 8 3
f 1 3 4
f 1 4 5
f 1 5 2
f 2 5 7
f 2 7 11
f 2 11 13
f 2 13 17
f 2 17 19
f 2 19 24
f 2 24 26
f 2 26 20
f 2 20 15
f 2 15 10
f 2 10 6
f 3 8 12
f 3 12 16
f 3 16 22
f 3 22 21
f 3 21 25
f 3 25 28
f 3 28 27
f 3 27 29
f 3 29 23
f 3 23 18
f 3 18 14
f 3 14 9
f 3 9 5
f 3 5 4
f 5 9 7
f 6 10 12
f 6 12 8
f 7 9 11
f 9 13 11
f 9 14 13
f 10 15 16
f 10 16 12
f 13 14 17
f 14 18 19
f 14 19 17
f 15 20 21
f 15 21 22
f 15 22 16
f 18 23 24
f 18 24 19
f 20 25 21
f 20 26 27
f 20 27 28
f 20 28 25
f 23 29 26
f 23 26 24
f 26 29 27

