# https://github.com/mikedh/trimesh
v 0.07361701 0.00422619 0.09659222
v 0.07362838 0.00761002 0.09659222
v 0.11626500 0.00422619 0.09659222
v 0.00017336 0.00422619 0.09840044
v 0.11626500 0.00761002 0.09659222
v 0.00017336 0.00761002 0.09873551
v 0.11626500 0.00422619 0.11384827
v 0.00017336 0.00422619 0.11626500
v 0.11626500 0.00761002 0.11384827
v 0.00017336 0.00761002 0.11626500
v 0.11562864 0.00422619 0.11563145
v 0.11384453 0.00422619 0.11626500
v 0.11562864 0.00761002 0.11563145
v 0.11384453 0.00761002 0.11626500
f 1 2 5
f 1 5 3
f 1 3 7
f 1 7 11
f 1 11 12
f 1 12 8
f 1 8 4
f 1 4 2
f 2 4 6
f 2 6 10
f 2 10 14
f 2 14 13
f 2 13 9
f 2 9 5
f 3 5 9
f 3 9 7
f 4 8 10
f 4 10 6
f 7 9 13
f 7 13 11
f 8 12 14
f 8 14 10
f 11 13 14
f 11 14 12

