# https://github.com/mikedh/trimesh
v 0.01374433 0.01263453 0.04713982
v 0.01365067 0.01263453 0.04752348
v 0.00938296 0.01423143 0.05634949
v 0.01047839 0.01423143 0.05405111
v 0.01376876 0.01380000 0.04713982
v 0.04680277 0.01263453 0.04713982
v 0.01265297 0.01263453 0.05232463
v 0.00938296 0.01423143 0.05864967
v 0.01250637 0.01263453 0.05405111
v 0.01250230 0.01263453 0.05634949
v 0.01385835 0.01423143 0.04713982
v 0.04740546 0.01263953 0.04713982
v 0.04740139 0.01263453 0.04715058
v 0.01250637 0.01263453 0.05692499
v 0.01251858 0.01263453 0.05864967
v 0.01261632 0.01263453 0.05921799
v 0.01052726 0.01423143 0.06323927
v 0.05098496 0.01423143 0.04713982
v 0.04740139 0.01263453 0.05634949
v 0.01314571 0.01263453 0.06077236
v 0.01325159 0.01263453 0.06104307
v 0.01266111 0.01423143 0.06537271
v 0.05098496 0.01423143 0.06018432
v 0.04738918 0.01263453 0.05806163
v 0.01495378 0.01263453 0.06199326
v 0.01725053 0.01263453 0.06241458
v 0.01495378 0.01423143 0.06544263
v 0.04927462 0.01423143 0.06537809
v 0.04678241 0.01263453 0.06083331
v 0.04738103 0.01263453 0.05864967
v 0.01725053 0.01423143 0.06545339
v 0.04254728 0.01263453 0.06241458
v 0.04701453 0.01423143 0.06544621
v 0.04396442 0.01263453 0.06225501
v 0.04484810 0.01263453 0.06210800
v 0.04554445 0.01263453 0.06188749
v 0.04650550 0.01263453 0.06118470
v 0.04471372 0.01423143 0.06545339
f 1 2 3
f 1 3 4
f 1 4 5
f 1 5 11
f 1 11 18
f 1 18 12
f 1 12 6
f 1 6 13
f 1 13 19
f 1 19 24
f 1 24 30
f 1 30 29
f 1 29 37
f 1 37 36
f 1 36 35
f 1 35 34
f 1 34 32
f 1 32 26
f 1 26 25
f 1 25 21
f 1 21 20
f 1 20 16
f 1 16 15
f 1 15 14
f 1 14 10
f 1 10 9
f 1 9 7
f 1 7 2
f 2 7 3
f 3 8 17
f 3 17 22
f 3 22 27
f 3 27 31
f 3 31 38
f 3 38 33
f 3 33 28
f 3 28 23
f 3 23 18
f 3 18 11
f 3 11 4
f 3 7 9
f 3 9 10
f 3 10 8
f 4 11 5
f 6 12 13
f 8 10 14
f 8 14 15
f 8 15 16
f 8 16 17
f 12 18 13
f 13 18 23
f 13 23 19
f 16 20 17
f 17 20 21
f 17 21 22
f 19 23 24
f 21 25 22
f 22 25 26
f 22 26 27
f 23 28 29
f 23 29 30
f 23 30 24
f 26 31 27
f 26 32 38
f 26 38 31
f 28 33 32
f 28 32 34
f 28 34 35
f 28 35 36
f 28 36 37
f 28 37 29
f 32 33 38

