# https://github.com/mikedh/trimesh
v 0.11626084 0.00763830 -0.01954600
v 0.11589777 0.00763830 -0.01725225
v 0.11592280 0.00424993 -0.01725225
v 0.11611060 0.00424993 -0.01845072
v 0.11626084 0.00424993 -0.01955394
v 0.11626084 0.00763830 -0.09652566
v 0.11526343 0.00763830 -0.01591885
v 0.11528847 0.00424993 -0.01583155
v 0.11561816 0.00424993 -0.01652999
v 0.11626084 0.00424993 -0.09652566
v 0.07364350 0.00763830 -0.09652566
v 0.11384869 0.00763830 -0.01573631
v 0.11384869 0.00424993 -0.01549820
v 0.11458736 0.00424993 -0.01560138
v 0.07466595 0.00424993 -0.09652566
v 0.07363097 0.00425424 -0.09652566
v 0.07368105 0.00424993 -0.01955394
v 0.07373531 0.00763830 -0.01955394
v 0.11274695 0.00424993 -0.01545058
v 0.07705305 0.00763830 -0.01573631
v 0.07366019 0.00424993 -0.09544625
v 0.07401909 0.00424993 -0.01725225
v 0.07426949 0.00763830 -0.01725225
v 0.07935252 0.00424993 -0.01545058
v 0.07535453 0.00763830 -0.01591885
v 0.07705305 0.00424993 -0.01545852
v 0.07506658 0.00424993 -0.01572837
f 1 2 3
f 1 3 4
f 1 4 5
f 1 5 10
f 1 10 6
f 1 6 11
f 1 11 18
f 1 18 23
f 1 23 25
f 1 25 20
f 1 20 12
f 1 12 7
f 1 7 2
f 2 7 8
f 2 8 9
f 2 9 3
f 3 9 8
f 3 8 14
f 3 14 13
f 3 13 19
f 3 19 24
f 3 24 26
f 3 26 27
f 3 27 22
f 3 22 17
f 3 17 21
f 3 21 15
f 3 15 10
f 3 10 5
f 3 5 4
f 6 10 15
f 6 15 16
f 6 16 11
f 7 12 13
f 7 13 14
f 7 14 8
f 11 16 17
f 11 17 18
f 12 19 13
f 12 20 24
f 12 24 19
f 15 21 16
f 16 21 17
f 17 22 18
f 18 22 23
f 20 25 26
f 20 26 24
f 22 27 23
f 23 27 25
f 25 27 26

