# https://github.com/mikedh/trimesh
v -0.06622307 0.01547194 0.09416507
v -0.06622307 0.01578579 0.09416507
v -0.06554564 0.01520449 0.09416507
v -0.07369420 0.01376979 0.09542966
v -0.06573919 0.01586908 0.09416507
v -0.07369420 0.01448714 0.09546616
v -0.06675211 0.01572717 0.09427242
v -0.07369420 0.01600415 0.09781285
v -0.06317784 0.01463857 0.09416507
v -0.07369420 0.01376979 0.11609899
v -0.06094554 0.01433009 0.09416507
v -0.05864872 0.01423092 0.09416507
v -0.00778310 0.01423092 0.09416507
v -0.00778310 0.01376979 0.09676296
v -0.06417787 0.01605031 0.09416507
v -0.07369420 0.01547316 0.09684239
v -0.07369420 0.01625327 0.10005004
v -0.06196491 0.01622274 0.09416507
v -0.07369420 0.01455015 0.11601310
v -0.00778310 0.01376979 0.11609899
v -0.00778310 0.01626500 0.09416507
v -0.07369420 0.01625963 0.10129531
v -0.06784891 0.01626427 0.09775059
v -0.06324882 0.01626500 0.09545113
v -0.05966164 0.01626500 0.09416507
v -0.07369420 0.01520742 0.11572326
v -0.00778310 0.01455015 0.11601310
v -0.00778310 0.01471624 0.11594011
v -0.00778310 0.01626500 0.11384892
v -0.07369420 0.01626500 0.10235164
v -0.07369420 0.01598241 0.11537974
v -0.00778310 0.01598241 0.11537974
v -0.07369420 0.01626500 0.11384892
v -0.07369420 0.01611210 0.11467767
f 1 2 5
f 1 5 15
f 1 15 18
f 1 18 25
f 1 25 21
f 1 21 13
f 1 13 12
f 1 12 11
f 1 11 9
f 1 9 3
f 1 3 4
f 1 4 2
f 2 4 6
f 2 6 7
f 2 7 8
f 2 8 5
f 3 9 4
f 4 10 19
f 4 19 26
f 4 26 31
f 4 31 34
f 4 34 33
f 4 33 30
f 4 30 22
f 4 22 17
f 4 17 8
f 4 8 16
f 4 16 6
f 4 9 11
f 4 11 12
f 4 12 13
f 4 13 14
f 4 14 20
f 4 20 10
f 5 8 15
f 6 16 7
f 7 16 8
f 8 17 18
f 8 18 15
f 10 20 27
f 10 27 19
f 13 21 29
f 13 29 32
f 13 32 28
f 13 28 27
f 13 27 20
f 13 20 14
f 17 22 23
f 17 23 24
f 17 24 18
f 18 24 25
f 19 27 28
f 19 28 26
f 21 25 24
f 21 24 30
f 21 30 33
f 21 33 29
f 22 30 23
f 23 30 24
f 26 28 32
f 26 32 31
f 29 33 34
f 29 34 32
f 31 32 34

