# https://github.com/mikedh/trimesh
v 0.00793624 0.01425611 -0.09273984
v 0.00793624 0.01425611 -0.06555053
v 0.00793624 0.01626500 -0.09273984
v 0.05404844 0.01425611 -0.09273984
v 0.00793624 0.01479019 -0.06315726
v 0.00805449 0.01425611 -0.06555053
v 0.00793624 0.01626500 -0.06555053
v 0.05593507 0.01626500 -0.09273984
v 0.05634894 0.01427204 -0.09273984
v 0.05404844 0.01425611 -0.09084871
v 0.00793624 0.01496382 -0.06274027
v 0.01035500 0.01430566 -0.06555053
v 0.02185214 0.01425611 -0.07245137
v 0.00793624 0.01626461 -0.06543307
v 0.00805449 0.01626500 -0.06555053
v 0.05404844 0.01626500 -0.09084871
v 0.05823557 0.01625772 -0.09273984
v 0.05863870 0.01437154 -0.09273984
v 0.05634894 0.01434480 -0.09084871
v 0.05174794 0.01428777 -0.08854942
v 0.04714693 0.01425985 -0.08624718
v 0.04254592 0.01425611 -0.08394788
v 0.00793624 0.01598695 -0.06274027
v 0.01035500 0.01502754 -0.06383266
v 0.01191375 0.01528455 -0.06419679
v 0.02645314 0.01426299 -0.07475067
v 0.03105415 0.01429622 -0.07705291
v 0.03564978 0.01435895 -0.07934927
v 0.01495063 0.01437429 -0.06785277
v 0.00793624 0.01605518 -0.06315726
v 0.01035500 0.01624180 -0.06555053
v 0.02185214 0.01626500 -0.07245137
v 0.04714693 0.01626323 -0.08624718
v 0.04254592 0.01626500 -0.08394788
v 0.05174794 0.01624986 -0.08854942
v 0.05634894 0.01622489 -0.09084871
v 0.06053070 0.01615704 -0.09273984
v 0.06094995 0.01462855 -0.09273984
v 0.04024542 0.01445432 -0.08164857
v 0.00793624 0.01602942 -0.06298694
v 0.01191375 0.01585756 -0.06419679
v 0.01035500 0.01595942 -0.06383266
v 0.01955164 0.01447596 -0.07015206
v 0.03105415 0.01501810 -0.07530273
v 0.03263441 0.01527176 -0.07568448
v 0.01637501 0.01537598 -0.06656069
v 0.05781632 0.01533666 -0.08953315
v 0.01495063 0.01621269 -0.06785277
v 0.03564978 0.01621899 -0.07934927
v 0.03105415 0.01624612 -0.07705291
v 0.02645314 0.01626166 -0.07475067
v 0.04024542 0.01618162 -0.08164857
v 0.06250870 0.01595824 -0.09273984
v 0.05174794 0.01596748 -0.08676988
v 0.06284195 0.01514080 -0.09273984
v 0.06094995 0.01515575 -0.09162690
v 0.05634894 0.01506667 -0.08921307
v 0.05174794 0.01500964 -0.08676988
v 0.01637501 0.01581882 -0.06656069
v 0.05781632 0.01583494 -0.08953315
v 0.03263441 0.01586326 -0.07568448
v 0.01955164 0.01617356 -0.07015206
v 0.03105415 0.01596355 -0.07530273
v 0.05335506 0.01526055 -0.08717218
v 0.02084164 0.01551167 -0.06892754
v 0.06228295 0.01545543 -0.09189999
v 0.04156229 0.01548276 -0.08041229
v 0.06094995 0.01590692 -0.09162690
v 0.06284195 0.01591282 -0.09273984
v 0.05634894 0.01594251 -0.08921307
v 0.05335506 0.01586837 -0.08717218
v 0.02084164 0.01576632 -0.06892754
v 0.04156229 0.01577713 -0.08041229
v 0.06228295 0.01578755 -0.09189999
v 0.04602355 0.01565738 -0.08278207
v 0.02530289 0.01569572 -0.07130025
v 0.02530289 0.01570123 -0.07130025
v 0.04602355 0.01571440 -0.08278207
f 1 2 5
f 1 5 11
f 1 11 23
f 1 23 40
f 1 40 30
f 1 30 14
f 1 14 7
f 1 7 3
f 1 3 8
f 1 8 17
f 1 17 37
f 1 37 53
f 1 53 69
f 1 69 55
f 1 55 38
f 1 38 18
f 1 18 9
f 1 9 4
f 1 4 10
f 1 10 22
f 1 22 13
f 1 13 6
f 1 6 2
f 2 6 5
f 3 7 15
f 3 15 32
f 3 32 34
f 3 34 16
f 3 16 8
f 4 9 10
f 5 6 12
f 5 12 11
f 6 13 12
f 7 14 15
f 8 16 17
f 9 18 19
f 9 19 10
f 10 19 20
f 10 20 21
f 10 21 22
f 11 12 24
f 11 24 25
f 11 25 41
f 11 41 23
f 12 13 26
f 12 26 27
f 12 27 19
f 12 19 28
f 12 28 29
f 12 29 24
f 13 22 21
f 13 21 26
f 14 30 31
f 14 31 32
f 14 32 15
f 16 33 17
f 16 34 33
f 17 33 35
f 17 35 36
f 17 36 37
f 18 38 19
f 19 38 39
f 19 39 28
f 19 27 20
f 20 27 26
f 20 26 21
f 23 41 42
f 23 42 40
f 24 29 43
f 24 43 44
f 24 44 45
f 24 45 25
f 25 46 59
f 25 59 41
f 25 45 47
f 25 47 46
f 28 39 29
f 29 39 43
f 30 40 31
f 31 40 42
f 31 42 48
f 31 48 49
f 31 49 36
f 31 36 50
f 31 50 51
f 31 51 32
f 32 51 33
f 32 33 34
f 33 51 35
f 35 51 50
f 35 50 36
f 36 49 52
f 36 52 37
f 37 52 54
f 37 54 53
f 38 55 56
f 38 56 57
f 38 57 58
f 38 58 39
f 39 58 44
f 39 44 43
f 41 59 60
f 41 60 61
f 41 61 42
f 42 62 48
f 42 61 63
f 42 63 62
f 44 58 45
f 45 58 64
f 45 64 47
f 46 65 72
f 46 72 59
f 46 47 66
f 46 66 67
f 46 67 65
f 47 64 56
f 47 56 66
f 48 62 52
f 48 52 49
f 52 62 54
f 53 68 69
f 53 54 70
f 53 70 71
f 53 71 68
f 54 71 70
f 54 62 63
f 54 63 71
f 55 69 74
f 55 74 66
f 55 66 56
f 56 64 57
f 57 64 58
f 59 72 73
f 59 73 74
f 59 74 60
f 60 74 68
f 60 68 71
f 60 71 61
f 61 71 63
f 65 67 75
f 65 75 76
f 65 76 77
f 65 77 72
f 66 74 78
f 66 78 75
f 66 75 67
f 68 74 69
f 72 77 78
f 72 78 73
f 73 78 74
f 75 78 77
f 75 77 76

