# https://github.com/mikedh/trimesh
v -0.07025226 0.00133324 0.09572895
v -0.07170529 0.00160749 0.09572895
v -0.07170529 0.00133324 0.09572895
v -0.07049192 0.00133324 0.01774498
v -0.07170529 0.00157767 0.02180479
v -0.07170529 0.00133324 0.01328160
v -0.07051468 0.00133324 0.01544468
v -0.07170529 0.00157431 0.01948836
v -0.07170529 0.00143510 0.01420979
v -0.07077383 0.00133324 0.01328160
v -0.07170529 0.00155579 0.01705893
f 1 2 3
f 1 3 6
f 1 6 10
f 1 10 7
f 1 7 4
f 1 4 5
f 1 5 2
f 2 5 8
f 2 8 11
f 2 11 9
f 2 9 6
f 2 6 3
f 4 7 8
f 4 8 5
f 6 9 10
f 7 10 11
f 7 11 8
f 9 11 10

