# https://github.com/mikedh/trimesh
v -0.07024108 0.00128407 -0.02185350
v -0.07367941 0.00424960 -0.01955262
v -0.07024917 0.00128407 -0.01725174
v -0.07024108 0.00128407 -0.08851966
v -0.07388572 0.00424960 -0.01783809
v -0.07032198 0.00128407 -0.01495828
v -0.07367941 0.00424960 -0.08656763
v -0.11156584 0.00128407 -0.08851966
v -0.07367941 0.00424699 -0.08851966
v -0.07401921 0.00424960 -0.01725174
v -0.07245375 0.00128407 -0.01282811
v -0.07450866 0.00424960 -0.01642045
v -0.07506688 0.00424960 -0.01573019
v -0.07475541 0.00424960 -0.08851966
v -0.11156584 0.00424960 -0.08851966
v -0.11156584 0.00128407 -0.01269451
v -0.07475137 0.00128407 -0.01274647
v -0.07616715 0.00424960 -0.01555948
v -0.07705303 0.00424960 -0.01546299
v -0.11156584 0.00424960 -0.01535908
v -0.07705303 0.00128407 -0.01273904
v -0.11154966 0.00424960 -0.01534423
v -0.11156584 0.00423944 -0.01533681
v -0.07815330 0.00424960 -0.01544815
f 1 2 3
f 1 3 6
f 1 6 11
f 1 11 17
f 1 17 21
f 1 21 16
f 1 16 8
f 1 8 4
f 1 4 7
f 1 7 2
f 2 5 6
f 2 6 3
f 2 7 14
f 2 14 15
f 2 15 20
f 2 20 22
f 2 22 24
f 2 24 19
f 2 19 18
f 2 18 13
f 2 13 12
f 2 12 10
f 2 10 5
f 4 8 15
f 4 15 14
f 4 14 9
f 4 9 7
f 5 10 6
f 6 10 12
f 6 12 13
f 6 13 11
f 7 9 14
f 8 16 23
f 8 23 20
f 8 20 15
f 11 13 18
f 11 18 19
f 11 19 17
f 16 21 22
f 16 22 23
f 17 19 24
f 17 24 21
f 20 23 22
f 21 24 22

