# https://github.com/mikedh/trimesh
v 0.00001866 0.00016826 0.11626500
v -0.11384053 0.00016826 0.11626500
v 0.00001866 -0.02224930 0.11626500
v 0.00001866 0.00016826 -0.00002341
v -0.11562759 0.00016826 0.11562694
v -0.11384053 -0.02224930 0.11626500
v 0.00001866 -0.02338001 0.11613966
v 0.00001866 -0.01063170 -0.00012596
v 0.00000728 0.00016826 -0.00012596
v -0.11562759 -0.02224930 0.11562694
v -0.11626500 0.00016826 0.11384945
v -0.11550238 -0.02454953 0.11550160
v -0.11384053 -0.02454953 0.11600294
v 0.00001866 -0.02454953 0.11600294
v 0.00001866 -0.02626241 -0.00012596
v -0.11571864 0.00016826 -0.00012596
v -0.11626500 -0.02224930 0.11384945
v -0.11626500 0.00016826 0.01897059
v -0.11600320 -0.02454953 0.11384945
v -0.11525196 -0.02588723 0.11525093
v 0.00001866 -0.02525331 0.11569530
v -0.11384053 -0.02598038 0.11537626
v -0.11384053 -0.02626241 -0.00012596
v 0.00001866 -0.02626241 0.11384945
v -0.11626500 -0.00155239 -0.00012596
v -0.11626500 -0.02224930 -0.00012596
v -0.11537716 -0.02598038 0.11384945
v -0.11600320 -0.02454953 -0.00012596
v -0.11384053 -0.02626241 0.11384945
v 0.00001866 -0.02598038 0.11537626
v 0.00001866 -0.02612010 0.11462425
v -0.11470560 -0.02610458 -0.00012596
v -0.11537716 -0.02598038 -0.00012596
f 1 2 6
f 1 6 3
f 1 3 7
f 1 7 14
f 1 14 21
f 1 21 30
f 1 30 31
f 1 31 24
f 1 24 15
f 1 15 8
f 1 8 4
f 1 4 9
f 1 9 16
f 1 16 18
f 1 18 11
f 1 11 5
f 1 5 2
f 2 5 10
f 2 10 6
f 3 6 7
f 4 8 9
f 5 11 17
f 5 17 10
f 6 10 12
f 6 12 13
f 6 13 7
f 7 13 14
f 8 15 23
f 8 23 32
f 8 32 33
f 8 33 28
f 8 28 26
f 8 26 25
f 8 25 16
f 8 16 9
f 10 17 12
f 11 18 25
f 11 25 26
f 11 26 17
f 12 17 19
f 12 19 20
f 12 20 13
f 13 21 14
f 13 20 22
f 13 22 21
f 15 24 29
f 15 29 23
f 16 25 18
f 17 26 28
f 17 28 19
f 19 27 20
f 19 28 33
f 19 33 27
f 20 27 29
f 20 29 22
f 21 22 30
f 22 29 31
f 22 31 30
f 23 29 32
f 24 31 29
f 27 33 32
f 27 32 29

