# https://github.com/mikedh/trimesh
v -0.05123093 0.01590679 -0.02952659
v -0.05175155 0.01594417 -0.02940689
v -0.05473565 0.01586989 -0.02737201
v -0.05123093 0.01515636 -0.02952659
v -0.05123093 0.01595903 -0.02978095
v -0.05635469 0.01596861 -0.02696802
v -0.05473565 0.01525723 -0.02737201
v -0.07245612 0.01593842 -0.01793073
v -0.07100216 0.01582964 -0.01824494
v -0.06653237 0.01578076 -0.02061648
v -0.06206892 0.01571871 -0.02298054
v -0.05123093 0.01446390 -0.03105276
v -0.07465292 0.01381721 -0.01629234
v -0.07286882 0.01381721 -0.01751178
v -0.05123093 0.01617683 -0.03105276
v -0.05175155 0.01622666 -0.03105276
v -0.06785299 0.01618425 -0.02185088
v -0.06206892 0.01564491 -0.02298054
v -0.07245612 0.01622091 -0.01955415
v -0.07486245 0.01595471 -0.01720505
v -0.07570688 0.01574794 -0.01606043
v -0.07432912 0.01455016 -0.01646441
v -0.05175155 0.01434027 -0.03105276
v -0.05123093 0.01424203 -0.03335697
v -0.07547832 0.01455016 -0.01597813
v -0.07544022 0.01381721 -0.01596317
v -0.07262120 0.01381721 -0.01773622
v -0.05123093 0.01623529 -0.03157644
v -0.05635469 0.01625110 -0.02875603
v -0.06095147 0.01626356 -0.02645182
v -0.06555460 0.01626500 -0.02415509
v -0.07015138 0.01626500 -0.02185088
v -0.07475451 0.01626500 -0.01955415
v -0.07705290 0.01605439 -0.01725742
v -0.07705290 0.01577190 -0.01603798
v -0.07705290 0.01455016 -0.01585095
v -0.05123093 0.01423940 -0.03565370
v -0.07165613 0.01381721 -0.01941201
v -0.07160534 0.01381721 -0.01955415
v -0.07145296 0.01381721 -0.02185088
v -0.07597990 0.01381721 -0.01590332
v -0.05123093 0.01626500 -0.03335697
v -0.05405630 0.01626500 -0.03105276
v -0.11384620 0.01626500 -0.01955415
v -0.11384620 0.01605439 -0.01725742
v -0.11384620 0.01577190 -0.01603798
v -0.11384620 0.01455016 -0.01585095
v -0.07705290 0.01381721 -0.01582103
v -0.05123093 0.01423940 -0.06042397
v -0.07145296 0.01381721 -0.09224152
v -0.05123093 0.01626500 -0.09224152
v -0.11537636 0.01598227 -0.01955415
v -0.11523667 0.01587708 -0.01725742
v -0.11384620 0.01626500 -0.09224152
v -0.11506524 0.01574794 -0.01606043
v -0.11384620 0.01381721 -0.01582103
v -0.11517953 0.01455016 -0.01597813
v -0.05123093 0.01425617 -0.09224152
v -0.11608746 0.01381721 -0.09224152
v -0.11601126 0.01455016 -0.01955415
v -0.11537636 0.01598227 -0.09224152
v -0.11576365 0.01511562 -0.09224152
v -0.11568745 0.01455016 -0.01725742
v -0.11520492 0.01381721 -0.01596317
v -0.11575730 0.01381721 -0.01725742
v -0.11540809 0.01381721 -0.01638212
v -0.11608746 0.01381721 -0.01955415
v -0.11601126 0.01455016 -0.09224152
v -0.11587158 0.01381721 -0.01798310
f 1 2 3
f 1 3 7
f 1 7 4
f 1 4 12
f 1 12 24
f 1 24 37
f 1 37 49
f 1 49 58
f 1 58 51
f 1 51 42
f 1 42 28
f 1 28 15
f 1 15 5
f 1 5 2
f 2 5 6
f 2 6 3
f 3 6 8
f 3 8 9
f 3 9 10
f 3 10 11
f 3 11 18
f 3 18 7
f 4 7 13
f 4 13 14
f 4 14 12
f 5 15 6
f 6 15 16
f 6 16 17
f 6 17 8
f 7 18 13
f 8 17 19
f 8 19 20
f 8 20 21
f 8 21 9
f 9 21 22
f 9 22 11
f 9 11 10
f 11 22 18
f 12 23 24
f 12 14 23
f 13 18 22
f 13 22 25
f 13 25 26
f 13 26 41
f 13 41 48
f 13 48 56
f 13 56 64
f 13 64 66
f 13 66 65
f 13 65 69
f 13 69 67
f 13 67 59
f 13 59 50
f 13 50 40
f 13 40 39
f 13 39 38
f 13 38 27
f 13 27 14
f 14 27 23
f 15 28 16
f 16 29 19
f 16 19 17
f 16 28 29
f 19 29 30
f 19 30 31
f 19 31 32
f 19 32 33
f 19 33 34
f 19 34 20
f 20 34 21
f 21 35 36
f 21 36 25
f 21 25 22
f 21 34 35
f 23 27 24
f 24 27 38
f 24 38 39
f 24 39 40
f 24 40 37
f 25 36 41
f 25 41 26
f 28 42 43
f 28 43 29
f 29 43 30
f 30 43 31
f 31 43 42
f 31 42 51
f 31 51 54
f 31 54 44
f 31 44 33
f 31 33 32
f 33 44 45
f 33 45 34
f 34 45 46
f 34 46 35
f 35 46 47
f 35 47 36
f 36 47 56
f 36 56 48
f 36 48 41
f 37 40 50
f 37 50 49
f 44 52 53
f 44 53 45
f 44 54 61
f 44 61 52
f 45 53 55
f 45 55 46
f 46 55 47
f 47 55 57
f 47 57 56
f 49 50 58
f 50 59 68
f 50 68 62
f 50 62 61
f 50 61 54
f 50 54 51
f 50 51 58
f 52 60 53
f 52 61 62
f 52 62 60
f 53 63 55
f 53 60 63
f 55 63 57
f 56 57 64
f 57 63 65
f 57 65 66
f 57 66 64
f 59 67 60
f 59 60 68
f 60 67 69
f 60 69 63
f 60 62 68
f 63 69 65

