# https://github.com/mikedh/trimesh
v -0.06884973 0.00764370 -0.11626310
v -0.06884973 0.01224961 -0.11626310
v -0.06784263 0.00763890 -0.11626310
v -0.06884973 0.00763890 -0.10634294
v -0.06884973 0.01324967 -0.11615428
v 0.00793087 0.01236907 -0.11625164
v 0.00793087 0.01224961 -0.11626310
v 0.00575883 0.00763890 -0.11626310
v -0.06785765 0.00763890 -0.09873673
v -0.06884973 0.00764550 -0.09872909
v -0.06884973 0.01377071 -0.11609700
v 0.00793087 0.01377071 -0.11609700
v 0.00793087 0.00763950 -0.11626310
v 0.00793087 0.00763890 -0.09956340
v 0.00574379 0.00763890 -0.09873673
v -0.06884973 0.01377071 -0.09676262
v 0.00793087 0.01377071 -0.09676262
v 0.00793087 0.00764971 -0.09873673
f 1 2 7
f 1 7 13
f 1 13 8
f 1 8 3
f 1 3 4
f 1 4 10
f 1 10 16
f 1 16 11
f 1 11 5
f 1 5 2
f 2 5 6
f 2 6 7
f 3 8 14
f 3 14 15
f 3 15 9
f 3 9 4
f 4 9 10
f 5 11 6
f 6 12 17
f 6 17 18
f 6 18 14
f 6 14 13
f 6 13 7
f 6 11 12
f 8 13 14
f 9 15 10
f 10 15 17
f 10 17 16
f 11 16 17
f 11 17 12
f 14 18 15
f 15 18 17

