# https://github.com/mikedh/trimesh
v 0.00001866 -0.02626500 -0.00013734
v 0.00001866 -0.02626500 0.08845403
v 0.00001866 0.00126292 -0.00013734
v 0.11384131 -0.02626500 -0.00013734
v 0.00001866 0.00126292 0.08845403
v 0.11384131 -0.02626500 0.08845403
v 0.01044169 0.00128449 0.02415244
v 0.01045307 0.00128449 0.02185441
v 0.01052134 0.00128449 0.01955637
v 0.01264918 0.00128449 0.01742310
v 0.01495909 0.00128449 0.01513374
v 0.11384131 0.00128449 0.00004476
v 0.11384131 0.00127101 -0.00013734
v 0.11537745 -0.02598185 -0.00013734
v 0.01053272 0.00128449 0.06307159
v 0.01045307 0.00128449 0.06080824
v 0.01044169 0.00128449 0.05851021
v 0.07023755 0.00128449 0.08845403
v 0.11537745 -0.02598185 0.08845403
v 0.11547986 0.00128449 0.00353084
v 0.11484265 0.00080448 -0.00013734
v 0.11573020 -0.02517823 -0.00013734
v 0.11626500 0.00128449 0.08845403
v 0.11600328 -0.02454990 0.08845403
v 0.11579847 0.00128449 0.00575082
v 0.11562779 0.00043773 -0.00013734
v 0.11600328 -0.02454990 -0.00013734
v 0.11626500 -0.02224961 0.08845403
v 0.11626500 0.00128449 0.01955637
v 0.11601466 -0.02445282 0.08845403
v 0.11600328 0.00128449 0.00805753
v 0.11602604 0.00074785 0.00575082
v 0.11626500 -0.00155244 -0.00013734
v 0.11615121 -0.02326088 -0.00013734
v 0.11626500 -0.02224961 -0.00013734
v 0.11626500 0.00074785 0.01035557
v 0.11624225 0.00128449 0.01725834
v 0.11608293 0.00128449 0.01035557
v 0.11619673 0.00074785 0.00805753
f 1 2 5
f 1 5 3
f 1 3 13
f 1 13 21
f 1 21 26
f 1 26 33
f 1 33 35
f 1 35 34
f 1 34 27
f 1 27 22
f 1 22 14
f 1 14 4
f 1 4 6
f 1 6 2
f 2 6 19
f 2 19 24
f 2 24 30
f 2 30 28
f 2 28 23
f 2 23 18
f 2 18 5
f 3 5 17
f 3 17 7
f 3 7 8
f 3 8 9
f 3 9 10
f 3 10 11
f 3 11 12
f 3 12 13
f 4 14 19
f 4 19 6
f 5 15 16
f 5 16 17
f 5 18 15
f 7 17 16
f 7 16 15
f 7 15 18
f 7 18 23
f 7 23 29
f 7 29 37
f 7 37 38
f 7 38 31
f 7 31 25
f 7 25 20
f 7 20 12
f 7 12 11
f 7 11 10
f 7 10 9
f 7 9 8
f 12 20 13
f 13 20 21
f 14 22 19
f 19 22 24
f 20 25 26
f 20 26 21
f 22 27 24
f 23 28 35
f 23 35 33
f 23 33 36
f 23 36 29
f 24 27 30
f 25 31 32
f 25 32 26
f 26 32 33
f 27 34 30
f 28 30 34
f 28 34 35
f 29 36 37
f 31 38 39
f 31 39 32
f 32 39 33
f 33 39 36
f 36 39 38
f 36 38 37

