# https://github.com/mikedh/trimesh
v -0.05123092 0.01423940 -0.04932555
v -0.05123092 0.01423940 -0.03564751
v -0.05123092 0.01626500 -0.04932555
v -0.04834034 0.01381721 -0.04932555
v -0.05123092 0.01424203 -0.03335149
v -0.04834034 0.01381721 -0.03564751
v -0.05123092 0.01626500 -0.03335149
v -0.01725075 0.01626500 -0.04932555
v -0.01330364 0.01381721 -0.04932555
v -0.05123092 0.01446390 -0.03104954
v -0.04829942 0.01381721 -0.03335149
v -0.04609335 0.01381721 -0.02045166
v -0.05123092 0.01623529 -0.03156934
v -0.04254801 0.01626500 -0.02185065
v -0.01725075 0.01626500 -0.02185065
v -0.01478799 0.01603282 -0.04932555
v -0.01322551 0.01447804 -0.04932555
v -0.01377238 0.01381721 -0.02185065
v -0.05123092 0.01515636 -0.02952283
v -0.04484709 0.01381721 -0.01959325
v -0.04607475 0.01455016 -0.02049621
v -0.05123092 0.01590679 -0.02952283
v -0.05123092 0.01617683 -0.03104954
v -0.04484709 0.01585432 -0.02035958
v -0.04484709 0.01600862 -0.02185065
v -0.04254801 0.01598227 -0.02008037
v -0.01725075 0.01598227 -0.02008037
v -0.01547250 0.01588810 -0.02028829
v -0.01516001 0.01598227 -0.02185065
v -0.01476567 0.01602875 -0.04932555
v -0.01323667 0.01451542 -0.04932555
v -0.01401047 0.01494503 -0.02185065
v -0.01397327 0.01381721 -0.02052294
v -0.04254801 0.01381721 -0.01898138
v -0.04484709 0.01455016 -0.01969721
v -0.04601522 0.01571751 -0.02065957
v -0.05123092 0.01595903 -0.02978124
v -0.04254801 0.01455016 -0.01909722
v -0.01725075 0.01455016 -0.01909722
v -0.01480659 0.01447804 -0.02002394
v -0.01356405 0.01558740 -0.04932555
v -0.01484751 0.01381721 -0.01990513
v -0.01725075 0.01381721 -0.01898138
v -0.01553203 0.01381721 -0.01964077
f 1 2 5
f 1 5 10
f 1 10 19
f 1 19 22
f 1 22 37
f 1 37 23
f 1 23 13
f 1 13 7
f 1 7 3
f 1 3 8
f 1 8 16
f 1 16 30
f 1 30 41
f 1 41 31
f 1 31 17
f 1 17 9
f 1 9 4
f 1 4 6
f 1 6 2
f 2 6 5
f 3 7 14
f 3 14 15
f 3 15 8
f 4 9 18
f 4 18 33
f 4 33 42
f 4 42 44
f 4 44 43
f 4 43 34
f 4 34 20
f 4 20 12
f 4 12 11
f 4 11 6
f 5 6 11
f 5 11 12
f 5 12 10
f 7 13 14
f 8 15 16
f 9 17 18
f 10 12 19
f 12 20 21
f 12 21 22
f 12 22 19
f 13 23 24
f 13 24 25
f 13 25 14
f 14 25 24
f 14 24 26
f 14 26 27
f 14 27 15
f 15 27 28
f 15 28 29
f 15 29 16
f 16 29 30
f 17 31 32
f 17 32 18
f 18 32 33
f 20 34 35
f 20 35 21
f 21 35 36
f 21 36 22
f 22 36 37
f 23 37 36
f 23 36 24
f 24 36 35
f 24 35 38
f 24 38 26
f 26 38 39
f 26 39 27
f 27 39 28
f 28 39 40
f 28 40 33
f 28 33 32
f 28 32 29
f 29 32 41
f 29 41 30
f 31 41 32
f 33 40 42
f 34 38 35
f 34 43 39
f 34 39 38
f 39 43 44
f 39 44 40
f 40 44 42

