# https://github.com/mikedh/trimesh
v 0.04658249 0.00422619 0.05634651
v 0.04626403 0.00761002 0.05864991
v 0.04655649 0.00422619 0.05864991
v 0.04658249 0.00422619 0.02297440
v 0.04613080 0.00761002 0.06002944
v 0.04626403 0.00761002 0.02185405
v 0.04626403 0.00422619 0.06012977
v 0.04655649 0.00422619 0.02185405
v 0.04484721 0.00761002 0.06076101
v 0.04613404 0.00761002 0.02038256
v 0.04484721 0.00422619 0.06088224
v 0.04648500 0.00422619 0.02108904
v 0.04254976 0.00761002 0.06126266
v 0.04613080 0.00761002 0.02035747
v 0.04254976 0.00422619 0.06130446
v 0.04626403 0.00422619 0.02028223
v 0.04142540 0.00422619 0.06131282
v 0.01725177 0.00761002 0.06126266
v 0.04486996 0.00761002 0.01939180
v 0.04484721 0.00422619 0.01917860
v 0.01955248 0.00422619 0.06131282
v 0.01495107 0.00761002 0.06059379
v 0.01612742 0.00422619 0.06109544
v 0.01725177 0.00422619 0.06130446
v 0.04484721 0.00761002 0.01937508
v 0.04370661 0.00422619 0.01886089
v 0.01376822 0.00761002 0.05985804
v 0.01361874 0.00422619 0.06000018
v 0.01422642 0.00422619 0.06037223
v 0.01495107 0.00422619 0.06074847
v 0.04254976 0.00761002 0.01873548
v 0.04254976 0.00422619 0.01861425
v 0.01343027 0.00422619 0.05926861
v 0.01373573 0.00761002 0.05864991
v 0.04024906 0.00422619 0.01860589
v 0.01725177 0.00761002 0.01873548
v 0.01341402 0.00422619 0.05864991
v 0.01338802 0.00422619 0.05752538
v 0.01373573 0.00761002 0.02182897
v 0.01902604 0.00422619 0.01860589
v 0.01725177 0.00422619 0.01861425
v 0.01495432 0.00422619 0.01936254
v 0.01499007 0.00761002 0.01960918
v 0.01338802 0.00422619 0.02415327
v 0.01376822 0.00761002 0.02060830
v 0.01341402 0.00422619 0.02185405
v 0.01436615 0.00422619 0.01984746
v 0.01495107 0.00761002 0.01962590
v 0.01361874 0.00422619 0.02047452
f 1 2 3
f 1 3 7
f 1 7 11
f 1 11 15
f 1 15 17
f 1 17 21
f 1 21 24
f 1 24 23
f 1 23 30
f 1 30 29
f 1 29 28
f 1 28 33
f 1 33 37
f 1 37 38
f 1 38 44
f 1 44 46
f 1 46 49
f 1 49 47
f 1 47 42
f 1 42 41
f 1 41 40
f 1 40 35
f 1 35 32
f 1 32 26
f 1 26 20
f 1 20 16
f 1 16 12
f 1 12 8
f 1 8 4
f 1 4 6
f 1 6 2
f 2 5 3
f 2 6 10
f 2 10 14
f 2 14 19
f 2 19 25
f 2 25 31
f 2 31 36
f 2 36 43
f 2 43 48
f 2 48 45
f 2 45 39
f 2 39 34
f 2 34 27
f 2 27 22
f 2 22 18
f 2 18 13
f 2 13 9
f 2 9 5
f 3 5 7
f 4 8 6
f 5 9 7
f 6 8 10
f 7 9 11
f 8 12 10
f 9 13 11
f 10 12 14
f 11 13 15
f 12 16 14
f 13 17 15
f 13 18 21
f 13 21 17
f 14 16 20
f 14 20 19
f 18 22 23
f 18 23 24
f 18 24 21
f 19 20 25
f 20 26 25
f 22 27 28
f 22 28 29
f 22 29 30
f 22 30 23
f 25 26 31
f 26 32 31
f 27 33 28
f 27 34 33
f 31 32 35
f 31 35 40
f 31 40 36
f 33 34 37
f 34 38 37
f 34 39 44
f 34 44 38
f 36 40 41
f 36 41 42
f 36 42 43
f 39 45 46
f 39 46 44
f 42 47 48
f 42 48 43
f 45 49 46
f 45 48 47
f 45 47 49

