# https://github.com/mikedh/trimesh
v -0.06632662 0.00133322 0.09577917
v -0.06632662 0.00133322 0.11626500
v -0.06632662 0.00422586 0.09840031
v 0.00001216 0.00133322 0.09577917
v -0.06632662 0.00422586 0.11626500
v 0.00001216 0.00133322 0.11626500
v 0.00001216 0.00422586 0.09840031
v -0.00115042 0.00422586 0.11626500
v 0.00001216 0.00421850 0.11626500
v 0.00001216 0.00422586 0.11377622
f 1 2 5
f 1 5 3
f 1 3 7
f 1 7 4
f 1 4 6
f 1 6 2
f 2 6 9
f 2 9 8
f 2 8 5
f 3 5 8
f 3 8 10
f 3 10 7
f 4 7 10
f 4 10 9
f 4 9 6
f 8 9 10

