# https://github.com/mikedh/trimesh
v -0.11156630 0.00128407 -0.01269912
v -0.11156630 0.00423944 -0.01533779
v -0.11163852 0.00128407 -0.00575208
v -0.11156630 0.00128407 -0.08851966
v -0.11156630 0.00424960 -0.01536374
v -0.11166979 0.00128407 -0.00345082
v -0.11626500 0.00128407 -0.08851966
v -0.11156630 0.00424960 -0.08851966
v -0.11418681 0.00424960 -0.01392762
v -0.11367853 0.00128407 -0.00013735
v -0.11201800 0.00128407 -0.00115821
v -0.11626500 0.00424960 -0.08851966
v -0.11626500 0.00128407 -0.01955100
v -0.11494117 0.00424960 -0.01366807
v -0.11385010 0.00129075 -0.00013735
v -0.11386482 0.00128407 -0.00013735
v -0.11626500 0.00424960 -0.01955100
v -0.11624844 0.00128407 -0.01725839
v -0.11504099 0.00424960 -0.01366807
v -0.11518635 0.00203162 -0.00399585
v -0.11548349 0.00128407 -0.00352868
v -0.11608930 0.00128407 -0.01035460
v -0.11601017 0.00128407 -0.00805334
v -0.11610033 0.00424960 -0.01725839
v -0.11505249 0.00424960 -0.01367673
v -0.11539840 0.00222235 -0.00575208
v -0.11558331 0.00424960 -0.01503499
v -0.11580180 0.00128407 -0.00575208
f 1 2 3
f 1 3 6
f 1 6 11
f 1 11 10
f 1 10 16
f 1 16 21
f 1 21 28
f 1 28 23
f 1 23 22
f 1 22 18
f 1 18 13
f 1 13 7
f 1 7 4
f 1 4 8
f 1 8 5
f 1 5 2
f 2 5 6
f 2 6 3
f 4 7 12
f 4 12 8
f 5 9 10
f 5 10 11
f 5 11 6
f 5 8 12
f 5 12 17
f 5 17 24
f 5 24 27
f 5 27 25
f 5 25 19
f 5 19 14
f 5 14 9
f 7 13 17
f 7 17 12
f 9 14 10
f 10 15 16
f 10 14 15
f 13 18 17
f 14 19 15
f 15 20 16
f 15 19 20
f 16 20 21
f 17 18 22
f 17 22 23
f 17 23 24
f 19 25 20
f 20 26 21
f 20 25 27
f 20 27 24
f 20 24 26
f 21 26 28
f 23 28 24
f 24 28 26

