# https://github.com/mikedh/trimesh
v 0.01374512 0.01263453 0.02864225
v 0.01374512 0.01263453 0.04713801
v 0.01376699 0.01380000 0.04713801
v 0.01376699 0.01374060 0.02864225
v 0.04643889 0.01263453 0.02864225
v 0.04680345 0.01263453 0.04713801
v 0.01385813 0.01423143 0.04713801
v 0.01385813 0.01423143 0.04627614
v 0.01386178 0.01423143 0.02864225
v 0.01377428 0.01381532 0.02864225
v 0.01377064 0.01379485 0.02864225
v 0.04643889 0.01272144 0.02864225
v 0.05084643 0.01423143 0.03335174
v 0.04701125 0.01263453 0.03104860
v 0.04740133 0.01263453 0.04656041
v 0.04740498 0.01263953 0.04713801
v 0.05098496 0.01423143 0.04713801
v 0.04643160 0.01423143 0.02864225
v 0.05098496 0.01423143 0.03565126
v 0.04739404 0.01263453 0.03335174
v 0.04740133 0.01263453 0.03565126
f 1 2 3
f 1 3 4
f 1 4 11
f 1 11 10
f 1 10 9
f 1 9 18
f 1 18 12
f 1 12 5
f 1 5 14
f 1 14 20
f 1 20 21
f 1 21 15
f 1 15 6
f 1 6 2
f 2 6 16
f 2 16 17
f 2 17 7
f 2 7 3
f 3 7 8
f 3 8 9
f 3 9 10
f 3 10 11
f 3 11 4
f 5 12 13
f 5 13 14
f 6 15 16
f 7 17 19
f 7 19 13
f 7 13 18
f 7 18 9
f 7 9 8
f 12 18 13
f 13 19 20
f 13 20 14
f 15 17 16
f 15 21 19
f 15 19 17
f 19 21 20

