# https://github.com/mikedh/trimesh
v -0.11383808 0.00424993 -0.11626326
v -0.11477625 0.00424993 -0.11593255
v -0.11383808 0.00763797 -0.11626326
v 0.01325793 0.00424993 -0.11626326
v -0.11562565 0.00763797 -0.11562982
v -0.11562565 0.00424993 -0.11562982
v 0.01325793 0.00763797 -0.11626326
v 0.01325793 0.00424993 -0.09840784
v -0.11625956 0.00763797 -0.11384848
v -0.11625956 0.00424993 -0.11384848
v 0.01325793 0.00763797 -0.09873682
v -0.07017537 0.00424993 -0.09838684
v -0.07089801 0.00763797 -0.09838684
v -0.11625956 0.00763797 -0.09838684
v -0.11625956 0.00424993 -0.09838684
f 1 2 3
f 1 3 7
f 1 7 4
f 1 4 8
f 1 8 12
f 1 12 15
f 1 15 10
f 1 10 6
f 1 6 2
f 2 5 3
f 2 6 5
f 3 5 9
f 3 9 14
f 3 14 13
f 3 13 11
f 3 11 7
f 4 7 11
f 4 11 8
f 5 6 10
f 5 10 9
f 8 11 13
f 8 13 12
f 9 10 15
f 9 15 14
f 12 13 14
f 12 14 15

