# https://github.com/mikedh/trimesh
v 0.01725110 0.01263453 0.01879545
v 0.01682861 0.01263453 0.01895738
v 0.01507460 0.01423143 0.01987979
v 0.01725110 0.01423143 0.01904702
v 0.04254980 0.01263453 0.01879545
v 0.01492736 0.01263453 0.01969280
v 0.01482174 0.01423143 0.01997811
v 0.04254980 0.01423143 0.01904702
v 0.04484794 0.01423143 0.01965039
v 0.04484794 0.01263453 0.01942774
v 0.01463289 0.01263453 0.01990003
v 0.01449526 0.01423143 0.02020847
v 0.04608342 0.01423143 0.02047739
v 0.04612184 0.01263453 0.02038004
v 0.01377189 0.01263453 0.02061522
v 0.01378150 0.01366323 0.02063835
v 0.01386151 0.01423143 0.02185089
v 0.04610263 0.01423143 0.02068365
v 0.04622746 0.01263453 0.02158390
v 0.01374629 0.01263453 0.02185089
v 0.01376869 0.01379485 0.02185089
v 0.01377189 0.01381532 0.02864225
v 0.01386151 0.01423143 0.02864225
v 0.04616985 0.01423143 0.02185089
v 0.04624666 0.01263453 0.02185089
v 0.04623066 0.01263453 0.02162438
v 0.01374629 0.01263453 0.02864225
v 0.01376869 0.01379485 0.02864225
v 0.04643231 0.01423143 0.02864225
v 0.04643871 0.01272144 0.02864225
v 0.04643871 0.01263453 0.02864225
f 1 2 3
f 1 3 4
f 1 4 8
f 1 8 5
f 1 5 10
f 1 10 14
f 1 14 19
f 1 19 26
f 1 26 25
f 1 25 31
f 1 31 27
f 1 27 20
f 1 20 15
f 1 15 11
f 1 11 6
f 1 6 2
f 2 6 3
f 3 6 7
f 3 7 12
f 3 12 17
f 3 17 23
f 3 23 29
f 3 29 24
f 3 24 18
f 3 18 13
f 3 13 9
f 3 9 8
f 3 8 4
f 5 8 9
f 5 9 10
f 6 11 7
f 7 11 12
f 9 13 10
f 10 13 14
f 11 15 16
f 11 16 12
f 12 16 17
f 13 18 14
f 14 18 19
f 15 20 16
f 16 20 21
f 16 21 17
f 17 21 22
f 17 22 23
f 18 24 25
f 18 25 26
f 18 26 19
f 20 27 28
f 20 28 21
f 21 28 22
f 22 28 27
f 22 27 31
f 22 31 30
f 22 30 29
f 22 29 23
f 24 29 25
f 25 29 30
f 25 30 31

