# https://github.com/mikedh/trimesh
v -0.01068414 0.00133322 0.05634950
v -0.01338617 0.00422586 0.05634950
v -0.01069543 0.00133322 0.05864962
v -0.01068414 0.00133322 0.02233767
v -0.01341252 0.00422586 0.05864962
v -0.01338617 0.00422586 0.02297685
v -0.01095886 0.00133322 0.06095440
v -0.01069543 0.00133322 0.02004222
v -0.01361950 0.00422586 0.05999796
v -0.01341252 0.00422586 0.02185245
v -0.01264481 0.00133322 0.06264332
v -0.01343133 0.00422586 0.02121794
v -0.01096263 0.00133322 0.01786341
v -0.01495170 0.00422586 0.06074911
v -0.01495170 0.00133322 0.06292325
v -0.01725106 0.00422586 0.06130431
v -0.01361950 0.00422586 0.02047612
v -0.01326951 0.00133322 0.01557263
v -0.01725106 0.00133322 0.06295591
v -0.01837627 0.00422586 0.06130898
v -0.01495546 0.00422586 0.01936105
v -0.01544468 0.00133322 0.01531136
v -0.01725106 0.00422586 0.01861457
v -0.01609949 0.00422586 0.01891783
v -0.01955041 0.00133322 0.06296058
v -0.04024842 0.00422586 0.06130898
v -0.01774404 0.00133322 0.01529736
v -0.01955041 0.00422586 0.01860990
v -0.04209618 0.00133322 0.06296058
v -0.04254778 0.00422586 0.06130431
v -0.04024842 0.00133322 0.01529736
v -0.04077528 0.00422586 0.01860990
v -0.04438425 0.00133322 0.06294659
v -0.04367300 0.00422586 0.06114102
v -0.04883997 0.00133322 0.06264332
v -0.04666480 0.00133322 0.06291859
v -0.04254778 0.00133322 0.01531136
v -0.04254778 0.00422586 0.01861457
v -0.04484714 0.00422586 0.06088441
v -0.04560355 0.00422586 0.06050650
v -0.04626213 0.00422586 0.06013326
v -0.04648416 0.00422586 0.05935411
v -0.04911093 0.00133322 0.06045985
v -0.04484714 0.00133322 0.01556330
v -0.04484714 0.00422586 0.01917910
v -0.04655566 0.00422586 0.05864962
v -0.04658201 0.00422586 0.05752522
v -0.04912598 0.00133322 0.05816440
v -0.04715779 0.00133322 0.01783075
v -0.04626589 0.00422586 0.02028017
v -0.04548689 0.00422586 0.01966898
v -0.04658201 0.00422586 0.02415257
v -0.04912598 0.00133322 0.02415257
v -0.04885126 0.00133322 0.01954301
v -0.04655566 0.00422586 0.02185245
v -0.04911469 0.00133322 0.02185245
f 1 2 3
f 1 3 7
f 1 7 11
f 1 11 15
f 1 15 19
f 1 19 25
f 1 25 29
f 1 29 33
f 1 33 36
f 1 36 35
f 1 35 43
f 1 43 48
f 1 48 53
f 1 53 56
f 1 56 54
f 1 54 49
f 1 49 44
f 1 44 37
f 1 37 31
f 1 31 27
f 1 27 22
f 1 22 18
f 1 18 13
f 1 13 8
f 1 8 4
f 1 4 6
f 1 6 2
f 2 5 3
f 2 6 10
f 2 10 12
f 2 12 17
f 2 17 21
f 2 21 24
f 2 24 23
f 2 23 28
f 2 28 32
f 2 32 38
f 2 38 45
f 2 45 51
f 2 51 50
f 2 50 55
f 2 55 52
f 2 52 47
f 2 47 46
f 2 46 42
f 2 42 41
f 2 41 40
f 2 40 39
f 2 39 34
f 2 34 30
f 2 30 26
f 2 26 20
f 2 20 16
f 2 16 14
f 2 14 9
f 2 9 5
f 3 5 7
f 4 8 6
f 5 9 7
f 6 8 10
f 7 9 11
f 8 12 10
f 8 13 12
f 9 14 11
f 11 14 16
f 11 16 15
f 12 13 17
f 13 18 17
f 15 16 19
f 16 20 19
f 17 18 21
f 18 22 23
f 18 23 24
f 18 24 21
f 19 20 25
f 20 26 29
f 20 29 25
f 22 27 23
f 23 27 28
f 26 30 29
f 27 31 32
f 27 32 28
f 29 30 33
f 30 34 35
f 30 35 36
f 30 36 33
f 31 37 38
f 31 38 32
f 34 39 35
f 35 39 40
f 35 40 41
f 35 41 42
f 35 42 43
f 37 44 38
f 38 44 45
f 42 46 43
f 43 46 47
f 43 47 48
f 44 49 50
f 44 50 51
f 44 51 45
f 47 52 53
f 47 53 48
f 49 54 50
f 50 54 55
f 52 55 56
f 52 56 53
f 54 56 55

