# https://github.com/mikedh/trimesh
v 0.04902882 0.00135245 -0.02415092
v 0.04657593 0.00424960 -0.02415092
v 0.04901759 0.00135245 -0.02185055
v 0.04902882 0.00135245 -0.05802447
v 0.04654971 0.00424960 -0.02185055
v 0.04657593 0.00424960 -0.05754580
v 0.04868429 0.00135245 -0.01954089
v 0.04901385 0.00135245 -0.06032020
v 0.04626135 0.00424960 -0.02028444
v 0.04654971 0.00424960 -0.05864720
v 0.04716013 0.00135245 -0.01799801
v 0.04866932 0.00135245 -0.06247185
v 0.04647856 0.00424960 -0.05936752
v 0.04550114 0.00424960 -0.01968495
v 0.04484579 0.00135245 -0.01573482
v 0.04652724 0.00135245 -0.06282504
v 0.04364743 0.00424960 -0.06114275
v 0.04484954 0.00424960 -0.06087786
v 0.04559102 0.00424960 -0.06051073
v 0.04626135 0.00424960 -0.06012966
v 0.04484579 0.00424960 -0.01918305
v 0.04254643 0.00135245 -0.01541416
v 0.04254643 0.00424960 -0.01861609
v 0.04424661 0.00135245 -0.06285757
v 0.04254643 0.00424960 -0.06130540
v 0.04024708 0.00135245 -0.01539557
v 0.04081255 0.00424960 -0.01861144
v 0.04195474 0.00135245 -0.06287151
v 0.04024708 0.00424960 -0.06131005
v 0.01788263 0.00135245 -0.01539557
v 0.01955285 0.00424960 -0.01861144
v 0.01955285 0.00135245 -0.06287151
v 0.01835074 0.00424960 -0.06131005
v 0.01558327 0.00135245 -0.01541416
v 0.01725349 0.00424960 -0.01861609
v 0.01725349 0.00135245 -0.06286687
v 0.01725349 0.00424960 -0.06130540
v 0.01344495 0.00135245 -0.01574411
v 0.01612628 0.00424960 -0.01891351
v 0.01495039 0.00135245 -0.06282969
v 0.01495039 0.00424960 -0.06074773
v 0.01264354 0.00135245 -0.06246721
v 0.01495413 0.00424960 -0.01936894
v 0.01362470 0.00424960 -0.02047962
v 0.01113435 0.00135245 -0.01803519
v 0.01362470 0.00424960 -0.05999489
v 0.01113061 0.00135245 -0.06095686
v 0.01343746 0.00424960 -0.02120459
v 0.01079357 0.00135245 -0.02018220
v 0.01341873 0.00424960 -0.05864720
v 0.01078983 0.00135245 -0.05864720
v 0.01341873 0.00424960 -0.02185055
v 0.01339252 0.00424960 -0.02295194
v 0.01077484 0.00135245 -0.02247793
v 0.01339252 0.00424960 -0.05634683
v 0.01077484 0.00135245 -0.05634683
f 1 2 3
f 1 3 7
f 1 7 11
f 1 11 15
f 1 15 22
f 1 22 26
f 1 26 30
f 1 30 34
f 1 34 38
f 1 38 45
f 1 45 49
f 1 49 54
f 1 54 56
f 1 56 51
f 1 51 47
f 1 47 42
f 1 42 40
f 1 40 36
f 1 36 32
f 1 32 28
f 1 28 24
f 1 24 16
f 1 16 12
f 1 12 8
f 1 8 4
f 1 4 6
f 1 6 2
f 2 5 3
f 2 6 10
f 2 10 13
f 2 13 20
f 2 20 19
f 2 19 18
f 2 18 17
f 2 17 25
f 2 25 29
f 2 29 33
f 2 33 37
f 2 37 41
f 2 41 46
f 2 46 50
f 2 50 55
f 2 55 53
f 2 53 52
f 2 52 48
f 2 48 44
f 2 44 43
f 2 43 39
f 2 39 35
f 2 35 31
f 2 31 27
f 2 27 23
f 2 23 21
f 2 21 14
f 2 14 9
f 2 9 5
f 3 5 7
f 4 8 6
f 5 9 7
f 6 8 10
f 7 9 11
f 8 12 13
f 8 13 10
f 9 14 15
f 9 15 11
f 12 16 17
f 12 17 18
f 12 18 19
f 12 19 20
f 12 20 13
f 14 21 15
f 15 21 23
f 15 23 22
f 16 24 25
f 16 25 17
f 22 23 26
f 23 27 26
f 24 28 25
f 25 28 29
f 26 27 31
f 26 31 30
f 28 32 33
f 28 33 29
f 30 31 35
f 30 35 34
f 32 36 33
f 33 36 37
f 34 35 38
f 35 39 38
f 36 40 37
f 37 40 42
f 37 42 41
f 38 39 43
f 38 43 44
f 38 44 45
f 41 42 46
f 42 47 46
f 44 48 45
f 45 48 49
f 46 47 50
f 47 51 50
f 48 52 49
f 49 52 53
f 49 53 54
f 50 51 55
f 51 56 55
f 53 55 56
f 53 56 54

