# https://github.com/mikedh/trimesh
v -0.11626500 0.00422619 0.09838945
v -0.11626500 0.00422619 0.11384859
v -0.11626500 0.00761002 0.09838945
v -0.07141526 0.00422619 0.09838945
v -0.11562674 0.00422619 0.11563159
v -0.11563813 0.00761002 0.11560010
v -0.11626500 0.00761002 0.11384859
v -0.07087957 0.00761002 0.09838945
v -0.07015013 0.00422752 0.09838945
v 0.00017336 0.00422619 0.09840169
v -0.11562674 0.00761002 0.11563159
v -0.11384870 0.00422619 0.11626326
v 0.00017336 0.00761002 0.09873590
v 0.00017336 0.00422619 0.11626326
v -0.11384870 0.00761002 0.11626326
v 0.00017336 0.00761002 0.11626326
f 1 2 7
f 1 7 3
f 1 3 8
f 1 8 9
f 1 9 4
f 1 4 10
f 1 10 14
f 1 14 12
f 1 12 5
f 1 5 2
f 2 5 6
f 2 6 7
f 3 7 6
f 3 6 11
f 3 11 15
f 3 15 16
f 3 16 13
f 3 13 8
f 4 9 10
f 5 11 6
f 5 12 15
f 5 15 11
f 8 13 10
f 8 10 9
f 10 13 16
f 10 16 14
f 12 14 16
f 12 16 15

