# https://github.com/mikedh/trimesh
v -0.06324925 0.01376918 0.09676136
v -0.07014056 0.00761035 0.09872203
v -0.06554432 0.01376918 0.09676518
v -0.00778310 0.01376918 0.09676136
v -0.07014056 0.01376918 0.09726155
v -0.06784549 0.01376918 0.09679000
v -0.07011004 0.00761035 0.09872203
v -0.07014056 0.00761035 0.11619246
v -0.00778310 0.01376918 0.11609891
v -0.00778310 0.00761035 0.09873540
v -0.07014056 0.01376918 0.11609891
v -0.06788821 0.00761035 0.11626500
v -0.07014056 0.00761095 0.11626500
v -0.00778310 0.01224982 0.11626500
v -0.00778310 0.00761035 0.10052998
v -0.07014056 0.01224982 0.11626500
v -0.00805168 0.00761035 0.11626500
v -0.00778310 0.00761517 0.11626500
f 1 2 3
f 1 3 6
f 1 6 5
f 1 5 11
f 1 11 9
f 1 9 4
f 1 4 7
f 1 7 2
f 2 5 6
f 2 6 3
f 2 7 10
f 2 10 15
f 2 15 17
f 2 17 12
f 2 12 8
f 2 8 13
f 2 13 16
f 2 16 11
f 2 11 5
f 4 9 14
f 4 14 18
f 4 18 15
f 4 15 10
f 4 10 7
f 8 12 13
f 9 11 16
f 9 16 14
f 12 17 18
f 12 18 14
f 12 14 16
f 12 16 13
f 15 18 17

