# https://github.com/mikedh/trimesh
v -0.00033069 0.00424960 -0.09840724
v -0.00033069 0.00157330 -0.09695155
v -0.00033069 0.00424960 -0.11626500
v -0.07315278 0.00424960 -0.09695155
v -0.00033069 -0.02626500 -0.09695155
v -0.00033069 -0.02224756 -0.11626500
v -0.11384781 0.00424960 -0.11626500
v -0.11626500 0.00424960 -0.09695155
v -0.00033069 -0.02626500 -0.11384893
v -0.11384781 -0.02626500 -0.09695155
v -0.00033069 -0.02454751 -0.11601357
v -0.11384781 -0.02224756 -0.11626500
v -0.11562949 0.00424960 -0.11563169
v -0.11626500 0.00424960 -0.11384893
v -0.11626500 -0.02224756 -0.09695155
v -0.00033069 -0.02608280 -0.11483578
v -0.11384781 -0.02626500 -0.11384893
v -0.11537984 -0.02598124 -0.09695155
v -0.00033069 -0.02598124 -0.11538025
v -0.11384781 -0.02454751 -0.11601357
v -0.11550467 -0.02454751 -0.11550501
v -0.11562949 -0.02224756 -0.11563169
v -0.11626500 -0.02224756 -0.11384893
v -0.11609478 -0.02374999 -0.09695155
v -0.11384781 -0.02598124 -0.11538025
v -0.11537984 -0.02598124 -0.11384893
v -0.11524366 -0.02588566 -0.11525358
v -0.11600400 -0.02454751 -0.09695155
v -0.11600400 -0.02454751 -0.11384893
f 1 2 5
f 1 5 9
f 1 9 16
f 1 16 19
f 1 19 11
f 1 11 6
f 1 6 3
f 1 3 7
f 1 7 13
f 1 13 14
f 1 14 8
f 1 8 4
f 1 4 2
f 2 4 8
f 2 8 15
f 2 15 24
f 2 24 28
f 2 28 18
f 2 18 10
f 2 10 5
f 3 6 12
f 3 12 7
f 5 10 17
f 5 17 9
f 6 11 20
f 6 20 12
f 7 12 22
f 7 22 13
f 8 14 23
f 8 23 15
f 9 17 16
f 10 18 26
f 10 26 17
f 11 19 25
f 11 25 20
f 12 20 21
f 12 21 22
f 13 22 23
f 13 23 14
f 15 23 24
f 16 17 25
f 16 25 19
f 17 26 27
f 17 27 25
f 18 28 29
f 18 29 26
f 20 25 27
f 20 27 21
f 21 29 23
f 21 23 22
f 21 27 29
f 23 29 24
f 24 29 28
f 26 29 27

