# https://github.com/mikedh/trimesh
v 0.11626500 0.00422557 0.08845403
v 0.10965331 0.00422557 0.08845403
v 0.11626500 0.00128449 0.08845403
v 0.11626500 0.00422557 0.01955707
v 0.10965331 0.00128449 0.08845403
v 0.10965331 0.00422557 0.01542031
v 0.11626500 0.00128449 0.01955707
v 0.11624881 0.00128449 0.01725502
v 0.11608895 0.00128449 0.01035754
v 0.11600999 0.00128449 0.00805549
v 0.11610189 0.00422557 0.01725502
v 0.10965331 0.00128449 0.01273747
v 0.11494072 0.00422557 0.01364617
v 0.11384945 0.00128449 0.00004160
v 0.11203520 0.00128449 0.00115800
v 0.11580157 0.00128449 0.00575345
v 0.11558991 0.00422557 0.01503952
v 0.11539898 0.00222253 0.00575345
v 0.11518668 0.00203164 0.00399662
v 0.11505722 0.00422557 0.01364617
v 0.11548312 0.00128449 0.00352929
f 1 2 5
f 1 5 3
f 1 3 7
f 1 7 4
f 1 4 11
f 1 11 17
f 1 17 20
f 1 20 13
f 1 13 6
f 1 6 2
f 2 6 12
f 2 12 5
f 3 5 12
f 3 12 15
f 3 15 14
f 3 14 21
f 3 21 16
f 3 16 10
f 3 10 9
f 3 9 8
f 3 8 7
f 4 7 8
f 4 8 9
f 4 9 10
f 4 10 11
f 6 13 14
f 6 14 15
f 6 15 12
f 10 16 11
f 11 16 18
f 11 18 19
f 11 19 17
f 13 20 14
f 14 20 19
f 14 19 21
f 16 21 18
f 17 19 20
f 18 21 19

