# https://github.com/mikedh/trimesh
v 0.01190196 0.01449001 0.05168134
v 0.01190196 0.01451150 0.05168134
v 0.01205954 0.01423163 0.05168134
v 0.00882314 0.01529838 0.05270968
v 0.01252015 0.01603091 0.05168134
v 0.00882314 0.01585136 0.05270968
v 0.01048376 0.01423163 0.05405168
v -0.00778310 0.01425611 0.06555004
v -0.00574672 0.01426706 0.06325116
v -0.00778310 0.01475475 0.06316381
v -0.00778310 0.01504637 0.06246502
v -0.00744371 0.01523309 0.06184166
v -0.00011029 0.01554242 0.05744243
v 0.00436249 0.01539791 0.05507208
v 0.07184202 0.01423163 0.05168134
v 0.01035043 0.01595467 0.05236028
v 0.01502927 0.01625744 0.05168134
v 0.00436249 0.01580995 0.05507208
v -0.00744371 0.01588122 0.06184166
v -0.00574672 0.01597716 0.06136124
v 0.00939284 0.01423163 0.05635056
v -0.00778310 0.01425611 0.09223925
v -0.00778310 0.01595467 0.06246502
v -0.00011029 0.01575521 0.05744243
v 0.11603645 0.01424158 0.05168134
v 0.11604857 0.01423163 0.05175281
v 0.01035043 0.01623713 0.05405168
v 0.00575644 0.01620608 0.05635056
v 0.01725960 0.01626480 0.05168134
v -0.00574672 0.01625963 0.06325116
v -0.00114060 0.01626480 0.06095229
v -0.00778310 0.01602593 0.06287794
v -0.00778310 0.01606893 0.06316381
v 0.00115033 0.01616507 0.05865341
v 0.00939284 0.01423163 0.05865341
v -0.00778310 0.01626480 0.09223925
v 0.01053225 0.01423163 0.06324322
v 0.01266561 0.01423163 0.06537534
v 0.07015715 0.01423163 0.09223925
v 0.11601220 0.01455012 0.05168134
v 0.11604857 0.01423163 0.09223925
v 0.11384248 0.01626480 0.05168134
v -0.00778310 0.01626420 0.06528402
v -0.00778310 0.01626480 0.06555004
v 0.11384248 0.01626480 0.09223925
v 0.11601220 0.01455012 0.09223925
v 0.11536976 0.01598234 0.05168134
v 0.11389096 0.01625604 0.05168134
v 0.11444855 0.01615313 0.09223925
v 0.11536976 0.01598234 0.09223925
f 1 2 5
f 1 5 17
f 1 17 29
f 1 29 42
f 1 42 48
f 1 48 47
f 1 47 40
f 1 40 25
f 1 25 15
f 1 15 3
f 1 3 4
f 1 4 6
f 1 6 2
f 2 6 5
f 3 7 8
f 3 8 9
f 3 9 10
f 3 10 11
f 3 11 12
f 3 12 13
f 3 13 14
f 3 14 4
f 3 15 26
f 3 26 41
f 3 41 39
f 3 39 38
f 3 38 37
f 3 37 35
f 3 35 21
f 3 21 7
f 4 14 18
f 4 18 6
f 5 6 16
f 5 16 17
f 6 18 19
f 6 19 20
f 6 20 16
f 7 21 8
f 8 22 36
f 8 36 44
f 8 44 43
f 8 43 33
f 8 33 32
f 8 32 23
f 8 23 11
f 8 11 10
f 8 10 9
f 8 21 35
f 8 35 22
f 11 23 19
f 11 19 12
f 12 19 24
f 12 24 13
f 13 24 18
f 13 18 14
f 15 25 26
f 16 27 17
f 16 20 28
f 16 28 27
f 17 27 30
f 17 30 31
f 17 31 29
f 18 24 19
f 19 23 20
f 20 23 32
f 20 32 33
f 20 33 30
f 20 30 34
f 20 34 28
f 22 35 37
f 22 37 38
f 22 38 39
f 22 39 41
f 22 41 46
f 22 46 50
f 22 50 49
f 22 49 45
f 22 45 36
f 25 40 26
f 26 40 46
f 26 46 41
f 27 28 30
f 28 34 30
f 29 31 44
f 29 44 36
f 29 36 45
f 29 45 42
f 30 33 43
f 30 43 31
f 31 43 44
f 40 47 50
f 40 50 46
f 42 45 48
f 45 49 48
f 47 48 49
f 47 49 50

