# https://github.com/mikedh/trimesh
v 0.04657603 0.00425111 -0.02415497
v 0.04626098 0.01224922 -0.02185618
v 0.04654680 0.00425111 -0.02185618
v 0.04657603 0.00425111 -0.05754180
v 0.04607585 0.01454952 -0.02049780
v 0.04626098 0.01224922 -0.05864521
v 0.04615056 0.01454952 -0.02185618
v 0.04613107 0.01224922 -0.02035988
v 0.04625773 0.00425111 -0.02028464
v 0.04654680 0.00425111 -0.05864521
v 0.04601090 0.01571613 -0.02066081
v 0.04484489 0.01454952 -0.01969950
v 0.04484489 0.01224922 -0.01937767
v 0.04615056 0.01454952 -0.05864521
v 0.04607585 0.01454952 -0.05993254
v 0.04602064 0.01572554 -0.02185618
v 0.04549772 0.00425111 -0.01968696
v 0.04647535 0.00425111 -0.05936411
v 0.04484489 0.01585372 -0.02035988
v 0.04484489 0.01600778 -0.02185618
v 0.04254862 0.01454952 -0.01909763
v 0.04254862 0.01224922 -0.01873818
v 0.04484489 0.00425111 -0.01918958
v 0.04601090 0.01571613 -0.05982387
v 0.04602064 0.01572554 -0.05864521
v 0.04613107 0.01224922 -0.06002450
v 0.04484489 0.01224922 -0.06076011
v 0.04484489 0.01454952 -0.06051351
v 0.04625773 0.00425111 -0.06012481
v 0.04254862 0.01626416 -0.02185618
v 0.04254862 0.01598191 -0.02007984
v 0.04484489 0.01600778 -0.05864521
v 0.01725060 0.01454952 -0.01909763
v 0.01725060 0.01224922 -0.01873818
v 0.04081098 0.00425111 -0.01860861
v 0.04254537 0.00425111 -0.01861697
v 0.04484489 0.01585372 -0.06002867
v 0.04558542 0.00425111 -0.06050515
v 0.04484489 0.00425111 -0.06087713
v 0.04254862 0.01224922 -0.06126166
v 0.04254862 0.01454952 -0.06096073
v 0.01725060 0.01626416 -0.02185618
v 0.04254862 0.01626416 -0.05864521
v 0.01725060 0.01598191 -0.02007984
v 0.01547400 0.01588665 -0.02028882
v 0.01480492 0.01447661 -0.02002551
v 0.01725385 0.00425111 -0.01861697
v 0.01955338 0.00425111 -0.01860861
v 0.01495108 0.01224922 -0.01962844
v 0.01495758 0.00425111 -0.01936931
v 0.01612683 0.00425111 -0.01891791
v 0.04254862 0.01598191 -0.06022512
v 0.04364641 0.00425111 -0.06113628
v 0.04254537 0.00425111 -0.06130346
v 0.04024585 0.00425111 -0.06130764
v 0.01725060 0.01224922 -0.06126166
v 0.01725060 0.01454952 -0.06096073
v 0.01515895 0.01598191 -0.02185618
v 0.01725060 0.01626416 -0.05864521
v 0.01400919 0.01494348 -0.02185618
v 0.01378183 0.01366280 -0.02064409
v 0.01362593 0.00425111 -0.02048527
v 0.01725060 0.01598191 -0.06022512
v 0.01835490 0.00425111 -0.06130764
v 0.01725385 0.00425111 -0.06130346
v 0.01495433 0.00425111 -0.06074339
v 0.01495108 0.01224922 -0.06058874
v 0.01480492 0.01447661 -0.06028363
v 0.01547400 0.01588665 -0.06007883
v 0.01515895 0.01598191 -0.05864521
v 0.01377209 0.01379334 -0.02185618
v 0.01400919 0.01494348 -0.05864521
v 0.01339858 0.00425111 -0.02295542
v 0.01342131 0.00425111 -0.02185618
v 0.01344080 0.00425111 -0.02120834
v 0.01362593 0.00425111 -0.05999106
v 0.01378183 0.01366280 -0.05983641
v 0.01377209 0.01379334 -0.05864521
v 0.01339858 0.00425111 -0.05634225
v 0.01342131 0.00425111 -0.05864521
f 1 2 3
f 1 3 9
f 1 9 17
f 1 17 23
f 1 23 36
f 1 36 35
f 1 35 48
f 1 48 47
f 1 47 51
f 1 51 50
f 1 50 62
f 1 62 75
f 1 75 74
f 1 74 73
f 1 73 79
f 1 79 80
f 1 80 76
f 1 76 66
f 1 66 65
f 1 65 64
f 1 64 55
f 1 55 54
f 1 54 53
f 1 53 39
f 1 39 38
f 1 38 29
f 1 29 18
f 1 18 10
f 1 10 4
f 1 4 6
f 1 6 2
f 2 5 3
f 2 6 14
f 2 14 7
f 2 7 5
f 3 5 8
f 3 8 9
f 4 10 6
f 5 7 11
f 5 11 12
f 5 12 13
f 5 13 8
f 6 10 15
f 6 15 14
f 7 16 11
f 7 14 25
f 7 25 16
f 8 13 17
f 8 17 9
f 10 18 15
f 11 19 12
f 11 16 20
f 11 20 19
f 12 21 22
f 12 22 13
f 12 19 21
f 13 22 23
f 13 23 17
f 14 15 24
f 14 24 25
f 15 18 26
f 15 26 27
f 15 27 28
f 15 28 24
f 16 25 32
f 16 32 20
f 18 29 26
f 19 20 30
f 19 30 31
f 19 31 21
f 20 32 43
f 20 43 30
f 21 33 34
f 21 34 22
f 21 31 44
f 21 44 33
f 22 34 48
f 22 48 35
f 22 35 36
f 22 36 23
f 24 28 37
f 24 37 32
f 24 32 25
f 26 29 27
f 27 29 38
f 27 38 39
f 27 39 40
f 27 40 28
f 28 40 41
f 28 41 37
f 30 42 44
f 30 44 31
f 30 43 59
f 30 59 42
f 32 37 43
f 33 44 45
f 33 45 46
f 33 46 34
f 34 47 48
f 34 46 49
f 34 49 50
f 34 50 51
f 34 51 47
f 37 41 52
f 37 52 43
f 39 53 40
f 40 53 54
f 40 54 55
f 40 55 64
f 40 64 56
f 40 56 57
f 40 57 41
f 41 57 63
f 41 63 52
f 42 58 45
f 42 45 44
f 42 59 70
f 42 70 58
f 43 52 63
f 43 63 59
f 45 58 60
f 45 60 61
f 45 61 46
f 46 61 49
f 49 61 50
f 50 61 62
f 56 64 65
f 56 65 66
f 56 66 67
f 56 67 68
f 56 68 57
f 57 68 69
f 57 69 63
f 58 70 72
f 58 72 60
f 59 63 69
f 59 69 70
f 60 71 61
f 60 72 78
f 60 78 71
f 61 71 73
f 61 73 74
f 61 74 75
f 61 75 62
f 66 76 67
f 67 76 77
f 67 77 68
f 68 77 69
f 69 77 72
f 69 72 70
f 71 78 79
f 71 79 73
f 72 77 78
f 76 80 77
f 77 80 78
f 78 80 79

