# https://github.com/mikedh/trimesh
v -0.11384690 0.00763830 -0.11626500
v -0.11562915 0.00763830 -0.11563174
v -0.11384690 0.01224973 -0.11626500
v -0.07014000 0.00763830 -0.11626500
v -0.11626500 0.00763830 -0.11384937
v -0.11562915 0.01224973 -0.11563174
v -0.11550384 0.01454996 -0.11550663
v -0.11384690 0.01454996 -0.11601285
v -0.06885437 0.01224973 -0.11626500
v -0.06885437 0.00764421 -0.11626500
v -0.06885437 0.00763830 -0.10634456
v -0.11626500 0.01224973 -0.11384937
v -0.11626500 0.00763830 -0.09775030
v -0.11600973 0.01454996 -0.11384937
v -0.11525321 0.01588754 -0.11525256
v -0.11384690 0.01598212 -0.11537959
v -0.06885437 0.01454996 -0.11601285
v -0.06885437 0.00764506 -0.09873003
v -0.07015393 0.00763830 -0.09872233
v -0.11626500 0.01224973 -0.09660120
v -0.11626500 0.00764421 -0.09660120
v -0.11524856 0.00763830 -0.09660120
v -0.11600973 0.01454996 -0.09660120
v -0.11537852 0.01598212 -0.11384937
v -0.11384690 0.01626416 -0.11384937
v -0.06885437 0.01610456 -0.11471554
v -0.06885437 0.01598212 -0.11537959
v -0.06885437 0.01382291 -0.09660120
v -0.07363952 0.00765012 -0.09660120
v -0.07363952 0.00763830 -0.09663969
v -0.07016321 0.00763830 -0.09871656
v -0.07479056 0.00763830 -0.09660120
v -0.11537852 0.01598212 -0.09660120
v -0.11384690 0.01626416 -0.09660120
v -0.06885437 0.01626416 -0.11384937
v -0.06885437 0.01626416 -0.09660120
f 1 2 6
f 1 6 3
f 1 3 9
f 1 9 10
f 1 10 4
f 1 4 11
f 1 11 19
f 1 19 31
f 1 31 30
f 1 30 32
f 1 32 22
f 1 22 13
f 1 13 5
f 1 5 2
f 2 5 12
f 2 12 6
f 3 6 7
f 3 7 8
f 3 8 17
f 3 17 9
f 4 10 11
f 5 13 21
f 5 21 20
f 5 20 12
f 6 12 7
f 7 12 14
f 7 14 15
f 7 15 8
f 8 15 16
f 8 16 27
f 8 27 17
f 9 17 27
f 9 27 26
f 9 26 35
f 9 35 36
f 9 36 28
f 9 28 18
f 9 18 11
f 9 11 10
f 11 18 19
f 12 20 23
f 12 23 14
f 13 22 21
f 14 23 33
f 14 33 24
f 14 24 15
f 15 24 25
f 15 25 16
f 16 25 26
f 16 26 27
f 18 28 29
f 18 29 30
f 18 30 31
f 18 31 19
f 20 21 22
f 20 22 32
f 20 32 29
f 20 29 28
f 20 28 36
f 20 36 34
f 20 34 33
f 20 33 23
f 24 33 34
f 24 34 25
f 25 34 36
f 25 36 35
f 25 35 26
f 29 32 30

