# https://github.com/mikedh/trimesh
v 0.00001866 0.00046989 0.08845403
v 0.00001866 0.00126521 0.08845403
v 0.06634622 0.00046989 0.08845403
v 0.00001866 0.00046989 0.09810206
v 0.00001866 0.00319843 0.09810206
v 0.07014206 0.00322132 0.09810206
v 0.06794556 0.00126548 0.08845403
v 0.06634622 0.00046989 0.09810206
v 0.06800046 0.00047016 0.08845403
v 0.07014206 0.00047016 0.08897250
v 0.07014206 0.00047016 0.09810206
v 0.07014206 0.00126575 0.08845592
v 0.07014206 0.00047177 0.08845403
f 1 2 7
f 1 7 13
f 1 13 9
f 1 9 3
f 1 3 8
f 1 8 4
f 1 4 5
f 1 5 2
f 2 5 6
f 2 6 7
f 3 9 10
f 3 10 11
f 3 11 8
f 4 8 11
f 4 11 6
f 4 6 5
f 6 11 10
f 6 10 13
f 6 13 12
f 6 12 7
f 7 12 13
f 9 13 10

