# https://github.com/mikedh/trimesh
v -0.11626500 -0.02224972 -0.08851966
v -0.11626500 0.00128378 -0.08851966
v -0.11601535 -0.02451758 -0.08851966
v -0.11626500 -0.02224972 -0.00013735
v -0.11626500 0.00128378 -0.01955100
v -0.07023627 0.00128378 -0.08851966
v -0.11600400 -0.02454994 -0.08851966
v -0.11600400 -0.02454994 -0.00013735
v -0.11626500 -0.00155038 -0.00013735
v -0.11626500 0.00074985 -0.01035460
v -0.11624232 0.00128378 -0.01725839
v -0.01052147 0.00128378 -0.06307600
v -0.00033069 0.00126490 -0.08851966
v -0.11537984 -0.02598185 -0.08851966
v -0.11537984 -0.02598185 -0.00013735
v -0.11602670 0.00074985 -0.00575208
v -0.11619691 0.00074985 -0.00805334
v -0.11562949 0.00045591 -0.00013735
v -0.11608343 0.00128378 -0.01035460
v -0.01045338 0.00128378 -0.06080935
v -0.01044203 0.00128378 -0.05864650
v -0.00033069 0.00126490 -0.00013735
v -0.00033069 -0.02626500 -0.08851966
v -0.11384781 -0.02626500 -0.08851966
v -0.11384781 -0.02626500 -0.00013735
v -0.11579973 0.00128378 -0.00575208
v -0.11600400 0.00128378 -0.00805334
v -0.11385916 0.00128378 -0.00013735
v -0.11548197 0.00128378 -0.00352868
v -0.01044203 0.00128378 -0.02185226
v -0.00033069 -0.02626500 -0.00013735
v -0.01052147 0.00128378 -0.01955100
v -0.01265495 0.00128378 -0.01741412
v -0.01495866 0.00128378 -0.01512150
v -0.11367759 0.00128378 -0.00013735
f 1 2 6
f 1 6 13
f 1 13 23
f 1 23 24
f 1 24 14
f 1 14 7
f 1 7 3
f 1 3 4
f 1 4 9
f 1 9 10
f 1 10 5
f 1 5 2
f 2 5 11
f 2 11 19
f 2 19 27
f 2 27 26
f 2 26 29
f 2 29 28
f 2 28 35
f 2 35 34
f 2 34 33
f 2 33 32
f 2 32 30
f 2 30 21
f 2 21 20
f 2 20 12
f 2 12 6
f 3 7 8
f 3 8 4
f 4 8 15
f 4 15 25
f 4 25 31
f 4 31 22
f 4 22 35
f 4 35 28
f 4 28 18
f 4 18 9
f 5 10 11
f 6 12 13
f 7 14 15
f 7 15 8
f 9 16 17
f 9 17 10
f 9 18 16
f 10 17 19
f 10 19 11
f 12 20 13
f 13 20 21
f 13 21 30
f 13 30 22
f 13 22 31
f 13 31 23
f 14 24 25
f 14 25 15
f 16 18 26
f 16 26 27
f 16 27 17
f 17 27 19
f 18 28 29
f 18 29 26
f 22 30 32
f 22 32 33
f 22 33 34
f 22 34 35
f 23 31 25
f 23 25 24

