# https://github.com/mikedh/trimesh
v -0.07089351 0.00761002 0.09838943
v -0.07015778 0.00422752 0.09838943
v -0.07364235 0.00761002 0.09654640
v -0.11626500 0.00761002 0.09838943
v -0.07363331 0.00423315 0.09654640
v -0.07363331 0.00430305 0.09654640
v -0.07142612 0.00422619 0.09838943
v -0.07132683 0.00422619 0.09786675
v -0.07363331 0.00422619 0.09655343
v -0.11626500 0.00761002 0.09654640
v -0.11626500 0.00422619 0.09838943
v -0.07468500 0.00422619 0.09654640
v -0.11626500 0.00422619 0.09654640
f 1 2 3
f 1 3 10
f 1 10 4
f 1 4 11
f 1 11 7
f 1 7 2
f 2 5 6
f 2 6 3
f 2 7 8
f 2 8 9
f 2 9 5
f 3 6 5
f 3 5 12
f 3 12 13
f 3 13 10
f 4 10 13
f 4 13 11
f 5 9 12
f 7 11 13
f 7 13 12
f 7 12 9
f 7 9 8

