# https://github.com/mikedh/trimesh
v 0.06620404 0.00135245 -0.11626300
v 0.06620404 0.00135245 -0.09587196
v 0.06620404 0.00424960 -0.11626300
v 0.11384894 0.00135245 -0.11626300
v 0.06620404 0.00424960 -0.09840853
v 0.07042357 0.00135245 -0.09574744
v 0.07365315 0.00424960 -0.09574744
v 0.11384894 0.00424960 -0.11626300
v 0.11470166 0.00424960 -0.11596175
v 0.11562790 0.00135245 -0.11563237
v 0.11626500 0.00135245 -0.09574744
v 0.11626500 0.00424960 -0.09574744
v 0.11562790 0.00424960 -0.11563237
v 0.11609837 0.00135245 -0.11431688
v 0.11626500 0.00135245 -0.11384893
v 0.11626500 0.00424960 -0.11384893
f 1 2 5
f 1 5 3
f 1 3 8
f 1 8 4
f 1 4 10
f 1 10 14
f 1 14 15
f 1 15 11
f 1 11 6
f 1 6 2
f 2 6 7
f 2 7 5
f 3 5 7
f 3 7 12
f 3 12 16
f 3 16 13
f 3 13 9
f 3 9 8
f 4 8 9
f 4 9 10
f 6 11 12
f 6 12 7
f 9 13 10
f 10 13 14
f 11 15 16
f 11 16 12
f 13 16 14
f 14 16 15

