# https://github.com/mikedh/trimesh
v 0.00001866 -0.02626500 0.08845675
v 0.00001866 -0.02626500 0.11384760
v 0.00001866 0.00046962 0.08845675
v 0.11384131 -0.02626500 0.08845675
v 0.00001866 -0.02598237 0.11538026
v 0.11384131 -0.02626500 0.11384760
v 0.00001866 0.00046962 0.11626500
v 0.11626500 0.00046962 0.08845675
v 0.11537745 -0.02598237 0.08845675
v 0.00001866 -0.02454829 0.11601183
v 0.11384131 -0.02598237 0.11538026
v 0.11537745 -0.02598237 0.11384760
v 0.11525229 -0.02588816 0.11525230
v 0.00001866 -0.02224800 0.11626500
v 0.11384131 0.00046962 0.11626500
v 0.11626500 0.00046962 0.11384760
v 0.11626500 -0.02224800 0.08845675
v 0.11600328 -0.02454829 0.08845675
v 0.11384131 -0.02454829 0.11601183
v 0.11600328 -0.02454829 0.11384760
v 0.11550263 -0.02454829 0.11550548
v 0.11384131 -0.02224800 0.11626500
v 0.11562779 0.00046962 0.11563070
v 0.11626500 -0.02224800 0.11384760
v 0.11601466 -0.02445146 0.08845675
v 0.11562779 -0.02224800 0.11563070
f 1 2 5
f 1 5 10
f 1 10 14
f 1 14 7
f 1 7 3
f 1 3 8
f 1 8 17
f 1 17 25
f 1 25 18
f 1 18 9
f 1 9 4
f 1 4 6
f 1 6 2
f 2 6 11
f 2 11 5
f 3 7 15
f 3 15 23
f 3 23 16
f 3 16 8
f 4 9 12
f 4 12 6
f 5 11 19
f 5 19 10
f 6 12 13
f 6 13 11
f 7 14 22
f 7 22 15
f 8 16 24
f 8 24 17
f 9 18 20
f 9 20 12
f 10 19 22
f 10 22 14
f 11 13 19
f 12 20 13
f 13 20 21
f 13 21 19
f 15 22 26
f 15 26 23
f 16 23 26
f 16 26 24
f 17 24 25
f 18 25 20
f 19 21 22
f 20 25 24
f 20 24 21
f 21 26 22
f 21 24 26

