# https://github.com/mikedh/trimesh
v -0.00778310 0.01375654 0.09677191
v -0.00778310 0.00761035 0.09873553
v -0.00778310 0.01626415 0.09677191
v 0.07011829 0.01375654 0.09677191
v 0.07011829 0.00761119 0.09872217
v -0.00778310 0.00761035 0.10052931
v 0.06788404 0.00761035 0.09873553
v -0.00778310 0.01626415 0.11384912
v 0.07011829 0.01626415 0.09677191
v 0.07011829 0.00761035 0.11275376
v -0.00578524 0.00761035 0.11626500
v -0.00778310 0.00761543 0.11626500
v -0.00778310 0.01601509 0.11520209
v 0.07011829 0.01626076 0.11387011
v 0.07011829 0.01626415 0.11384912
v 0.07011829 0.00761882 0.11626500
v 0.07010303 0.00761035 0.11626500
v -0.00778310 0.01224943 0.11626500
v -0.00778310 0.01598205 0.11537956
v 0.07011829 0.01598205 0.11537956
v 0.07011829 0.01224943 0.11626500
v -0.00778310 0.01454949 0.11601310
v 0.07011829 0.01451814 0.11601692
v 0.07011829 0.01596256 0.11538910
v 0.07011829 0.01454949 0.11601310
f 1 2 6
f 1 6 12
f 1 12 18
f 1 18 22
f 1 22 19
f 1 19 13
f 1 13 8
f 1 8 3
f 1 3 9
f 1 9 4
f 1 4 5
f 1 5 2
f 2 5 7
f 2 7 10
f 2 10 17
f 2 17 11
f 2 11 6
f 3 8 15
f 3 15 9
f 4 9 15
f 4 15 14
f 4 14 20
f 4 20 24
f 4 24 25
f 4 25 23
f 4 23 21
f 4 21 16
f 4 16 10
f 4 10 5
f 5 10 7
f 6 11 12
f 8 13 14
f 8 14 15
f 10 16 17
f 11 17 16
f 11 16 21
f 11 21 18
f 11 18 12
f 13 19 20
f 13 20 14
f 18 21 23
f 18 23 22
f 19 22 24
f 19 24 20
f 22 23 25
f 22 25 24

