# https://github.com/mikedh/trimesh
v -0.06884973 0.01377071 -0.11609889
v -0.06884973 0.01377071 -0.09676265
v -0.06884973 0.01455005 -0.11601248
v 0.00793087 0.01377071 -0.11609889
v -0.06884973 0.01424803 -0.09224152
v 0.00793087 0.01377071 -0.09676265
v -0.06884973 0.01598227 -0.11537962
v 0.00793087 0.01462428 -0.11597979
v 0.00793087 0.01455005 -0.11601248
v -0.06884973 0.01626476 -0.09224152
v 0.00793087 0.01425633 -0.09224152
v -0.06884973 0.01610508 -0.11471406
v 0.00793087 0.01598227 -0.11537962
v -0.06884973 0.01626476 -0.11384767
v 0.00793087 0.01626476 -0.09224152
v 0.00793087 0.01626476 -0.11384767
v 0.00793087 0.01599692 -0.11530021
f 1 2 5
f 1 5 10
f 1 10 14
f 1 14 12
f 1 12 7
f 1 7 3
f 1 3 9
f 1 9 4
f 1 4 6
f 1 6 2
f 2 6 5
f 3 7 8
f 3 8 9
f 4 9 8
f 4 8 13
f 4 13 17
f 4 17 16
f 4 16 15
f 4 15 11
f 4 11 6
f 5 6 11
f 5 11 15
f 5 15 10
f 7 12 13
f 7 13 8
f 10 15 16
f 10 16 14
f 12 14 16
f 12 16 17
f 12 17 13

