# https://github.com/mikedh/trimesh
v -0.05123092 0.01425617 -0.09223733
v -0.04254428 0.01381721 -0.06389413
v -0.04481439 0.01381721 -0.06375130
v -0.04484914 0.01381721 -0.06374710
v -0.04679495 0.01381721 -0.06310437
v -0.04693393 0.01381721 -0.06304136
v -0.04790683 0.01381721 -0.06108376
v -0.04830642 0.01381721 -0.05896653
v -0.04832379 0.01381721 -0.05865146
v -0.04833537 0.01381721 -0.05669386
v -0.05123092 0.01423940 -0.06043262
v -0.05123092 0.01626500 -0.09223733
v 0.00792508 0.01425617 -0.09223733
v -0.01725459 0.01381721 -0.06389413
v -0.04833537 0.01381721 -0.04932555
v -0.05123092 0.01423940 -0.04932555
v -0.05123092 0.01626500 -0.04932555
v 0.00792508 0.01626500 -0.09223733
v 0.00792508 0.01425617 -0.06555347
v -0.01157353 0.01381721 -0.05635359
v -0.01158511 0.01381721 -0.05865146
v -0.01202523 0.01381721 -0.06095353
v -0.01282440 0.01381721 -0.06295734
v -0.01495552 0.01381721 -0.06367569
v -0.01330506 0.01381721 -0.04932555
v -0.01725459 0.01626500 -0.04932555
v 0.00792508 0.01626500 -0.06555347
v 0.00792508 0.01479024 -0.06315898
v 0.00574763 0.01426695 -0.06325140
v -0.01239007 0.01381721 -0.05101010
v -0.01159669 0.01381721 -0.05405152
v 0.00792508 0.01496395 -0.06274309
v 0.00744442 0.01523303 -0.06183991
v -0.01322978 0.01447804 -0.04932555
v -0.01480496 0.01603450 -0.04932555
v 0.00792508 0.01602947 -0.06298675
v 0.00792508 0.01605511 -0.06315898
v 0.00574763 0.01625973 -0.06325140
v 0.00114950 0.01626500 -0.06095353
v 0.00792508 0.01626452 -0.06543164
v 0.00792508 0.01598706 -0.06274309
v 0.00744442 0.01588116 -0.06183991
v -0.01356566 0.01558740 -0.04932555
v 0.00010711 0.01575512 -0.05744161
v -0.01478758 0.01603282 -0.04932555
v 0.00574763 0.01597724 -0.06136102
v -0.01476442 0.01602875 -0.04932555
f 1 2 3
f 1 3 4
f 1 4 5
f 1 5 6
f 1 6 7
f 1 7 8
f 1 8 9
f 1 9 10
f 1 10 11
f 1 11 16
f 1 16 17
f 1 17 12
f 1 12 18
f 1 18 13
f 1 13 14
f 1 14 2
f 2 14 24
f 2 24 23
f 2 23 22
f 2 22 21
f 2 21 20
f 2 20 31
f 2 31 30
f 2 30 25
f 2 25 15
f 2 15 10
f 2 10 9
f 2 9 8
f 2 8 7
f 2 7 6
f 2 6 5
f 2 5 4
f 2 4 3
f 10 15 16
f 10 16 11
f 12 17 26
f 12 26 39
f 12 39 27
f 12 27 18
f 13 18 27
f 13 27 40
f 13 40 37
f 13 37 36
f 13 36 41
f 13 41 32
f 13 32 28
f 13 28 19
f 13 19 20
f 13 20 21
f 13 21 22
f 13 22 23
f 13 23 24
f 13 24 14
f 15 25 34
f 15 34 43
f 15 43 47
f 15 47 45
f 15 45 35
f 15 35 26
f 15 26 17
f 15 17 16
f 19 28 29
f 19 29 25
f 19 25 30
f 19 30 31
f 19 31 20
f 25 29 28
f 25 28 32
f 25 32 33
f 25 33 34
f 26 35 36
f 26 36 37
f 26 37 38
f 26 38 39
f 27 39 40
f 32 41 42
f 32 42 33
f 33 42 34
f 34 42 44
f 34 44 43
f 35 45 36
f 36 46 42
f 36 42 41
f 36 45 46
f 37 40 38
f 38 40 39
f 42 46 45
f 42 45 47
f 42 47 43
f 42 43 44

