# https://github.com/mikedh/trimesh
v -0.06942564 0.00157393 -0.09695155
v -0.06942564 -0.02626500 -0.09695155
v -0.06942564 0.00126327 -0.08852956
v -0.06787682 0.00126327 -0.08851966
v -0.00033069 0.00126327 -0.08851966
v -0.00033069 0.00157120 -0.09695155
v -0.06942564 -0.02626500 -0.08851966
v -0.00033069 -0.02626500 -0.09695155
v -0.06942564 -0.01773020 -0.08851966
v -0.00033069 -0.02626500 -0.08851966
f 1 2 7
f 1 7 9
f 1 9 3
f 1 3 4
f 1 4 5
f 1 5 6
f 1 6 8
f 1 8 2
f 2 8 10
f 2 10 7
f 3 9 4
f 4 9 7
f 4 7 10
f 4 10 5
f 5 10 8
f 5 8 6

