# https://github.com/mikedh/trimesh
v 0.00793696 0.00763894 -0.11626500
v 0.00793696 0.00763894 -0.09956312
v 0.00793696 0.01224962 -0.11626500
v 0.07018063 0.00763894 -0.11626500
v 0.00804055 0.00763894 -0.09873627
v 0.00793696 0.00764985 -0.09873627
v 0.00793696 0.01419582 -0.11605116
v 0.07018063 0.01416950 -0.11605523
v 0.07018063 0.01224962 -0.11626500
v 0.07018063 0.00763894 -0.09870777
v 0.00793696 0.01419582 -0.09546148
v 0.07018063 0.01419582 -0.11605116
v 0.07018063 0.01419582 -0.09706425
v 0.06778594 0.01419582 -0.09636775
v 0.06324639 0.01419582 -0.09546148
f 1 2 6
f 1 6 11
f 1 11 7
f 1 7 3
f 1 3 9
f 1 9 4
f 1 4 10
f 1 10 5
f 1 5 2
f 2 5 6
f 3 7 8
f 3 8 9
f 4 9 8
f 4 8 12
f 4 12 13
f 4 13 10
f 5 11 6
f 5 10 11
f 7 11 15
f 7 15 14
f 7 14 13
f 7 13 12
f 7 12 8
f 10 13 14
f 10 14 15
f 10 15 11

