# https://github.com/mikedh/trimesh
v 0.07018063 0.00763894 -0.11626500
v 0.07018063 0.01224962 -0.11626500
v 0.07246148 0.00763894 -0.11626500
v 0.07018063 0.00763894 -0.09870711
v 0.07018063 0.01416950 -0.11605494
v 0.07368509 0.01224962 -0.11626500
v 0.07368509 0.00764408 -0.11626500
v 0.07368509 0.00763894 -0.11220176
v 0.07363604 0.00763894 -0.09664047
v 0.07368509 0.00764729 -0.09578114
v 0.07368509 0.01211803 -0.09458869
v 0.07018063 0.01419582 -0.09706483
v 0.07018063 0.01419582 -0.11605070
v 0.07368509 0.01419582 -0.11605070
v 0.07368509 0.01331450 -0.11614830
v 0.07368509 0.00763894 -0.09668928
v 0.07368509 0.01419582 -0.09547561
f 1 2 6
f 1 6 7
f 1 7 3
f 1 3 8
f 1 8 16
f 1 16 9
f 1 9 4
f 1 4 12
f 1 12 13
f 1 13 5
f 1 5 2
f 2 5 6
f 3 7 8
f 4 9 10
f 4 10 11
f 4 11 12
f 5 13 14
f 5 14 15
f 5 15 6
f 6 15 14
f 6 14 17
f 6 17 11
f 6 11 10
f 6 10 16
f 6 16 8
f 6 8 7
f 9 16 10
f 11 17 12
f 12 17 14
f 12 14 13

