# https://github.com/mikedh/trimesh
v -0.01339533 0.00424993 -0.02415134
v -0.01373640 0.00763830 -0.02185232
v -0.01341807 0.00424993 -0.02185232
v -0.01339533 0.00424993 -0.05754561
v -0.01376888 0.00763830 -0.02060667
v -0.01373640 0.00763830 -0.05864914
v -0.01362271 0.00424993 -0.02048127
v -0.01341807 0.00424993 -0.05864914
v -0.01495123 0.00763830 -0.01962436
v -0.01495448 0.00424993 -0.01936520
v -0.01435356 0.00424993 -0.01986680
v -0.01376888 0.00763830 -0.05985717
v -0.01343756 0.00424993 -0.05928033
v -0.01725098 0.00763830 -0.01873819
v -0.01725098 0.00424993 -0.01861697
v -0.01362271 0.00424993 -0.05999511
v -0.01423987 0.00424993 -0.06037967
v -0.01495123 0.00763830 -0.06059285
v -0.01898554 0.00424993 -0.01860861
v -0.04254822 0.00763830 -0.01873819
v -0.01495123 0.00424993 -0.06074751
v -0.01614983 0.00424993 -0.06109864
v -0.01725098 0.00763830 -0.06126166
v -0.04024847 0.00424993 -0.01860861
v -0.04484797 0.00763830 -0.01937774
v -0.04368186 0.00424993 -0.01885941
v -0.04254822 0.00424993 -0.01861697
v -0.01725098 0.00424993 -0.06130346
v -0.01955073 0.00424993 -0.06130764
v -0.04254822 0.00763830 -0.06126166
v -0.04613102 0.00763830 -0.02036005
v -0.04484797 0.00424993 -0.01918546
v -0.04144707 0.00424993 -0.06130764
v -0.04254822 0.00424993 -0.06130346
v -0.04484797 0.00424993 -0.06088128
v -0.04483823 0.00763830 -0.06076424
v -0.04647858 0.00424993 -0.02107483
v -0.04626095 0.00424993 -0.02028063
v -0.04626420 0.00763830 -0.02185232
v -0.04655005 0.00424993 -0.02185232
v -0.04626095 0.00424993 -0.06012887
v -0.04484797 0.00763830 -0.06076006
v -0.04657603 0.00424993 -0.02295167
v -0.04626420 0.00763830 -0.05864914
v -0.04655005 0.00424993 -0.05864914
v -0.04613102 0.00763830 -0.06002855
v -0.04657603 0.00424993 -0.05634594
f 1 2 3
f 1 3 7
f 1 7 11
f 1 11 10
f 1 10 15
f 1 15 19
f 1 19 24
f 1 24 27
f 1 27 26
f 1 26 32
f 1 32 38
f 1 38 37
f 1 37 40
f 1 40 43
f 1 43 47
f 1 47 45
f 1 45 41
f 1 41 35
f 1 35 34
f 1 34 33
f 1 33 29
f 1 29 28
f 1 28 22
f 1 22 21
f 1 21 17
f 1 17 16
f 1 16 13
f 1 13 8
f 1 8 4
f 1 4 6
f 1 6 2
f 2 5 3
f 2 6 12
f 2 12 18
f 2 18 23
f 2 23 30
f 2 30 36
f 2 36 42
f 2 42 46
f 2 46 44
f 2 44 39
f 2 39 31
f 2 31 25
f 2 25 20
f 2 20 14
f 2 14 9
f 2 9 5
f 3 5 7
f 4 8 6
f 5 9 10
f 5 10 11
f 5 11 7
f 6 8 12
f 8 13 12
f 9 14 10
f 10 14 15
f 12 13 16
f 12 16 17
f 12 17 18
f 14 19 15
f 14 20 24
f 14 24 19
f 17 21 18
f 18 21 22
f 18 22 23
f 20 25 26
f 20 26 27
f 20 27 24
f 22 28 23
f 23 28 29
f 23 29 33
f 23 33 30
f 25 31 32
f 25 32 26
f 30 33 34
f 30 34 35
f 30 35 36
f 31 37 38
f 31 38 32
f 31 39 40
f 31 40 37
f 35 41 42
f 35 42 36
f 39 43 40
f 39 44 47
f 39 47 43
f 41 45 46
f 41 46 42
f 44 46 45
f 44 45 47

