# https://github.com/mikedh/trimesh
v 0.11626084 0.00761002 0.09659222
v 0.07364246 0.00761002 0.09659222
v 0.11626084 0.00422619 0.09659222
v 0.11626084 0.00761002 0.01955310
v 0.07362577 0.00422619 0.09659222
v 0.07373846 0.00761002 0.01955310
v 0.07367585 0.00422619 0.02185096
v 0.11626084 0.00422619 0.01955310
v 0.11610224 0.00422619 0.01725524
v 0.11590606 0.00761002 0.01729584
v 0.07374681 0.00761002 0.01951250
v 0.07388872 0.00422619 0.01779926
v 0.07368003 0.00422619 0.01955310
v 0.11589771 0.00761002 0.01725524
v 0.11558886 0.00422619 0.01503858
v 0.07426853 0.00761002 0.01725524
v 0.07401393 0.00422619 0.01725524
v 0.11526748 0.00761002 0.01589114
v 0.11505462 0.00422619 0.01365012
v 0.07535371 0.00761002 0.01592362
v 0.07506155 0.00422619 0.01572875
v 0.07451478 0.00422619 0.01640268
v 0.11504627 0.00424143 0.01365824
v 0.11387344 0.00761002 0.01571251
v 0.11493775 0.00422619 0.01365012
v 0.07538292 0.00761002 0.01591550
v 0.07618429 0.00422619 0.01555012
v 0.11494610 0.00424143 0.01365824
v 0.11385256 0.00761002 0.01571251
v 0.07705244 0.00422619 0.01545268
v 0.07705244 0.00761002 0.01573687
f 1 2 5
f 1 5 3
f 1 3 8
f 1 8 4
f 1 4 10
f 1 10 14
f 1 14 18
f 1 18 24
f 1 24 29
f 1 29 31
f 1 31 26
f 1 26 20
f 1 20 16
f 1 16 11
f 1 11 6
f 1 6 2
f 2 6 7
f 2 7 5
f 3 5 7
f 3 7 13
f 3 13 12
f 3 12 17
f 3 17 22
f 3 22 21
f 3 21 27
f 3 27 30
f 3 30 25
f 3 25 19
f 3 19 15
f 3 15 9
f 3 9 8
f 4 8 9
f 4 9 10
f 6 11 12
f 6 12 13
f 6 13 7
f 9 14 10
f 9 15 14
f 11 16 17
f 11 17 12
f 14 15 19
f 14 19 18
f 16 20 21
f 16 21 22
f 16 22 17
f 18 19 23
f 18 23 24
f 19 25 28
f 19 28 23
f 20 26 21
f 21 26 27
f 23 28 29
f 23 29 24
f 25 30 31
f 25 31 28
f 26 31 30
f 26 30 27
f 28 31 29

