# https://github.com/mikedh/trimesh
v -0.11626500 0.00133322 0.09572896
v -0.11626500 0.00133322 0.11384877
v -0.11626500 0.00422586 0.09572896
v -0.07025299 0.00133322 0.09572896
v -0.11562962 0.00133322 0.11563180
v -0.11626500 0.00422586 0.11384877
v -0.07365477 0.00422586 0.09572896
v -0.06633312 0.00133322 0.09577720
v -0.11517995 0.00133322 0.11579262
v -0.11562962 0.00422586 0.11563180
v -0.06633312 0.00422586 0.09840049
v -0.06633312 0.00133322 0.11626300
v -0.11472051 0.00422586 0.11595544
v -0.11384563 0.00133322 0.11626300
v -0.06633312 0.00422586 0.11626300
v -0.11384563 0.00422586 0.11626300
f 1 2 6
f 1 6 3
f 1 3 7
f 1 7 4
f 1 4 8
f 1 8 12
f 1 12 14
f 1 14 9
f 1 9 5
f 1 5 2
f 2 5 10
f 2 10 6
f 3 6 10
f 3 10 13
f 3 13 16
f 3 16 15
f 3 15 11
f 3 11 7
f 4 7 8
f 5 9 10
f 7 11 8
f 8 11 15
f 8 15 12
f 9 13 10
f 9 14 13
f 12 15 16
f 12 16 14
f 13 14 16

