# https://github.com/mikedh/trimesh
v 0.11626500 0.00424960 -0.01955489
v 0.11611242 0.00424960 -0.01845417
v 0.11616627 0.00135245 -0.01785525
v 0.11626500 0.00135245 -0.01955489
v 0.11626500 0.00424960 -0.09574743
v 0.11591945 0.00424960 -0.01725632
v 0.11608101 0.00135245 -0.01725632
v 0.11626500 0.00135245 -0.09574743
v 0.07365501 0.00424960 -0.09574743
v 0.11561879 0.00424960 -0.01652790
v 0.11572200 0.00135245 -0.01550812
v 0.07041944 0.00135245 -0.09574743
v 0.07367745 0.00424960 -0.01955489
v 0.11528670 0.00424960 -0.01583186
v 0.11556942 0.00135245 -0.01515200
v 0.07058997 0.00135245 -0.01788762
v 0.07062138 0.00135245 -0.01558905
v 0.07402301 0.00424960 -0.01725632
v 0.11458663 0.00424960 -0.01559715
v 0.11384618 0.00135245 -0.01337142
v 0.07095346 0.00135245 -0.01345236
v 0.07506862 0.00424960 -0.01573474
v 0.11384618 0.00424960 -0.01550002
v 0.11224409 0.00135245 -0.01315290
v 0.07308509 0.00135245 -0.01312052
v 0.07705215 0.00424960 -0.01545956
v 0.11274671 0.00424960 -0.01544337
v 0.11154851 0.00135245 -0.01306387
v 0.07537826 0.00135245 -0.01308006
v 0.07935430 0.00424960 -0.01544337
v 0.07767144 0.00135245 -0.01306387
f 1 2 3
f 1 3 4
f 1 4 8
f 1 8 5
f 1 5 9
f 1 9 13
f 1 13 18
f 1 18 22
f 1 22 26
f 1 26 30
f 1 30 27
f 1 27 23
f 1 23 19
f 1 19 14
f 1 14 10
f 1 10 6
f 1 6 2
f 2 6 7
f 2 7 3
f 3 7 11
f 3 11 15
f 3 15 20
f 3 20 24
f 3 24 28
f 3 28 31
f 3 31 29
f 3 29 25
f 3 25 21
f 3 21 17
f 3 17 16
f 3 16 12
f 3 12 8
f 3 8 4
f 5 8 12
f 5 12 9
f 6 10 11
f 6 11 7
f 9 12 13
f 10 14 15
f 10 15 11
f 12 16 13
f 13 16 17
f 13 17 18
f 14 19 20
f 14 20 15
f 17 21 18
f 18 21 22
f 19 23 24
f 19 24 20
f 21 25 22
f 22 25 26
f 23 27 28
f 23 28 24
f 25 29 26
f 26 29 31
f 26 31 30
f 27 30 31
f 27 31 28

