# https://github.com/mikedh/trimesh
v 0.01725069 0.01423163 0.01904969
v 0.01507444 0.01423163 0.01988015
v 0.01725069 0.01455012 0.01909760
v 0.04254962 0.01423163 0.01904969
v 0.01482078 0.01423163 0.01997917
v 0.01480608 0.01447806 0.02002389
v 0.01547513 0.01588818 0.02028900
v 0.01725069 0.01598234 0.02008138
v 0.04254962 0.01455012 0.01909760
v 0.04484719 0.01455012 0.01969489
v 0.04484719 0.01423163 0.01965018
v 0.01449361 0.01423163 0.02020914
v 0.01400837 0.01494505 0.02185091
v 0.01515899 0.01598234 0.02185091
v 0.01725069 0.01626480 0.02185091
v 0.04254962 0.01598234 0.02008138
v 0.04484719 0.01585434 0.02035927
v 0.04601251 0.01571739 0.02065951
v 0.04607501 0.01455012 0.02049661
v 0.04608236 0.01423163 0.02047745
v 0.01386132 0.01423163 0.02185091
v 0.01190196 0.01451150 0.05167737
v 0.01251955 0.01603091 0.05167737
v 0.01494577 0.01625067 0.05167737
v 0.01502297 0.01625744 0.05167737
v 0.01725069 0.01626480 0.05167737
v 0.04254962 0.01626480 0.02185091
v 0.04484719 0.01600861 0.02185091
v 0.04945702 0.01626480 0.03334326
v 0.04945702 0.01601060 0.03106587
v 0.04945702 0.01600742 0.03104032
v 0.04945702 0.01487478 0.03104032
v 0.04945702 0.01423163 0.03322189
v 0.01205268 0.01423163 0.05167737
v 0.01190196 0.01449001 0.05167737
v 0.04944966 0.01626480 0.05167737
v 0.04945702 0.01626480 0.05166779
v 0.04945702 0.01423163 0.05167737
v 0.04945702 0.01606634 0.05167737
f 1 2 3
f 1 3 9
f 1 9 4
f 1 4 11
f 1 11 20
f 1 20 33
f 1 33 38
f 1 38 34
f 1 34 21
f 1 21 12
f 1 12 5
f 1 5 2
f 2 5 6
f 2 6 3
f 3 6 7
f 3 7 8
f 3 8 16
f 3 16 9
f 4 9 10
f 4 10 11
f 5 12 6
f 6 12 7
f 7 12 13
f 7 13 14
f 7 14 15
f 7 15 8
f 8 15 27
f 8 27 16
f 9 16 17
f 9 17 10
f 10 17 18
f 10 18 19
f 10 19 11
f 11 19 20
f 12 21 13
f 13 21 22
f 13 22 23
f 13 23 14
f 14 23 15
f 15 23 24
f 15 24 25
f 15 25 26
f 15 26 36
f 15 36 37
f 15 37 29
f 15 29 27
f 16 27 17
f 17 28 18
f 17 27 28
f 18 29 30
f 18 30 31
f 18 31 19
f 18 28 29
f 19 31 20
f 20 31 32
f 20 32 33
f 21 34 35
f 21 35 22
f 22 35 34
f 22 34 38
f 22 38 39
f 22 39 36
f 22 36 26
f 22 26 25
f 22 25 24
f 22 24 23
f 27 29 28
f 29 37 39
f 29 39 38
f 29 38 33
f 29 33 32
f 29 32 31
f 29 31 30
f 36 39 37

