# https://github.com/mikedh/trimesh
v -0.07144767 0.01381661 -0.02415731
v -0.07145206 0.01381661 -0.02185013
v -0.07373768 0.00763830 -0.01955045
v -0.07144767 0.01381661 -0.09224152
v -0.07160560 0.01381661 -0.01955045
v -0.07426850 0.00763830 -0.01725076
v -0.07373768 0.00763830 -0.09084823
v -0.07373768 0.00764556 -0.09224152
v -0.11608953 0.01381661 -0.09224152
v -0.07165825 0.01381661 -0.01940812
v -0.07535209 0.00763830 -0.01592488
v -0.07261900 0.01381661 -0.01773766
v -0.09049153 0.00763830 -0.09224152
v -0.11616411 0.01315795 -0.09224152
v -0.11608953 0.01381661 -0.01955045
v -0.07286906 0.01381661 -0.01751294
v -0.07465455 0.01381661 -0.01629193
v -0.07535209 0.01224950 -0.01592488
v -0.07705423 0.00763830 -0.01573761
v -0.11626500 0.00764314 -0.09224152
v -0.11626500 0.00763830 -0.09085571
v -0.11626500 0.01224950 -0.09224152
v -0.11626500 0.01224950 -0.01955045
v -0.11587017 0.01381661 -0.01798486
v -0.07543982 0.01381661 -0.01596234
v -0.07597942 0.01381661 -0.01590241
v -0.07705423 0.01224950 -0.01573761
v -0.11384778 0.00763830 -0.01571514
v -0.11626500 0.00763830 -0.01955045
v -0.11590088 0.00763830 -0.01726574
v -0.11589649 0.01224950 -0.01725076
v -0.11575611 0.01381661 -0.01725076
v -0.07705423 0.01381661 -0.01582001
v -0.11384778 0.01224950 -0.01573761
v -0.11526478 0.00763830 -0.01590241
v -0.11589649 0.00763830 -0.01725076
v -0.11526478 0.01224950 -0.01592488
v -0.11540954 0.01381661 -0.01638182
v -0.11384778 0.01381661 -0.01582001
v -0.11520775 0.01381661 -0.01596234
f 1 2 3
f 1 3 7
f 1 7 4
f 1 4 9
f 1 9 15
f 1 15 24
f 1 24 32
f 1 32 38
f 1 38 40
f 1 40 39
f 1 39 33
f 1 33 26
f 1 26 25
f 1 25 17
f 1 17 16
f 1 16 12
f 1 12 10
f 1 10 5
f 1 5 2
f 2 5 3
f 3 5 6
f 3 6 11
f 3 11 19
f 3 19 28
f 3 28 35
f 3 35 36
f 3 36 30
f 3 30 29
f 3 29 21
f 3 21 13
f 3 13 7
f 4 7 8
f 4 8 13
f 4 13 20
f 4 20 22
f 4 22 14
f 4 14 9
f 5 10 6
f 6 10 12
f 6 12 11
f 7 13 8
f 9 14 15
f 11 12 16
f 11 16 17
f 11 17 18
f 11 18 27
f 11 27 19
f 13 21 20
f 14 22 23
f 14 23 15
f 15 23 24
f 17 25 18
f 18 26 27
f 18 25 26
f 19 27 28
f 20 21 29
f 20 29 23
f 20 23 22
f 23 29 30
f 23 30 31
f 23 31 32
f 23 32 24
f 26 33 27
f 27 33 39
f 27 39 34
f 27 34 28
f 28 34 37
f 28 37 35
f 30 36 31
f 31 36 35
f 31 35 37
f 31 37 38
f 31 38 32
f 34 39 40
f 34 40 37
f 37 40 38

