# https://github.com/mikedh/trimesh
v -0.01352533 -0.01387247 0.01522024
v -0.01490841 -0.01387247 0.01522148
v -0.01490841 -0.01104528 0.01522148
v -0.01351219 -0.01104528 0.01522024
v 0.01348919 -0.01387247 0.01522024
v -0.01493141 -0.01104528 0.01523390
v -0.01619951 -0.01387247 0.01592200
v 0.01348919 -0.01104528 0.01522024
v 0.01490841 -0.01387247 0.01522148
v -0.01619951 -0.01104528 0.01592200
v -0.01678100 -0.01387247 0.01733049
v 0.01490841 -0.01104528 0.01522148
v 0.01619951 -0.01387247 0.01592200
v -0.01678100 -0.01104528 0.01733049
v -0.01678100 -0.01387247 0.02442884
v 0.01619951 -0.01104528 0.01592200
v 0.01678100 -0.01387247 0.01733049
v -0.01678100 -0.01104528 0.02442884
v -0.01658389 -0.01387247 0.02584976
v 0.01678100 -0.01104528 0.01733049
v 0.01678100 -0.01387247 0.02442884
v -0.01645248 -0.01104528 0.02584976
v -0.01607467 -0.01387247 0.02715764
v 0.01678100 -0.01104528 0.02442884
v 0.01659374 -0.01387247 0.02581249
v -0.01587099 -0.01104528 0.02666951
v -0.01519423 -0.01387247 0.02776128
v 0.01645248 -0.01104528 0.02584976
v 0.01658389 -0.01387247 0.02584976
v -0.01490841 -0.01387247 0.02789791
v -0.01585456 -0.01104528 0.02667200
v 0.01611081 -0.01387247 0.02710672
v 0.01588084 -0.01104528 0.02665585
v -0.01401154 -0.01387247 0.02790784
v -0.01490841 -0.01104528 0.02678130
v 0.01607467 -0.01387247 0.02715764
v 0.01587099 -0.01104528 0.02666951
v 0.01348919 -0.01387247 0.02790784
v 0.01490841 -0.01104528 0.02678130
v 0.01490841 -0.01387247 0.02789791
f 1 2 3
f 1 3 4
f 1 4 8
f 1 8 5
f 1 5 9
f 1 9 13
f 1 13 17
f 1 17 21
f 1 21 25
f 1 25 29
f 1 29 32
f 1 32 36
f 1 36 40
f 1 40 38
f 1 38 34
f 1 34 30
f 1 30 27
f 1 27 23
f 1 23 19
f 1 19 15
f 1 15 11
f 1 11 7
f 1 7 2
f 2 6 3
f 2 7 6
f 3 6 10
f 3 10 14
f 3 14 18
f 3 18 22
f 3 22 26
f 3 26 31
f 3 31 35
f 3 35 39
f 3 39 37
f 3 37 33
f 3 33 28
f 3 28 24
f 3 24 20
f 3 20 16
f 3 16 12
f 3 12 8
f 3 8 4
f 5 8 12
f 5 12 9
f 6 7 10
f 7 11 14
f 7 14 10
f 9 12 16
f 9 16 13
f 11 15 18
f 11 18 14
f 13 16 20
f 13 20 17
f 15 19 18
f 17 20 24
f 17 24 21
f 18 19 22
f 19 23 22
f 21 24 25
f 22 23 26
f 23 27 26
f 24 28 25
f 25 28 29
f 26 27 30
f 26 30 31
f 28 32 29
f 28 33 32
f 30 34 35
f 30 35 31
f 32 33 36
f 33 37 36
f 34 38 39
f 34 39 35
f 36 37 40
f 37 39 40
f 38 40 39

