# https://github.com/mikedh/trimesh
v 0.01682171 0.01274723 0.01425064
v 0.01682171 0.01274723 0.01144309
v 0.01666031 0.01274723 0.01522622
v 0.01656479 0.01056324 0.01873317
v 0.01672619 0.00974954 0.01873317
v 0.01682171 0.00826442 0.01873317
v 0.01682171 -0.00824909 0.01144309
v -0.01682171 0.01274723 0.01144309
v 0.01574791 0.01274723 0.01564585
v 0.01574791 0.01073047 0.01873317
v 0.01682171 -0.01274937 0.01873317
v 0.01682171 -0.01275186 0.01574934
v 0.01681183 -0.00844128 0.01144309
v -0.01682171 -0.00824909 0.01144309
v -0.01682171 0.01274723 0.01425064
v 0.01424921 0.01274723 0.01583926
v 0.01424921 0.01083031 0.01873317
v 0.01680853 -0.01275186 0.01873317
v 0.01682171 -0.01275186 0.01724946
v 0.01666031 -0.01275186 0.01477519
v 0.01656479 -0.01056537 0.01144309
v 0.01670642 -0.00985651 0.01144309
v 0.01672619 -0.00974918 0.01144309
v -0.01682171 -0.01275186 0.01574934
v -0.01673936 -0.00955699 0.01144309
v -0.01672619 0.00974954 0.01873317
v -0.01656479 0.01056324 0.01873317
v -0.01666031 0.01274723 0.01522622
v -0.01682171 0.00824945 0.01873317
v -0.01424921 0.01274723 0.01583926
v -0.01424921 0.01083031 0.01873317
v -0.01680853 -0.01275186 0.01873317
v 0.01574791 -0.01275186 0.01435555
v 0.01574791 -0.01074508 0.01144309
v -0.01682171 -0.01275186 0.01724946
v -0.01672619 -0.00974918 0.01144309
v -0.01656479 -0.01056537 0.01144309
v -0.01666031 -0.01275186 0.01477519
v -0.01655491 0.01056823 0.01873317
v -0.01574791 0.01274723 0.01564585
v -0.01682171 -0.01274937 0.01873317
v -0.01573144 0.01073296 0.01873317
v 0.01424921 -0.01275186 0.01416143
v 0.01424921 -0.01085491 0.01144309
v -0.01645938 -0.01060031 0.01144309
v -0.01574791 -0.01275186 0.01435555
v -0.01574791 0.01073047 0.01873317
v -0.01424921 -0.01275186 0.01416143
v -0.01424921 -0.01085491 0.01144309
v -0.01574791 -0.01074508 0.01144309
v -0.01555687 -0.01076755 0.01144309
f 1 2 8
f 1 8 15
f 1 15 28
f 1 28 40
f 1 40 30
f 1 30 16
f 1 16 9
f 1 9 3
f 1 3 4
f 1 4 5
f 1 5 6
f 1 6 11
f 1 11 19
f 1 19 12
f 1 12 7
f 1 7 2
f 2 7 13
f 2 13 23
f 2 23 22
f 2 22 21
f 2 21 34
f 2 34 44
f 2 44 49
f 2 49 51
f 2 51 50
f 2 50 45
f 2 45 37
f 2 37 36
f 2 36 25
f 2 25 14
f 2 14 8
f 3 9 4
f 4 9 10
f 4 10 17
f 4 17 31
f 4 31 42
f 4 42 47
f 4 47 39
f 4 39 27
f 4 27 26
f 4 26 29
f 4 29 41
f 4 41 32
f 4 32 18
f 4 18 11
f 4 11 6
f 4 6 5
f 7 12 13
f 8 14 24
f 8 24 35
f 8 35 41
f 8 41 29
f 8 29 15
f 9 16 10
f 10 16 17
f 11 18 19
f 12 19 18
f 12 18 32
f 12 32 35
f 12 35 24
f 12 24 38
f 12 38 46
f 12 46 48
f 12 48 43
f 12 43 33
f 12 33 20
f 12 20 21
f 12 21 22
f 12 22 23
f 12 23 13
f 14 25 24
f 15 26 27
f 15 27 28
f 15 29 26
f 16 30 31
f 16 31 17
f 20 33 21
f 21 33 34
f 24 25 36
f 24 36 37
f 24 37 38
f 27 39 28
f 28 39 40
f 30 40 42
f 30 42 31
f 32 41 35
f 33 43 34
f 34 43 44
f 37 45 38
f 38 45 46
f 39 47 40
f 40 47 42
f 43 48 49
f 43 49 44
f 45 50 46
f 46 50 51
f 46 51 48
f 48 51 49

