# https://github.com/mikedh/trimesh
v -0.01490841 0.01327497 -0.02478100
v -0.01587099 0.01327497 -0.02467037
v -0.01508253 0.01616570 -0.02476101
v -0.01490841 0.01616570 -0.02478100
v 0.01490841 0.01327497 -0.02478100
v -0.01597612 0.01616570 -0.02452243
v -0.01587099 0.01616570 -0.02467037
v -0.01645248 0.01327497 -0.02384934
v 0.01490841 0.01616570 -0.02478100
v 0.01573301 0.01327497 -0.02468637
v -0.01645248 0.01616570 -0.02384934
v -0.01678100 0.01327497 -0.02242984
v 0.01587099 0.01616570 -0.02467037
v 0.01587099 0.01327497 -0.02467037
v -0.01678100 0.01616570 -0.02242984
v -0.01678100 0.01327497 -0.01533106
v 0.01645248 0.01616570 -0.02384934
v 0.01645248 0.01327497 -0.02384934
v -0.01678100 0.01616570 -0.01533106
v -0.01651818 0.01616570 -0.01365433
v -0.01677114 0.01616570 -0.01507515
v -0.01618637 0.01327497 -0.01389957
v -0.01600897 0.01616570 -0.01191895
v 0.01678100 0.01616570 -0.02242984
v 0.01678100 0.01327497 -0.02242984
v -0.01490841 0.01327497 -0.01321848
v -0.01490841 0.01616570 -0.01116589
v 0.01678100 0.01616570 -0.01533106
v 0.01678100 0.01327497 -0.01533106
v -0.01348919 0.01327497 -0.01321715
v -0.01348919 0.01616570 -0.01116456
v 0.01653461 0.01616570 -0.01391024
v 0.01600897 0.01616570 -0.01191895
v 0.01628164 0.01327497 -0.01412483
v 0.01383414 0.01327497 -0.01321715
v 0.01480657 0.01616570 -0.01116456
v 0.01563445 0.01616570 -0.01153376
v 0.01618637 0.01327497 -0.01389957
v 0.01490841 0.01327497 -0.01321848
v 0.01490841 0.01616570 -0.01116589
v 0.01509239 0.01327497 -0.01330645
f 1 2 3
f 1 3 4
f 1 4 9
f 1 9 5
f 1 5 10
f 1 10 14
f 1 14 18
f 1 18 25
f 1 25 29
f 1 29 34
f 1 34 38
f 1 38 41
f 1 41 39
f 1 39 35
f 1 35 30
f 1 30 26
f 1 26 22
f 1 22 16
f 1 16 12
f 1 12 8
f 1 8 2
f 2 6 7
f 2 7 3
f 2 8 6
f 3 7 6
f 3 6 11
f 3 11 15
f 3 15 19
f 3 19 21
f 3 21 20
f 3 20 23
f 3 23 27
f 3 27 31
f 3 31 36
f 3 36 40
f 3 40 37
f 3 37 33
f 3 33 32
f 3 32 28
f 3 28 24
f 3 24 17
f 3 17 13
f 3 13 9
f 3 9 4
f 5 9 10
f 6 8 11
f 8 12 15
f 8 15 11
f 9 13 10
f 10 13 14
f 12 16 19
f 12 19 15
f 13 17 18
f 13 18 14
f 16 20 21
f 16 21 19
f 16 22 23
f 16 23 20
f 17 24 25
f 17 25 18
f 22 26 27
f 22 27 23
f 24 28 29
f 24 29 25
f 26 30 31
f 26 31 27
f 28 32 29
f 29 32 33
f 29 33 34
f 30 35 36
f 30 36 31
f 33 37 38
f 33 38 34
f 35 39 36
f 36 39 40
f 37 40 41
f 37 41 38
f 39 41 40

