# https://github.com/mikedh/trimesh
v 0.01678100 0.01328009 0.02442907
v 0.01678100 0.01328009 0.01733005
v 0.01645248 0.01328009 0.02584978
v 0.01678100 -0.01104500 0.02442907
v 0.01678100 -0.01104500 0.01733005
v 0.01619951 0.01306817 0.01592180
v 0.01618637 0.01328009 0.01589916
v 0.01645248 -0.01104500 0.02584978
v 0.01587099 0.01328009 0.02666937
v 0.01587099 -0.01104500 0.02667051
v 0.01619951 -0.01104500 0.01592180
v 0.01490841 -0.01104500 0.01522107
v 0.01490841 0.01328009 0.01521880
v 0.01504968 0.01328009 0.02676446
v 0.01490841 -0.01104500 0.02678145
v 0.01348919 -0.01104500 0.01521993
v 0.01348919 0.01328009 0.01521767
v 0.01490841 0.01328009 0.02678031
v -0.01490841 -0.01104500 0.02678145
v -0.01351219 -0.01104500 0.01521993
v -0.01384400 0.01328009 0.01521767
v -0.01490841 0.01328009 0.02678031
v -0.01572972 0.01328009 0.02668635
v -0.01587099 -0.01104500 0.02667051
v -0.01490841 -0.01104500 0.01522107
v -0.01490841 0.01328009 0.01521880
v -0.01587099 0.01328009 0.02666937
v -0.01636706 0.01328009 0.02597091
v -0.01645248 -0.01104500 0.02584978
v -0.01493141 -0.01104500 0.01523352
v -0.01509567 0.01328009 0.01530823
v -0.01645248 0.01328009 0.02584978
v -0.01678100 -0.01104500 0.02442907
v -0.01618637 0.01328009 0.01589916
v -0.01619951 -0.01104500 0.01592180
v -0.01678100 0.01328009 0.02442907
v -0.01678100 -0.01104500 0.01733005
v -0.01619951 0.01306817 0.01592180
v -0.01628493 0.01328009 0.01613009
v -0.01678100 0.01328009 0.01733005
f 1 2 7
f 1 7 13
f 1 13 17
f 1 17 21
f 1 21 26
f 1 26 31
f 1 31 34
f 1 34 39
f 1 39 40
f 1 40 36
f 1 36 32
f 1 32 28
f 1 28 27
f 1 27 23
f 1 23 22
f 1 22 18
f 1 18 14
f 1 14 9
f 1 9 3
f 1 3 8
f 1 8 4
f 1 4 5
f 1 5 2
f 2 5 11
f 2 11 6
f 2 6 7
f 3 9 10
f 3 10 8
f 4 8 10
f 4 10 15
f 4 15 19
f 4 19 24
f 4 24 29
f 4 29 33
f 4 33 37
f 4 37 35
f 4 35 30
f 4 30 25
f 4 25 20
f 4 20 16
f 4 16 12
f 4 12 11
f 4 11 5
f 6 11 7
f 7 11 12
f 7 12 13
f 9 14 10
f 10 14 15
f 12 16 17
f 12 17 13
f 14 18 15
f 15 18 22
f 15 22 19
f 16 20 21
f 16 21 17
f 19 22 23
f 19 23 24
f 20 25 21
f 21 25 26
f 23 27 24
f 24 27 28
f 24 28 29
f 25 30 31
f 25 31 26
f 28 32 29
f 29 32 36
f 29 36 33
f 30 34 31
f 30 35 34
f 33 36 40
f 33 40 37
f 34 38 39
f 34 35 38
f 35 37 40
f 35 40 38
f 38 40 39

