# https://github.com/mikedh/trimesh
v -0.01682171 -0.01274955 0.01873317
v -0.01682171 0.00824823 0.01873317
v -0.01680853 -0.01275186 0.01873317
v -0.01682171 -0.01275186 0.01875082
v -0.01682171 0.00828979 0.04878819
v -0.01672619 0.00974874 0.01873317
v 0.01680853 -0.01275186 0.01873317
v -0.01682171 -0.01275186 0.04424831
v -0.01682171 -0.00824805 0.04878819
v -0.01672619 0.00974874 0.04878819
v -0.01672289 0.00977182 0.04878819
v -0.01656479 0.01056362 0.01873317
v 0.01682171 -0.01274955 0.01873317
v 0.01682171 -0.01275186 0.01875082
v -0.01672948 -0.00970700 0.04878819
v -0.01666031 -0.01275186 0.04522513
v -0.01656479 -0.01056344 0.04878819
v -0.01672619 -0.00974855 0.04878819
v -0.01656479 0.01056362 0.04878819
v -0.01655491 0.01056824 0.01873317
v 0.01682171 0.00826670 0.01873317
v 0.01682171 -0.01275186 0.04424831
v -0.01574791 -0.01275186 0.04564293
v -0.01574791 -0.01072965 0.04878819
v -0.01577097 0.01072291 0.04878819
v -0.01574791 0.01072983 0.01873317
v 0.01672948 0.00970718 0.04878819
v 0.01682171 0.00824823 0.04878819
v 0.01672619 0.00974874 0.01873317
v 0.01682171 -0.00828960 0.04878819
v 0.01672619 -0.00974855 0.04878819
v 0.01672289 -0.00977164 0.04878819
v 0.01656479 -0.01056344 0.04878819
v 0.01666031 -0.01275186 0.04522513
v -0.01424921 -0.01275186 0.04583712
v -0.01424921 -0.01082891 0.04878819
v -0.01574791 0.01072753 0.04878819
v -0.01573144 0.01073214 0.01873317
v 0.01672619 0.00974874 0.04878819
v 0.01656479 0.01056362 0.01873317
v 0.01577097 -0.01072503 0.04878819
v 0.01574791 -0.01275186 0.04564293
v 0.01424921 -0.01275186 0.04583712
v 0.01424921 -0.01082891 0.04878819
v -0.01428873 0.01082217 0.04878819
v -0.01423274 0.01083141 0.01873317
v 0.01656479 0.01056362 0.04878819
v 0.01574791 0.01072983 0.01873317
v 0.01574791 -0.01072965 0.04878819
v -0.01424921 0.01082448 0.04878819
v 0.01274721 0.01083141 0.01873317
v 0.01574791 0.01072753 0.04878819
v 0.01426568 0.01082910 0.01873317
v 0.01424921 0.01082448 0.04878819
f 1 2 6
f 1 6 12
f 1 12 20
f 1 20 26
f 1 26 38
f 1 38 46
f 1 46 51
f 1 51 53
f 1 53 48
f 1 48 40
f 1 40 29
f 1 29 21
f 1 21 13
f 1 13 7
f 1 7 3
f 1 3 4
f 1 4 8
f 1 8 9
f 1 9 5
f 1 5 2
f 2 5 6
f 3 7 14
f 3 14 22
f 3 22 34
f 3 34 42
f 3 42 43
f 3 43 35
f 3 35 23
f 3 23 16
f 3 16 8
f 3 8 4
f 5 9 15
f 5 15 18
f 5 18 17
f 5 17 24
f 5 24 36
f 5 36 44
f 5 44 49
f 5 49 41
f 5 41 33
f 5 33 32
f 5 32 31
f 5 31 30
f 5 30 28
f 5 28 27
f 5 27 39
f 5 39 47
f 5 47 52
f 5 52 54
f 5 54 50
f 5 50 45
f 5 45 37
f 5 37 25
f 5 25 19
f 5 19 11
f 5 11 10
f 5 10 6
f 6 10 11
f 6 11 12
f 7 13 14
f 8 15 9
f 8 16 17
f 8 17 18
f 8 18 15
f 11 19 12
f 12 19 20
f 13 21 28
f 13 28 30
f 13 30 22
f 13 22 14
f 16 23 17
f 17 23 24
f 19 25 20
f 20 25 37
f 20 37 26
f 21 27 28
f 21 29 27
f 22 30 31
f 22 31 32
f 22 32 33
f 22 33 34
f 23 35 24
f 24 35 36
f 26 37 38
f 27 29 39
f 29 40 47
f 29 47 39
f 33 41 42
f 33 42 34
f 35 43 44
f 35 44 36
f 37 45 46
f 37 46 38
f 40 48 47
f 41 49 42
f 42 49 43
f 43 49 44
f 45 50 46
f 46 50 54
f 46 54 51
f 47 48 52
f 48 53 52
f 51 54 53
f 52 53 54

