# https://github.com/mikedh/trimesh
v 0.01678100 0.04572923 0.02442901
v 0.01619951 0.04710327 0.02442901
v 0.01603525 0.04693925 0.02584727
v 0.01645248 0.04572923 0.02584727
v 0.01678100 0.01616570 0.02442901
v 0.01678100 0.04572923 -0.02242901
v 0.01490841 0.04777481 0.02442901
v 0.01619951 0.04710327 -0.02242901
v 0.01490841 0.04744368 0.02584727
v 0.01578557 0.04666382 0.02662959
v 0.01645248 0.01616570 0.02584727
v 0.01587099 0.04572923 0.02666996
v 0.01678100 0.01616570 -0.02242901
v 0.01645248 0.04572923 -0.02384727
v 0.01603525 0.04693925 -0.02384727
v 0.01348919 0.04778100 0.02442901
v 0.01490841 0.04777481 -0.02242901
v 0.01348919 0.04744678 0.02584727
v 0.01490841 0.04677523 0.02666996
v 0.01490841 0.04572923 0.02678100
v 0.01587099 0.01616570 0.02666996
v 0.01645248 0.01616570 -0.02384727
v 0.01587099 0.04572923 -0.02466996
v 0.01578557 0.04666382 -0.02462959
v 0.01490841 0.04744368 -0.02384727
v -0.01348919 0.04778100 0.02442901
v 0.01348919 0.04778100 -0.02242901
v -0.01348919 0.04744678 0.02584727
v -0.01490841 0.04677523 0.02666996
v 0.01490841 0.01616570 0.02678100
v -0.01490841 0.04572923 0.02678100
v 0.01587099 0.01616570 -0.02466996
v 0.01569687 0.01616570 -0.02469015
v 0.01490841 0.04572923 -0.02478100
v 0.01490841 0.04677523 -0.02466996
v 0.01348919 0.04744678 -0.02384727
v -0.01490841 0.04777481 0.02442901
v -0.01490841 0.04744368 0.02584727
v -0.01348919 0.04778100 -0.02242901
v -0.01578557 0.04666382 0.02662959
v -0.01490841 0.01616570 0.02678100
v -0.01569687 0.01616570 0.02669015
v -0.01587099 0.04572923 0.02666996
v 0.01490841 0.01616570 -0.02478100
v -0.01490841 0.04572923 -0.02478100
v -0.01490841 0.04677523 -0.02466996
v -0.01348919 0.04744678 -0.02384727
v -0.01619951 0.04710327 0.02442901
v -0.01603525 0.04693925 0.02584727
v -0.01490841 0.04777481 -0.02242901
v -0.01490841 0.04744368 -0.02384727
v -0.01645248 0.04572923 0.02584727
v -0.01587099 0.01616570 0.02666996
v -0.01490841 0.01616570 -0.02478100
v -0.01587099 0.04572923 -0.02466996
v -0.01578557 0.04666382 -0.02462959
v -0.01678100 0.04572923 0.02442901
v -0.01619951 0.04710327 -0.02242901
v -0.01603525 0.04693925 -0.02384727
v -0.01645248 0.01616570 0.02584727
v -0.01587099 0.01616570 -0.02466996
v -0.01645248 0.04572923 -0.02384727
v -0.01678100 0.01616570 0.02442901
v -0.01678100 0.04572923 -0.02242901
v -0.01645248 0.01616570 -0.02384727
v -0.01678100 0.01616570 -0.02242901
f 1 2 3
f 1 3 4
f 1 4 11
f 1 11 5
f 1 5 13
f 1 13 6
f 1 6 8
f 1 8 2
f 2 7 3
f 2 8 17
f 2 17 7
f 3 9 10
f 3 10 4
f 3 7 9
f 4 10 12
f 4 12 21
f 4 21 11
f 5 11 21
f 5 21 30
f 5 30 41
f 5 41 42
f 5 42 53
f 5 53 60
f 5 60 63
f 5 63 66
f 5 66 65
f 5 65 61
f 5 61 54
f 5 54 44
f 5 44 33
f 5 33 32
f 5 32 22
f 5 22 13
f 6 13 22
f 6 22 14
f 6 14 15
f 6 15 8
f 7 16 9
f 7 17 27
f 7 27 16
f 8 15 17
f 9 16 18
f 9 18 19
f 9 19 10
f 10 19 20
f 10 20 12
f 12 20 30
f 12 30 21
f 14 22 32
f 14 32 23
f 14 23 24
f 14 24 15
f 15 24 25
f 15 25 17
f 16 26 28
f 16 28 18
f 16 27 39
f 16 39 26
f 17 25 27
f 18 28 29
f 18 29 19
f 19 29 31
f 19 31 20
f 20 31 41
f 20 41 30
f 23 32 33
f 23 33 34
f 23 34 24
f 24 34 35
f 24 35 25
f 25 35 36
f 25 36 27
f 26 37 38
f 26 38 28
f 26 39 50
f 26 50 37
f 27 36 47
f 27 47 39
f 28 38 29
f 29 38 40
f 29 40 31
f 31 42 41
f 31 40 43
f 31 43 42
f 33 44 34
f 34 44 54
f 34 54 45
f 34 45 46
f 34 46 35
f 35 46 47
f 35 47 36
f 37 48 49
f 37 49 38
f 37 50 58
f 37 58 48
f 38 49 40
f 39 47 51
f 39 51 50
f 40 49 52
f 40 52 43
f 42 43 53
f 43 52 60
f 43 60 53
f 45 55 56
f 45 56 46
f 45 54 61
f 45 61 55
f 46 56 51
f 46 51 47
f 48 57 49
f 48 58 64
f 48 64 57
f 49 57 52
f 50 51 59
f 50 59 58
f 51 56 59
f 52 57 63
f 52 63 60
f 55 62 56
f 55 61 65
f 55 65 62
f 56 62 59
f 57 64 66
f 57 66 63
f 58 59 64
f 59 62 64
f 62 65 66
f 62 66 64

