# https://github.com/mikedh/trimesh
v 0.01678100 -0.01387587 -0.01533193
v 0.01678100 -0.04372895 -0.01533193
v 0.01678100 -0.01387587 -0.02243140
v 0.01619951 -0.01387587 -0.01392331
v 0.01619951 -0.04372895 -0.01392331
v 0.01600568 -0.04488147 -0.01415432
v 0.01619951 -0.04510323 -0.01533193
v 0.01678100 -0.04372895 -0.06786797
v 0.01658389 -0.01387587 -0.02385129
v 0.01678100 -0.01675249 -0.06786797
v 0.01659046 -0.01533136 -0.06786797
v 0.01656746 -0.01533136 -0.06928786
v 0.01600897 -0.01442246 -0.06928786
v 0.01490841 -0.01421944 -0.06928786
v 0.01494127 -0.01387587 -0.01324154
v 0.01490841 -0.04372895 -0.01322463
v 0.01490841 -0.04577475 -0.01533193
v 0.01490841 -0.04510635 -0.01392331
v 0.01619951 -0.04510323 -0.06786797
v 0.01617652 -0.04509386 -0.06928786
v 0.01673172 -0.04372895 -0.06928786
v 0.01607467 -0.01387587 -0.02515849
v 0.01673172 -0.01675249 -0.06928786
v 0.01608124 -0.01533136 -0.07032461
v 0.01588084 -0.01448805 -0.07017248
v 0.01490841 -0.01442246 -0.07025700
v -0.01490841 -0.01421944 -0.06928786
v 0.01401154 -0.01387587 -0.02590788
v 0.01490841 -0.01387587 -0.02590225
v 0.01519423 -0.01387587 -0.02576702
v 0.01490841 -0.01387587 -0.01322463
v -0.01490841 -0.04372895 -0.01322463
v 0.01348919 -0.04510948 -0.01392331
v 0.01348919 -0.04578100 -0.01533193
v 0.01490841 -0.04577475 -0.06786797
v 0.01490841 -0.04574976 -0.06928786
v 0.01597283 -0.04486898 -0.07025700
v 0.01615023 -0.04372895 -0.07038659
v 0.01615023 -0.01675249 -0.07038659
v 0.01490841 -0.01675249 -0.07078100
v 0.01490841 -0.01533136 -0.07065141
v -0.01490841 -0.01442246 -0.07025700
v -0.01588084 -0.01448805 -0.07017248
v -0.01600897 -0.01442246 -0.06928786
v -0.01678100 -0.01387587 -0.02243140
v -0.01659374 -0.01387587 -0.02381748
v -0.01658389 -0.01387587 -0.02385129
v -0.01611081 -0.01387587 -0.02510778
v -0.01607467 -0.01387587 -0.02515849
v -0.01490841 -0.01387587 -0.02590225
v -0.01348919 -0.01387587 -0.02590788
v -0.01490841 -0.01387587 -0.01322463
v -0.01619951 -0.04372895 -0.01392331
v -0.01600568 -0.04488147 -0.01415432
v -0.01490841 -0.04510635 -0.01392331
v -0.01348919 -0.04510948 -0.01392331
v -0.01348919 -0.04578100 -0.01533193
v 0.01348919 -0.04578100 -0.06786797
v 0.01348919 -0.04575289 -0.06928786
v 0.01490841 -0.04508449 -0.07038659
v 0.01490841 -0.04372895 -0.07078100
v -0.01490841 -0.01675249 -0.07078100
v -0.01490841 -0.01533136 -0.07065141
v -0.01608124 -0.01533136 -0.07032461
v -0.01656746 -0.01533136 -0.06928786
v -0.01678100 -0.01387587 -0.01533193
v -0.01659046 -0.01533136 -0.06786797
v -0.01678100 -0.01675249 -0.06786797
v -0.01619951 -0.01387587 -0.01392331
v -0.01678100 -0.04372895 -0.01533193
v -0.01619951 -0.04510323 -0.01533193
v -0.01490841 -0.04577475 -0.01533193
v -0.01348919 -0.04578100 -0.06786797
v -0.01348919 -0.04575289 -0.06928786
v -0.01490841 -0.04508449 -0.07038659
v -0.01490841 -0.04372895 -0.07078100
v -0.01615023 -0.01675249 -0.07038659
v -0.01673172 -0.01675249 -0.06928786
v -0.01678100 -0.04372895 -0.06786797
v -0.01619951 -0.04510323 -0.06786797
v -0.01490841 -0.04577475 -0.06786797
v -0.01490841 -0.04574976 -0.06928786
v -0.01597283 -0.04486898 -0.07025700
v -0.01615023 -0.04372895 -0.07038659
v -0.01673172 -0.04372895 -0.06928786
v -0.01617652 -0.04509386 -0.06928786
f 1 2 8
f 1 8 10
f 1 10 3
f 1 3 9
f 1 9 22
f 1 22 30
f 1 30 29
f 1 29 28
f 1 28 51
f 1 51 50
f 1 50 49
f 1 49 48
f 1 48 47
f 1 47 46
f 1 46 45
f 1 45 66
f 1 66 69
f 1 69 52
f 1 52 31
f 1 31 15
f 1 15 4
f 1 4 5
f 1 5 2
f 2 5 6
f 2 6 7
f 2 7 19
f 2 19 8
f 3 10 11
f 3 11 12
f 3 12 13
f 3 13 14
f 3 14 9
f 4 15 5
f 5 15 16
f 5 16 6
f 6 17 7
f 6 16 18
f 6 18 17
f 7 17 35
f 7 35 19
f 8 19 20
f 8 20 21
f 8 21 23
f 8 23 10
f 9 14 22
f 10 23 12
f 10 12 11
f 12 23 24
f 12 24 25
f 12 25 13
f 13 25 14
f 14 25 26
f 14 26 42
f 14 42 27
f 14 27 51
f 14 51 28
f 14 28 29
f 14 29 30
f 14 30 22
f 15 31 16
f 16 31 52
f 16 52 32
f 16 32 56
f 16 56 33
f 16 33 18
f 17 18 34
f 17 34 58
f 17 58 35
f 18 33 34
f 19 35 20
f 20 36 37
f 20 37 21
f 20 35 36
f 21 37 38
f 21 38 39
f 21 39 23
f 23 39 24
f 24 39 40
f 24 40 41
f 24 41 25
f 25 41 26
f 26 41 63
f 26 63 42
f 27 42 43
f 27 43 44
f 27 44 45
f 27 45 46
f 27 46 47
f 27 47 48
f 27 48 49
f 27 49 50
f 27 50 51
f 32 52 69
f 32 69 53
f 32 53 54
f 32 54 55
f 32 55 56
f 33 56 57
f 33 57 34
f 34 57 73
f 34 73 58
f 35 58 36
f 36 59 60
f 36 60 37
f 36 58 59
f 37 60 61
f 37 61 38
f 38 61 40
f 38 40 39
f 40 61 76
f 40 76 62
f 40 62 63
f 40 63 41
f 42 63 43
f 43 63 64
f 43 64 65
f 43 65 44
f 44 65 45
f 45 65 67
f 45 67 68
f 45 68 79
f 45 79 70
f 45 70 66
f 53 69 66
f 53 66 70
f 53 70 54
f 54 70 71
f 54 71 72
f 54 72 55
f 55 72 57
f 55 57 56
f 57 72 81
f 57 81 73
f 58 73 74
f 58 74 59
f 59 74 75
f 59 75 60
f 60 75 76
f 60 76 61
f 62 77 64
f 62 64 63
f 62 76 84
f 62 84 77
f 64 77 78
f 64 78 65
f 65 78 68
f 65 68 67
f 68 78 85
f 68 85 79
f 70 79 80
f 70 80 71
f 71 80 81
f 71 81 72
f 73 81 82
f 73 82 74
f 74 82 75
f 75 83 76
f 75 82 83
f 76 83 84
f 77 84 85
f 77 85 78
f 79 85 86
f 79 86 80
f 80 86 81
f 81 86 82
f 82 86 83
f 83 85 84
f 83 86 85

