# https://github.com/mikedh/trimesh
v -0.01424921 -0.01275461 0.01416398
v -0.01424921 -0.03824741 0.01417639
v -0.01574791 -0.03824741 0.01436244
v -0.01574791 -0.01275461 0.01435623
v 0.01424921 -0.01275461 0.01416398
v -0.01424921 -0.03974779 0.01436244
v -0.01574791 -0.03974779 0.01452368
v 0.01424921 -0.03824741 0.01417639
v -0.01661090 -0.03974779 0.01484307
v -0.01666031 -0.03824741 0.01477485
v -0.01666031 -0.01275461 0.01477485
v 0.01574791 -0.01275461 0.01435623
v 0.01574791 -0.03824741 0.01436244
v -0.01424921 -0.04066012 0.01477485
v -0.01574791 -0.04061340 0.01484307
v 0.01424921 -0.03974779 0.01436244
v -0.01654173 -0.04054196 0.01493919
v 0.01574791 -0.03974779 0.01452368
v -0.01672619 -0.03974779 0.01575161
v -0.01682171 -0.03824741 0.01575161
v -0.01682171 -0.01275461 0.01575161
v 0.01666031 -0.01275461 0.01477485
v 0.01666031 -0.03824741 0.01477485
v 0.01661090 -0.03974779 0.01484307
v -0.01424921 -0.04082500 0.01575161
v 0.01424921 -0.04066012 0.01477485
v -0.01574791 -0.04072607 0.01575161
v 0.01574791 -0.04061340 0.01484307
v -0.01656479 -0.04056394 0.01575161
v 0.01654173 -0.04054196 0.01493919
v -0.01672619 -0.03974779 0.04424838
v -0.01682171 -0.03824741 0.04424838
v -0.01682171 -0.01275461 0.04424838
v 0.01682171 -0.01275461 0.01575161
v 0.01682171 -0.03824741 0.01575161
v 0.01672619 -0.03974779 0.01575161
v -0.01424921 -0.04082500 0.04424838
v 0.01424921 -0.04082500 0.01575161
v -0.01574791 -0.04072607 0.04424838
v 0.01574791 -0.04072607 0.01575161
v -0.01656479 -0.04056394 0.04424838
v 0.01656479 -0.04056394 0.01575161
v -0.01654173 -0.04054196 0.04506080
v -0.01661090 -0.03974779 0.04515693
v -0.01666031 -0.03824741 0.04522515
v -0.01666031 -0.01275461 0.04522515
v 0.01682171 -0.01275461 0.04424838
v 0.01682171 -0.03824741 0.04424838
v 0.01672619 -0.03974779 0.04424838
v -0.01424921 -0.04066012 0.04522515
v -0.01574791 -0.04061340 0.04515693
v 0.01424921 -0.04082500 0.04424838
v 0.01574791 -0.04072607 0.04424838
v 0.01656479 -0.04056394 0.04424838
v -0.01574791 -0.03974779 0.04547632
v -0.01574791 -0.03824741 0.04563756
v -0.01574791 -0.01275461 0.04564376
v 0.01666031 -0.01275461 0.04522515
v 0.01666031 -0.03824741 0.04522515
v 0.01661090 -0.03974779 0.04515693
v 0.01654173 -0.04054196 0.04506080
v -0.01424921 -0.03974779 0.04563756
v 0.01424921 -0.04066012 0.04522515
v 0.01574791 -0.04061340 0.04515693
v -0.01424921 -0.03824741 0.04582361
v -0.01424921 -0.01275461 0.04583911
v 0.01574791 -0.01275461 0.04564376
v 0.01574791 -0.03824741 0.04563756
v 0.01574791 -0.03974779 0.04547632
v 0.01424921 -0.03974779 0.04563756
v 0.01424921 -0.03824741 0.04582361
v 0.01424921 -0.01275461 0.04583911
f 1 2 3
f 1 3 4
f 1 4 11
f 1 11 21
f 1 21 33
f 1 33 46
f 1 46 57
f 1 57 66
f 1 66 72
f 1 72 67
f 1 67 58
f 1 58 47
f 1 47 34
f 1 34 22
f 1 22 12
f 1 12 5
f 1 5 8
f 1 8 2
f 2 6 7
f 2 7 3
f 2 8 16
f 2 16 6
f 3 9 10
f 3 10 4
f 3 7 9
f 4 10 11
f 5 12 13
f 5 13 8
f 6 14 15
f 6 15 7
f 6 16 26
f 6 26 14
f 7 15 17
f 7 17 9
f 8 13 18
f 8 18 16
f 9 17 19
f 9 19 20
f 9 20 10
f 10 20 21
f 10 21 11
f 12 22 23
f 12 23 13
f 13 23 24
f 13 24 18
f 14 25 15
f 14 26 38
f 14 38 25
f 15 25 27
f 15 27 17
f 16 18 28
f 16 28 26
f 17 29 19
f 17 27 29
f 18 24 30
f 18 30 28
f 19 29 41
f 19 41 31
f 19 31 32
f 19 32 20
f 20 32 33
f 20 33 21
f 22 34 35
f 22 35 23
f 23 35 24
f 24 35 36
f 24 36 30
f 25 37 39
f 25 39 27
f 25 38 52
f 25 52 37
f 26 28 38
f 27 39 41
f 27 41 29
f 28 30 40
f 28 40 38
f 30 36 42
f 30 42 40
f 31 41 43
f 31 43 44
f 31 44 32
f 32 44 45
f 32 45 46
f 32 46 33
f 34 47 48
f 34 48 35
f 35 48 49
f 35 49 36
f 36 49 54
f 36 54 42
f 37 50 51
f 37 51 39
f 37 52 63
f 37 63 50
f 38 40 53
f 38 53 52
f 39 51 43
f 39 43 41
f 40 42 54
f 40 54 53
f 43 51 55
f 43 55 44
f 44 55 56
f 44 56 45
f 45 56 57
f 45 57 46
f 47 58 59
f 47 59 48
f 48 59 60
f 48 60 49
f 49 60 61
f 49 61 54
f 50 62 51
f 50 63 70
f 50 70 62
f 51 62 55
f 52 53 64
f 52 64 63
f 53 54 61
f 53 61 64
f 55 62 65
f 55 65 56
f 56 65 66
f 56 66 57
f 58 67 59
f 59 67 68
f 59 68 60
f 60 68 69
f 60 69 61
f 61 69 64
f 62 70 71
f 62 71 65
f 63 64 70
f 64 69 70
f 65 71 72
f 65 72 66
f 67 72 68
f 68 72 71
f 68 71 69
f 69 71 70

