# https://github.com/mikedh/trimesh
v -0.01480657 0.01616570 0.01316456
v -0.01384400 0.01328009 0.01521715
v -0.01490841 0.01328009 0.01521848
v -0.01490841 0.01616570 0.01316589
v 0.01348919 0.01616570 0.01316456
v 0.01348919 0.01328009 0.01521715
v -0.01509567 0.01328009 0.01530779
v -0.01563445 0.01616570 0.01353376
v 0.01490841 0.01616570 0.01316589
v 0.01490841 0.01328009 0.01521848
v -0.01618637 0.01328009 0.01589824
v -0.01600897 0.01616570 0.01391895
v 0.01600897 0.01616570 0.01391895
v 0.01618637 0.01328009 0.01589824
v -0.01628493 0.01328009 0.01613016
v -0.01678100 0.01328009 0.01733106
v -0.01653461 0.01616570 0.01591024
v 0.01651818 0.01616570 0.01565433
v 0.01678100 0.01328009 0.01733106
v -0.01678100 0.01328009 0.02442984
v -0.01678100 0.01616570 0.01733106
v 0.01677114 0.01616570 0.01707515
v 0.01678100 0.01616570 0.01733106
v 0.01678100 0.01328009 0.02442984
v -0.01645248 0.01328009 0.02584934
v -0.01678100 0.01616570 0.02442984
v 0.01678100 0.01616570 0.02442984
v 0.01645248 0.01328009 0.02584934
v -0.01636706 0.01328009 0.02597062
v -0.01645248 0.01616570 0.02584934
v 0.01645248 0.01616570 0.02584934
v 0.01597612 0.01616570 0.02652243
v 0.01587099 0.01328009 0.02667037
v -0.01587099 0.01328009 0.02667037
v -0.01587099 0.01616570 0.02667037
v 0.01587099 0.01616570 0.02667037
v 0.01508253 0.01616570 0.02676101
v 0.01490841 0.01328009 0.02678100
v -0.01490841 0.01328009 0.02678100
v -0.01490841 0.01616570 0.02678100
v 0.01490841 0.01616570 0.02678100
f 1 2 3
f 1 3 4
f 1 4 8
f 1 8 12
f 1 12 17
f 1 17 21
f 1 21 26
f 1 26 30
f 1 30 35
f 1 35 40
f 1 40 41
f 1 41 37
f 1 37 36
f 1 36 32
f 1 32 31
f 1 31 27
f 1 27 23
f 1 23 22
f 1 22 18
f 1 18 13
f 1 13 9
f 1 9 5
f 1 5 6
f 1 6 2
f 2 6 10
f 2 10 14
f 2 14 19
f 2 19 24
f 2 24 28
f 2 28 33
f 2 33 38
f 2 38 39
f 2 39 34
f 2 34 29
f 2 29 25
f 2 25 20
f 2 20 16
f 2 16 15
f 2 15 11
f 2 11 7
f 2 7 3
f 3 7 4
f 4 7 8
f 5 9 10
f 5 10 6
f 7 11 8
f 8 11 12
f 9 13 14
f 9 14 10
f 11 15 12
f 12 15 16
f 12 16 17
f 13 18 19
f 13 19 14
f 16 20 26
f 16 26 21
f 16 21 17
f 18 22 19
f 19 22 23
f 19 23 27
f 19 27 24
f 20 25 30
f 20 30 26
f 24 27 31
f 24 31 28
f 25 29 30
f 28 32 33
f 28 31 32
f 29 34 35
f 29 35 30
f 32 36 33
f 33 36 37
f 33 37 38
f 34 39 40
f 34 40 35
f 37 41 38
f 38 41 40
f 38 40 39

