# https://github.com/mikedh/trimesh
v 0.01678100 0.01327497 -0.01533011
v 0.01678100 0.01327497 -0.02242912
v 0.01628164 0.01327497 -0.01412562
v 0.01619951 0.01306765 -0.01392186
v 0.01678100 -0.01107075 -0.01533011
v 0.01678100 -0.01107075 -0.02242912
v 0.01645248 0.01327497 -0.02384982
v 0.01618637 0.01327497 -0.01389922
v 0.01619951 -0.01107075 -0.01392186
v 0.01645248 -0.01107075 -0.02384982
v 0.01587099 -0.01106837 -0.02467055
v 0.01587099 0.01327497 -0.02466942
v 0.01509239 0.01327497 -0.01330603
v 0.01490841 -0.01107075 -0.01322113
v 0.01587099 -0.01107075 -0.02467055
v 0.01573301 0.01327497 -0.02468640
v 0.01490841 0.01327497 -0.01321886
v 0.01348919 0.01327497 -0.01321660
v 0.01348919 -0.01107075 -0.01322000
v 0.01490841 -0.01107075 -0.02478036
v 0.01490841 0.01327497 -0.02478036
v -0.01348919 0.01327497 -0.01321660
v -0.01348919 -0.01107075 -0.01322000
v -0.01490841 -0.01107075 -0.02478036
v -0.01490841 0.01327497 -0.02478036
v -0.01490841 0.01327497 -0.01321886
v -0.01490841 -0.01107075 -0.01322113
v -0.01587099 -0.01107075 -0.02467055
v -0.01587099 -0.01106837 -0.02467055
v -0.01504639 0.01327497 -0.02476451
v -0.01618637 0.01327497 -0.01389922
v -0.01619951 -0.01107075 -0.01392186
v -0.01645248 -0.01107075 -0.02384982
v -0.01587099 0.01327497 -0.02466942
v -0.01645248 0.01327497 -0.02384982
v -0.01619951 0.01306765 -0.01392186
v -0.01678100 0.01327497 -0.01533011
v -0.01678100 -0.01107075 -0.01533011
v -0.01678100 -0.01107075 -0.02242912
v -0.01678100 0.01327497 -0.02242912
f 1 2 7
f 1 7 12
f 1 12 16
f 1 16 21
f 1 21 25
f 1 25 30
f 1 30 34
f 1 34 35
f 1 35 40
f 1 40 37
f 1 37 31
f 1 31 26
f 1 26 22
f 1 22 18
f 1 18 17
f 1 17 13
f 1 13 8
f 1 8 3
f 1 3 4
f 1 4 9
f 1 9 5
f 1 5 6
f 1 6 2
f 2 6 10
f 2 10 7
f 3 8 4
f 4 8 9
f 5 9 14
f 5 14 19
f 5 19 23
f 5 23 27
f 5 27 32
f 5 32 38
f 5 38 39
f 5 39 33
f 5 33 28
f 5 28 24
f 5 24 20
f 5 20 15
f 5 15 10
f 5 10 6
f 7 10 15
f 7 15 11
f 7 11 12
f 8 13 14
f 8 14 9
f 11 15 16
f 11 16 12
f 13 17 14
f 14 17 18
f 14 18 19
f 15 20 16
f 16 20 21
f 18 22 23
f 18 23 19
f 20 24 25
f 20 25 21
f 22 26 27
f 22 27 23
f 24 28 29
f 24 29 25
f 25 29 30
f 26 31 27
f 27 31 32
f 28 33 35
f 28 35 29
f 29 34 30
f 29 35 34
f 31 36 32
f 31 37 36
f 32 36 37
f 32 37 38
f 33 39 40
f 33 40 35
f 37 40 39
f 37 39 38

