# https://github.com/mikedh/trimesh
v -0.01424921 -0.00824947 -0.07582500
v -0.01424921 -0.00974804 -0.07563687
v -0.01574791 -0.00974804 -0.07547790
v -0.01574791 -0.00824947 -0.07563687
v -0.01424921 0.00824966 -0.07582500
v 0.01424921 -0.00824947 -0.07582500
v -0.01424921 -0.01066160 -0.07522353
v -0.01574791 -0.01061285 -0.07515728
v 0.01424921 -0.00974804 -0.07563687
v -0.01654173 -0.01054290 -0.07506191
v -0.01661090 -0.00974804 -0.07515728
v -0.01574791 0.00824966 -0.07563687
v -0.01666031 -0.00824947 -0.07522353
v -0.01574791 0.00974823 -0.07547790
v -0.01424921 0.00974823 -0.07563687
v 0.01424921 0.00824966 -0.07582500
v 0.01574791 -0.00824947 -0.07563687
v 0.01574791 -0.00974804 -0.07547790
v -0.01424921 -0.01082481 -0.07424846
v 0.01424921 -0.01066160 -0.07522353
v -0.01574791 -0.01072731 -0.07424846
v 0.01574791 -0.01061285 -0.07515728
v -0.01656479 -0.01056410 -0.07424846
v -0.01672619 -0.00974804 -0.07424846
v -0.01682171 -0.00824947 -0.07424846
v -0.01666031 0.00824966 -0.07522353
v -0.01661090 0.00974823 -0.07515728
v -0.01574791 0.01061304 -0.07515728
v -0.01654173 0.01054309 -0.07506191
v -0.01424921 0.01066179 -0.07522353
v 0.01424921 0.00974823 -0.07563687
v 0.01574791 0.00974823 -0.07547790
v 0.01574791 0.00824966 -0.07563687
v 0.01666031 -0.00824947 -0.07522353
v 0.01661090 -0.00974804 -0.07515728
v 0.01654173 -0.01054290 -0.07506191
v -0.01424921 -0.01082905 -0.04875882
v 0.01424921 -0.01082481 -0.07424846
v -0.01574791 -0.01072943 -0.04875882
v 0.01574791 -0.01072731 -0.07424846
v -0.01656479 -0.01056410 -0.04875882
v -0.01672619 -0.00975228 -0.04875882
v -0.01682171 -0.00825583 -0.04875882
v -0.01682171 0.00824966 -0.07424846
v -0.01672619 0.00974823 -0.07424846
v -0.01574791 0.01072750 -0.07424846
v -0.01424921 0.01082500 -0.07424846
v -0.01656479 0.01056429 -0.07424846
v 0.01424921 0.01066179 -0.07522353
v 0.01574791 0.01061304 -0.07515728
v 0.01654173 0.01054309 -0.07506191
v 0.01661090 0.00974823 -0.07515728
v 0.01666031 0.00824966 -0.07522353
v 0.01682171 -0.00824947 -0.07424846
v 0.01672619 -0.00974804 -0.07424846
v 0.01656479 -0.01056410 -0.07424846
v 0.01424921 -0.01082905 -0.04875882
v 0.01574791 -0.01072943 -0.04875882
v -0.01682171 0.00824330 -0.04875882
v -0.01682171 0.00824966 -0.05025057
v -0.01672619 0.00974823 -0.05025057
v -0.01574791 0.01072750 -0.04875882
v -0.01424921 0.01082500 -0.04875882
v 0.01424921 0.01082500 -0.07424846
v -0.01656479 0.01056429 -0.05025057
v 0.01574791 0.01072750 -0.07424846
v 0.01656479 0.01056429 -0.07424846
v 0.01672619 0.00974823 -0.07424846
v 0.01682171 0.00824966 -0.07424846
v 0.01682171 -0.00824947 -0.04875882
v 0.01672619 -0.00974804 -0.04875882
v 0.01656479 -0.01056410 -0.04875882
v -0.01672619 0.00974187 -0.04875882
v -0.01656479 0.01056005 -0.04875882
v 0.01424921 0.01082500 -0.04875882
v 0.01574791 0.01072750 -0.04875882
v 0.01656479 0.01056429 -0.04875882
v 0.01672619 0.00974823 -0.04875882
v 0.01682171 0.00824966 -0.04875882
f 1 2 3
f 1 3 4
f 1 4 12
f 1 12 5
f 1 5 16
f 1 16 6
f 1 6 9
f 1 9 2
f 2 7 8
f 2 8 3
f 2 9 20
f 2 20 7
f 3 8 10
f 3 10 11
f 3 11 4
f 4 11 13
f 4 13 26
f 4 26 12
f 5 12 14
f 5 14 15
f 5 15 31
f 5 31 16
f 6 16 33
f 6 33 17
f 6 17 18
f 6 18 9
f 7 19 8
f 7 20 38
f 7 38 19
f 8 19 21
f 8 21 10
f 9 18 22
f 9 22 20
f 10 21 23
f 10 23 24
f 10 24 11
f 11 24 25
f 11 25 13
f 12 26 27
f 12 27 14
f 13 25 44
f 13 44 26
f 14 28 15
f 14 27 29
f 14 29 28
f 15 28 30
f 15 30 49
f 15 49 31
f 16 31 32
f 16 32 33
f 17 33 53
f 17 53 34
f 17 34 35
f 17 35 18
f 18 35 36
f 18 36 22
f 19 37 21
f 19 38 57
f 19 57 37
f 20 22 38
f 21 37 39
f 21 39 23
f 22 36 40
f 22 40 38
f 23 39 41
f 23 41 42
f 23 42 24
f 24 43 25
f 24 42 43
f 25 43 59
f 25 59 60
f 25 60 44
f 26 44 27
f 27 44 45
f 27 45 29
f 28 29 46
f 28 46 47
f 28 47 30
f 29 48 46
f 29 45 48
f 30 47 64
f 30 64 49
f 31 49 50
f 31 50 32
f 32 50 51
f 32 51 52
f 32 52 33
f 33 52 53
f 34 53 69
f 34 69 54
f 34 54 35
f 35 54 55
f 35 55 36
f 36 55 56
f 36 56 40
f 37 57 58
f 37 58 72
f 37 72 71
f 37 71 70
f 37 70 79
f 37 79 78
f 37 78 77
f 37 77 76
f 37 76 75
f 37 75 63
f 37 63 62
f 37 62 74
f 37 74 73
f 37 73 59
f 37 59 43
f 37 43 42
f 37 42 41
f 37 41 39
f 38 40 57
f 40 56 58
f 40 58 57
f 44 60 61
f 44 61 45
f 45 61 65
f 45 65 48
f 46 48 65
f 46 65 62
f 46 62 63
f 46 63 47
f 47 63 75
f 47 75 64
f 49 64 50
f 50 66 51
f 50 64 66
f 51 67 68
f 51 68 52
f 51 66 67
f 52 68 69
f 52 69 53
f 54 69 79
f 54 79 70
f 54 70 71
f 54 71 55
f 55 71 72
f 55 72 56
f 56 72 58
f 59 73 61
f 59 61 60
f 61 73 74
f 61 74 65
f 62 65 74
f 64 75 76
f 64 76 66
f 66 76 77
f 66 77 67
f 67 77 78
f 67 78 68
f 68 78 79
f 68 79 69

