# https://github.com/mikedh/trimesh
v -0.01682171 -0.00824939 0.04879377
v -0.01682171 0.00828994 0.04879377
v -0.01672948 -0.00970768 0.04879377
v -0.01682171 -0.00824939 0.07424785
v -0.01682171 0.00824967 0.07424785
v -0.01672619 0.00974824 0.07424785
v -0.01672619 0.00974824 0.04879377
v -0.01672619 -0.00974795 0.04879377
v -0.01672619 -0.00974795 0.07424785
v -0.01661090 -0.00974795 0.07515815
v -0.01666031 -0.00824939 0.07522430
v -0.01666031 0.00824967 0.07522430
v -0.01661090 0.00974824 0.07515815
v -0.01654173 0.01054309 0.07506024
v -0.01656479 0.01056429 0.07424785
v -0.01672289 0.00977155 0.04879377
v -0.01656479 -0.01056400 0.04879377
v -0.01656479 -0.01056400 0.07424785
v -0.01654173 -0.01054281 0.07506024
v -0.01574791 -0.00974795 0.07547570
v -0.01574791 -0.00824939 0.07563711
v -0.01574791 0.00824967 0.07563711
v -0.01574791 0.00974824 0.07547570
v -0.01574791 0.01061304 0.07515815
v -0.01574791 0.01072750 0.07424785
v -0.01577097 0.01072326 0.04879377
v -0.01656479 0.01056429 0.04879377
v -0.01574791 -0.01072933 0.04879377
v -0.01574791 -0.01072721 0.07424785
v -0.01574791 -0.01061276 0.07515815
v -0.01424921 -0.00974795 0.07563711
v -0.01424921 -0.00824939 0.07582500
v -0.01424921 0.00824967 0.07582500
v -0.01424921 0.00974824 0.07563711
v -0.01424921 0.01066179 0.07522430
v -0.01424921 0.01082500 0.07424785
v -0.01574791 0.01072750 0.04879377
v -0.01424921 -0.01082896 0.04879377
v -0.01424921 -0.01082472 0.07424785
v -0.01424921 -0.01066151 0.07522430
v 0.01424921 -0.00974795 0.07563711
v 0.01424921 -0.00824939 0.07582500
v 0.01424921 0.00824967 0.07582500
v 0.01424921 0.00974824 0.07563711
v 0.01424921 0.01066179 0.07522430
v -0.01424921 0.01082500 0.04879377
v 0.01424921 0.01082500 0.07424785
v 0.01424921 -0.01082896 0.04879377
v 0.01424921 -0.01082472 0.07424785
v 0.01424921 -0.01066151 0.07522430
v 0.01574791 -0.01061276 0.07515815
v 0.01574791 -0.00974795 0.07547570
v 0.01574791 -0.00824939 0.07563711
v 0.01574791 0.00824967 0.07563711
v 0.01574791 0.00974824 0.07547570
v 0.01574791 0.01061304 0.07515815
v 0.01424921 0.01082500 0.04879377
v 0.01574791 0.01072750 0.07424785
v 0.01574791 -0.01072933 0.04879377
v 0.01574791 -0.01072721 0.07424785
v 0.01654173 -0.01054281 0.07506024
v 0.01661090 -0.00974795 0.07515815
v 0.01666031 -0.00824939 0.07522430
v 0.01666031 0.00824967 0.07522430
v 0.01661090 0.00974824 0.07515815
v 0.01654173 0.01054309 0.07506024
v 0.01574791 0.01072750 0.04879377
v 0.01656479 0.01056429 0.07424785
v 0.01577097 -0.01072510 0.04879377
v 0.01656479 -0.01056400 0.07424785
v 0.01672619 -0.00974795 0.07424785
v 0.01682171 -0.00824939 0.07424785
v 0.01682171 0.00824967 0.07424785
v 0.01672619 0.00974824 0.07424785
v 0.01656479 0.01056429 0.04879377
v 0.01656479 -0.01056400 0.04879377
v 0.01672289 -0.00977127 0.04879377
v 0.01672619 -0.00974795 0.04879377
v 0.01682171 -0.00828966 0.04879377
v 0.01682171 0.00824967 0.04879377
v 0.01672948 0.00970796 0.04879377
v 0.01672619 0.00974824 0.04879377
f 1 2 7
f 1 7 16
f 1 16 27
f 1 27 26
f 1 26 37
f 1 37 46
f 1 46 57
f 1 57 67
f 1 67 75
f 1 75 82
f 1 82 81
f 1 81 80
f 1 80 79
f 1 79 78
f 1 78 77
f 1 77 76
f 1 76 69
f 1 69 59
f 1 59 48
f 1 48 38
f 1 38 28
f 1 28 17
f 1 17 8
f 1 8 3
f 1 3 4
f 1 4 5
f 1 5 2
f 2 5 6
f 2 6 7
f 3 8 9
f 3 9 4
f 4 9 10
f 4 10 11
f 4 11 12
f 4 12 5
f 5 12 13
f 5 13 6
f 6 13 14
f 6 14 15
f 6 15 16
f 6 16 7
f 8 17 18
f 8 18 9
f 9 18 19
f 9 19 10
f 10 19 20
f 10 20 21
f 10 21 11
f 11 21 22
f 11 22 12
f 12 22 13
f 13 22 23
f 13 23 14
f 14 23 24
f 14 24 25
f 14 25 15
f 15 26 27
f 15 27 16
f 15 25 26
f 17 28 18
f 18 28 29
f 18 29 19
f 19 29 30
f 19 30 20
f 20 30 31
f 20 31 32
f 20 32 21
f 21 32 33
f 21 33 22
f 22 33 23
f 23 33 34
f 23 34 24
f 24 34 35
f 24 35 36
f 24 36 25
f 25 36 46
f 25 46 37
f 25 37 26
f 28 38 29
f 29 38 39
f 29 39 30
f 30 39 40
f 30 40 31
f 31 40 50
f 31 50 41
f 31 41 42
f 31 42 32
f 32 42 43
f 32 43 33
f 33 43 44
f 33 44 34
f 34 44 45
f 34 45 35
f 35 45 47
f 35 47 36
f 36 47 57
f 36 57 46
f 38 48 49
f 38 49 39
f 39 49 50
f 39 50 40
f 41 50 51
f 41 51 52
f 41 52 42
f 42 52 53
f 42 53 54
f 42 54 43
f 43 54 55
f 43 55 44
f 44 55 56
f 44 56 45
f 45 56 47
f 47 56 58
f 47 58 67
f 47 67 57
f 48 59 60
f 48 60 49
f 49 60 51
f 49 51 50
f 51 60 61
f 51 61 52
f 52 61 62
f 52 62 53
f 53 62 63
f 53 63 64
f 53 64 54
f 54 64 65
f 54 65 55
f 55 65 66
f 55 66 56
f 56 66 58
f 58 66 68
f 58 68 75
f 58 75 67
f 59 69 60
f 60 69 70
f 60 70 61
f 61 70 71
f 61 71 62
f 62 71 72
f 62 72 63
f 63 72 73
f 63 73 64
f 64 73 65
f 65 73 74
f 65 74 66
f 66 74 68
f 68 74 82
f 68 82 75
f 69 76 70
f 70 77 71
f 70 76 77
f 71 77 78
f 71 78 79
f 71 79 72
f 72 79 80
f 72 80 73
f 73 80 81
f 73 81 74
f 74 81 82

