# https://github.com/mikedh/trimesh
v 0.01682171 0.01274723 -0.01286431
v 0.01682171 -0.00824909 -0.01286431
v 0.01682171 0.01274723 -0.01425024
v -0.01682171 0.01274723 -0.01286431
v 0.01672948 -0.00974918 -0.01286431
v 0.01682171 -0.01275186 -0.01575042
v 0.01682171 0.00825694 -0.01875886
v 0.01672619 0.00974954 -0.01875886
v 0.01656479 0.01056324 -0.01875886
v 0.01666031 0.01274723 -0.01522651
v -0.01682171 0.01274723 -0.01425024
v -0.01682171 -0.00824909 -0.01286431
v 0.01657137 -0.01062278 -0.01286431
v 0.01666031 -0.01275186 -0.01477473
v 0.01682171 -0.01275186 -0.01874963
v 0.01682171 -0.01274937 -0.01875886
v 0.01574791 0.01072797 -0.01875886
v 0.01574791 0.01274723 -0.01564599
v -0.01666031 0.01274723 -0.01522651
v -0.01656479 0.01055824 -0.01875886
v -0.01672619 0.00974954 -0.01875886
v -0.01682171 0.00824945 -0.01875886
v -0.01682171 -0.01275186 -0.01575042
v -0.01681841 -0.00836390 -0.01286431
v 0.01648573 -0.01067020 -0.01286431
v 0.01574791 -0.01275186 -0.01435526
v 0.01545805 -0.01275186 -0.01875886
v 0.01425580 0.01082781 -0.01875886
v 0.01424921 0.01274723 -0.01583986
v -0.01574791 0.01274723 -0.01564599
v -0.01574791 0.01072797 -0.01875886
v -0.01682171 -0.01274937 -0.01875886
v -0.01682171 -0.01275186 -0.01874963
v -0.01666031 -0.01275186 -0.01477473
v -0.01671960 -0.00985152 -0.01286431
v -0.01672948 -0.00974918 -0.01286431
v 0.01574791 -0.01090982 -0.01286431
v 0.01424921 -0.01275186 -0.01416139
v -0.01545805 -0.01275186 -0.01875886
v -0.01424921 0.01082781 -0.01875886
v -0.01424921 0.01274723 -0.01583986
v -0.01574791 -0.01275186 -0.01435526
v -0.01657137 -0.01062278 -0.01286431
v 0.01558981 -0.01092979 -0.01286431
v 0.01424921 -0.01109702 -0.01286431
v 0.01274721 -0.01109951 -0.01286431
v -0.01424921 -0.01275186 -0.01416139
v -0.01574791 -0.01090982 -0.01286431
v -0.01274721 -0.01109951 -0.01286431
v -0.01424921 -0.01109702 -0.01286431
f 1 2 6
f 1 6 15
f 1 15 16
f 1 16 7
f 1 7 3
f 1 3 10
f 1 10 18
f 1 18 29
f 1 29 41
f 1 41 30
f 1 30 19
f 1 19 11
f 1 11 4
f 1 4 12
f 1 12 24
f 1 24 36
f 1 36 35
f 1 35 43
f 1 43 48
f 1 48 50
f 1 50 49
f 1 49 46
f 1 46 45
f 1 45 44
f 1 44 37
f 1 37 25
f 1 25 13
f 1 13 5
f 1 5 2
f 2 5 6
f 3 7 8
f 3 8 9
f 3 9 10
f 4 11 22
f 4 22 32
f 4 32 33
f 4 33 23
f 4 23 12
f 5 13 14
f 5 14 6
f 6 14 26
f 6 26 38
f 6 38 47
f 6 47 42
f 6 42 34
f 6 34 23
f 6 23 33
f 6 33 39
f 6 39 27
f 6 27 15
f 7 16 27
f 7 27 39
f 7 39 32
f 7 32 22
f 7 22 21
f 7 21 20
f 7 20 31
f 7 31 40
f 7 40 28
f 7 28 17
f 7 17 9
f 7 9 8
f 9 17 18
f 9 18 10
f 11 19 20
f 11 20 21
f 11 21 22
f 12 23 24
f 13 25 14
f 14 25 26
f 15 27 16
f 17 28 29
f 17 29 18
f 19 30 20
f 20 30 31
f 23 34 35
f 23 35 36
f 23 36 24
f 25 37 26
f 26 37 38
f 28 40 41
f 28 41 29
f 30 41 31
f 31 41 40
f 32 39 33
f 34 42 43
f 34 43 35
f 37 44 38
f 38 44 45
f 38 45 46
f 38 46 49
f 38 49 47
f 42 47 48
f 42 48 43
f 47 49 50
f 47 50 48

