# https://github.com/mikedh/trimesh
v -0.01274721 0.01274998 -0.01583996
v -0.01424921 0.01274998 -0.01583686
v -0.01424921 0.01275273 -0.01583686
v -0.01424921 0.03824974 -0.01582446
v 0.01274721 0.01274998 -0.01583996
v -0.01574791 0.01274998 -0.01564460
v -0.01574791 0.01275273 -0.01564460
v -0.01574791 0.03824974 -0.01563530
v -0.01574791 0.03974762 -0.01547715
v -0.01424921 0.03974762 -0.01563530
v 0.01424921 0.03824974 -0.01582446
v 0.01424921 0.01275273 -0.01583686
v 0.01424921 0.01274998 -0.01583686
v -0.01666031 0.01274998 -0.01522596
v -0.01666031 0.03824974 -0.01522286
v -0.01661090 0.03974762 -0.01515774
v -0.01654173 0.04054191 -0.01506161
v -0.01574791 0.04061337 -0.01515774
v -0.01424921 0.04066009 -0.01522286
v 0.01424921 0.03974762 -0.01563530
v 0.01574791 0.03974762 -0.01547715
v 0.01574791 0.03824974 -0.01563530
v 0.01574791 0.01275273 -0.01564460
v 0.01574791 0.01274998 -0.01564460
v -0.01682171 0.01274998 -0.01424914
v -0.01682171 0.03824974 -0.01424914
v -0.01672619 0.03974762 -0.01424914
v -0.01656479 0.04056390 -0.01424914
v -0.01574791 0.04072605 -0.01424914
v -0.01424921 0.04082500 -0.01424914
v 0.01424921 0.04066009 -0.01522286
v 0.01574791 0.04061337 -0.01515774
v 0.01654173 0.04054191 -0.01506161
v 0.01661090 0.03974762 -0.01515774
v 0.01666031 0.03824974 -0.01522286
v 0.01666031 0.01274998 -0.01522596
v -0.01682171 0.01274998 0.01424914
v -0.01682171 0.03824974 0.01424914
v -0.01672619 0.03974762 0.01424914
v -0.01656479 0.04056390 0.01424914
v -0.01574791 0.04072605 0.01424914
v -0.01424921 0.04082500 0.01424914
v 0.01424921 0.04082500 -0.01424914
v 0.01574791 0.04072605 -0.01424914
v 0.01656479 0.04056390 -0.01424914
v 0.01672619 0.03974762 -0.01424914
v 0.01682171 0.03824974 -0.01424914
v 0.01682171 0.01274998 -0.01424914
v -0.01666031 0.01274998 0.01522596
v -0.01666031 0.03824974 0.01522286
v -0.01661090 0.03974762 0.01515774
v -0.01654173 0.04054191 0.01506161
v -0.01574791 0.04061337 0.01515774
v -0.01424921 0.04066009 0.01522286
v 0.01424921 0.04082500 0.01424914
v 0.01574791 0.04072605 0.01424914
v 0.01656479 0.04056390 0.01424914
v 0.01672619 0.03974762 0.01424914
v 0.01682171 0.03824974 0.01424914
v 0.01682171 0.01274998 0.01424914
v -0.01574791 0.01274998 0.01564460
v -0.01574791 0.01275273 0.01564460
v -0.01574791 0.03824974 0.01563530
v -0.01574791 0.03974762 0.01547715
v -0.01424921 0.03974762 0.01563530
v 0.01424921 0.04066009 0.01522286
v 0.01574791 0.04061337 0.01515774
v 0.01654173 0.04054191 0.01506161
v 0.01661090 0.03974762 0.01515774
v 0.01666031 0.03824974 0.01522286
v 0.01666031 0.01274998 0.01522596
v -0.01424921 0.01274998 0.01583686
v -0.01424921 0.01275273 0.01583686
v -0.01424921 0.03824974 0.01582446
v 0.01424921 0.03974762 0.01563530
v 0.01574791 0.03974762 0.01547715
v 0.01574791 0.03824974 0.01563530
v 0.01574791 0.01275273 0.01564460
v 0.01574791 0.01274998 0.01564460
v -0.01274721 0.01274998 0.01583996
v 0.01424921 0.03824974 0.01582446
v 0.01424921 0.01275273 0.01583686
v 0.01424921 0.01274998 0.01583686
v 0.01274721 0.01274998 0.01583996
f 1 2 3
f 1 3 4
f 1 4 11
f 1 11 5
f 1 5 13
f 1 13 24
f 1 24 36
f 1 36 48
f 1 48 60
f 1 60 71
f 1 71 79
f 1 79 83
f 1 83 84
f 1 84 80
f 1 80 72
f 1 72 61
f 1 61 49
f 1 49 37
f 1 37 25
f 1 25 14
f 1 14 6
f 1 6 2
f 2 6 7
f 2 7 3
f 3 7 8
f 3 8 4
f 4 8 9
f 4 9 10
f 4 10 20
f 4 20 11
f 5 11 12
f 5 12 13
f 6 14 7
f 7 14 15
f 7 15 8
f 8 15 16
f 8 16 9
f 9 16 17
f 9 17 18
f 9 18 10
f 10 18 19
f 10 19 31
f 10 31 20
f 11 20 21
f 11 21 22
f 11 22 12
f 12 22 23
f 12 23 24
f 12 24 13
f 14 25 26
f 14 26 15
f 15 26 16
f 16 26 27
f 16 27 17
f 17 27 28
f 17 28 29
f 17 29 18
f 18 29 30
f 18 30 19
f 19 30 43
f 19 43 31
f 20 31 32
f 20 32 21
f 21 32 33
f 21 33 34
f 21 34 22
f 22 34 35
f 22 35 23
f 23 35 36
f 23 36 24
f 25 37 38
f 25 38 26
f 26 38 39
f 26 39 27
f 27 39 40
f 27 40 28
f 28 40 41
f 28 41 29
f 29 41 42
f 29 42 30
f 30 42 55
f 30 55 43
f 31 43 32
f 32 44 33
f 32 43 44
f 33 45 46
f 33 46 34
f 33 44 45
f 34 46 47
f 34 47 35
f 35 47 36
f 36 47 48
f 37 49 38
f 38 49 50
f 38 50 51
f 38 51 39
f 39 51 52
f 39 52 40
f 40 52 41
f 41 53 42
f 41 52 53
f 42 53 54
f 42 54 66
f 42 66 55
f 43 55 56
f 43 56 44
f 44 56 57
f 44 57 45
f 45 57 58
f 45 58 46
f 46 58 59
f 46 59 47
f 47 59 60
f 47 60 48
f 49 61 62
f 49 62 50
f 50 62 63
f 50 63 51
f 51 63 64
f 51 64 52
f 52 64 53
f 53 64 65
f 53 65 54
f 54 65 75
f 54 75 66
f 55 66 67
f 55 67 56
f 56 67 68
f 56 68 57
f 57 68 58
f 58 68 69
f 58 69 59
f 59 69 70
f 59 70 71
f 59 71 60
f 61 72 73
f 61 73 62
f 62 73 63
f 63 73 74
f 63 74 64
f 64 74 65
f 65 74 81
f 65 81 75
f 66 75 67
f 67 76 68
f 67 75 76
f 68 76 69
f 69 76 77
f 69 77 70
f 70 77 78
f 70 78 71
f 71 78 79
f 72 80 73
f 73 80 74
f 74 80 84
f 74 84 81
f 75 81 76
f 76 81 77
f 77 81 82
f 77 82 78
f 78 82 83
f 78 83 79
f 81 84 82
f 82 84 83

