# https://github.com/mikedh/trimesh
v -0.01348919 -0.01387275 -0.02590784
v -0.01490841 -0.01387275 -0.02589791
v -0.01490841 -0.01107103 -0.02478130
v 0.01401154 -0.01387275 -0.02590784
v -0.01587099 -0.01107103 -0.02466951
v -0.01607467 -0.01387275 -0.02515764
v 0.01490841 -0.01107103 -0.02478130
v 0.01490841 -0.01387275 -0.02589791
v -0.01611081 -0.01387275 -0.02510672
v -0.01645248 -0.01107103 -0.02384976
v 0.01587099 -0.01107103 -0.02466951
v 0.01519423 -0.01387275 -0.02576128
v -0.01658389 -0.01387275 -0.02384976
v -0.01659374 -0.01387275 -0.02381249
v -0.01678100 -0.01107103 -0.02242884
v 0.01645248 -0.01107103 -0.02384976
v 0.01607467 -0.01387275 -0.02515764
v -0.01678100 -0.01387275 -0.02242884
v -0.01678100 -0.01107103 -0.01533049
v 0.01678100 -0.01107103 -0.02242884
v 0.01658389 -0.01387275 -0.02384976
v -0.01678100 -0.01387275 -0.01533049
v -0.01619951 -0.01107103 -0.01392200
v 0.01678100 -0.01387275 -0.02242884
v 0.01678100 -0.01107103 -0.01533049
v -0.01619951 -0.01387275 -0.01392200
v -0.01490841 -0.01107103 -0.01322148
v 0.01678100 -0.01387275 -0.01533049
v 0.01619951 -0.01107103 -0.01392200
v -0.01490841 -0.01387275 -0.01322148
v -0.01348919 -0.01107103 -0.01322024
v 0.01619951 -0.01387275 -0.01392200
v 0.01490841 -0.01107103 -0.01322148
v -0.01348919 -0.01387275 -0.01322024
v 0.01348919 -0.01107103 -0.01322024
v 0.01490841 -0.01387275 -0.01322148
v 0.01352533 -0.01387275 -0.01322024
f 1 2 3
f 1 3 7
f 1 7 4
f 1 4 8
f 1 8 12
f 1 12 17
f 1 17 21
f 1 21 24
f 1 24 28
f 1 28 32
f 1 32 36
f 1 36 37
f 1 37 34
f 1 34 30
f 1 30 26
f 1 26 22
f 1 22 18
f 1 18 14
f 1 14 13
f 1 13 9
f 1 9 6
f 1 6 2
f 2 5 3
f 2 6 5
f 3 5 10
f 3 10 15
f 3 15 19
f 3 19 23
f 3 23 27
f 3 27 31
f 3 31 35
f 3 35 33
f 3 33 29
f 3 29 25
f 3 25 20
f 3 20 16
f 3 16 11
f 3 11 7
f 4 7 8
f 5 6 9
f 5 9 10
f 7 11 8
f 8 11 12
f 9 13 10
f 10 13 14
f 10 14 15
f 11 16 17
f 11 17 12
f 14 18 15
f 15 18 22
f 15 22 19
f 16 20 21
f 16 21 17
f 19 22 26
f 19 26 23
f 20 24 21
f 20 25 28
f 20 28 24
f 23 26 30
f 23 30 27
f 25 29 32
f 25 32 28
f 27 30 34
f 27 34 31
f 29 33 36
f 29 36 32
f 31 34 37
f 31 37 35
f 33 35 37
f 33 37 36

