# https://github.com/mikedh/trimesh
v -0.01682171 -0.00825543 -0.04875323
v -0.01682171 0.00824382 -0.04875323
v -0.01672619 -0.00975116 -0.04875323
v -0.01682171 -0.01275186 -0.04424894
v -0.01682171 0.00824844 -0.04874737
v -0.01672619 0.00974879 -0.04874737
v -0.01672619 0.00974187 -0.04875323
v -0.01656479 -0.01056366 -0.04875323
v -0.01666031 -0.01275186 -0.04522380
v -0.01682171 -0.01275186 -0.02025051
v -0.01682171 0.00824844 -0.01875886
v -0.01672619 0.00974879 -0.01875886
v -0.01656479 0.01056360 -0.04874737
v -0.01656479 0.01056129 -0.04875323
v -0.01574791 -0.01072754 -0.04875323
v -0.01574791 -0.01275186 -0.04564369
v -0.01682171 -0.01274956 -0.01875886
v -0.01545805 -0.01275186 -0.01875886
v -0.01656479 0.01055898 -0.01875886
v -0.01656479 0.01056360 -0.02025051
v -0.01574791 0.01072979 -0.01875886
v -0.01574791 0.01072748 -0.04875323
v -0.01424921 -0.01082680 -0.04875323
v -0.01424921 -0.01275186 -0.04583749
v 0.01545805 -0.01275186 -0.01875886
v -0.01424921 0.01082904 -0.01875886
v -0.01424921 0.01082443 -0.04875323
v 0.01424921 -0.01082680 -0.04875323
v 0.01424921 -0.01275186 -0.04583749
v 0.01682171 -0.01275186 -0.02025051
v 0.01682171 -0.01274956 -0.01875886
v 0.01424921 0.01082904 -0.01875886
v 0.01424921 0.01082443 -0.04875323
v 0.01574791 -0.01072754 -0.04875323
v 0.01574791 -0.01275186 -0.04564369
v 0.01682171 -0.01275186 -0.04424894
v 0.01682171 0.00825767 -0.01875886
v 0.01574791 0.01072979 -0.01875886
v 0.01574791 0.01072748 -0.04875323
v 0.01656479 -0.01056366 -0.04875323
v 0.01666031 -0.01275186 -0.04522380
v 0.01682171 -0.00824850 -0.04875323
v 0.01672619 -0.00974885 -0.04875323
v 0.01672619 0.00974879 -0.01875886
v 0.01682171 0.00824844 -0.04875323
v 0.01672619 0.00974879 -0.04875323
v 0.01656479 0.01056360 -0.01875886
v 0.01656479 0.01056360 -0.04875323
f 1 2 7
f 1 7 14
f 1 14 22
f 1 22 27
f 1 27 33
f 1 33 39
f 1 39 48
f 1 48 46
f 1 46 45
f 1 45 42
f 1 42 43
f 1 43 40
f 1 40 34
f 1 34 28
f 1 28 23
f 1 23 15
f 1 15 8
f 1 8 3
f 1 3 4
f 1 4 10
f 1 10 17
f 1 17 11
f 1 11 5
f 1 5 2
f 2 5 6
f 2 6 7
f 3 8 4
f 4 8 9
f 4 9 16
f 4 16 24
f 4 24 29
f 4 29 35
f 4 35 41
f 4 41 36
f 4 36 30
f 4 30 25
f 4 25 18
f 4 18 10
f 5 11 12
f 5 12 6
f 6 12 20
f 6 20 13
f 6 13 14
f 6 14 7
f 8 15 16
f 8 16 9
f 10 18 17
f 11 17 18
f 11 18 25
f 11 25 31
f 11 31 37
f 11 37 44
f 11 44 47
f 11 47 38
f 11 38 32
f 11 32 26
f 11 26 21
f 11 21 19
f 11 19 12
f 12 19 20
f 13 20 21
f 13 21 22
f 13 22 14
f 15 23 24
f 15 24 16
f 19 21 20
f 21 26 22
f 22 26 27
f 23 28 29
f 23 29 24
f 25 30 31
f 26 32 33
f 26 33 27
f 28 34 29
f 29 34 35
f 30 36 42
f 30 42 45
f 30 45 37
f 30 37 31
f 32 38 39
f 32 39 33
f 34 40 35
f 35 40 41
f 36 41 40
f 36 40 43
f 36 43 42
f 37 45 46
f 37 46 44
f 38 47 48
f 38 48 39
f 44 46 48
f 44 48 47

