# https://github.com/mikedh/trimesh
v -0.01682171 -0.00824945 -0.01286431
v -0.01682171 0.01274723 -0.01286431
v -0.01681841 -0.00836383 -0.01286431
v -0.01682171 -0.00824945 0.01144237
v -0.01682171 0.01274723 0.01144237
v 0.01682171 0.01274723 -0.01286431
v -0.01672948 -0.00974805 -0.01286431
v -0.01673936 -0.00955664 0.01144237
v 0.01682171 0.01274723 0.01144237
v 0.01682171 -0.00824945 -0.01286431
v -0.01671960 -0.00985076 -0.01286431
v -0.01672619 -0.00974805 0.01144237
v 0.01682171 -0.00824945 0.01144237
v 0.01681183 -0.00844086 0.01144237
v 0.01672948 -0.00974805 -0.01286431
v -0.01657137 -0.01062340 -0.01286431
v -0.01656479 -0.01056737 0.01144237
v 0.01672619 -0.00974805 0.01144237
v 0.01657137 -0.01062340 -0.01286431
v -0.01574791 -0.01091051 -0.01286431
v -0.01645938 -0.01060005 0.01144237
v 0.01670642 -0.00985542 0.01144237
v 0.01656479 -0.01056737 0.01144237
v 0.01648573 -0.01067008 -0.01286431
v -0.01439414 -0.01107858 -0.01286431
v -0.01574791 -0.01074478 0.01144237
v 0.01574791 -0.01074478 0.01144237
v 0.01574791 -0.01091051 -0.01286431
v -0.01424921 -0.01109492 -0.01286431
v -0.01555687 -0.01076812 0.01144237
v 0.01424921 -0.01085449 0.01144237
v 0.01424921 -0.01109492 -0.01286431
v -0.01274721 -0.01109959 -0.01286431
v -0.01424921 -0.01085449 0.01144237
v 0.01274721 -0.01109959 -0.01286431
v 0.01408781 -0.01109725 -0.01286431
f 1 2 6
f 1 6 10
f 1 10 15
f 1 15 19
f 1 19 24
f 1 24 28
f 1 28 32
f 1 32 36
f 1 36 35
f 1 35 33
f 1 33 29
f 1 29 25
f 1 25 20
f 1 20 16
f 1 16 11
f 1 11 7
f 1 7 3
f 1 3 4
f 1 4 5
f 1 5 2
f 2 5 9
f 2 9 6
f 3 7 8
f 3 8 4
f 4 8 12
f 4 12 17
f 4 17 21
f 4 21 26
f 4 26 30
f 4 30 34
f 4 34 31
f 4 31 27
f 4 27 23
f 4 23 22
f 4 22 18
f 4 18 14
f 4 14 13
f 4 13 9
f 4 9 5
f 6 9 13
f 6 13 10
f 7 11 12
f 7 12 8
f 10 13 14
f 10 14 15
f 11 16 12
f 12 16 17
f 14 18 15
f 15 18 19
f 16 20 17
f 17 20 21
f 18 22 19
f 19 22 23
f 19 23 24
f 20 25 26
f 20 26 21
f 23 27 28
f 23 28 24
f 25 29 30
f 25 30 26
f 27 31 32
f 27 32 28
f 29 33 34
f 29 34 30
f 31 34 33
f 31 33 35
f 31 35 36
f 31 36 32

