# https://github.com/mikedh/trimesh
v 0.01678100 -0.01675249 0.06986797
v 0.01659046 -0.01533136 0.06986797
v 0.01656746 -0.01533136 0.07128786
v 0.01673172 -0.01675249 0.07128786
v 0.01678100 -0.04372895 0.06986797
v 0.01678100 -0.01387587 0.02443140
v 0.01600897 -0.01442246 0.07128786
v 0.01588084 -0.01448805 0.07217248
v 0.01608124 -0.01533136 0.07232461
v 0.01615023 -0.01675249 0.07238659
v 0.01673172 -0.04372895 0.07128786
v 0.01617652 -0.04509386 0.07128786
v 0.01619951 -0.04510323 0.06986797
v 0.01678100 -0.04372895 0.01733193
v 0.01678100 -0.01387587 0.01733193
v 0.01659374 -0.01387587 0.02581748
v 0.01490841 -0.01421944 0.07128786
v 0.01490841 -0.01442246 0.07225700
v 0.01490841 -0.01533136 0.07265141
v 0.01490841 -0.01675249 0.07278100
v 0.01615023 -0.04372895 0.07238659
v 0.01597283 -0.04486898 0.07225700
v 0.01490841 -0.04574976 0.07128786
v 0.01490841 -0.04577475 0.06986797
v 0.01619951 -0.04510323 0.01733193
v 0.01600568 -0.04488147 0.01615432
v 0.01619951 -0.04372895 0.01592331
v 0.01619951 -0.01387587 0.01592331
v 0.01658389 -0.01387587 0.02585129
v -0.01490841 -0.01421944 0.07128786
v 0.01611081 -0.01387587 0.02710778
v 0.01607467 -0.01387587 0.02715849
v 0.01490841 -0.01387587 0.02790225
v 0.01348919 -0.01387587 0.02790788
v -0.01490841 -0.01442246 0.07225700
v -0.01490841 -0.01533136 0.07265141
v 0.01490841 -0.04372895 0.07278100
v -0.01490841 -0.01675249 0.07278100
v 0.01490841 -0.04508449 0.07238659
v 0.01348919 -0.04575289 0.07128786
v 0.01348919 -0.04578100 0.06986797
v 0.01490841 -0.04577475 0.01733193
v 0.01490841 -0.04510635 0.01592331
v 0.01490841 -0.04372895 0.01522463
v 0.01490841 -0.01387587 0.01522463
v -0.01600897 -0.01442246 0.07128786
v -0.01588084 -0.01448805 0.07217248
v -0.01401154 -0.01387587 0.02790788
v -0.01490841 -0.01387587 0.02790225
v -0.01519423 -0.01387587 0.02776702
v -0.01607467 -0.01387587 0.02715849
v -0.01658389 -0.01387587 0.02585129
v -0.01678100 -0.01387587 0.02443140
v -0.01608124 -0.01533136 0.07232461
v -0.01490841 -0.04372895 0.07278100
v -0.01615023 -0.01675249 0.07238659
v -0.01490841 -0.04508449 0.07238659
v -0.01348919 -0.04575289 0.07128786
v -0.01348919 -0.04578100 0.06986797
v 0.01348919 -0.04578100 0.01733193
v 0.01348919 -0.04510948 0.01592331
v -0.01490841 -0.04372895 0.01522463
v -0.01490841 -0.01387587 0.01522463
v -0.01656746 -0.01533136 0.07128786
v -0.01678100 -0.01675249 0.06986797
v -0.01659046 -0.01533136 0.06986797
v -0.01678100 -0.01387587 0.01733193
v -0.01673172 -0.01675249 0.07128786
v -0.01615023 -0.04372895 0.07238659
v -0.01597283 -0.04486898 0.07225700
v -0.01490841 -0.04574976 0.07128786
v -0.01490841 -0.04577475 0.06986797
v -0.01348919 -0.04578100 0.01733193
v -0.01348919 -0.04510948 0.01592331
v -0.01490841 -0.04510635 0.01592331
v -0.01600568 -0.04488147 0.01615432
v -0.01619951 -0.04372895 0.01592331
v -0.01494127 -0.01387587 0.01524154
v -0.01678100 -0.04372895 0.06986797
v -0.01678100 -0.04372895 0.01733193
v -0.01619951 -0.01387587 0.01592331
v -0.01673172 -0.04372895 0.07128786
v -0.01617652 -0.04509386 0.07128786
v -0.01619951 -0.04510323 0.06986797
v -0.01490841 -0.04577475 0.01733193
v -0.01619951 -0.04510323 0.01733193
f 1 2 3
f 1 3 4
f 1 4 11
f 1 11 5
f 1 5 14
f 1 14 15
f 1 15 6
f 1 6 2
f 2 6 3
f 3 6 7
f 3 7 8
f 3 8 9
f 3 9 4
f 4 9 10
f 4 10 21
f 4 21 11
f 5 11 12
f 5 12 13
f 5 13 25
f 5 25 14
f 6 15 28
f 6 28 45
f 6 45 63
f 6 63 78
f 6 78 81
f 6 81 67
f 6 67 53
f 6 53 52
f 6 52 51
f 6 51 50
f 6 50 49
f 6 49 48
f 6 48 34
f 6 34 33
f 6 33 32
f 6 32 31
f 6 31 29
f 6 29 16
f 6 16 17
f 6 17 7
f 7 17 8
f 8 18 19
f 8 19 9
f 8 17 18
f 9 19 20
f 9 20 10
f 10 20 37
f 10 37 21
f 11 21 22
f 11 22 12
f 12 22 23
f 12 23 24
f 12 24 13
f 13 24 42
f 13 42 25
f 14 25 26
f 14 26 27
f 14 27 28
f 14 28 15
f 16 29 17
f 17 30 35
f 17 35 18
f 17 29 31
f 17 31 32
f 17 32 33
f 17 33 34
f 17 34 48
f 17 48 30
f 18 35 36
f 18 36 19
f 19 36 38
f 19 38 20
f 20 38 55
f 20 55 37
f 21 37 22
f 22 37 39
f 22 39 23
f 23 39 40
f 23 40 41
f 23 41 24
f 24 41 60
f 24 60 42
f 25 42 26
f 26 43 44
f 26 44 27
f 26 42 43
f 27 44 45
f 27 45 28
f 30 46 47
f 30 47 35
f 30 48 49
f 30 49 50
f 30 50 51
f 30 51 52
f 30 52 53
f 30 53 46
f 35 47 36
f 36 47 54
f 36 54 38
f 37 55 57
f 37 57 39
f 38 54 56
f 38 56 69
f 38 69 55
f 39 57 58
f 39 58 40
f 40 58 59
f 40 59 41
f 41 59 73
f 41 73 60
f 42 60 43
f 43 60 61
f 43 61 44
f 44 62 63
f 44 63 45
f 44 61 74
f 44 74 62
f 46 64 47
f 46 53 64
f 47 64 54
f 53 65 66
f 53 66 64
f 53 67 80
f 53 80 79
f 53 79 65
f 54 64 68
f 54 68 56
f 55 69 70
f 55 70 57
f 56 68 82
f 56 82 69
f 57 70 71
f 57 71 58
f 58 71 59
f 59 71 72
f 59 72 85
f 59 85 73
f 60 73 74
f 60 74 61
f 62 74 75
f 62 75 76
f 62 76 77
f 62 77 78
f 62 78 63
f 64 66 65
f 64 65 68
f 65 79 82
f 65 82 68
f 67 81 77
f 67 77 80
f 69 82 70
f 70 82 83
f 70 83 71
f 71 83 72
f 72 83 84
f 72 84 86
f 72 86 85
f 73 85 75
f 73 75 74
f 75 85 76
f 76 85 86
f 76 86 80
f 76 80 77
f 77 81 78
f 79 84 83
f 79 83 82
f 79 80 86
f 79 86 84

