# Created by FreeCAD <http://www.freecad.org>
v 0.056500000 0.035000000 0.000000000
v 0.056500000 0.068000000 0.015000000
v 0.056500000 0.035000000 0.015000000
v 0.056500000 0.068000000 0.000000000
v 0.079500000 0.035000000 0.000000000
v 0.079500000 0.035000000 0.025000000
v 0.056500000 0.035000000 0.025000000
v 0.079500000 0.068000000 0.000000000
v 0.079500000 0.068000000 0.025000000
v 0.056500000 0.068000000 0.025000000
v -0.056500000 -0.035000000 0.000000000
v -0.056500000 -0.068000000 0.000000000
v -0.056500000 -0.035000000 0.015000000
v -0.056500000 -0.068000000 0.015000000
v -0.079500000 -0.035000000 0.000000000
v -0.079500000 -0.035000000 0.025000000
v -0.056500000 -0.035000000 0.025000000
v -0.079500000 -0.068000000 0.000000000
v -0.079500000 -0.068000000 0.025000000
v -0.056500000 -0.068000000 0.025000000
v 0.056500000 -0.068000000 0.000000000
v 0.056500000 -0.035000000 0.000000000
v 0.056500000 -0.068000000 0.015000000
v 0.056500000 -0.035000000 0.015000000
v 0.079500000 -0.068000000 0.000000000
v 0.079500000 -0.068000000 0.025000000
v 0.056500000 -0.068000000 0.025000000
v 0.079500000 -0.035000000 0.000000000
v 0.079500000 -0.035000000 0.025000000
v 0.056500000 -0.035000000 0.025000000
v -0.056500000 0.068000000 0.000000000
v -0.056500000 0.035000000 0.000000000
v -0.056500000 0.068000000 0.015000000
v -0.056500000 0.035000000 0.015000000
v -0.079500000 0.068000000 0.000000000
v -0.079500000 0.068000000 0.025000000
v -0.056500000 0.068000000 0.025000000
v -0.079500000 0.035000000 0.000000000
v -0.079500000 0.035000000 0.025000000
v -0.056500000 0.035000000 0.025000000
v -0.016500000 0.035000000 0.000000000
v -0.016500000 0.068000000 0.015000000
v -0.016500000 0.035000000 0.015000000
v -0.016500000 0.068000000 0.000000000
v 0.016500000 0.035000000 0.015000000
v -0.016500000 0.035000000 0.025000000
v 0.016500000 0.035000000 0.025000000
v 0.016500000 0.035000000 0.000000000
v 0.016500000 0.068000000 0.000000000
v 0.016500000 0.068000000 0.015000000
v 0.016500000 0.068000000 0.025000000
v -0.016500000 0.068000000 0.025000000
v -0.016500000 -0.068000000 0.000000000
v -0.016500000 -0.035000000 0.000000000
v -0.016500000 -0.068000000 0.015000000
v -0.016500000 -0.035000000 0.015000000
v 0.016500000 -0.068000000 0.015000000
v -0.016500000 -0.068000000 0.025000000
v 0.016500000 -0.068000000 0.025000000
v 0.016500000 -0.068000000 0.000000000
v 0.016500000 -0.035000000 0.000000000
v 0.016500000 -0.035000000 0.015000000
v 0.016500000 -0.035000000 0.025000000
v -0.016500000 -0.035000000 0.025000000
v 0.056500000 -0.101500000 0.015000000
v 0.056500000 -0.101500000 0.025000000
v 0.056500000 0.101500000 0.015000000
v 0.056500000 0.101500000 0.025000000
v -0.056500000 0.101500000 0.015000000
v -0.056500000 0.101500000 0.025000000
v -0.056500000 -0.101500000 0.015000000
v -0.056500000 -0.101500000 0.025000000
v 0.016500000 -0.101500000 0.015000000
v 0.016500000 -0.101500000 0.025000000
v 0.016500000 0.101500000 0.015000000
v 0.016500000 0.101500000 0.025000000
v -0.016500000 -0.101500000 0.015000000
v -0.016500000 -0.101500000 0.025000000
v -0.016500000 0.101500000 0.015000000
v -0.016500000 0.101500000 0.025000000
v 0.115000000 -0.115000000 0.025000000
v -0.115000000 -0.115000000 -0.025000000
v 0.115000000 -0.115000000 -0.025000000
v -0.115000000 -0.115000000 0.025000000
v -0.115000000 0.115000000 -0.025000000
v -0.115000000 0.115000000 0.025000000
v 0.115000000 0.115000000 -0.025000000
v 0.115000000 0.115000000 0.025000000
vn 1.000000 0.000000 0.000000
vn 1.000000 0.000000 0.000000
vn 0.000000 1.000000 -0.000000
vn 0.000000 1.000000 0.000000
vn 0.000000 1.000000 0.000000
vn -1.000000 0.000000 0.000000
vn -1.000000 -0.000000 0.000000
vn 0.000000 -1.000000 0.000000
vn 0.000000 -1.000000 0.000000
vn 0.000000 -1.000000 0.000000
vn 0.000000 0.000000 1.000000
vn 0.000000 0.000000 1.000000
vn -1.000000 0.000000 0.000000
vn -1.000000 -0.000000 0.000000
vn 0.000000 -1.000000 0.000000
vn 0.000000 -1.000000 0.000000
vn 0.000000 -1.000000 0.000000
vn 1.000000 0.000000 0.000000
vn 1.000000 -0.000000 0.000000
vn 0.000000 1.000000 -0.000000
vn 0.000000 1.000000 -0.000000
vn 0.000000 1.000000 0.000000
vn 0.000000 -0.000000 1.000000
vn 0.000000 0.000000 1.000000
vn 1.000000 0.000000 0.000000
vn 1.000000 -0.000000 0.000000
vn 0.000000 1.000000 -0.000000
vn 0.000000 1.000000 0.000000
vn 0.000000 1.000000 0.000000
vn -1.000000 0.000000 0.000000
vn -1.000000 -0.000000 0.000000
vn 0.000000 -1.000000 0.000000
vn 0.000000 -1.000000 0.000000
vn 0.000000 -1.000000 0.000000
vn 0.000000 -0.000000 1.000000
vn 0.000000 0.000000 1.000000
vn -1.000000 0.000000 0.000000
vn -1.000000 -0.000000 0.000000
vn 0.000000 -1.000000 0.000000
vn 0.000000 -1.000000 0.000000
vn 0.000000 -1.000000 0.000000
vn 1.000000 0.000000 0.000000
vn 1.000000 -0.000000 0.000000
vn 0.000000 1.000000 -0.000000
vn 0.000000 1.000000 -0.000000
vn 0.000000 1.000000 0.000000
vn 0.000000 -0.000000 1.000000
vn 0.000000 0.000000 1.000000
vn 1.000000 0.000000 0.000000
vn 1.000000 0.000000 0.000000
vn 0.000000 1.000000 -0.000000
vn 0.000000 1.000000 0.000000
vn 0.000000 1.000000 -0.000000
vn 0.000000 1.000000 0.000000
vn -1.000000 0.000000 0.000000
vn -1.000000 -0.000000 0.000000
vn 0.000000 -1.000000 0.000000
vn 0.000000 -1.000000 0.000000
vn 0.000000 -1.000000 0.000000
vn 0.000000 -1.000000 0.000000
vn 0.000000 0.000000 1.000000
vn 0.000000 0.000000 1.000000
vn 1.000000 0.000000 0.000000
vn 1.000000 -0.000000 0.000000
vn 0.000000 1.000000 -0.000000
vn 0.000000 1.000000 0.000000
vn 0.000000 1.000000 -0.000000
vn 0.000000 1.000000 0.000000
vn -1.000000 0.000000 0.000000
vn -1.000000 -0.000000 0.000000
vn 0.000000 -1.000000 0.000000
vn 0.000000 -1.000000 0.000000
vn 0.000000 -1.000000 0.000000
vn 0.000000 -1.000000 0.000000
vn 0.000000 0.000000 1.000000
vn 0.000000 0.000000 1.000000
vn -1.000000 -0.000000 0.000000
vn -1.000000 0.000000 0.000000
vn -1.000000 0.000000 0.000000
vn -1.000000 -0.000000 0.000000
vn -1.000000 -0.000000 0.000000
vn -1.000000 0.000000 0.000000
vn 1.000000 -0.000000 0.000000
vn 1.000000 0.000000 0.000000
vn 1.000000 0.000000 0.000000
vn 1.000000 -0.000000 0.000000
vn 1.000000 -0.000000 0.000000
vn 1.000000 0.000000 0.000000
vn 1.000000 0.000000 0.000000
vn 1.000000 -0.000000 0.000000
vn 1.000000 -0.000000 0.000000
vn 1.000000 0.000000 0.000000
vn 1.000000 0.000000 0.000000
vn 1.000000 -0.000000 0.000000
vn 0.000000 0.000000 1.000000
vn 0.000000 0.000000 1.000000
vn -1.000000 -0.000000 0.000000
vn -1.000000 0.000000 0.000000
vn -1.000000 0.000000 0.000000
vn -1.000000 -0.000000 0.000000
vn -1.000000 -0.000000 0.000000
vn -1.000000 0.000000 0.000000
vn 0.000000 -1.000000 0.000000
vn 0.000000 -1.000000 0.000000
vn 0.000000 1.000000 -0.000000
vn 0.000000 1.000000 0.000000
vn 0.000000 0.000000 1.000000
vn 0.000000 0.000000 1.000000
vn 0.000000 0.000000 1.000000
vn 0.000000 0.000000 1.000000
vn 0.000000 0.000000 1.000000
vn 0.000000 0.000000 1.000000
vn 0.000000 0.000000 1.000000
vn 0.000000 0.000000 1.000000
vn 0.000000 0.000000 1.000000
vn 0.000000 0.000000 1.000000
vn 0.000000 -1.000000 0.000000
vn 0.000000 -1.000000 0.000000
vn 0.000000 1.000000 -0.000000
vn 0.000000 1.000000 0.000000
vn 0.000000 0.000000 1.000000
vn 0.000000 0.000000 1.000000
vn 0.000000 0.000000 1.000000
vn 0.000000 0.000000 1.000000
vn 0.000000 0.000000 1.000000
vn 0.000000 0.000000 1.000000
vn 0.000000 0.000000 1.000000
vn 0.000000 0.000000 1.000000
vn 0.000000 0.000000 1.000000
vn 0.000000 0.000000 1.000000
vn 0.000000 -1.000000 -0.000000
vn -0.000000 -1.000000 0.000000
vn -1.000000 0.000000 0.000000
vn -1.000000 0.000000 0.000000
vn 0.000000 1.000000 0.000000
vn -0.000000 1.000000 0.000000
vn 1.000000 0.000000 0.000000
vn 1.000000 0.000000 0.000000
vn 0.000000 0.000000 1.000000
vn 0.000000 0.000000 1.000000
vn 0.000000 0.000000 1.000000
vn 0.000000 0.000000 1.000000
vn 0.000000 0.000000 1.000000
vn 0.000000 0.000000 1.000000
vn 0.000000 0.000000 1.000000
vn 0.000000 0.000000 1.000000
vn 0.000000 0.000000 1.000000
vn 0.000000 0.000000 1.000000
vn 0.000000 0.000000 1.000000
vn 0.000000 0.000000 1.000000
vn 0.000000 0.000000 1.000000
vn 0.000000 0.000000 1.000000
vn 0.000000 0.000000 1.000000
vn 0.000000 0.000000 1.000000
vn 0.000000 0.000000 1.000000
vn 0.000000 0.000000 1.000000
vn 0.000000 0.000000 1.000000
vn 0.000000 0.000000 1.000000
vn 0.000000 0.000000 1.000000
vn 0.000000 0.000000 1.000000
vn 0.000000 0.000000 1.000000
vn 0.000000 0.000000 1.000000
vn 0.000000 0.000000 1.000000
vn 0.000000 0.000000 1.000000
vn 0.000000 0.000000 1.000000
vn 0.000000 0.000000 1.000000
vn 0.000000 0.000000 1.000000
vn 0.000000 0.000000 1.000000
vn 0.000000 0.000000 1.000000
vn 0.000000 0.000000 1.000000
vn 0.000000 0.000000 -1.000000
vn 0.000000 0.000000 -1.000000
f 1//1 2//1 3//1
f 1//2 4//2 2//2
f 5//3 3//3 6//3
f 6//4 3//4 7//4
f 5//5 1//5 3//5
f 8//6 5//6 9//6
f 9//7 5//7 6//7
f 2//8 9//8 10//8
f 4//9 8//9 2//9
f 2//10 8//10 9//10
f 8//11 4//11 5//11
f 5//12 4//12 1//12
f 11//13 12//13 13//13
f 13//14 12//14 14//14
f 15//15 13//15 16//15
f 16//16 13//16 17//16
f 15//17 11//17 13//17
f 18//18 15//18 19//18
f 19//19 15//19 16//19
f 14//20 19//20 20//20
f 12//21 18//21 14//21
f 14//22 18//22 19//22
f 12//23 11//23 18//23
f 11//24 15//24 18//24
f 21//25 22//25 23//25
f 23//26 22//26 24//26
f 25//27 23//27 26//27
f 26//28 23//28 27//28
f 25//29 21//29 23//29
f 28//30 25//30 29//30
f 29//31 25//31 26//31
f 24//32 29//32 30//32
f 22//33 28//33 24//33
f 24//34 28//34 29//34
f 25//35 28//35 21//35
f 28//36 22//36 21//36
f 31//37 32//37 33//37
f 33//38 32//38 34//38
f 35//39 33//39 36//39
f 36//40 33//40 37//40
f 35//41 31//41 33//41
f 38//42 35//42 39//42
f 39//43 35//43 36//43
f 34//44 39//44 40//44
f 32//45 38//45 34//45
f 34//46 38//46 39//46
f 32//47 31//47 38//47
f 31//48 35//48 38//48
f 41//49 42//49 43//49
f 41//50 44//50 42//50
f 45//51 46//51 47//51
f 45//52 43//52 46//52
f 48//53 41//53 45//53
f 45//54 41//54 43//54
f 49//55 48//55 50//55
f 50//56 48//56 45//56
f 42//57 51//57 52//57
f 42//58 50//58 51//58
f 44//59 49//59 42//59
f 42//60 49//60 50//60
f 49//61 44//61 48//61
f 48//62 44//62 41//62
f 53//63 54//63 55//63
f 55//64 54//64 56//64
f 57//65 58//65 59//65
f 57//66 55//66 58//66
f 60//67 53//67 57//67
f 57//68 53//68 55//68
f 61//69 60//69 62//69
f 62//70 60//70 57//70
f 56//71 63//71 64//71
f 56//72 62//72 63//72
f 54//73 61//73 56//73
f 56//74 61//74 62//74
f 61//75 54//75 60//75
f 60//76 54//76 53//76
f 27//77 65//77 66//77
f 23//78 65//78 27//78
f 67//79 2//79 68//79
f 68//80 2//80 10//80
f 7//81 24//81 30//81
f 3//82 24//82 7//82
f 37//83 69//83 70//83
f 33//84 69//84 37//84
f 71//85 14//85 72//85
f 72//86 14//86 20//86
f 17//87 34//87 40//87
f 13//88 34//88 17//88
f 73//89 57//89 74//89
f 74//90 57//90 59//90
f 51//91 75//91 76//91
f 50//92 75//92 51//92
f 62//93 45//93 63//93
f 63//94 45//94 47//94
f 47//95 46//95 64//95
f 47//96 64//96 63//96
f 58//97 77//97 78//97
f 55//98 77//98 58//98
f 79//99 42//99 80//99
f 80//100 42//100 52//100
f 46//101 56//101 64//101
f 43//102 56//102 46//102
f 69//103 79//103 70//103
f 70//104 79//104 80//104
f 77//105 71//105 78//105
f 78//106 71//106 72//106
f 55//107 14//107 77//107
f 77//108 14//108 71//108
f 56//109 13//109 55//109
f 55//110 13//110 14//110
f 43//111 34//111 56//111
f 56//112 34//112 13//112
f 79//113 33//113 42//113
f 42//114 33//114 43//114
f 43//115 33//115 34//115
f 79//116 69//116 33//116
f 75//117 67//117 76//117
f 76//118 67//118 68//118
f 65//119 73//119 66//119
f 66//120 73//120 74//120
f 23//121 57//121 65//121
f 65//122 57//122 73//122
f 24//123 62//123 23//123
f 23//124 62//124 57//124
f 3//125 45//125 24//125
f 24//126 45//126 62//126
f 2//127 50//127 3//127
f 67//128 50//128 2//128
f 3//129 50//129 45//129
f 67//130 75//130 50//130
f 81//131 82//131 83//131
f 81//132 84//132 82//132
f 84//133 85//133 82//133
f 84//134 86//134 85//134
f 86//135 87//135 85//135
f 86//136 88//136 87//136
f 88//137 83//137 87//137
f 88//138 81//138 83//138
f 19//139 84//139 72//139
f 20//140 19//140 72//140
f 78//141 72//141 84//141
f 16//142 84//142 19//142
f 74//143 78//143 84//143
f 59//144 58//144 78//144
f 59//145 78//145 74//145
f 40//146 16//146 17//146
f 40//147 39//147 16//147
f 81//148 66//148 74//148
f 81//149 74//149 84//149
f 86//150 39//150 36//150
f 86//151 16//151 39//151
f 86//152 84//152 16//152
f 26//153 27//153 66//153
f 26//154 66//154 81//154
f 29//155 26//155 81//155
f 70//156 36//156 37//156
f 70//157 86//157 36//157
f 6//158 7//158 30//158
f 6//159 30//159 29//159
f 76//160 80//160 52//160
f 76//161 52//161 51//161
f 68//162 10//162 9//162
f 88//163 9//163 6//163
f 88//164 29//164 81//164
f 88//165 6//165 29//165
f 88//166 68//166 9//166
f 88//167 86//167 70//167
f 88//168 70//168 80//168
f 88//169 80//169 76//169
f 88//170 76//170 68//170
f 85//171 83//171 82//171
f 85//172 87//172 83//172
