# Created by FreeCAD <http://www.freecad.org>
v 0.015000000 0.015000000 0.017000000
v 0.015000000 -0.015000000 0.050000000
v 0.015000000 -0.015000000 0.017000000
v 0.015000000 0.015000000 0.050000000
v -0.015000000 -0.015000000 0.050000000
v -0.015000000 0.015000000 0.050000000
v -0.015000000 -0.015000000 0.017000000
v -0.015000000 0.015000000 0.017000000
v -0.078000000 -0.015000000 0.017000000
v -0.078000000 0.015000000 0.017000000
v -0.078000000 -0.015000000 -0.050000000
v -0.078000000 0.015000000 -0.050000000
v -0.058000000 -0.015000000 -0.050000000
v -0.058000000 0.015000000 -0.050000000
v -0.058000000 -0.015000000 0.002000000
v -0.058000000 0.015000000 0.002000000
v -0.015000000 -0.015000000 0.002000000
v -0.015000000 0.015000000 0.002000000
v -0.015000000 -0.015000000 -0.050000000
v -0.015000000 0.015000000 -0.050000000
v 0.015000000 -0.015000000 -0.050000000
v 0.015000000 0.015000000 -0.050000000
v 0.015000000 -0.015000000 0.002000000
v 0.015000000 0.015000000 0.002000000
v 0.058000000 -0.015000000 0.002000000
v 0.058000000 0.015000000 0.002000000
v 0.058000000 -0.015000000 -0.050000000
v 0.058000000 0.015000000 -0.050000000
v 0.078000000 -0.015000000 -0.050000000
v 0.078000000 0.015000000 -0.050000000
v 0.078000000 -0.015000000 0.017000000
v 0.078000000 0.015000000 0.017000000
vn 1.000000 0.000000 0.000000
vn 1.000000 0.000000 -0.000000
vn 0.000000 0.000000 1.000000
vn 0.000000 0.000000 1.000000
vn -1.000000 -0.000000 0.000000
vn -1.000000 0.000000 -0.000000
vn 0.000000 0.000000 1.000000
vn 0.000000 0.000000 1.000000
vn -1.000000 -0.000000 0.000000
vn -1.000000 0.000000 -0.000000
vn 0.000000 0.000000 -1.000000
vn 0.000000 0.000000 -1.000000
vn 1.000000 0.000000 0.000000
vn 1.000000 0.000000 -0.000000
vn 0.000000 0.000000 -1.000000
vn 0.000000 0.000000 -1.000000
vn -1.000000 -0.000000 0.000000
vn -1.000000 0.000000 -0.000000
vn 0.000000 0.000000 -1.000000
vn 0.000000 0.000000 -1.000000
vn 1.000000 0.000000 0.000000
vn 1.000000 0.000000 -0.000000
vn 0.000000 0.000000 -1.000000
vn 0.000000 0.000000 -1.000000
vn -1.000000 -0.000000 0.000000
vn -1.000000 0.000000 -0.000000
vn 0.000000 0.000000 -1.000000
vn 0.000000 0.000000 -1.000000
vn 1.000000 0.000000 0.000000
vn 1.000000 0.000000 -0.000000
vn 0.000000 0.000000 1.000000
vn 0.000000 0.000000 1.000000
vn 0.000000 1.000000 0.000000
vn 0.000000 1.000000 0.000000
vn 0.000000 1.000000 0.000000
vn 0.000000 1.000000 0.000000
vn 0.000000 1.000000 0.000000
vn 0.000000 1.000000 0.000000
vn 0.000000 1.000000 0.000000
vn 0.000000 1.000000 0.000000
vn 0.000000 1.000000 0.000000
vn 0.000000 1.000000 0.000000
vn 0.000000 1.000000 0.000000
vn 0.000000 1.000000 0.000000
vn -0.000000 1.000000 0.000000
vn -0.000000 1.000000 0.000000
vn 0.000000 -1.000000 0.000000
vn 0.000000 -1.000000 0.000000
vn 0.000000 -1.000000 0.000000
vn 0.000000 -1.000000 0.000000
vn 0.000000 -1.000000 0.000000
vn 0.000000 -1.000000 0.000000
vn 0.000000 -1.000000 0.000000
vn 0.000000 -1.000000 0.000000
vn 0.000000 -1.000000 0.000000
vn 0.000000 -1.000000 0.000000
vn 0.000000 -1.000000 0.000000
vn 0.000000 -1.000000 0.000000
vn -0.000000 -1.000000 0.000000
vn -0.000000 -1.000000 0.000000
f 1//1 2//1 3//1
f 1//2 4//2 2//2
f 4//3 5//3 2//3
f 4//4 6//4 5//4
f 6//5 7//5 5//5
f 6//6 8//6 7//6
f 8//7 9//7 7//7
f 8//8 10//8 9//8
f 10//9 11//9 9//9
f 10//10 12//10 11//10
f 12//11 13//11 11//11
f 12//12 14//12 13//12
f 14//13 15//13 13//13
f 14//14 16//14 15//14
f 16//15 17//15 15//15
f 16//16 18//16 17//16
f 18//17 19//17 17//17
f 18//18 20//18 19//18
f 20//19 21//19 19//19
f 20//20 22//20 21//20
f 22//21 23//21 21//21
f 22//22 24//22 23//22
f 24//23 25//23 23//23
f 24//24 26//24 25//24
f 26//25 27//25 25//25
f 26//26 28//26 27//26
f 28//27 29//27 27//27
f 28//28 30//28 29//28
f 30//29 31//29 29//29
f 30//30 32//30 31//30
f 32//31 3//31 31//31
f 32//32 1//32 3//32
f 16//33 14//33 12//33
f 16//34 12//34 10//34
f 8//35 18//35 16//35
f 24//36 22//36 20//36
f 24//37 20//37 18//37
f 1//38 18//38 8//38
f 1//39 24//39 18//39
f 6//40 1//40 8//40
f 26//41 30//41 28//41
f 26//42 24//42 1//42
f 4//43 1//43 6//43
f 32//44 30//44 26//44
f 1//45 32//45 26//45
f 10//46 8//46 16//46
f 5//47 7//47 2//47
f 9//48 11//48 15//48
f 15//49 17//49 7//49
f 11//50 13//50 15//50
f 7//51 3//51 2//51
f 17//52 23//52 7//52
f 7//53 23//53 3//53
f 17//54 19//54 23//54
f 23//55 25//55 3//55
f 19//56 21//56 23//56
f 27//57 29//57 25//57
f 25//58 29//58 31//58
f 7//59 9//59 15//59
f 31//60 3//60 25//60
